<?xml version="1.0" standalone="no"?>
<!DOCTYPE svg PUBLIC "-//W3C//DTD SVG 1.1//EN" "http://www.w3.org/Graphics/SVG/1.1/DTD/svg11.dtd" >
<svg xmlns="http://www.w3.org/2000/svg">
<metadata></metadata>
<defs>
<font id="light_house_stencilregular" horiz-adv-x="1617" >
<font-face units-per-em="2048" ascent="1638" descent="-410" />
<missing-glyph horiz-adv-x="614" />
<glyph horiz-adv-x="2048" />
<glyph horiz-adv-x="2048" />
<glyph unicode="&#xd;" horiz-adv-x="2048" />
<glyph unicode=" "  horiz-adv-x="614" />
<glyph unicode="&#x09;" horiz-adv-x="614" />
<glyph unicode="&#xa0;" horiz-adv-x="614" />
<glyph unicode="!" horiz-adv-x="516" d="M190 0v174h136v-174h-136zM199 1290v144h118v-144l-30 -915h-58z" />
<glyph unicode="&#x22;" horiz-adv-x="839" d="M139 913l72 521h133v-11l-145 -510h-60zM508 913l72 521h133v-11l-146 -510h-59z" />
<glyph unicode="#" horiz-adv-x="1433" d="M100 383v96h265l84 484h-267v96h283l63 375h99l-64 -375h424l64 375h98l-64 -375h246v-96h-262l-84 -484h264v-96h-280l-66 -383h-98l65 383h-424l-65 -383h-98l65 383h-248zM463 479h424l84 484h-424z" />
<glyph unicode="$" horiz-adv-x="1294" d="M135 217l66 80q146 -136 299 -182v-95q-192 44 -365 197zM190 1047v4q0 127 86 222.5t228 127.5v-94q-98 -29 -154.5 -96t-56.5 -152v-4q0 -52 14 -91t49 -75.5t99 -65t161 -51.5v803h95v-823q229 -49 330.5 -138.5t101.5 -238.5v-4q0 -134 -87 -229t-233 -128v92 q101 29 159 98t58 158v5q0 54 -14 93.5t-50.5 75t-101 62.5t-163.5 49v-831h-95v852q-227 51 -326.5 139.5t-99.5 239.5zM827 1292v99q133 -33 275 -146l-68 -80q-105 92 -207 127z" />
<glyph unicode="%" horiz-adv-x="1687" d="M113 1079v4q0 97 39 180.5t112.5 135t165.5 51.5q91 0 163.5 -51.5t111 -134t38.5 -177.5v-4q0 -149 -89 -257.5t-228 -108.5q-137 0 -225 107.5t-88 254.5zM219 1083q0 -120 61.5 -199t149.5 -79q90 0 148.5 78.5t58.5 195.5v4q0 119 -62 199t-149 80q-89 0 -148 -80.5 t-59 -194.5v-4zM262 0l1053 1434h110l-1052 -1434h-111zM944 346v4q0 149 89.5 258t228.5 109q91 0 163.5 -51.5t111 -134t38.5 -177.5v-4q0 -149 -89.5 -257.5t-228.5 -108.5q-137 0 -225 107.5t-88 254.5zM1051 350q0 -120 61.5 -199t149.5 -79q90 0 148 78.5t58 195.5v4 q0 119 -62 199t-149 80q-89 0 -147.5 -80t-58.5 -195v-4z" />
<glyph unicode="&#x26;" horiz-adv-x="1425" d="M92 362v5q0 140 95 244.5t272 170.5q-84 95 -121 167t-37 157v4q0 120 78.5 206.5t204.5 108.5v-92q-80 -20 -129 -80t-49 -139v-4q0 -68 34.5 -129.5t128.5 -161.5q305 95 305 297v4q0 73 -41 130t-108 79v94q111 -22 183.5 -106t72.5 -193v-4q0 -246 -348 -366 l371 -383q91 127 180 344h110q-137 -302 -221 -414l291 -303h-145l-213 217q-188 -219 -422 -242v93q187 22 356 219l-420 432q-161 -55 -241 -146t-80 -200v-4q0 -108 66.5 -189t176.5 -106v-95q-156 25 -253 130t-97 255z" />
<glyph unicode="'" horiz-adv-x="471" d="M139 913l72 521h133v-11l-145 -510h-60z" />
<glyph unicode="(" horiz-adv-x="880" d="M145 588q0 274 147 497t421 379l43 -67q-504 -310 -504 -809t504 -809l-43 -68q-274 156 -421 379t-147 498z" />
<glyph unicode=")" horiz-adv-x="880" d="M125 -221q504 310 504 809t-504 809l43 67q274 -156 420.5 -378.5t146.5 -497.5t-146.5 -498t-420.5 -379z" />
<glyph unicode="*" horiz-adv-x="880" d="M154 1020l241 115l-241 114l45 76l217 -147l-19 260h86l-18 -260l217 147l45 -76l-242 -114l242 -115l-45 -76l-217 148l18 -261h-86l19 261l-217 -148z" />
<glyph unicode="+" horiz-adv-x="1310" d="M160 672v98h444v440h103v-440h444v-98h-444v-441h-103v441h-444z" />
<glyph unicode="," horiz-adv-x="471" d="M109 -168q66 34 92 72t22 96h-55v174h135v-151q0 -95 -39 -151t-131 -91z" />
<glyph unicode="-" horiz-adv-x="835" d="M143 551v115h549v-115h-549z" />
<glyph unicode="." horiz-adv-x="471" d="M168 0v174h135v-174h-135z" />
<glyph unicode="/" horiz-adv-x="1024" d="M-37 -262l967 1896h100l-967 -1896h-100z" />
<glyph unicode="0" horiz-adv-x="1454" d="M133 709v4q0 138 37.5 264.5t104.5 225t167.5 162.5t219.5 77v-96q-126 -17 -223 -109t-147 -228t-50 -292v-4q0 -154 50.5 -290.5t147.5 -230t222 -112.5v-96q-160 16 -281.5 119t-184.5 261t-63 345zM774 -16v96q127 17 224.5 109.5t147.5 228.5t50 291v4 q0 155 -50.5 291t-148 229.5t-223.5 112.5v96q160 -16 282 -119t185.5 -261.5t63.5 -344.5v-4q0 -138 -37.5 -264.5t-105 -225t-168.5 -162.5t-220 -77z" />
<glyph unicode="1" horiz-adv-x="870" d="M160 1153v107l301 124v-106zM573 6v723v701h105v-1424h-105z" />
<glyph unicode="2" horiz-adv-x="1208" d="M111 6v100h165h801v-100h-966zM139 1137q92 140 192.5 214t248.5 87v-92q-109 -13 -194 -77t-169 -184zM260 219l379 342q175 162 244 267t69 216q0 117 -74 197t-186 100v97q162 -15 266.5 -123.5t104.5 -261.5v-4q0 -73 -19 -135.5t-66 -129.5t-108 -130.5t-161 -155.5 l-308 -279h-141z" />
<glyph unicode="3" horiz-adv-x="1249" d="M141 242l82 67q157 -203 383 -223v-96q-285 20 -465 252zM215 1327v98h885v-73l-563 -645h-60v67l479 553h-741zM680 700l76 86q165 -36 265.5 -132.5t100.5 -250.5v-4q0 -165 -116.5 -277.5t-286.5 -131.5v96q126 15 210.5 100.5t84.5 208.5v4q0 123 -90 201t-244 100z " />
<glyph unicode="4" horiz-adv-x="1359" d="M92 350v80l686 850v-145l-559 -693h559v-92h-686zM893 6v1424h102v-988h230v-92h-230v-344h-102z" />
<glyph unicode="5" horiz-adv-x="1239" d="M125 219l76 76q172 -176 362 -205v-96q-122 13 -236 74t-202 151zM217 737v693h836v-101h-738v-528v-64h-98zM430 752v94q98 31 199 31q135 0 245.5 -53.5t175 -151.5t64.5 -221v-5q0 -186 -122 -310.5t-316 -141.5v94q147 17 238.5 116t91.5 238v4q0 148 -109 242 t-281 94q-94 0 -186 -30z" />
<glyph unicode="6" horiz-adv-x="1314" d="M147 676v4q0 195 59 358.5t171 270t260 131.5v-97q-182 -37 -287 -234.5t-98 -490.5q154 263 442 263q128 0 239.5 -53.5t180 -153t68.5 -221.5v-4q0 -183 -122 -312t-310 -151v96q146 18 234.5 120t88.5 242v5q0 146 -108.5 242.5t-276.5 96.5q-167 0 -280 -107 t-113 -243v-4q0 -139 96 -237t246 -115v-96q-187 15 -311 139q-93 93 -136 217t-43 334zM750 1350v96q106 -4 195.5 -45t184.5 -119l-65 -80q-78 69 -153.5 105.5t-161.5 42.5z" />
<glyph unicode="7" horiz-adv-x="1202" d="M145 1319v100h938v-76v-24h-116h-822zM344 6l586 1198h106l-577 -1198h-115z" />
<glyph unicode="8" horiz-adv-x="1290" d="M121 383v4q0 120 86.5 212t226.5 138q-116 46 -191 129.5t-75 200.5v4q0 147 124 249t298 118v-95q-135 -15 -223 -90.5t-88 -181.5v-4q0 -128 106.5 -209.5t259.5 -81.5q154 0 261.5 81.5t107.5 209.5v4q0 106 -88.5 181.5t-223.5 90.5v95q174 -16 297 -118t123 -249v-4 q0 -118 -74 -201t-190 -129q140 -46 226.5 -138t86.5 -212v-4q0 -162 -132.5 -271.5t-336.5 -123.5v94q165 13 263 98t98 199v4q0 131 -121.5 217t-296.5 86q-174 0 -295 -86.5t-121 -216.5v-4q0 -114 98 -199t263 -98v-94q-205 14 -337 123t-132 272z" />
<glyph unicode="9" horiz-adv-x="1314" d="M139 965v4q0 185 122.5 319t316.5 154v-94q-149 -17 -239.5 -124.5t-90.5 -250.5v-4q0 -148 108 -245t275 -97q88 0 163.5 31t125.5 81.5t78 114.5t28 131v4q0 135 -93.5 235t-242.5 122v96q180 -17 305 -142q87 -87 133 -217.5t46 -332.5v-5q0 -298 -135 -505.5 t-349 -249.5v98q179 43 284 240t95 477q-154 -273 -442 -273q-212 0 -350 125t-138 308zM170 158l68 80q174 -154 340 -162v-94q-115 3 -213 49t-195 127z" />
<glyph unicode=":" horiz-adv-x="491" d="M178 0v174h135v-174h-135zM178 870v174h135v-174h-135z" />
<glyph unicode=";" horiz-adv-x="491" d="M119 -168q66 34 92 72t22 96h-55v174h135v-151q0 -95 -39 -151t-131 -91zM178 870v174h135v-174h-135z" />
<glyph unicode="&#x3c;" horiz-adv-x="1310" d="M176 670v82v26l950 -491v-111zM262 836l866 448v-110l-763 -392z" />
<glyph unicode="=" horiz-adv-x="1310" d="M190 438v105h930v-105h-930zM190 899v105h930v-105h-930z" />
<glyph unicode="&#x3e;" horiz-adv-x="1310" d="M176 176v111l764 391l102 -51zM178 1174v110l950 -493v-82v-25z" />
<glyph unicode="?" horiz-adv-x="1093" d="M70 1208q62 77 126.5 128.5t153 83.5t193.5 32q198 0 321 -115.5t123 -283.5v-4q0 -92 -34 -167.5t-94 -126t-137.5 -82t-168.5 -42.5l-18 -256h-66l-27 332l11 10q201 4 313.5 91t112.5 236v5q0 130 -93.5 219.5t-246.5 89.5q-225 0 -396 -211zM434 0v174h135v-174h-135 z" />
<glyph unicode="@" horiz-adv-x="2007" d="M123 565q0 175 66 335.5t179 280.5t271 195t334 84v-65q-166 -8 -311.5 -77.5t-248 -180.5t-161.5 -260t-59 -312q0 -217 98 -400t277 -296.5t405 -128.5v-66q-241 15 -436.5 138.5t-304.5 322t-109 430.5zM549 518q0 106 42.5 202.5t110 163t153 105.5t171.5 39 q142 0 236 -90l-21 -117q-36 51 -92.5 80t-122.5 29q-144 0 -257.5 -118.5t-113.5 -285.5q0 -128 75.5 -202t197.5 -74q134 0 243 109t123 251l68 389l96 -12l-76 -432q-18 -108 -18 -147q0 -87 48 -134t136 -47q56 0 107 25t94 74.5t68.5 133.5t25.5 191q0 136 -60 267.5 t-162 235t-250 170t-312 73.5v65q177 -7 336.5 -76t272.5 -178.5t179 -255t66 -301.5q0 -101 -22 -185.5t-59 -141t-85.5 -96t-100.5 -57t-106 -17.5q-106 0 -178.5 50.5t-99.5 139.5q-72 -89 -155.5 -139.5t-195.5 -50.5q-152 0 -257 102t-105 262zM1059 -262 q140 3 255.5 37t233.5 102l31 -51q-245 -149 -520 -154v66z" />
<glyph unicode="A" horiz-adv-x="1599" d="M80 0l659 1423h101l657 -1423h-115l-180 395h-667l45 97h579l-373 817l-598 -1309h-108z" />
<glyph unicode="B" horiz-adv-x="1478" d="M201 4v1428h106v-1428h-106zM465 4v98h360q184 0 292 78t108 213v4q0 133 -112 205t-322 72h-326v98h313q165 0 266 77.5t101 215.5v4q0 120 -94.5 192t-262.5 72h-323v99h326q243 0 370 -127q92 -92 92 -226v-4q0 -69 -21 -126.5t-57 -98t-76 -67.5t-87 -46 q143 -38 232 -120.5t89 -219.5v-4q0 -179 -140 -284t-372 -105h-356z" />
<glyph unicode="C" horiz-adv-x="1583" d="M137 700v5q0 289 179.5 503.5t457.5 251.5v-100q-229 -35 -376.5 -217.5t-147.5 -433.5v-4q0 -252 148 -435.5t376 -220.5v-102q-184 23 -329.5 127.5t-226.5 268.5t-81 357zM928 41q133 10 240.5 66.5t215.5 162.5l74 -71q-118 -117 -243 -181.5t-287 -74.5v98z M928 1366v100q163 -8 283 -67t239 -168l-80 -80q-97 95 -202 150t-240 65z" />
<glyph unicode="D" horiz-adv-x="1558" d="M186 -2v1429h101v-722v-707h-101zM444 -2v98h218q146 0 268.5 48t205.5 131t129 195t46 239v4q0 170 -78.5 309.5t-228 223t-342.5 83.5h-218v98h218q165 0 307.5 -55t241 -149.5t154.5 -225.5t56 -280v-4q0 -149 -56 -280.5t-154.5 -227.5t-241 -151.5t-307.5 -55.5 h-218z" />
<glyph unicode="E" horiz-adv-x="1372" d="M205 -2v1429h106v-757v-672h-106zM473 -2v98h760v-98h-389h-371zM473 670v98h657v-98h-319h-338zM473 1329v98h750v-98h-344h-406z" />
<glyph unicode="F" horiz-adv-x="1343" d="M203 -2v1429h106v-684v-745h-106zM467 645v98h649v-98h-334h-315zM467 1329v98h741v-98h-368h-373z" />
<glyph unicode="G" horiz-adv-x="1605" d="M143 715v4q0 176 72.5 332.5t210 264t315.5 134.5v-96q-143 -26 -254.5 -117.5t-172 -225.5t-60.5 -288v-4q0 -249 130 -421.5t357 -211.5v-96q-184 26 -321 129.5t-207 257.5t-70 338zM883 -18v92q126 4 242.5 50t195.5 114v409h-438v98h540v-550q-102 -91 -241.5 -150 t-298.5 -63zM883 1360v96q153 -4 267.5 -50t221.5 -136l-69 -80q-87 77 -186 120.5t-234 49.5z" />
<glyph unicode="H" horiz-adv-x="1556" d="M223 0v1427h103v-698v-729h-103zM481 670v98h762v659h107v-1427h-107v670h-762z" />
<glyph unicode="I" horiz-adv-x="561" d="M227 0v1434h107v-1434h-107z" />
<glyph unicode="J" horiz-adv-x="1124" d="M86 240l88 55q61 -104 130 -158.5t167 -64.5v-97q-246 19 -385 265zM614 -18v100q101 29 161.5 124t60.5 245v970h106v-962q0 -242 -131 -373q-79 -79 -197 -104z" />
<glyph unicode="K" horiz-adv-x="1464" d="M160 0v1430h106v-934v-496h-106zM410 510v129l768 791h143l-625 -631l652 -799h-140l-587 723z" />
<glyph unicode="L" horiz-adv-x="1267" d="M225 4v1428h103v-732v-696h-103zM483 4v98h344h342v-98h-686z" />
<glyph unicode="M" horiz-adv-x="1777" d="M229 8v1419h101v-708v-711h-101zM457 1049v174l436 -633l434 633v-174l-434 -629zM1468 8v1419h101v-708v-711h-101z" />
<glyph unicode="N" d="M201 1423h118l1125 -1419h-121zM209 4v1167l100 -129v-497v-541h-100zM1335 387v524v512h103v-1165z" />
<glyph unicode="O" horiz-adv-x="1724" d="M147 713v4q0 183 77.5 342t223.5 265t334 126v-96q-152 -19 -272.5 -107.5t-187 -226.5t-66.5 -299v-4q0 -244 148 -424t378 -211v-98q-189 20 -335 125t-223 263t-77 341zM924 -16v94q158 15 283.5 103.5t194 227.5t68.5 304v4q0 251 -153 432.5t-393 206.5v96 q194 -14 345.5 -118.5t231.5 -265t80 -347.5q1 -1 1 -2t-1 -2q0 -138 -47.5 -266t-131.5 -227.5t-208.5 -164t-269.5 -75.5z" />
<glyph unicode="P" horiz-adv-x="1368" d="M188 0v1427h105v-796v-631h-105zM457 532v99h227q200 0 322 95.5t122 254.5v4q0 165 -117 254.5t-315 89.5h-239v98h248q238 0 384 -116.5t146 -319.5v-4q0 -110 -44.5 -197.5t-122 -143t-177 -85t-213.5 -29.5h-221z" />
<glyph unicode="Q" horiz-adv-x="1740" d="M160 711v4q0 145 52.5 279t144.5 235.5t228 162t294 60.5t293 -60t226.5 -160.5t143 -233.5t51.5 -279q2 -2 0 -4q0 -209 -100 -383l-82 71q72 141 72 308v4q0 175 -78 322t-218.5 234t-312.5 87q-129 0 -242.5 -50.5t-193 -136.5t-125 -203.5t-45.5 -248.5v-4 q0 -175 78.5 -321.5t219.5 -233t313 -86.5q136 0 251 53l80 -70q-154 -80 -336 -80q-158 0 -293 60t-226.5 161t-143 234t-51.5 279zM983 446l68 76l555 -485l-68 -74l-281 246z" />
<glyph unicode="R" horiz-adv-x="1480" d="M203 4v1428h104v-742v-686h-104zM471 596v94h317q184 0 300 88t116 240v4q0 144 -108 227.5t-301 83.5h-324v99h330q129 0 232 -38t169 -104q51 -51 80 -120.5t29 -143.5v-4q0 -174 -115 -279t-303 -129l471 -610h-135l-455 592h-4h-299z" />
<glyph unicode="S" horiz-adv-x="1310" d="M135 213l68 78q102 -92 199 -142t212 -63v-98q-258 25 -479 225zM190 1071v4q0 152 120 258.5t304 116.5v-96q-142 -7 -229.5 -84t-87.5 -185v-4q0 -59 17.5 -102.5t63.5 -82.5t128 -69.5t207 -56.5q248 -51 358.5 -143.5t110.5 -249.5v-4q0 -162 -118.5 -268.5 t-307.5 -118.5v96q144 10 231.5 87.5t87.5 192.5v5q0 80 -32.5 133t-122 96t-248.5 74q-257 53 -369.5 146.5t-112.5 254.5zM756 1348v98q110 -13 200 -53.5t183 -114.5l-68 -84q-144 127 -315 154z" />
<glyph unicode="T" horiz-adv-x="1327" d="M119 1329v96h358v-96h-358zM618 0v1425h105v-96v-1329h-105zM868 1329v96h353v-96h-353z" />
<glyph unicode="U" horiz-adv-x="1556" d="M190 592v833h107v-823q0 -237 115 -375t321 -153v-97q-246 14 -394.5 174.5t-148.5 440.5zM846 -20v96q193 21 300 152.5t107 363.5v833h107v-821q0 -279 -139 -440.5t-375 -183.5z" />
<glyph unicode="V" horiz-adv-x="1490" d="M78 1432h115l622 -1436h-110zM834 330l477 1102h116l-542 -1219z" />
<glyph unicode="W" horiz-adv-x="2256" d="M119 1432h119l501 -1436h-112zM764 403l340 1033h82l379 -1155l94 -285h-100l-418 1239l-328 -971zM1686 403l366 1029h109l-426 -1178z" />
<glyph unicode="X" horiz-adv-x="1478" d="M113 0l497 635l60 -74l-432 -561h-125zM133 1425h127l1116 -1425h-127zM821 895l410 530h125l-475 -606z" />
<glyph unicode="Y" horiz-adv-x="1466" d="M70 1430h133l583 -838v-23v-565h-106v563zM825 797l447 633h127l-514 -717z" />
<glyph unicode="Z" horiz-adv-x="1409" d="M90 2l1092 1425h133l-1098 -1425h-127zM147 1333v94h816l-76 -94h-740zM406 2l73 94h846v-94h-919z" />
<glyph unicode="[" horiz-adv-x="880" d="M201 -266v1700h559v-78h-465v-1544h465v-78h-559z" />
<glyph unicode="\" horiz-adv-x="1024" d="M-6 1634h100l967 -1896h-100z" />
<glyph unicode="]" horiz-adv-x="880" d="M121 -188h465v1544h-465v78h559v-1700h-559v78z" />
<glyph unicode="^" horiz-adv-x="1024" d="M143 1010l324 430h90l324 -430h-109l-262 342l-262 -342h-105z" />
<glyph unicode="_" horiz-adv-x="1228" d="M-4 -238h1237v-90h-1237v90z" />
<glyph unicode="`" horiz-adv-x="1024" d="M322 1430l124 61l181 -272h-86z" />
<glyph unicode="a" d="M80 0l659 1423h101l657 -1423h-115l-180 395h-667l45 97h579l-373 817l-598 -1309h-108z" />
<glyph unicode="b" horiz-adv-x="1478" d="M199 4v1428h106v-1428h-106zM463 4v98h360q184 0 292 78t108 213v4q0 133 -112.5 205t-322.5 72h-325v98h313q165 0 266 77.5t101 215.5v4q0 120 -94.5 192t-262.5 72h-323v99h325q244 0 371 -127q92 -92 92 -226v-4q0 -69 -21 -126.5t-57 -98t-76 -67.5t-87 -46 q143 -38 232 -120.5t89 -219.5v-4q0 -179 -140 -284t-372 -105h-356z" />
<glyph unicode="c" horiz-adv-x="1583" d="M137 700v5q0 289 179.5 503.5t457.5 251.5v-100q-229 -35 -376.5 -217.5t-147.5 -433.5v-4q0 -252 148 -435.5t376 -220.5v-102q-184 23 -329.5 127.5t-226.5 268.5t-81 357zM928 41q133 10 240.5 66.5t215.5 162.5l74 -71q-118 -117 -243 -181.5t-287 -74.5v98z M928 1366v100q163 -8 283 -67t239 -168l-80 -80q-97 95 -202 150t-240 65z" />
<glyph unicode="d" horiz-adv-x="1558" d="M186 -2v1429h101v-722v-707h-101zM444 -2v98h218q146 0 268.5 48t205.5 131t129 195t46 239v4q0 170 -78.5 309.5t-228 223t-342.5 83.5h-218v98h218q165 0 307.5 -55t241 -149.5t154.5 -225.5t56 -280v-4q0 -149 -56 -280.5t-154.5 -227.5t-241 -151.5t-307.5 -55.5 h-218z" />
<glyph unicode="e" horiz-adv-x="1372" d="M205 -2v1429h106v-757v-672h-106zM473 -2v98h760v-98h-389h-371zM473 670v98h657v-98h-319h-338zM473 1329v98h750v-98h-344h-406z" />
<glyph unicode="f" horiz-adv-x="1343" d="M203 -2v1429h106v-684v-745h-106zM467 645v98h649v-98h-334h-315zM467 1329v98h741v-98h-368h-373z" />
<glyph unicode="g" horiz-adv-x="1605" d="M143 715v4q0 176 72.5 332.5t210 264t315.5 134.5v-96q-143 -26 -254.5 -117.5t-172 -225.5t-60.5 -288v-4q0 -249 130 -421.5t357 -211.5v-96q-184 26 -321 129.5t-207 257.5t-70 338zM883 -18v92q126 4 242.5 50t195.5 114v409h-438v98h540v-550q-102 -91 -241.5 -150 t-298.5 -63zM883 1360v96q153 -4 267.5 -50t221.5 -136l-69 -80q-87 77 -186 120.5t-234 49.5z" />
<glyph unicode="h" horiz-adv-x="1556" d="M223 0v1427h103v-698v-729h-103zM481 670v98h762v659h107v-1427h-107v670h-762z" />
<glyph unicode="i" horiz-adv-x="561" d="M227 0v1434h107v-1434h-107z" />
<glyph unicode="j" horiz-adv-x="1124" d="M86 240l88 55q61 -104 130 -158.5t167 -64.5v-97q-246 19 -385 265zM614 -18v100q101 29 161.5 124t60.5 245v970h106v-962q0 -242 -131 -373q-79 -79 -197 -104z" />
<glyph unicode="k" horiz-adv-x="1464" d="M160 0v1430h106v-934v-496h-106zM410 510v129l768 791h143l-625 -631l652 -799h-140l-587 723z" />
<glyph unicode="l" horiz-adv-x="1267" d="M225 4v1428h103v-732v-696h-103zM483 4v98h344h342v-98h-686z" />
<glyph unicode="m" horiz-adv-x="1777" d="M229 8v1419h101v-708v-711h-101zM457 1049v174l436 -633l434 633v-174l-434 -629zM1468 8v1419h101v-708v-711h-101z" />
<glyph unicode="n" d="M201 1423h118l1125 -1419h-121zM209 4v1167l100 -129v-497v-541h-100zM1335 387v524v512h103v-1165z" />
<glyph unicode="o" horiz-adv-x="1740" d="M147 713v4q0 183 77.5 342t223.5 265t334 126v-96q-152 -19 -272.5 -107.5t-187 -226.5t-66.5 -299v-4q0 -244 148 -424t378 -211v-98q-189 20 -335 125t-223 263t-77 341zM924 -16v94q158 15 283.5 103.5t194 227.5t68.5 304v4q0 251 -153 432.5t-393 206.5v96 q194 -14 345.5 -118.5t231.5 -265t80 -347.5q1 -1 1 -2t-1 -2q0 -138 -47.5 -266t-131.5 -227.5t-208.5 -164t-269.5 -75.5z" />
<glyph unicode="p" horiz-adv-x="1368" d="M188 0v1427h105v-796v-631h-105zM457 532v99h227q200 0 322 95.5t122 254.5v4q0 165 -117 254.5t-315 89.5h-239v98h248q238 0 384 -116.5t146 -319.5v-4q0 -110 -44.5 -197.5t-122 -143t-177 -85t-213.5 -29.5h-221z" />
<glyph unicode="q" horiz-adv-x="1740" d="M160 711v4q0 145 52.5 279t144.5 235.5t228 162t294 60.5t293 -60t226.5 -160.5t143 -233.5t51.5 -279q2 -2 0 -4q0 -209 -100 -383l-82 71q72 141 72 308v4q0 175 -78 322t-218.5 234t-312.5 87q-129 0 -242.5 -50.5t-193 -136.5t-125 -203.5t-45.5 -248.5v-4 q0 -175 78.5 -321.5t219.5 -233t313 -86.5q136 0 251 53l80 -70q-154 -80 -336 -80q-158 0 -293 60t-226.5 161t-143 234t-51.5 279zM983 446l68 76l555 -485l-68 -74l-281 246z" />
<glyph unicode="r" horiz-adv-x="1480" d="M203 4v1428h104v-742v-686h-104zM471 596v94h317q184 0 300 88t116 240v4q0 144 -108 227.5t-301 83.5h-324v99h330q129 0 232 -38t169 -104q51 -51 80 -120.5t29 -143.5v-4q0 -174 -115 -279t-303 -129l471 -610h-135l-455 592h-4h-299z" />
<glyph unicode="s" horiz-adv-x="1310" d="M135 213l68 78q102 -92 199 -142t212 -63v-98q-258 25 -479 225zM190 1071v4q0 152 120 258.5t304 116.5v-96q-142 -7 -229.5 -84t-87.5 -185v-4q0 -59 17.5 -102.5t63.5 -82.5t128 -69.5t207 -56.5q248 -51 358.5 -143.5t110.5 -249.5v-4q0 -162 -118.5 -268.5 t-307.5 -118.5v96q144 10 231.5 87.5t87.5 192.5v5q0 80 -32.5 133t-122 96t-248.5 74q-257 53 -369.5 146.5t-112.5 254.5zM756 1348v98q110 -13 200 -53.5t183 -114.5l-68 -84q-144 127 -315 154z" />
<glyph unicode="t" horiz-adv-x="1327" d="M119 1329v96h358v-96h-358zM618 0v1425h105v-96v-1329h-105zM868 1329v96h353v-96h-353z" />
<glyph unicode="u" horiz-adv-x="1556" d="M190 592v833h107v-823q0 -237 115 -375t321 -153v-97q-246 14 -394.5 174.5t-148.5 440.5zM846 -20v96q193 21 300 152.5t107 363.5v833h107v-821q0 -279 -139 -440.5t-375 -183.5z" />
<glyph unicode="v" horiz-adv-x="1536" d="M106 1432h115l623 -1436h-111zM862 330l477 1102h117l-543 -1219z" />
<glyph unicode="w" horiz-adv-x="2256" d="M119 1432h119l501 -1436h-112zM764 403l340 1033h82l379 -1155l94 -285h-100l-418 1239l-328 -971zM1686 403l366 1029h109l-426 -1178z" />
<glyph unicode="x" horiz-adv-x="1478" d="M113 0l497 635l60 -74l-432 -561h-125zM133 1425h127l1116 -1425h-127zM821 895l410 530h125l-475 -606z" />
<glyph unicode="y" horiz-adv-x="1466" d="M70 1430h133l583 -838v-23v-565h-106v563zM825 797l447 633h127l-514 -717z" />
<glyph unicode="z" horiz-adv-x="1409" d="M90 2l1092 1425h133l-1098 -1425h-127zM147 1333v94h816l-76 -94h-740zM406 2l73 94h846v-94h-919z" />
<glyph unicode="{" horiz-adv-x="983" d="M121 549v78h53q137 0 191.5 65.5t54.5 194.5v162q0 87 16.5 146.5t61.5 113.5t132 91.5t222 63.5l14 -65q-79 -20 -134.5 -39.5t-94.5 -44.5t-61.5 -49.5t-35 -61.5t-16.5 -74t-4 -94v-153q0 -129 -54 -196t-159 -99q110 -36 161.5 -100.5t51.5 -194.5v-154 q0 -57 4 -93.5t16.5 -74t35 -61.5t61.5 -49t94.5 -44.5t134.5 -39.5l-14 -66q-109 21 -186 50.5t-124.5 64.5t-75 83.5t-37 98.5t-9.5 119v162q0 129 -54.5 194.5t-191.5 65.5h-53z" />
<glyph unicode="|" horiz-adv-x="585" d="M248 -262v1896h90v-1896h-90z" />
<glyph unicode="}" horiz-adv-x="983" d="M117 -223q79 20 134.5 39.5t94.5 44.5t61.5 49t35 61.5t16.5 74t4 93.5v154q0 129 54 196t159 99q-110 36 -161.5 100.5t-51.5 194.5v153q0 57 -4 94t-16.5 74t-35 61.5t-61.5 49.5t-94.5 44.5t-134.5 39.5l14 65q135 -26 222 -63.5t132 -91.5t61.5 -113.5t16.5 -146.5 v-162q0 -129 54.5 -194.5t191.5 -65.5h53v-78h-53q-137 0 -191.5 -65.5t-54.5 -194.5v-162q0 -69 -9.5 -119t-37 -98.5t-75 -83.5t-124.5 -64.5t-186 -50.5z" />
<glyph unicode="~" horiz-adv-x="942" d="M168 514q28 107 68 149t104 42q40 0 134 -42t128 -42q36 0 58 21.5t45 80.5l69 -18q-28 -107 -68 -149t-104 -42q-40 0 -134 42t-128 42q-36 0 -57 -21.5t-45 -80.5z" />
<glyph unicode="&#xa2;" horiz-adv-x="1189" d="M127 723v4q0 145 70 270.5t193 201t269 75.5h31l33 172h102l-37 -186q151 -37 289 -179l-71 -73q-59 61 -116 100.5t-126 56.5l-170 -884q40 -7 72 -7q193 0 350 175l69 -62q-87 -99 -188.5 -153t-237.5 -54q-39 0 -79 6l-39 -198h-103l45 223q-159 56 -257.5 197.5 t-98.5 314.5zM236 727q0 -143 75 -257.5t197 -164.5l168 875h-19q-178 0 -299.5 -130.5t-121.5 -318.5v-4z" />
<glyph unicode="&#xa3;" horiz-adv-x="1318" d="M129 -4v96h176v445h105v-445h766v-96h-1047zM129 621v96h891v-96h-715h-176zM305 799v162q0 237 133 370q102 102 262 117v-96q-114 -12 -188 -86q-102 -102 -102 -303v-164h-105zM809 1348v98q121 -11 208 -66t159 -147l-82 -64q-64 78 -129.5 123t-155.5 56z" />
<glyph unicode="&#xa5;" horiz-adv-x="1404" d="M66 1434h129l510 -764l512 764h122l-551 -793h402v-92h-436v-201h436v-92h-436v-256h-103v256h-436v92h436v201h-436v92h399z" />
<glyph unicode="&#xa7;" horiz-adv-x="1294" d="M133 743v5q0 90 82 152t221 79q-82 36 -129 91.5t-47 123.5v4q0 115 99 185.5t262 70.5q133 0 255 -52.5t209 -141.5l-77 -74q-75 76 -177.5 122t-220.5 46q-116 0 -176.5 -44t-60.5 -114v-4q0 -67 84 -117t291 -100q227 -55 320 -120t93 -165v-4q0 -90 -82 -152 t-221 -79q82 -36 129 -91.5t47 -123.5v-4q0 -116 -98.5 -186t-261.5 -70q-133 0 -255.5 52.5t-209.5 141.5l78 74q75 -76 177 -122t220 -46q116 0 177 44t61 114v4q0 67 -84 117t-291 100q-228 55 -321 119.5t-93 164.5zM240 752q0 -40 26 -71.5t98.5 -65.5t196.5 -64 q127 -33 230 -33q116 0 190 48t74 112v4q0 40 -26 71.5t-99 65.5t-197 64q-125 32 -229 32q-116 0 -190 -47.5t-74 -111.5v-4z" />
<glyph unicode="&#xa8;" horiz-adv-x="1024" d="M274 1219v163h142v-163h-142zM608 1219v163h142v-163h-142z" />
<glyph unicode="&#xa9;" horiz-adv-x="1699" d="M109 713v4q0 149 58 285.5t157 236.5t237 159.5t291 59.5t290.5 -59t235.5 -158t155.5 -235t57.5 -285v-4q0 -149 -58 -285.5t-157 -237t-237 -160t-291 -59.5t-290.5 59t-235.5 158.5t-155.5 235.5t-57.5 285zM170 713q0 -186 88 -341.5t244 -247t346 -91.5 q191 0 348 92.5t245.5 249t88.5 342.5v4q0 186 -88 341.5t-244 247t-346 91.5q-191 0 -348 -92.5t-245.5 -249t-88.5 -342.5v-4zM485 725v4q0 158 109 272.5t266 114.5q92 0 158 -32t131 -93l-62 -63q-110 106 -229 106q-120 0 -201.5 -88.5t-81.5 -214.5v-4 q0 -125 83.5 -215t201.5 -90q71 0 124.5 25.5t111.5 80.5l57 -57q-67 -65 -134.5 -98t-160.5 -33q-157 0 -265 113t-108 272z" />
<glyph unicode="&#xad;" horiz-adv-x="835" d="M143 551v115h549v-115h-549z" />
<glyph unicode="&#xae;" horiz-adv-x="1699" d="M109 713v4q0 149 58 285.5t157 236.5t237 159.5t291 59.5t290.5 -59t235.5 -158t155.5 -235t57.5 -285v-4q0 -149 -58 -285.5t-157 -237t-237 -160t-291 -59.5t-290.5 59t-235.5 158.5t-155.5 235.5t-57.5 285zM170 713q0 -186 88 -341.5t244 -247t346 -91.5 q191 0 348 92.5t245.5 249t88.5 342.5v4q0 186 -88 341.5t-244 247t-346 91.5q-191 0 -348 -92.5t-245.5 -249t-88.5 -342.5v-4zM565 362v750h336q143 0 219 -76q58 -58 58 -139v-4q0 -88 -55 -142.5t-150 -72.5l250 -316h-115l-238 302h-4h-213v-302h-88zM653 745h234 q88 0 143 38t55 106v4q0 62 -50.5 98.5t-137.5 36.5h-244v-283z" />
<glyph unicode="&#xaf;" horiz-adv-x="1024" d="M205 1229v108h614v-108h-614z" />
<glyph unicode="&#xb0;" horiz-adv-x="921" d="M152 1143v4q0 119 93.5 209t215.5 90t215.5 -90t93.5 -209v-4q0 -119 -93.5 -209t-215.5 -90t-215.5 90t-93.5 209zM254 1143q0 -84 60 -146.5t147 -62.5t147 62.5t60 146.5v4q0 84 -60 146.5t-147 62.5t-147 -62.5t-60 -146.5v-4z" />
<glyph unicode="&#xb4;" horiz-adv-x="1024" d="M397 1219l181 272l124 -61l-219 -211h-86z" />
<glyph unicode="&#xb6;" horiz-adv-x="983" d="M109 999v5q0 198 147 314t383 116h152v-1434h-109v567h-12q-159 0 -285 49.5t-201 149t-75 233.5z" />
<glyph unicode="&#xb7;" horiz-adv-x="471" d="M168 522v174h135v-174h-135z" />
<glyph unicode="&#xb8;" horiz-adv-x="1024" d="M332 -250l184 270h88l-160 -323z" />
<glyph unicode="&#xc0;" d="M100 0l660 1423h100l658 -1423h-115l-180 395h-668l45 97h580l-373 817l-598 -1309h-109zM539 1778l125 61l180 -272h-86z" />
<glyph unicode="&#xc1;" d="M80 0l659 1423h101l657 -1423h-115l-180 395h-667l45 97h579l-373 817l-598 -1309h-108zM774 1567l180 272l125 -61l-219 -211h-86z" />
<glyph unicode="&#xc2;" d="M96 0l660 1423h100l657 -1423h-114l-180 395h-668l45 97h580l-373 817l-598 -1309h-109zM563 1556l205 250h82l205 -250h-97l-151 140l-152 -140h-92z" />
<glyph unicode="&#xc3;" d="M86 0l659 1423h101l657 -1423h-114l-181 395h-667l45 97h579l-372 817l-598 -1309h-109zM506 1567q28 107 68 148.5t104 41.5q40 0 134 -42t128 -42q36 0 57 22t45 81l70 -19q-28 -107 -68 -148.5t-104 -41.5q-40 0 -134 42t-128 42q-36 0 -57.5 -22t-45.5 -81z" />
<glyph unicode="&#xc4;" d="M100 0l660 1423h100l658 -1423h-115l-180 395h-668l45 97h580l-373 817l-598 -1309h-109zM571 1567v164h142v-164h-142zM905 1567v164h142v-164h-142z" />
<glyph unicode="&#xc5;" d="M90 0l641 1386q-54 24 -88.5 72t-34.5 105v4q0 77 60.5 133.5t140.5 56.5t140.5 -56.5t60.5 -133.5v-4q0 -57 -34.5 -104.5t-88.5 -69.5l641 -1389h-117l-182 401h-719l45 97h629l-377 829l-610 -1327h-107zM682 1563q0 -51 38 -88t89 -37t89 37t38 88v4q0 51 -37.5 88 t-89.5 37t-89.5 -37t-37.5 -88v-4z" />
<glyph unicode="&#xc6;" horiz-adv-x="2140" d="M41 0l868 1434h1092v-99h-883v-563h791v-98h-791v-576h893v-98h-999v401h-615l-241 -401h-115zM455 498h557v839h-54z" />
<glyph unicode="&#xc7;" horiz-adv-x="1511" d="M117 711v4q0 192 84 355.5t235.5 266.5t339.5 117v-96q-156 -14 -281.5 -101.5t-196.5 -228.5t-71 -309v-4q0 -256 157 -438.5t394 -204.5v-97h-16q-185 17 -332.5 118t-230 263.5t-82.5 354.5zM612 -358h144l135 247h-111zM905 -23v97q123 12 222.5 65.5t199.5 153.5 l72 -70q-111 -109 -227.5 -171t-266.5 -75zM907 1356v98q148 -11 260 -68t224 -159l-76 -78q-93 89 -189.5 141.5t-218.5 65.5z" />
<glyph unicode="&#xc8;" horiz-adv-x="1372" d="M205 -2v1429h106v-757v-672h-106zM473 -2v98h760v-98h-389h-371zM473 670v98h657v-98h-319h-338zM473 1329v98h750v-98h-344h-406zM496 1778l125 61l180 -272h-86z" />
<glyph unicode="&#xc9;" horiz-adv-x="1372" d="M205 -2v1429h106v-757v-672h-106zM473 -2v98h760v-98h-389h-371zM473 670v98h657v-98h-319h-338zM473 1329v98h750v-98h-344h-406zM633 1567l180 272l125 -61l-219 -211h-86z" />
<glyph unicode="&#xca;" horiz-adv-x="1372" d="M205 -2v1429h106v-757v-672h-106zM469 1567l205 250h82l205 -250h-97l-151 139l-152 -139h-92zM473 -2v98h760v-98h-389h-371zM473 670v98h657v-98h-319h-338zM473 1329v98h750v-98h-344h-406z" />
<glyph unicode="&#xcb;" horiz-adv-x="1372" d="M205 -2v1429h106v-757v-672h-106zM473 -2v98h760v-98h-389h-371zM473 670v98h657v-98h-319h-338zM473 1329v98h750v-98h-344h-406zM477 1567v164h141v-164h-141zM811 1567v164h141v-164h-141z" />
<glyph unicode="&#xcc;" horiz-adv-x="561" d="M14 1778l125 61l180 -272h-86zM227 0v1434h107v-1434h-107z" />
<glyph unicode="&#xcd;" horiz-adv-x="561" d="M227 0v1434h107v-1434h-107zM242 1567l180 272l125 -61l-219 -211h-86z" />
<glyph unicode="&#xce;" horiz-adv-x="561" d="M37 1567l205 250h82l204 -250h-96l-151 139l-152 -139h-92zM227 0v1434h107v-1434h-107z" />
<glyph unicode="&#xcf;" horiz-adv-x="561" d="M45 1567v164h141v-164h-141zM227 0v1434h107v-1434h-107zM379 1567v164h141v-164h-141z" />
<glyph unicode="&#xd0;" horiz-adv-x="1662" d="M121 672v98h153v664h478q166 0 308.5 -55t241.5 -150t155 -226.5t56 -281.5v-4q0 -150 -56 -282t-155 -228t-241.5 -151.5t-308.5 -55.5h-478v672h-153zM381 98h371q146 0 269.5 48t206.5 131t129 195.5t46 240.5v4q0 127 -46 240t-129 196.5t-206.5 132.5t-269.5 49 h-371v-565h475v-98h-475v-574z" />
<glyph unicode="&#xd1;" d="M201 1423h118l1125 -1419h-121zM209 4v1167l100 -129v-497v-541h-100zM506 1567q28 107 68 148.5t104 41.5q40 0 134 -42t128 -42q36 0 57 22t45 81l70 -19q-28 -107 -68 -148.5t-104 -41.5q-40 0 -134 42t-128 42q-36 0 -57.5 -22t-45.5 -81zM1335 387v524v512h103 v-1165z" />
<glyph unicode="&#xd2;" horiz-adv-x="1740" d="M147 713v4q0 183 77.5 342t223.5 265t334 126v-96q-152 -19 -272.5 -107.5t-187 -226.5t-66.5 -299v-4q0 -244 148 -424t378 -211v-98q-189 20 -335 125t-223 263t-77 341zM598 1778l125 61l180 -272h-86zM924 -16v94q158 15 283.5 103.5t194 227.5t68.5 304v4 q0 251 -153 432.5t-393 206.5v96q194 -14 345.5 -118.5t231.5 -265t80 -347.5q2 -2 0 -4q0 -138 -47.5 -266t-131.5 -227.5t-208.5 -164t-269.5 -75.5z" />
<glyph unicode="&#xd3;" horiz-adv-x="1740" d="M147 713v4q0 183 77.5 342t223.5 265t334 126v-96q-152 -19 -272.5 -107.5t-187 -226.5t-66.5 -299v-4q0 -244 148 -424t378 -211v-98q-189 20 -335 125t-223 263t-77 341zM838 1567l180 272l125 -61l-219 -211h-86zM924 -16v94q158 15 283.5 103.5t194 227.5t68.5 304v4 q0 251 -153 432.5t-393 206.5v96q194 -14 345.5 -118.5t231.5 -265t80 -347.5q2 -2 0 -4q0 -138 -47.5 -266t-131.5 -227.5t-208.5 -164t-269.5 -75.5z" />
<glyph unicode="&#xd4;" horiz-adv-x="1740" d="M147 713v4q0 183 77.5 342t223.5 265t334 126v-96q-152 -19 -272.5 -107.5t-187 -226.5t-66.5 -299v-4q0 -244 148 -424t378 -211v-98q-189 20 -335 125t-223 263t-77 341zM625 1567l204 250h82l205 -250h-96l-152 139l-151 -139h-92zM924 -16v94q158 15 283.5 103.5 t194 227.5t68.5 304v4q0 251 -153 432.5t-393 206.5v96q194 -14 345.5 -118.5t231.5 -265t80 -347.5q2 -2 0 -4q0 -138 -47.5 -266t-131.5 -227.5t-208.5 -164t-269.5 -75.5z" />
<glyph unicode="&#xd5;" horiz-adv-x="1740" d="M150 713v4q0 183 77 342t223 265t334 126v-96q-152 -19 -272.5 -107.5t-187 -226.5t-66.5 -299v-4q0 -244 148 -424t378 -211v-98q-142 15 -262 80t-201 163t-126 224t-45 262zM567 1567q28 107 68 148.5t104 41.5q40 0 134 -42t128 -42q36 0 57.5 22t45.5 81l70 -19 q-28 -107 -68.5 -148.5t-104.5 -41.5q-40 0 -134 42t-128 42q-36 0 -57 -22t-45 -81zM926 -16v94q158 15 283.5 103.5t194.5 227.5t69 304v4q0 251 -153.5 432.5t-393.5 206.5v96q194 -14 345.5 -118.5t231.5 -265t80 -347.5q2 -2 0 -4q0 -138 -47.5 -266t-131.5 -227.5 t-208.5 -164t-269.5 -75.5z" />
<glyph unicode="&#xd6;" horiz-adv-x="1740" d="M156 713v4q0 183 77.5 342t223.5 265t334 126v-96q-152 -19 -272.5 -107.5t-187.5 -226.5t-67 -299v-4q0 -244 148 -424t379 -211v-98q-189 20 -335 125t-223 263t-77 341zM623 1567v164h141v-164h-141zM932 -16v94q158 15 283.5 103.5t194.5 227.5t69 304v4 q0 251 -153.5 432.5t-393.5 206.5v96q194 -14 345.5 -118.5t231.5 -265t80 -347.5q2 -2 0 -4q0 -138 -47.5 -266t-131.5 -227.5t-208.5 -164t-269.5 -75.5zM956 1567v164h142v-164h-142z" />
<glyph unicode="&#xd8;" horiz-adv-x="1740" d="M131 -6l1352 1454h123l-1352 -1454h-123zM147 717v4q0 146 52.5 280.5t145.5 236.5t230 163t295 61q221 0 394 -112l-72 -78q-147 94 -326 94q-173 0 -313 -86t-217.5 -232.5t-77.5 -322.5v-4q0 -196 94 -350l-76 -82q-129 189 -129 428zM471 92l74 78q147 -94 325 -94 q130 0 244 50.5t193.5 137t125.5 204.5t46 249v4q0 191 -97 350l78 84q129 -192 129 -430q2 -2 0 -4q0 -146 -52.5 -280.5t-145.5 -236.5t-230 -163t-295 -61q-222 0 -395 112z" />
<glyph unicode="&#xd9;" horiz-adv-x="1556" d="M190 592v833h107v-823q0 -237 115 -375t321 -153v-97q-246 14 -394.5 174.5t-148.5 440.5zM524 1767l125 62l180 -273h-86zM846 -20v96q193 21 300 152.5t107 363.5v833h107v-821q0 -279 -139 -440.5t-375 -183.5z" />
<glyph unicode="&#xda;" horiz-adv-x="1556" d="M190 592v833h107v-823q0 -237 115 -375t321 -153v-97q-246 14 -394.5 174.5t-148.5 440.5zM727 1556l180 273l125 -62l-219 -211h-86zM846 -20v96q193 21 300 152.5t107 363.5v833h107v-821q0 -279 -139 -440.5t-375 -183.5z" />
<glyph unicode="&#xdb;" horiz-adv-x="1556" d="M190 592v833h107v-823q0 -237 115 -375t321 -153v-97q-246 14 -394.5 174.5t-148.5 440.5zM532 1556l205 250h82l205 -250h-96l-152 140l-151 -140h-93zM846 -20v96q193 21 300 152.5t107 363.5v833h107v-821q0 -279 -139 -440.5t-375 -183.5z" />
<glyph unicode="&#xdc;" horiz-adv-x="1556" d="M190 592v833h107v-823q0 -237 115 -375t321 -153v-97q-246 14 -394.5 174.5t-148.5 440.5zM541 1556v164h141v-164h-141zM846 -20v96q193 21 300 152.5t107 363.5v833h107v-821q0 -279 -139 -440.5t-375 -183.5zM874 1556v164h142v-164h-142z" />
<glyph unicode="&#xdd;" horiz-adv-x="1466" d="M70 1430h133l583 -838v-23v-565h-106v563zM696 1556l181 273l124 -62l-219 -211h-86zM825 797l447 633h127l-514 -717z" />
<glyph unicode="&#xde;" horiz-adv-x="1378" d="M213 0v1434h106v-260h414q240 0 386.5 -117.5t146.5 -321.5v-4q0 -110 -45 -198.5t-122.5 -144.5t-178 -86t-213.5 -30h-388v-272h-106zM319 371h394q200 0 323 97.5t123 256.5v4q0 166 -118 256t-316 90h-406v-704z" />
<glyph unicode="&#xdf;" horiz-adv-x="1269" d="M190 0v1024q0 216 123 350.5t328 134.5q182 0 295 -102.5t113 -255.5v-4q0 -72 -27.5 -136t-74 -112t-102 -83.5t-118.5 -57.5q85 -15 156 -42.5t130.5 -71t93.5 -108.5t34 -145v-4q0 -184 -147 -287.5t-402 -103.5v88q207 5 323.5 81t116.5 218v4q0 134 -115.5 212.5 t-324.5 100.5v84q348 106 348 359v4q0 117 -85 192.5t-220 75.5q-151 0 -247.5 -106.5t-96.5 -284.5v-1024h-101z" />
<glyph unicode="&#xe0;" d="M100 0l660 1423h100l658 -1423h-115l-180 395h-668l45 97h580l-373 817l-598 -1309h-109zM539 1778l125 61l180 -272h-86z" />
<glyph unicode="&#xe1;" d="M80 0l659 1423h101l657 -1423h-115l-180 395h-667l45 97h579l-373 817l-598 -1309h-108zM774 1567l180 272l125 -61l-219 -211h-86z" />
<glyph unicode="&#xe2;" d="M96 0l660 1423h100l657 -1423h-114l-180 395h-668l45 97h580l-373 817l-598 -1309h-109zM563 1556l205 250h82l205 -250h-97l-151 140l-152 -140h-92z" />
<glyph unicode="&#xe3;" d="M86 0l659 1423h101l657 -1423h-114l-181 395h-667l45 97h579l-372 817l-598 -1309h-109zM506 1567q28 107 68 148.5t104 41.5q40 0 134 -42t128 -42q36 0 57 22t45 81l70 -19q-28 -107 -68 -148.5t-104 -41.5q-40 0 -134 42t-128 42q-36 0 -57.5 -22t-45.5 -81z" />
<glyph unicode="&#xe4;" d="M100 0l660 1423h100l658 -1423h-115l-180 395h-668l45 97h580l-373 817l-598 -1309h-109zM571 1567v164h142v-164h-142zM905 1567v164h142v-164h-142z" />
<glyph unicode="&#xe5;" d="M90 0l641 1386q-54 24 -88.5 72t-34.5 105v4q0 77 60.5 133.5t140.5 56.5t140.5 -56.5t60.5 -133.5v-4q0 -57 -34.5 -104.5t-88.5 -69.5l641 -1389h-117l-182 401h-719l45 97h629l-377 829l-610 -1327h-107zM682 1563q0 -51 38 -88t89 -37t89 37t38 88v4q0 51 -37.5 88 t-89.5 37t-89.5 -37t-37.5 -88v-4z" />
<glyph unicode="&#xe6;" horiz-adv-x="1953" d="M104 303v4q0 160 123 250t324 90q161 0 328 -45v45q0 157 -86 238.5t-244 81.5q-148 0 -313 -84l-37 88q97 46 178 68t178 22q157 0 258.5 -66.5t136.5 -195.5q63 124 174.5 197t247.5 73q143 0 253 -72.5t168 -196t58 -278.5q0 -25 -2 -41h-866q13 -188 131.5 -299.5 t278.5 -111.5q206 0 358 163l70 -61q-88 -95 -189.5 -146t-242.5 -51q-129 0 -241 61.5t-181 168.5q-201 -230 -469 -230q-74 0 -143.5 21t-126 61t-90.5 104t-34 142zM211 309q0 -110 84 -174.5t209 -64.5q243 0 418 219q-42 106 -45 223q-198 45 -332 45 q-158 0 -246 -66.5t-88 -177.5v-4zM983 571h760q-5 81 -31 152.5t-71 129t-115.5 91t-157.5 33.5q-154 0 -262.5 -116t-122.5 -290z" />
<glyph unicode="&#xe7;" horiz-adv-x="1511" d="M117 711v4q0 192 84 355.5t235.5 266.5t339.5 117v-96q-156 -14 -281.5 -101.5t-196.5 -228.5t-71 -309v-4q0 -256 157 -438.5t394 -204.5v-97h-16q-185 17 -332.5 118t-230 263.5t-82.5 354.5zM612 -358h144l135 247h-111zM905 -23v97q123 12 222.5 65.5t199.5 153.5 l72 -70q-111 -109 -227.5 -171t-266.5 -75zM907 1356v98q148 -11 260 -68t224 -159l-76 -78q-93 89 -189.5 141.5t-218.5 65.5z" />
<glyph unicode="&#xe8;" horiz-adv-x="1372" d="M205 -2v1429h106v-757v-672h-106zM473 -2v98h760v-98h-389h-371zM473 670v98h657v-98h-319h-338zM473 1329v98h750v-98h-344h-406zM496 1778l125 61l180 -272h-86z" />
<glyph unicode="&#xe9;" horiz-adv-x="1372" d="M205 -2v1429h106v-757v-672h-106zM473 -2v98h760v-98h-389h-371zM473 670v98h657v-98h-319h-338zM473 1329v98h750v-98h-344h-406zM633 1567l180 272l125 -61l-219 -211h-86z" />
<glyph unicode="&#xea;" horiz-adv-x="1372" d="M205 -2v1429h106v-757v-672h-106zM469 1567l205 250h82l205 -250h-97l-151 139l-152 -139h-92zM473 -2v98h760v-98h-389h-371zM473 670v98h657v-98h-319h-338zM473 1329v98h750v-98h-344h-406z" />
<glyph unicode="&#xeb;" horiz-adv-x="1372" d="M205 -2v1429h106v-757v-672h-106zM473 -2v98h760v-98h-389h-371zM473 670v98h657v-98h-319h-338zM473 1329v98h750v-98h-344h-406zM477 1567v164h141v-164h-141zM811 1567v164h141v-164h-141z" />
<glyph unicode="&#xec;" horiz-adv-x="561" d="M14 1778l125 61l180 -272h-86zM227 0v1434h107v-1434h-107z" />
<glyph unicode="&#xed;" horiz-adv-x="561" d="M227 0v1434h107v-1434h-107zM242 1567l180 272l125 -61l-219 -211h-86z" />
<glyph unicode="&#xee;" horiz-adv-x="561" d="M37 1567l205 250h82l204 -250h-96l-151 139l-152 -139h-92zM227 0v1434h107v-1434h-107z" />
<glyph unicode="&#xef;" horiz-adv-x="561" d="M45 1567v164h141v-164h-141zM227 0v1434h107v-1434h-107zM379 1567v164h141v-164h-141z" />
<glyph unicode="&#xf0;" horiz-adv-x="1286" d="M119 498v4q0 108 40.5 201t108 156.5t157 99.5t185.5 36q114 0 199.5 -34t163.5 -95l-301 426l-273 -139l-59 74l281 137l-93 131h129l56 -84l200 102l58 -73l-209 -103l223 -329q87 -130 132.5 -245.5t45.5 -252.5v-4q0 -105 -38 -201.5t-105.5 -169.5t-168 -116.5 t-218.5 -43.5q-144 0 -263 72t-185 191.5t-66 259.5zM227 492q0 -80 31.5 -156.5t85.5 -135t132.5 -94.5t166.5 -36q119 0 214.5 59.5t146.5 156.5t51 210v4q0 167 -125 286t-307 119q-179 0 -287.5 -116.5t-108.5 -292.5v-4z" />
<glyph unicode="&#xf1;" d="M201 1423h118l1125 -1419h-121zM209 4v1167l100 -129v-497v-541h-100zM506 1567q28 107 68 148.5t104 41.5q40 0 134 -42t128 -42q36 0 57 22t45 81l70 -19q-28 -107 -68 -148.5t-104 -41.5q-40 0 -134 42t-128 42q-36 0 -57.5 -22t-45.5 -81zM1335 387v524v512h103 v-1165z" />
<glyph unicode="&#xf2;" horiz-adv-x="1740" d="M147 713v4q0 183 77.5 342t223.5 265t334 126v-96q-152 -19 -272.5 -107.5t-187 -226.5t-66.5 -299v-4q0 -244 148 -424t378 -211v-98q-189 20 -335 125t-223 263t-77 341zM598 1778l125 61l180 -272h-86zM924 -16v94q158 15 283.5 103.5t194 227.5t68.5 304v4 q0 251 -153 432.5t-393 206.5v96q194 -14 345.5 -118.5t231.5 -265t80 -347.5q2 -2 0 -4q0 -138 -47.5 -266t-131.5 -227.5t-208.5 -164t-269.5 -75.5z" />
<glyph unicode="&#xf3;" horiz-adv-x="1740" d="M147 713v4q0 183 77.5 342t223.5 265t334 126v-96q-152 -19 -272.5 -107.5t-187 -226.5t-66.5 -299v-4q0 -244 148 -424t378 -211v-98q-189 20 -335 125t-223 263t-77 341zM838 1567l180 272l125 -61l-219 -211h-86zM924 -16v94q158 15 283.5 103.5t194 227.5t68.5 304v4 q0 251 -153 432.5t-393 206.5v96q194 -14 345.5 -118.5t231.5 -265t80 -347.5q2 -2 0 -4q0 -138 -47.5 -266t-131.5 -227.5t-208.5 -164t-269.5 -75.5z" />
<glyph unicode="&#xf4;" horiz-adv-x="1740" d="M147 713v4q0 183 77.5 342t223.5 265t334 126v-96q-152 -19 -272.5 -107.5t-187 -226.5t-66.5 -299v-4q0 -244 148 -424t378 -211v-98q-189 20 -335 125t-223 263t-77 341zM625 1567l204 250h82l205 -250h-96l-152 139l-151 -139h-92zM924 -16v94q158 15 283.5 103.5 t194 227.5t68.5 304v4q0 251 -153 432.5t-393 206.5v96q194 -14 345.5 -118.5t231.5 -265t80 -347.5q2 -2 0 -4q0 -138 -47.5 -266t-131.5 -227.5t-208.5 -164t-269.5 -75.5z" />
<glyph unicode="&#xf5;" horiz-adv-x="1740" d="M150 713v4q0 183 77 342t223 265t334 126v-96q-152 -19 -272.5 -107.5t-187 -226.5t-66.5 -299v-4q0 -244 148 -424t378 -211v-98q-142 15 -262 80t-201 163t-126 224t-45 262zM567 1567q28 107 68 148.5t104 41.5q40 0 134 -42t128 -42q36 0 57.5 22t45.5 81l70 -19 q-28 -107 -68.5 -148.5t-104.5 -41.5q-40 0 -134 42t-128 42q-36 0 -57 -22t-45 -81zM926 -16v94q158 15 283.5 103.5t194.5 227.5t69 304v4q0 251 -153.5 432.5t-393.5 206.5v96q194 -14 345.5 -118.5t231.5 -265t80 -347.5q2 -2 0 -4q0 -138 -47.5 -266t-131.5 -227.5 t-208.5 -164t-269.5 -75.5z" />
<glyph unicode="&#xf6;" horiz-adv-x="1740" d="M156 713v4q0 183 77.5 342t223.5 265t334 126v-96q-152 -19 -272.5 -107.5t-187.5 -226.5t-67 -299v-4q0 -244 148 -424t379 -211v-98q-189 20 -335 125t-223 263t-77 341zM623 1567v164h141v-164h-141zM932 -16v94q158 15 283.5 103.5t194.5 227.5t69 304v4 q0 251 -153.5 432.5t-393.5 206.5v96q194 -14 345.5 -118.5t231.5 -265t80 -347.5q2 -2 0 -4q0 -138 -47.5 -266t-131.5 -227.5t-208.5 -164t-269.5 -75.5zM956 1567v164h142v-164h-142z" />
<glyph unicode="&#xf8;" horiz-adv-x="1310" d="M88 -10l162 168q-62 73 -96.5 166.5t-34.5 193.5v4q0 109 41 209t111 174.5t171 119t215 44.5q198 0 342 -125l107 115h117l-164 -172q133 -152 133 -361v-4q0 -146 -69 -271t-193.5 -200.5t-276.5 -75.5q-196 0 -342 123l-106 -108h-117zM227 522q0 -162 97 -289 l610 633q-122 109 -281 109q-183 0 -304.5 -131t-121.5 -318v-4zM377 176q118 -106 280 -106q121 0 219.5 60.5t152.5 163t54 224.5v4q0 162 -96 289z" />
<glyph unicode="&#xf9;" horiz-adv-x="1556" d="M190 592v833h107v-823q0 -237 115 -375t321 -153v-97q-246 14 -394.5 174.5t-148.5 440.5zM524 1767l125 62l180 -273h-86zM846 -20v96q193 21 300 152.5t107 363.5v833h107v-821q0 -279 -139 -440.5t-375 -183.5z" />
<glyph unicode="&#xfa;" horiz-adv-x="1556" d="M190 592v833h107v-823q0 -237 115 -375t321 -153v-97q-246 14 -394.5 174.5t-148.5 440.5zM727 1556l180 273l125 -62l-219 -211h-86zM846 -20v96q193 21 300 152.5t107 363.5v833h107v-821q0 -279 -139 -440.5t-375 -183.5z" />
<glyph unicode="&#xfb;" horiz-adv-x="1556" d="M190 592v833h107v-823q0 -237 115 -375t321 -153v-97q-246 14 -394.5 174.5t-148.5 440.5zM532 1556l205 250h82l205 -250h-96l-152 140l-151 -140h-93zM846 -20v96q193 21 300 152.5t107 363.5v833h107v-821q0 -279 -139 -440.5t-375 -183.5z" />
<glyph unicode="&#xfc;" horiz-adv-x="1556" d="M190 592v833h107v-823q0 -237 115 -375t321 -153v-97q-246 14 -394.5 174.5t-148.5 440.5zM541 1556v164h141v-164h-141zM846 -20v96q193 21 300 152.5t107 363.5v833h107v-821q0 -279 -139 -440.5t-375 -183.5zM874 1556v164h142v-164h-142z" />
<glyph unicode="&#xfd;" horiz-adv-x="1466" d="M70 1430h133l583 -838v-23v-565h-106v563zM696 1556l181 273l124 -62l-219 -211h-86zM825 797l447 633h127l-514 -717z" />
<glyph unicode="&#xfe;" horiz-adv-x="1351" d="M190 -328v1823h101v-684q169 258 430 258q95 0 185.5 -38t162.5 -105.5t116 -172t44 -227.5v-4q0 -123 -44 -228t-116 -173.5t-162.5 -107t-185.5 -38.5q-266 0 -430 250v-553h-101zM285 520q0 -129 61.5 -233.5t158.5 -159.5t206 -55q176 0 292.5 120.5t116.5 325.5v4 q0 100 -33 185.5t-89 143t-130.5 90t-156.5 32.5q-81 0 -158 -33t-136.5 -91t-95.5 -143t-36 -182v-4z" />
<glyph unicode="&#xff;" horiz-adv-x="1466" d="M70 1430h133l583 -838v-23v-565h-106v563zM496 1556v164h141v-164h-141zM825 797l447 633h127l-514 -717zM829 1556v164h142v-164h-142z" />
<glyph unicode="&#x131;" horiz-adv-x="509" d="M205 0v1044h100v-1044h-100z" />
<glyph unicode="&#x152;" horiz-adv-x="2359" d="M150 713v4q0 150 56 282t155 228t241.5 151.5t308.5 55.5h1309v-99h-883v-563h791v-98h-791v-576h893v-98h-1319q-166 0 -308.5 55t-241.5 150t-155 226.5t-56 281.5zM260 717q0 -127 46 -240t129 -197t206.5 -133t269.5 -49h320v1237h-320q-146 0 -269.5 -48 t-206.5 -131t-129 -195t-46 -240v-4z" />
<glyph unicode="&#x153;" horiz-adv-x="2160" d="M119 518v4q0 145 69 270.5t193 201t274 75.5q162 0 290 -88t190 -231q58 145 176.5 232t269.5 87q214 0 345.5 -155.5t131.5 -391.5q0 -25 -2 -41h-866q13 -188 131 -299.5t278 -111.5q207 0 359 163l70 -61q-88 -95 -189.5 -146t-239.5 -51q-153 0 -278.5 86.5 t-185.5 235.5q-62 -144 -191.5 -233t-292.5 -89q-149 0 -272 74.5t-191.5 199t-68.5 269.5zM227 522q0 -189 124.5 -320.5t305.5 -131.5q121 0 219.5 60.5t152.5 163t54 224.5v4q0 190 -124.5 321.5t-305.5 131.5q-183 0 -304.5 -131t-121.5 -318v-4zM1190 571h760 q-5 81 -31 152.5t-71 129t-115.5 91t-157.5 33.5q-154 0 -262.5 -116t-122.5 -290z" />
<glyph unicode="&#x178;" horiz-adv-x="1466" d="M70 1430h133l583 -838v-23v-565h-106v563zM496 1556v164h141v-164h-141zM825 797l447 633h127l-514 -717zM829 1556v164h142v-164h-142z" />
<glyph unicode="&#x192;" horiz-adv-x="1036" d="M84 -2v90q41 -8 94 -8q139 0 168 168l100 538h-223v93h240l53 278q29 151 99 219t194 68q80 0 154 -21v-90q-86 21 -144 21q-84 0 -129 -47t-65 -156l-52 -272h318v-93h-334l-102 -544q-25 -128 -90.5 -190t-180.5 -62q-46 0 -100 8z" />
<glyph unicode="&#x2c6;" horiz-adv-x="1024" d="M266 1219l205 249h82l205 -249h-96l-152 139l-152 -139h-92z" />
<glyph unicode="&#x2c7;" horiz-adv-x="1024" d="M266 1468h96l152 -139l152 139h92l-205 -249h-82z" />
<glyph unicode="&#x2d8;" horiz-adv-x="1024" d="M240 1468h79q40 -149 193 -149t193 149h79q-7 -118 -81.5 -186t-190.5 -68t-190.5 68t-81.5 186z" />
<glyph unicode="&#x2d9;" horiz-adv-x="1024" d="M438 1219v165h148v-165h-148z" />
<glyph unicode="&#x2da;" horiz-adv-x="1024" d="M311 1405v4q0 77 60.5 133.5t140.5 56.5t140.5 -56.5t60.5 -133.5v-4q0 -77 -60.5 -134t-140.5 -57t-140.5 57t-60.5 134zM385 1405q0 -51 38 -88t89 -37t89 37t38 88v4q0 51 -37.5 88t-89.5 37t-89.5 -37t-37.5 -88v-4z" />
<glyph unicode="&#x2db;" horiz-adv-x="1024" d="M383 -117q0 66 29 137h88q-13 -60 -13 -114q0 -166 242 -178v-64q-168 -6 -257 55.5t-89 163.5z" />
<glyph unicode="&#x2dc;" horiz-adv-x="1024" d="M209 1219q28 107 68 148.5t104 41.5q40 0 134 -42t128 -42q36 0 57 21.5t45 80.5l70 -18q-28 -107 -68 -148.5t-104 -41.5q-40 0 -134 42t-128 42q-36 0 -57 -22t-45 -81z" />
<glyph unicode="&#x2dd;" horiz-adv-x="1024" d="M209 1219l182 272l113 -59l-207 -213h-88zM520 1219l182 272l113 -59l-207 -213h-88z" />
<glyph unicode="&#x2000;" horiz-adv-x="919" />
<glyph unicode="&#x2001;" horiz-adv-x="1839" />
<glyph unicode="&#x2002;" horiz-adv-x="919" />
<glyph unicode="&#x2003;" horiz-adv-x="1839" />
<glyph unicode="&#x2004;" horiz-adv-x="613" />
<glyph unicode="&#x2005;" horiz-adv-x="459" />
<glyph unicode="&#x2006;" horiz-adv-x="306" />
<glyph unicode="&#x2007;" horiz-adv-x="306" />
<glyph unicode="&#x2008;" horiz-adv-x="229" />
<glyph unicode="&#x2009;" horiz-adv-x="367" />
<glyph unicode="&#x200a;" horiz-adv-x="102" />
<glyph unicode="&#x2010;" horiz-adv-x="835" d="M143 551v115h549v-115h-549z" />
<glyph unicode="&#x2011;" horiz-adv-x="835" d="M143 551v115h549v-115h-549z" />
<glyph unicode="&#x2012;" horiz-adv-x="835" d="M143 551v115h549v-115h-549z" />
<glyph unicode="&#x2013;" horiz-adv-x="1081" d="M143 555v107h795v-107h-795z" />
<glyph unicode="&#x2014;" horiz-adv-x="1839" d="M143 555v107h1553v-107h-1553z" />
<glyph unicode="&#x2018;" horiz-adv-x="471" d="M158 1051v151q0 95 39 151t131 91l24 -51q-66 -34 -92 -72t-22 -96h55v-174h-135z" />
<glyph unicode="&#x2019;" horiz-adv-x="471" d="M119 1092q66 34 92 72t22 96h-55v174h135v-152q0 -95 -39 -151t-131 -91z" />
<glyph unicode="&#x201c;" horiz-adv-x="839" d="M158 1051v151q0 95 39 151t131 91l24 -51q-66 -34 -92 -72t-22 -96h55v-174h-135zM526 1051v151q0 95 39 151t131 91l25 -51q-67 -34 -93 -72t-22 -96h56v-174h-136z" />
<glyph unicode="&#x201d;" horiz-adv-x="839" d="M119 1092q66 34 92 72t22 96h-55v174h135v-152q0 -95 -39 -151t-131 -91zM487 1092q67 34 93 72t22 96h-55v174h135v-152q0 -95 -39 -151t-131 -91z" />
<glyph unicode="&#x2020;" horiz-adv-x="839" d="M129 1059v92l254 -14l-14 297h102l-14 -297l254 14v-92l-256 14l10 -586h-90l10 586z" />
<glyph unicode="&#x2021;" horiz-adv-x="880" d="M150 283v92l256 -15l-11 357l11 356l-256 -14v92l253 -14l-14 297h103l-15 -297l254 14v-92l-256 14l10 -356l-10 -357l256 15v-92l-254 14l15 -297h-103l14 297z" />
<glyph unicode="&#x2022;" horiz-adv-x="962" d="M227 719v4q0 103 76.5 177.5t177.5 74.5q100 0 177 -74.5t77 -177.5v-4q0 -104 -75 -178t-179 -74t-179 74t-75 178z" />
<glyph unicode="&#x2026;" horiz-adv-x="1392" d="M168 0v170h131v-170h-131zM631 0v170h131v-170h-131zM1094 0v170h131v-170h-131z" />
<glyph unicode="&#x202f;" horiz-adv-x="367" />
<glyph unicode="&#x205f;" horiz-adv-x="459" />
<glyph unicode="&#x20ac;" horiz-adv-x="1474" d="M113 489v97h168q-7 65 -7 112v4q0 62 11 134h-172v96h190q52 206 184 343t306 155v-93q-135 -18 -237.5 -128t-147.5 -277h505v-96h-524q-10 -62 -10 -129v-5q0 -58 6 -116h528v-97h-510q42 -170 145.5 -282t244.5 -137v-97q-184 23 -317.5 162t-180.5 354h-182zM905 -29 v95q109 10 193 75.5t159 180.5l78 -52q-85 -130 -188 -208t-242 -91zM905 1337v95q141 -14 243 -87t183 -194l-82 -55q-77 112 -155.5 170t-188.5 71z" />
<glyph unicode="&#x2122;" horiz-adv-x="1413" d="M53 1364v70h486v-70h-207v-561h-72v561h-207zM682 803v631h76l246 -375l245 375h74v-631h-72v504l-243 -365h-11l-243 365v-504h-72z" />
<glyph unicode="&#xe000;" horiz-adv-x="1423" d="M0 0v1423h1423v-1423h-1423z" />
<glyph unicode="&#xf8ff;" horiz-adv-x="1980" d="M33 246v106h16v-90h60v-16h-76zM143 246v55v51h17v-106h-17zM195 299q0 24 16.5 39.5t38.5 15.5q14 0 24.5 -4t14.5 -8l4 -4l-10 -12q-10 12 -33 12q-13 0 -25 -9t-12 -30q0 -19 11.5 -29t27.5 -10q19 0 27 8v23h-31v14h47v-43q-16 -16 -45 -16q-22 0 -38.5 13.5 t-16.5 39.5zM334 246v106h16v-45h56v45h16v-106h-16v45h-56v-45h-16zM455 336v16h88v-16h-37v-90h-17v90h-34zM598 246v106h16v-45h56v45h16v-106h-16v45h-56v-45h-16zM602 475l4 6l142 -141q10 10 32 14v199h6v-199q22 -2 37 -17.5t15 -37.5q0 -21 -13 -37l140 -139l-4 -4 l-142 139q-10 -10 -33 -14v-197h-6v197q-22 1 -36.5 17t-14.5 38t12 37zM745 299q0 -15 11 -27t26 -12q17 0 28 11.5t11 27.5t-11 27.5t-28 11.5q-15 0 -26 -12t-11 -27zM874 291v61h17v-59q0 -33 31 -33q28 0 28 31v61h17v-59q0 -47 -47 -47q-19 0 -30.5 11t-13.5 19t-2 15 zM1001 264l11 12q15 -16 35 -16q10 0 15.5 3.5t5.5 6.5l1 4q0 13 -27 17q-36 7 -36 33q0 11 9 20.5t27 9.5q12 0 22 -3.5t14 -6.5l5 -4l-10 -14q-13 12 -31 12q-8 0 -13 -3t-6 -6l-1 -3v-3.5t6.5 -7.5t20.5 -8q36 -5 36 -31q0 -30 -38 -30q-13 0 -24.5 4.5t-16.5 9.5z M1122 246v106h82v-16h-63v-29h57v-14h-57v-31h63v-16h-82zM1264 299q0 21 12.5 35.5t32.5 15.5v-6q-17 -3 -27 -15.5t-10 -29.5q0 -41 37 -47v-6q-20 3 -32.5 17t-12.5 36zM1321 246v6q18 3 31 16l4 -4q-14 -18 -35 -18zM1321 344v8q18 -3 35 -16l-6 -6q-14 14 -29 14z M1401 248v53v49h8v-102h-8zM1456 248v84l8 -10v-35v-39h-8zM1456 350h8l82 -102h-8zM1538 274v39v37h8v-84zM1591 248v102h8v-51v-51h-8zM1610 248v6h28h27v-6h-55zM1610 295v8h24h25v-8h-49zM1610 342v8h28h27v-8h-55zM1708 248v102h6v-51v-51h-6zM1724 322v14l31 -47 l31 47v-14l-31 -46zM1796 248v102h8v-51v-51h-8zM1843 248l47 102h8l48 -102h-9l-12 28h-49l4 7h41l-27 59l-43 -94h-8z" />
</font>
</defs>
</svg>
