<?xml version="1.0" encoding="utf-8"?>
<!-- Generator: Adobe Illustrator 16.0.0, SVG Export Plug-In . SVG Version: 6.00 Build 0)  -->
<!DOCTYPE svg PUBLIC "-//W3C//DTD SVG 1.0//EN" "http://www.w3.org/TR/2001/REC-SVG-20010904/DTD/svg10.dtd">
<svg version="1.0" xmlns="http://www.w3.org/2000/svg" xmlns:xlink="http://www.w3.org/1999/xlink" x="0px" y="0px"
	 width="290.584px" height="265px" viewBox="0 0 290.584 265" enable-background="new 0 0 290.584 265" xml:space="preserve">
<g id="Layer_1">
	<g>
		<g>
			<g>
				<polygon fill="#3D4154" stroke="#3D4154" stroke-width="0.2074" stroke-miterlimit="10" points="208.467,33.485 208.467,41.591 
					209.572,41.591 209.572,26.036 208.467,26.036 				"/>
				<polygon fill="#3D4154" stroke="#3D4154" stroke-width="0.2074" stroke-miterlimit="10" points="282.936,25.898 281.831,25.898 
					274.661,41.591 275.842,41.591 282.363,27.167 286.412,36.196 280.065,36.196 279.589,37.234 286.896,37.234 288.855,41.591 
					290.11,41.591 				"/>
				<g>
					<polygon fill="#3D4154" stroke="#3D4154" stroke-width="0.2074" stroke-miterlimit="10" points="248.005,26.036 
						243.935,26.036 239.78,26.036 239.78,27.074 248.005,27.074 					"/>
					<polygon fill="#3D4154" stroke="#3D4154" stroke-width="0.2074" stroke-miterlimit="10" points="246.968,34.262 
						246.968,33.227 243.318,33.227 239.78,33.227 239.78,34.262 					"/>
					<polygon fill="#3D4154" stroke="#3D4154" stroke-width="0.2074" stroke-miterlimit="10" points="239.78,40.553 239.78,41.591 
						248.073,41.591 248.073,40.553 243.829,40.553 					"/>
				</g>
				<g>
					<polygon fill="#3D4154" stroke="#3D4154" stroke-width="0.2074" stroke-miterlimit="10" points="255.401,26.036 
						254.294,26.036 254.294,41.591 255.401,41.591 255.401,33.836 					"/>
					<polygon fill="#3D4154" stroke="#3D4154" stroke-width="0.2074" stroke-miterlimit="10" points="266.184,28.282 
						261.497,35.253 256.784,28.282 256.784,30.209 261.497,37.115 266.184,30.209 					"/>
				</g>
				<g>
					<polygon fill="#3D4154" stroke="#3D4154" stroke-width="0.2074" stroke-miterlimit="10" points="230.034,38.817 
						230.034,26.036 228.928,26.036 228.928,31.644 228.928,37.41 					"/>
					<polygon fill="#3D4154" stroke="#3D4154" stroke-width="0.2074" stroke-miterlimit="10" points="228.819,41.591 230.13,41.591 
						217.904,26.036 216.621,26.036 					"/>
					<polygon fill="#3D4154" stroke="#3D4154" stroke-width="0.2074" stroke-miterlimit="10" points="216.694,28.789 
						216.694,41.591 217.8,41.591 217.8,35.678 217.8,30.197 					"/>
				</g>
				<polygon fill="#3D4154" stroke="#3D4154" stroke-width="0.2074" stroke-miterlimit="10" points="268.88,26.036 267.774,26.036 
					267.774,41.591 268.88,41.591 268.88,33.836 				"/>
				<polygon fill="#3D4154" stroke="#3D4154" stroke-width="0.2074" stroke-miterlimit="10" points="237.982,26.036 236.876,26.036 
					236.876,41.591 237.982,41.591 237.982,33.836 				"/>
				<g>
					<g>
						<g>
							<path fill="#3D4154" stroke="#3D4154" stroke-width="0.2074" stroke-miterlimit="10" d="M196.165,26.843
								c2.001,0.152,3.376,1.067,4.602,2.262l0.808-0.844c-1.469-1.363-2.992-2.34-5.409-2.476V26.843L196.165,26.843z"/>
							<path fill="#3D4154" stroke="#3D4154" stroke-width="0.2074" stroke-miterlimit="10" d="M200.899,38.413
								c-1.417,1.417-2.8,2.263-4.734,2.4v1.049c2.419-0.155,3.998-1.196,5.506-2.692L200.899,38.413z"/>
						</g>
					</g>
					<g>
						<path fill="#3D4154" d="M194.37,40.748c-3.133-0.54-5.432-3.46-5.432-6.966c0-3.502,2.274-6.363,5.432-6.879v-1.06
							c-3.881,0.537-6.616,3.822-6.616,7.983c0,4.162,2.754,7.482,6.616,7.993V40.748L194.37,40.748z"/>
						<path fill="none" stroke="#3D4154" stroke-width="0.1961" stroke-miterlimit="10" d="M194.37,40.748
							c-3.133-0.54-5.432-3.46-5.432-6.966c0-3.502,2.274-6.363,5.432-6.879v-1.06c-3.881,0.537-6.616,3.822-6.616,7.983
							c0,4.162,2.754,7.482,6.616,7.993V40.748L194.37,40.748z"/>
					</g>
				</g>
			</g>
		</g>
		<g>
			<polygon fill="#3D4154" stroke="#3D4154" stroke-width="0.2074" stroke-miterlimit="10" points="8.222,25.691 4.744,25.691 
				4.744,42.211 16.793,42.211 16.793,39.111 8.222,39.111 			"/>
			
				<rect x="21.324" y="25.691" fill="#3D4154" stroke="#3D4154" stroke-width="0.2074" stroke-miterlimit="10" width="3.309" height="16.52"/>
			<path fill="#3D4154" stroke="#3D4154" stroke-width="0.2074" stroke-miterlimit="10" d="M37.875,35.646h4.149v2.774
				c-1.039,0.741-2.373,1.164-3.762,1.164c-3.173,0-5.364-2.329-5.364-5.667V33.87c0-3.086,2.304-5.598,5.135-5.598
				c2.039,0,3.25,0.682,4.455,1.709l0.11,0.089l1.991-2.372l-0.105-0.089c-1.877-1.591-3.714-2.24-6.337-2.24
				c-2.368,0-4.565,0.902-6.148,2.54c-1.543,1.594-2.417,3.727-2.417,6.006v0.046c0,2.362,0.859,4.513,2.372,6.054
				c1.572,1.598,3.739,2.442,6.237,2.442c3.2,0,5.481-1.394,6.848-2.563l0.027-0.041v-6.976h-7.188L37.875,35.646L37.875,35.646z"/>
			<polygon fill="#3D4154" stroke="#3D4154" stroke-width="0.2074" stroke-miterlimit="10" points="60.892,32.464 53.428,32.464 
				53.428,25.691 50.247,25.691 50.247,42.211 53.428,42.211 53.428,35.368 60.892,35.368 60.892,42.211 64.003,42.211 
				64.003,25.691 60.892,25.691 			"/>
			<polygon fill="#3D4154" stroke="#3D4154" stroke-width="0.2074" stroke-miterlimit="10" points="68.495,28.594 73.68,28.594 
				73.68,42.211 76.79,42.211 76.79,28.594 81.975,28.594 81.975,25.691 68.495,25.691 			"/>
			<polygon fill="#3D4154" stroke="#3D4154" stroke-width="0.2074" stroke-miterlimit="10" points="100.567,32.464 93.103,32.464 
				93.103,25.691 89.923,25.691 89.923,42.211 93.103,42.211 93.103,35.368 100.567,35.368 100.567,42.211 103.679,42.211 
				103.679,25.691 100.567,25.691 			"/>
			<path fill="#3D4154" stroke="#3D4154" stroke-width="0.2074" stroke-miterlimit="10" d="M125.866,33.916V33.87
				c0-2.288-0.841-4.417-2.393-5.993c-1.449-1.47-3.414-2.341-5.557-2.483V0.599h-1.036V25.38c-2.006,0.082-3.832,0.78-5.283,2.007
				L94.322,9.911l-0.719,0.73l17.242,17.46c-1.445,1.565-2.258,3.621-2.258,5.814v0.046c0,2.29,0.865,4.418,2.416,5.993
				c1.516,1.539,3.597,2.42,5.879,2.498v24.989h1.036V42.437c1.867-0.138,3.685-0.852,5.076-2.058l17.504,17.708l0.727-0.739
				l-17.508-17.692C125.117,38.098,125.866,36.073,125.866,33.916z M113.712,29.572c0.363-0.312,0.773-0.578,1.207-0.789
				c0.693-0.329,1.46-0.511,2.296-0.511c3.072,0,5.403,2.428,5.403,5.645v0.046c0,3.19-2.324,5.597-5.37,5.597
				c-3.072,0-5.415-2.425-5.415-5.644v-0.046C111.834,32.106,112.563,30.582,113.712,29.572z"/>
			<path fill="#3D4154" stroke="#3D4154" stroke-width="0.2074" stroke-miterlimit="10" d="M141.626,35.147
				c0,2.831-1.416,4.39-3.963,4.39c-2.523,0-3.985-1.644-3.985-4.506v-9.34h-3.11v9.456c0,2.342,0.651,4.173,1.922,5.442
				c1.212,1.208,2.97,1.85,5.122,1.85c4.53,0,7.125-2.71,7.125-7.431v-9.315h-3.111L141.626,35.147L141.626,35.147z"/>
			<path fill="#3D4154" stroke="#3D4154" stroke-width="0.2074" stroke-miterlimit="10" d="M160.511,34.193
				c-0.838-0.716-2.121-1.259-3.984-1.713c-3.184-0.759-3.771-1.295-3.771-2.42v-0.046c0-1.071,1.041-1.79,2.538-1.79
				c1.433,0,2.87,0.538,4.355,1.644l0.117,0.084l1.692-2.382l-0.101-0.081c-1.74-1.396-3.695-2.073-5.986-2.073
				c-1.599,0-3.065,0.476-4.091,1.344c-1.042,0.879-1.635,2.125-1.635,3.509v0.046c0,1.486,0.476,2.548,1.472,3.344
				c0.837,0.667,2.032,1.158,4.047,1.644c3.026,0.698,3.538,1.314,3.538,2.35v0.047c0,1.156-1.041,1.905-2.71,1.905
				c-1.826,0-3.356-0.642-5.016-2.078l-0.103-0.094l-1.892,2.254l0.103,0.09c1.933,1.723,4.295,2.636,6.857,2.636
				c3.611,0,5.938-1.958,5.938-4.991v-0.046C161.88,36.024,161.432,34.981,160.511,34.193z"/>
			<polygon fill="#3D4154" stroke="#3D4154" stroke-width="0.2074" stroke-miterlimit="10" points="169.828,39.378 169.828,35.298 
				177.984,35.298 177.984,32.464 169.828,32.464 169.828,28.523 179.02,28.523 179.02,25.691 166.718,25.691 166.718,42.211 
				179.16,42.211 179.16,39.378 			"/>
		</g>
	</g>
	<path opacity="0.8" fill="#FFFFFF" enable-background="new    " d="M24.522,76.746c-0.714,0.317-1.488,0.534-2.297,0.632
		c0.828-0.495,1.461-1.282,1.76-2.217c-0.772,0.458-1.632,0.792-2.545,0.975c-0.729-0.779-1.771-1.267-2.924-1.267
		c-2.211,0-4.002,1.792-4.002,4.004c0,0.312,0.034,0.622,0.101,0.916C11.287,79.62,8.334,78.024,6.36,75.6
		c-0.347,0.594-0.544,1.283-0.544,2.017c0,1.388,0.708,2.614,1.787,3.334c-0.66-0.022-1.278-0.203-1.819-0.504
		c0,0.017,0,0.036,0,0.052c0,1.941,1.382,3.559,3.216,3.93c-0.337,0.09-0.693,0.138-1.058,0.138c-0.258,0-0.505-0.023-0.756-0.067
		c0.514,1.586,1.992,2.743,3.744,2.775c-1.37,1.075-3.097,1.719-4.975,1.719c-0.32,0-0.64-0.02-0.954-0.055
		c1.771,1.133,3.879,1.799,6.138,1.799c7.371,0,11.401-6.104,11.401-11.397c0-0.173-0.007-0.347-0.014-0.518
		C23.311,78.255,23.987,77.548,24.522,76.746z"/>
	<path opacity="0.8" fill="#FFFFFF" enable-background="new    " d="M47.546,73.246H30.614c-0.599,0-1.092,0.492-1.092,1.093v16.93
		c0,0.602,0.493,1.094,1.092,1.094h16.932c0.604,0,1.094-0.492,1.094-1.094v-16.93C48.64,73.737,48.15,73.246,47.546,73.246z
		 M45.748,83.972h-2.626v7.025h-2.676v-7.025H38.59v-2.533h1.855c0,0,0-1.036,0-2.16c0-1.7,1.101-3.261,3.629-3.261
		c1.022,0,1.78,0.1,1.78,0.1l-0.058,2.363c0,0-0.772-0.004-1.619-0.004c-0.912,0-1.057,0.417-1.057,1.115c0,0.105,0,0.127,0,0.118
		c0,0.19,0,0.659,0,1.731h2.748L45.748,83.972z"/>
	<g id="Your_Icon_26_" opacity="0.8">
		<g>
			<g id="Instagram_Icon_8_">
				<g>
					<path fill="#FFFFFF" d="M91.312,82.555c0,2.496-2.023,4.519-4.52,4.519c-2.493,0-4.521-2.023-4.521-4.519
						c0-0.566,0.111-1.102,0.298-1.602h-5.537v6.731c0,2.698,2.185,4.881,4.878,4.881h9.765c2.696,0,4.884-2.183,4.884-4.881v-6.731
						h-5.546C91.205,81.451,91.312,81.989,91.312,82.555z"/>
					<circle fill="#FFFFFF" cx="86.792" cy="82.556" r="2.712"/>
					<path fill="#FFFFFF" d="M91.675,73.04H82.17v5.093h-1.071v-5.016c-0.369,0.059-0.728,0.159-1.066,0.301v4.715h-1.067v-4.096
						c-1.173,0.892-1.933,2.297-1.933,3.888v1.429h6.572c0.818-0.814,1.947-1.317,3.188-1.317c1.246,0,2.369,0.503,3.188,1.317
						h6.579v-1.429C96.559,75.228,94.372,73.04,91.675,73.04z M93.857,77.657c0,0.304-0.246,0.551-0.551,0.551h-1.645
						c-0.301,0-0.547-0.247-0.547-0.551v-1.643c0-0.303,0.246-0.552,0.547-0.552h1.645c0.305,0,0.551,0.249,0.551,0.552V77.657z"/>
				</g>
			</g>
		</g>
	</g>
	<path opacity="0.8" fill="#FFFFFF" enable-background="new    " d="M70.669,73.607H54.996c-0.745,0-1.355,0.592-1.355,1.324v15.742
		c0,0.732,0.61,1.327,1.355,1.327H70.67c0.751,0,1.363-0.595,1.363-1.327V74.931C72.033,74.2,71.42,73.607,70.669,73.607z
		 M63.884,84.784L60.48,86.74l0.008-3.928l0.011-3.925l3.396,1.972l3.396,1.971L63.884,84.784z"/>
	<g>
		<polygon fill="#FFFFFF" points="72.619,135 84.261,123.354 82.013,121.112 70.371,132.752 		"/>
		
			<rect x="69.909" y="114.824" transform="matrix(-0.6943 -0.7197 0.7197 -0.6943 43.3821 251.2524)" fill="#FFFFFF" width="10.292" height="3.176"/>
		<g>
			<path fill="#FFFFFF" d="M89.751,113.256c1.937,2.772,3.074,6.135,3.074,9.775c0,4.721-1.914,8.986-5.008,12.088
				c-3.098,3.092-7.364,5.004-12.088,5.004c-3.637,0-7.004-1.135-9.776-3.07l-2.1,2.102c3.323,2.447,7.434,3.902,11.876,3.902
				c5.524,0,10.539-2.246,14.157-5.865c3.622-3.621,5.865-8.639,5.865-14.156c0-4.446-1.447-8.553-3.9-11.879L89.751,113.256z"/>
			<path fill="#FFFFFF" d="M63.579,135.053c-3.062-3.094-4.943-7.328-4.943-12.021c0-4.727,1.91-8.992,5.001-12.091
				c3.102-3.095,7.365-5.004,12.093-5.004c4.693,0,8.93,1.884,12.021,4.942l2.073-2.071c-3.611-3.582-8.601-5.801-14.094-5.801
				c-5.528,0-10.542,2.242-14.161,5.865c-3.622,3.617-5.865,8.631-5.865,14.16c0,5.49,2.217,10.477,5.806,14.094L63.579,135.053z"/>
		</g>
	</g>
	<g>
		<polygon fill="#FFFFFF" points="28.577,135 16.936,123.354 19.184,121.112 30.825,132.752 		"/>
		
			<rect x="20.986" y="114.826" transform="matrix(0.6943 -0.7197 0.7197 0.6943 -75.7928 54.3941)" fill="#FFFFFF" width="10.292" height="3.176"/>
		<g>
			<path fill="#FFFFFF" d="M11.445,113.256c-1.937,2.772-3.074,6.135-3.074,9.775c0,4.721,1.914,8.986,5.008,12.088
				c3.098,3.092,7.364,5.004,12.088,5.004c3.637,0,7.004-1.135,9.776-3.07l2.1,2.102c-3.323,2.447-7.434,3.902-11.876,3.902
				c-5.524,0-10.539-2.246-14.157-5.865c-3.622-3.621-5.865-8.639-5.865-14.156c0-4.446,1.447-8.553,3.9-11.879L11.445,113.256z"/>
			<path fill="#FFFFFF" d="M37.617,135.053c3.062-3.094,4.943-7.328,4.943-12.021c0-4.727-1.91-8.992-5.001-12.091
				c-3.102-3.095-7.365-5.004-12.093-5.004c-4.693,0-8.93,1.884-12.021,4.942l-2.073-2.071c3.611-3.582,8.601-5.801,14.094-5.801
				c5.528,0,10.542,2.242,14.161,5.865c3.622,3.617,5.865,8.631,5.865,14.16c0,5.49-2.217,10.477-5.806,14.094L37.617,135.053z"/>
		</g>
	</g>
	<g>
		<g>
			<path fill="#3B3D54" d="M114.201,114.081v0.913c1.525,0.001,2.9,0.616,3.9,1.616c1,1.002,1.617,2.375,1.617,3.903
				c0,1.527-0.615,2.899-1.617,3.901c-1,1-2.373,1.615-3.9,1.616c-1.529-0.001-2.903-0.616-3.904-1.616
				c-1.001-1.002-1.615-2.374-1.616-3.901c0.001-1.526,0.616-2.901,1.616-3.903c1.001-1,2.375-1.615,3.904-1.616V114.081v-0.912
				c-4.059,0-7.348,3.287-7.348,7.345c0,4.058,3.289,7.345,7.348,7.345c4.057,0,7.344-3.287,7.344-7.345
				c0-4.058-3.287-7.345-7.344-7.345V114.081z"/>
			<path fill="#3B3D54" d="M112.888,117.821v3.312c0,0.299,0.148,0.581,0.395,0.751l2.344,1.621
				c0.416,0.287,0.985,0.182,1.271-0.232c0.287-0.416,0.184-0.984-0.231-1.271l-1.95-1.349v-2.832c0-0.502-0.41-0.912-0.914-0.912
				C113.299,116.909,112.888,117.319,112.888,117.821z"/>
		</g>
	</g>
	<g>
		<circle fill="#3B3D54" cx="153.563" cy="117.854" r="1.435"/>
		<circle fill="#3B3D54" cx="152.539" cy="123.501" r="1.435"/>
		<circle fill="#3B3D54" cx="150.229" cy="120.164" r="1.435"/>
		<circle fill="#3B3D54" cx="153.054" cy="120.677" r="0.797"/>
		<circle fill="#3B3D54" cx="155.875" cy="121.19" r="1.435"/>
		<path fill="#3B3D54" d="M164.293,114.234c0.005-0.438-0.343-0.799-0.78-0.806c-1.812-0.028-3.412,1.095-4.229,2.757
			c-1.119-1.505-2.789-2.607-4.783-2.97c-4.17-0.758-8.165,2.007-8.922,6.177c-0.757,4.169,2.011,8.162,6.18,8.919
			c4.168,0.757,8.161-2.007,8.918-6.176c0.254-1.392,0.111-2.764-0.342-4.003c0.236-1.781,1.568-3.144,3.152-3.119
			C163.926,115.021,164.285,114.672,164.293,114.234z M156.41,125.502c-1.216,0.841-2.74,1.217-4.31,0.932
			c-1.572-0.284-2.869-1.174-3.711-2.388c-0.846-1.218-1.221-2.742-0.937-4.312c0.284-1.568,1.175-2.865,2.394-3.711
			c1.215-0.839,2.738-1.215,4.312-0.93c1.565,0.285,2.862,1.174,3.707,2.389c0.84,1.217,1.218,2.742,0.933,4.312
			C158.515,123.364,157.628,124.66,156.41,125.502z"/>
	</g>
	<g>
		<circle fill="#FFFFFF" cx="21.564" cy="242.854" r="1.435"/>
		<circle fill="#FFFFFF" cx="20.539" cy="248.501" r="1.435"/>
		<circle fill="#FFFFFF" cx="18.229" cy="245.164" r="1.436"/>
		<circle fill="#FFFFFF" cx="21.054" cy="245.677" r="0.797"/>
		<circle fill="#FFFFFF" cx="23.875" cy="246.19" r="1.435"/>
		<path fill="#FFFFFF" d="M32.293,239.234c0.005-0.438-0.343-0.799-0.781-0.81c-1.814-0.024-3.412,1.099-4.228,2.761
			c-1.119-1.506-2.789-2.607-4.783-2.974c-4.17-0.758-8.165,2.011-8.922,6.181c-0.757,4.168,2.011,8.162,6.18,8.918
			c4.168,0.758,8.161-2.006,8.918-6.179c0.253-1.392,0.111-2.764-0.342-4.003c0.237-1.777,1.569-3.146,3.152-3.115
			C31.926,240.021,32.285,239.672,32.293,239.234z M24.41,250.502c-1.216,0.841-2.74,1.217-4.31,0.932
			c-1.572-0.283-2.869-1.174-3.711-2.388c-0.842-1.218-1.217-2.741-0.933-4.312c0.285-1.568,1.175-2.865,2.39-3.711
			c1.215-0.84,2.742-1.215,4.314-0.934c1.567,0.285,2.864,1.178,3.707,2.393c0.84,1.217,1.218,2.742,0.933,4.312
			C26.515,248.363,25.628,249.66,24.41,250.502z"/>
	</g>
	<polygon fill="#ECECEC" points="35,167.137 27.648,167.137 26.344,168.441 30.932,168.441 25.42,172.387 27.529,178.854 22,174.82 
		16.469,178.831 18.58,172.393 13.064,168.441 19.885,168.441 22,161.934 23.949,167.934 24.984,166.896 22,157.711 21.379,159.621 
		18.936,167.137 9,167.137 17.041,172.896 13.975,182.253 21.998,176.434 30.025,182.289 26.957,172.893 	"/>
	<g>
		<path fill="#3D4154" d="M134.896,81.186c-0.814,0.359-1.692,0.605-2.609,0.717c0.939-0.562,1.659-1.453,1.995-2.514
			c-0.874,0.521-1.849,0.896-2.882,1.104c-0.83-0.886-2.012-1.438-3.319-1.438c-2.509,0-4.541,2.033-4.541,4.544
			c0,0.354,0.039,0.702,0.113,1.036c-3.774-0.192-7.124-2.001-9.365-4.747c-0.391,0.669-0.613,1.451-0.613,2.283
			c0,1.578,0.802,2.967,2.023,3.782c-0.746-0.024-1.447-0.228-2.061-0.568c0,0.018,0,0.039,0,0.057c0,2.201,1.565,4.038,3.644,4.457
			c-0.383,0.104-0.782,0.157-1.195,0.157c-0.293,0-0.578-0.026-0.855-0.079c0.578,1.803,2.258,3.119,4.244,3.154
			c-1.556,1.218-3.515,1.943-5.643,1.943c-0.367,0-0.729-0.02-1.086-0.062c2.014,1.288,4.4,2.042,6.965,2.042
			c8.36,0,12.931-6.925,12.931-12.929c0-0.197-0.004-0.394-0.014-0.589C133.517,82.899,134.287,82.098,134.896,81.186z"/>
		<g>
			<path fill="#3D4154" d="M164.865,96.471c0,0.598-0.487,1.085-1.089,1.085h-16.828c-0.598,0-1.088-0.487-1.088-1.085V79.642
				c0-0.597,0.49-1.086,1.088-1.086h16.828c0.602,0,1.089,0.489,1.089,1.086V96.471z"/>
			<path fill="#FFFFFF" d="M156.722,96.201v-6.985h-1.849V86.7h1.849c0,0,0-1.031,0-2.147c0-1.689,1.09-3.24,3.604-3.24
				c1.019,0,1.771,0.098,1.771,0.098l-0.06,2.349c0,0-0.769-0.004-1.606-0.004c-0.904,0-1.051,0.415-1.051,1.108
				c0,0.549,0-1.168,0,1.837h2.729l-0.115,2.516h-2.609v6.985L156.722,96.201L156.722,96.201z"/>
		</g>
		<g id="Instagram_Icon_17_">
			<g>
				<path fill="#3D4154" d="M218.646,87.826c0,2.301-1.865,4.167-4.166,4.167c-2.299,0-4.168-1.865-4.168-4.167
					c0-0.521,0.104-1.015,0.275-1.475h-5.107v6.205c0,2.486,2.02,4.499,4.5,4.499h9c2.485,0,4.504-2.013,4.504-4.499v-6.205h-5.108
					C218.547,86.809,218.646,87.306,218.646,87.826z"/>
				<path fill="#3D4154" d="M214.479,85.327c1.381,0,2.502,1.119,2.502,2.499c0,1.384-1.121,2.502-2.502,2.502
					c-1.379,0-2.498-1.118-2.498-2.502C211.981,86.446,213.101,85.327,214.479,85.327z"/>
				<path fill="#3D4154" d="M218.979,79.056h-8.767v4.694h-0.979v-4.626c-0.342,0.057-0.674,0.147-0.983,0.279v4.347h-0.985v-3.775
					c-1.082,0.822-1.783,2.116-1.783,3.583v1.318h6.062c0.753-0.751,1.792-1.215,2.938-1.215c1.149,0,2.187,0.464,2.938,1.215h6.063
					v-1.318C223.481,81.072,221.465,79.056,218.979,79.056z M220.99,83.312c0,0.278-0.228,0.506-0.507,0.506h-1.521
					c-0.274,0-0.506-0.228-0.506-0.506v-1.518c0-0.277,0.229-0.506,0.506-0.506h1.521c0.279,0,0.507,0.229,0.507,0.506V83.312z"/>
			</g>
		</g>
		<g>
			<g>
				<path fill="#3D4154" d="M183.405,93.438c-0.188,0.259-0.359,0.387-0.524,0.387c-0.11,0-0.176-0.064-0.194-0.193
					c-0.01-0.027-0.01-0.129-0.01-0.321v-3.367h-0.828v3.616c0,0.323,0.03,0.54,0.077,0.68c0.081,0.229,0.267,0.339,0.532,0.339
					c0.303,0,0.616-0.184,0.947-0.56v0.498h0.828v-4.573h-0.828V93.438L183.405,93.438z"/>
			</g>
			<g>
				<polygon fill="#3D4154" points="178.84,89.243 179.815,89.243 179.815,94.516 180.735,94.516 180.735,89.243 181.729,89.243 
					181.729,88.377 178.84,88.377 				"/>
			</g>
			<g>
				<path fill="#3D4154" d="M186.634,89.886c-0.304,0-0.588,0.167-0.854,0.497v-2.006h-0.829v6.139h0.829V94.07
					c0.273,0.345,0.562,0.507,0.854,0.507c0.33,0,0.553-0.174,0.664-0.515c0.057-0.192,0.083-0.497,0.083-0.92v-1.821
					c0-0.433-0.026-0.733-0.083-0.918C187.187,90.061,186.964,89.886,186.634,89.886z M186.554,93.206
					c0,0.416-0.123,0.618-0.361,0.618c-0.139,0-0.271-0.064-0.409-0.202v-2.79c0.14-0.135,0.271-0.199,0.409-0.199
					c0.238,0,0.361,0.211,0.361,0.623V93.206z"/>
			</g>
			<g>
				<path fill="#3D4154" d="M184.483,85.243c0.27,0,0.396-0.215,0.396-0.641v-1.944c0-0.428-0.13-0.643-0.396-0.643
					c-0.271,0-0.398,0.215-0.398,0.643v1.944C184.085,85.028,184.214,85.243,184.483,85.243z"/>
			</g>
			<g>
				<g>
					<path fill="#3D4154" d="M192.366,78.556h-15.375c-1.041,0-1.889,0.846-1.889,1.888l-0.012,15.226
						c0,1.042,0.85,1.887,1.889,1.887h15.375c1.043,0,1.89-0.845,1.89-1.887l0.008-15.226
						C194.252,79.401,193.408,78.556,192.366,78.556z M186.41,81.32h0.834v3.401c0,0.197,0,0.299,0.009,0.324
						c0.02,0.132,0.085,0.197,0.198,0.197c0.164,0,0.343-0.13,0.526-0.394V81.32h0.84v4.619h-0.84v-0.504
						c-0.33,0.383-0.648,0.567-0.957,0.567c-0.269,0-0.453-0.109-0.535-0.344c-0.047-0.138-0.075-0.359-0.075-0.687V81.32z
						 M183.247,82.826c0-0.495,0.084-0.854,0.263-1.089c0.231-0.316,0.56-0.474,0.976-0.474c0.418,0,0.742,0.157,0.979,0.474
						c0.178,0.234,0.266,0.594,0.266,1.089v1.619c0,0.489-0.088,0.854-0.266,1.086c-0.229,0.314-0.561,0.472-0.979,0.472
						c-0.416,0-0.74-0.157-0.976-0.472c-0.179-0.231-0.263-0.597-0.263-1.086V82.826z M181.007,79.737l0.659,2.436l0.633-2.436
						h0.938l-1.115,3.691v2.511h-0.93v-2.511c-0.084-0.446-0.271-1.098-0.568-1.962c-0.191-0.575-0.398-1.155-0.592-1.729H181.007z
						 M191.29,94.789c-0.168,0.729-0.764,1.266-1.482,1.349c-1.699,0.189-3.424,0.193-5.133,0.189c-1.713,0.004-3.435,0-5.135-0.189
						c-0.719-0.083-1.314-0.619-1.482-1.349c-0.238-1.038-0.238-2.173-0.238-3.241c0-1.068,0.002-2.202,0.242-3.24
						c0.166-0.727,0.767-1.268,1.48-1.345c1.699-0.193,3.421-0.193,5.135-0.193c1.715,0,3.434,0,5.133,0.193
						c0.721,0.077,1.314,0.618,1.482,1.345c0.238,1.038,0.238,2.172,0.238,3.24C191.53,92.616,191.528,93.751,191.29,94.789z"/>
				</g>
			</g>
			<g>
				<path fill="#3D4154" d="M189.274,89.886c-0.422,0-0.756,0.155-0.992,0.472c-0.176,0.23-0.256,0.587-0.256,1.075v1.601
					c0,0.486,0.09,0.849,0.267,1.075c0.237,0.313,0.567,0.469,1.004,0.469c0.431,0,0.771-0.162,1-0.494
					c0.104-0.147,0.164-0.313,0.194-0.497c0.006-0.084,0.017-0.268,0.017-0.534v-0.119h-0.847c0,0.332-0.01,0.517-0.02,0.56
					c-0.05,0.223-0.164,0.332-0.367,0.332c-0.285,0-0.422-0.21-0.422-0.635V92.38h1.651v-0.946c0-0.488-0.081-0.845-0.256-1.075
					C190.021,90.041,189.688,89.886,189.274,89.886z M189.679,91.689h-0.826v-0.422c0-0.424,0.142-0.635,0.416-0.635
					c0.273,0,0.41,0.211,0.41,0.635V91.689L189.679,91.689z"/>
			</g>
		</g>
	</g>
	<g>
		<path fill="#030303" d="M261.067,110.123c-3.532-0.338-6.698-1.906-9.074-4.279c-2.689-2.692-4.352-6.4-4.352-10.511
			c0-4.107,1.659-7.813,4.352-10.506c2.371-2.367,5.527-3.934,9.05-4.277l-0.002-2.207c-8.741,0.742-15.606,8.055-15.606,16.99
			c0,8.948,6.881,16.27,15.635,16.997L261.067,110.123z"/>
		<path fill="#030303" d="M264.042,78.348l0.002,2.209c3.489,0.359,6.613,1.922,8.963,4.27c2.689,2.691,4.352,6.398,4.352,10.506
			c0,4.11-1.657,7.818-4.352,10.511c-2.345,2.344-5.46,3.902-8.938,4.268l0.002,2.212c8.688-0.793,15.494-8.089,15.494-16.99
			C279.565,86.427,272.744,79.127,264.042,78.348z"/>
	</g>
	<g>
		<path fill="#CA3743" d="M205.196,237.035c-0.024-0.018-0.053-0.033-0.084-0.033h-6.069c-0.026,0-0.062,0.016-0.08,0.033
			c-0.021,0.02-0.032,0.051-0.032,0.081v1.278c-0.586-0.611-1.32-1.057-2.117-1.354c-0.896-0.328-2.021-0.479-2.963-0.479
			c-2.414-0.002-4.404,0.981-5.781,2.545c-1.377,1.567-2.146,3.711-2.146,6.045c0,2.332,0.785,4.485,2.181,6.062
			c1.396,1.574,3.396,2.562,5.812,2.562c0.955,0,2.104-0.159,2.979-0.522c0.808-0.331,1.521-0.837,2.035-1.548v1.516
			c0,0.029,0.012,0.059,0.032,0.078s0.054,0.033,0.08,0.033h6.069c0.031,0,0.06-0.016,0.084-0.033
			c0.019-0.021,0.031-0.049,0.031-0.078v-16.103C205.229,237.086,205.215,237.055,205.196,237.035 M199.244,245.188
			c0,1.031-0.33,1.938-0.943,2.582c-0.614,0.646-1.676,1.039-2.854,1.039c-1.18,0-2.051-0.395-2.639-1.039
			c-0.586-0.646-0.888-1.551-0.888-2.582c0-1.006,0.302-1.92,0.89-2.582c0.588-0.664,1.459-1.078,2.637-1.08
			c1.179,0.002,2.234,0.418,2.854,1.08C198.914,243.271,199.244,244.184,199.244,245.188"/>
		<path fill="#CA3743" d="M174.174,232.145h-6.728c-0.028,0-0.059,0.016-0.079,0.031c-0.021,0.024-0.033,0.051-0.033,0.078v20.912
			c0,0.027,0.013,0.057,0.033,0.078s0.051,0.031,0.079,0.031h6.728c0.029,0,0.06-0.01,0.08-0.031s0.033-0.051,0.033-0.078v-20.912
			c0-0.027-0.015-0.054-0.033-0.078C174.231,232.156,174.203,232.145,174.174,232.145"/>
		<path fill="#CA3743" d="M185.772,241.771v-4.709c0-0.03-0.01-0.062-0.03-0.078c-0.021-0.023-0.052-0.033-0.08-0.033h-3.39v-4.697
			c0-0.025-0.017-0.054-0.035-0.076c-0.022-0.021-0.049-0.033-0.077-0.033h-6.41c-0.028,0-0.062,0.016-0.08,0.033
			c-0.021,0.022-0.03,0.051-0.03,0.076v4.809v4.709v11.396c0,0.027,0.01,0.061,0.03,0.079s0.052,0.03,0.08,0.03h6.41
			c0.028,0,0.055-0.012,0.077-0.03c0.021-0.021,0.035-0.052,0.035-0.079v-11.279h3.39c0.028,0,0.06-0.013,0.08-0.035
			C185.765,241.833,185.772,241.801,185.772,241.771"/>
		<path fill="#CA3743" d="M151.108,232.199c-0.021-0.035-0.06-0.055-0.096-0.055h-7.187c-0.043,0-0.086,0.023-0.102,0.064
			l-4.564,11.742l-4.541-11.742c-0.018-0.041-0.059-0.064-0.104-0.064h-7.262c-0.041,0-0.074,0.02-0.094,0.055
			c-0.021,0.029-0.025,0.07-0.01,0.105l8.99,20.949c0.02,0.039,0.057,0.062,0.1,0.062h5.641c0.045,0,0.084-0.021,0.102-0.062
			l9.125-20.949C151.133,232.271,151.129,232.229,151.108,232.199"/>
		<path fill="#CA3743" d="M166.437,245.174c0-2.701-1.146-4.895-2.912-6.393c-1.767-1.492-4.144-2.305-6.621-2.305h-0.004
			c-2.475,0-4.85,0.812-6.613,2.305c-1.771,1.498-2.914,3.691-2.912,6.398v0.002c-0.002,2.707,1.148,4.893,2.922,6.379
			c1.771,1.485,4.146,2.295,6.605,2.295c2.479,0,4.854-0.812,6.621-2.309c1.77-1.488,2.912-3.678,2.912-6.359v-0.006v-0.002v-0.009
			L166.437,245.174L166.437,245.174z M161.916,245.266l-7.315,4.352c-0.022,0.018-0.062,0.018-0.093,0.002
			c-0.026-0.021-0.045-0.049-0.045-0.076v-8.746c0-0.031,0.019-0.062,0.05-0.078c0.028-0.018,0.062-0.018,0.088,0.006l7.315,4.396
			c0.024,0.014,0.043,0.043,0.043,0.069C161.959,245.221,161.94,245.248,161.916,245.266"/>
		<polygon fill="#CA3743" points="208.155,237.021 208.155,237.211 207.627,237.211 207.627,238.592 207.412,238.592 
			207.412,237.211 206.885,237.211 206.885,237.021 		"/>
		<path fill="#CA3743" d="M208.347,237.021h0.307l0.453,1.33l0.447-1.33h0.303v1.566h-0.198v-0.926v-0.16
			c0.002-0.07,0.002-0.15,0.002-0.234l-0.447,1.32H209l-0.451-1.32v0.049c0,0.039,0,0.098,0,0.176
			c0.009,0.076,0.009,0.137,0.009,0.174v0.926h-0.205v-1.57H208.347L208.347,237.021z"/>
	</g>
	<g>
		<g>
			<path fill="#CA3743" d="M164.789,152.497c0.11,0.045,0.221,0.088,0.33,0.131c1.58-1.467,3.157-2.938,4.737-4.405
				c1.248-0.406,3.881,0.711,5.197,0.787c0.063-0.064,0.131-0.13,0.194-0.195c-0.209-1.424-1.965-3.987-1.709-5.33
				c0.306-1.608,1.967-2.819,2.104-4.541c-1.369-0.601-3.477,0.324-4.936-0.131c-0.609-0.188-3.396-3.367-3.688-4.015
				c-0.262-0.2-0.275-0.344-0.727-0.396c-0.438,1.798-0.877,3.599-1.312,5.394c-0.32,0.58-5.539,2.522-6.517,2.699
				c-0.043,0.108-0.089,0.221-0.134,0.33c1.953,1.053,3.904,2.104,5.855,3.157C164.715,146.561,164.78,151.293,164.789,152.497z
				 M139.523,163.486c5.869-0.875,5.666-9.178-0.988-9.019c-1.695,0.761-2.883,0.951-3.619,2.636
				C133.492,160.348,136.117,163.993,139.523,163.486z M136.691,158.023c0.354-1.174,1.145-1.379,2.24-1.842
				c3.459,0.004,3.627,4.885,0.656,5.524C137.451,162.17,136.133,159.879,136.691,158.023z M173.345,154.471
				c-0.771,0.295-1.488,0.271-2.104,0.658c-1.646,1.037-2.704,4.092-1.382,6.318c1.492,2.512,5.627,2.652,7.305,0.195
				c-0.021-0.156-0.043-0.311-0.064-0.461c-0.09-0.064-0.176-0.135-0.266-0.197c-0.062,0.021-0.129,0.045-0.197,0.062
				c-0.305,0.354-0.611,0.701-0.92,1.055c-2.508,1.73-5.041-0.345-5.461-2.694c-0.512-2.866,2.271-4.983,4.869-3.884
				c0.438,0.373,0.877,0.746,1.314,1.117h0.266c0.219-0.133,0.193-0.104,0.262-0.396C177.26,155.107,174.646,154.42,173.345,154.471
				z M225.854,161.249h-0.33c-0.207,0.315-0.24,0.459-0.197,0.922c0.467,0.365,0.965,0.845,1.58,1.054
				c2.012,0.688,5.148-0.147,4.74-2.433c-0.521-2.894-4.232-1.56-5.135-3.492c-1.033-2.092,3.336-2.717,4.211-0.854
				c0.09,0.021,0.178,0.043,0.264,0.065c0.281-0.206,0.387-0.284,0.395-0.79c-0.695-0.754-1.615-1.277-3.094-1.25
				c-0.502,0.131-1.008,0.264-1.512,0.396c-1.012,0.57-1.891,2.559-0.658,3.617c1.184,1.021,3.426,0.744,4.408,1.977
				C231.315,163.523,226.715,162.852,225.854,161.249z M156.104,163.223c0.59-0.271,0.998-1.258,1.117-1.975
				c0.229-0.139,3.043-0.407,3.354-0.131c0.229,0.203,0.795,1.742,1.051,2.105c0.603,0.156,1.013,0.062,1.517-0.137
				c0.465-0.971-2.572-6.756-3.026-8.227c-0.326-0.188-0.812-0.316-1.313-0.328c-0.265,0.047-0.527,0.09-0.789,0.135
				c-0.718,0.957-3.269,6.918-3.354,8.227c0.108,0.105,0.221,0.219,0.327,0.33C155.358,163.323,155.76,163.413,156.104,163.223z
				 M158.804,156.709c0.649,0.328,0.989,1.984,1.247,2.698c-0.021,0.065-0.043,0.13-0.065,0.196h-2.104
				c-0.021-0.066-0.043-0.131-0.062-0.196C158.146,158.506,158.474,157.607,158.804,156.709z M118.992,163.42
				c2.818-0.451,3.289-1.977,3.289-5.263c0-1.079,0.068-2.349-0.131-3.226c-0.377-0.281-1.084-0.488-1.58-0.135
				c-0.783,0.613-0.08,4.084-0.328,5.396c-0.117,0.625-0.424,0.91-0.723,1.314c-0.561,0.15-1.258,0.268-1.846,0.066
				c-2.242-1.033-0.082-4.9-1.248-6.715c-0.193-0.256-0.586-0.281-1.053-0.266c-0.293,0.168-0.461,0.207-0.66,0.461
				c-0.02,0.986-0.043,1.979-0.064,2.961C114.648,161.366,115.25,164.02,118.992,163.42z M180.912,163.292
				c0.043-0.067,0.086-0.134,0.131-0.201c0.022-2.762,0.043-5.524,0.065-8.289c-0.196-0.065-0.396-0.131-0.594-0.198
				c-0.109,0.067-0.222,0.133-0.328,0.198c-0.149,0.283,0.021,8.273,0.194,8.423C180.562,163.245,180.735,163.266,180.912,163.292z
				 M185.385,163.292c0.046-0.067,0.089-0.134,0.134-0.201c0.021-2.299,0.045-4.604,0.065-6.907
				c0.021-0.021,0.041-0.045,0.063-0.063h0.199c1.688,2.366,3.377,4.737,5.062,7.104c0.221,0.021,0.438,0.043,0.657,0.067
				c0.043-0.024,0.088-0.047,0.131-0.067c0.22-0.873,0.394-7.548,0.066-8.354c-0.021-0.062-0.045-0.134-0.066-0.195h-0.594
				c-0.696,1.363,0.021,5.146-0.194,6.777c-0.046,0.039-0.091,0.086-0.134,0.131c-1.299-1.224-3.95-6.853-5.592-6.979
				c-0.623,0.431-0.688,7.062-0.396,8.559C184.99,163.2,185.188,163.245,185.385,163.292z M205.256,163.292
				c0.464-1.017,0.147-5.8,0.136-7.176c0.043-0.021,0.086-0.043,0.131-0.066c0.938,1.3,1.799,3.263,2.367,4.808
				c0.276,0.177,0.866,0.438,1.25,0.129c0.748-1.574,1.491-3.154,2.239-4.733c0.086-0.063,0.175-0.133,0.263-0.198
				c0.021,2.35,0.043,4.694,0.065,7.041c0.063,0.047,0.131,0.092,0.196,0.135c0.152,0.021,0.308,0.043,0.462,0.065
				c0.043-0.065,0.086-0.134,0.131-0.2c0.289-0.722,0.153-7.613-0.065-8.354c-0.367-0.101-0.787-0.198-1.117,0
				c-0.539,0.349-2.289,4.31-2.5,5.134c-0.088,0.062-0.176,0.131-0.265,0.195c-0.834-1.754-1.668-3.51-2.502-5.264
				c-0.327-0.065-0.655-0.133-0.985-0.199c-0.812,0.578-0.683,7.045-0.461,8.621C204.817,163.245,205.037,163.266,205.256,163.292z
				 M215.981,163.292c0.494-0.621,0.916-1.724,1.119-2.569c0.625-0.427,2.776-0.423,3.883-0.197
				c0.353,0.854,0.701,1.711,1.052,2.565c0.229,0.134,0.325,0.195,0.726,0.201h0.065c0.317-0.562-0.074-1.291-0.328-1.912
				c-0.447-1.085-2.231-6.305-2.961-6.709c-0.24-0.022-0.481-0.045-0.724-0.067c-0.953,0.819-3.019,6.824-3.558,8.424
				c0.022,0.063,0.043,0.135,0.065,0.197C215.545,163.245,215.765,163.266,215.981,163.292z M219.076,155.854
				c0.321,0.184,1.521,3.203,1.579,3.75h-2.829C217.521,159.342,218.776,156.395,219.076,155.854z M111.951,162.895
				c0.066-0.193,0.133-0.396,0.197-0.592c-0.045-0.154-0.088-0.309-0.131-0.462c-1.1-0.62-3.283,0.169-4.607-0.329
				c-0.338-0.195-0.271-1.41-0.131-1.777c1.162-0.062,2.326-0.131,3.488-0.193c1.713-2.936-4.436,0.234-3.553-2.961
				c0.307-0.438,3.756-0.145,4.604-0.396c0.172-0.275,0.219-0.601,0.199-1.119c-1.117-0.795-4.318-0.42-6.119-0.394
				c-0.357,0.263-0.672,0.42-0.791,0.92c-0.246,1.021-0.064,7.082,0.463,7.438C106.105,163.527,111.605,163.418,111.951,162.895z
				 M126.889,163.223c0.344-0.574,0.486-1.938,0.264-2.697c0.152-0.236,0.432-0.377,0.787-0.193
				c1.443,0.887,1.334,2.979,3.752,2.963c0.197-0.134,0.395-0.268,0.592-0.396c-0.109-0.92-1.473-2.26-2.105-2.767v-0.194
				c0.592-0.315,1.289-0.502,1.711-0.987c0.934-1.064,0.305-3.171-0.592-3.75c-1.143-0.734-3.527-0.574-5.396-0.523
				c-0.311,0.226-0.58,0.324-0.723,0.724c-0.381,1.07-0.053,7.387,0.197,7.697C125.623,163.4,126.459,163.292,126.889,163.223z
				 M127.283,156.182c2.09-0.086,3.422,0.24,2.764,2.105c-0.566,0.404-1.85,0.822-2.699,0.461
				C126.967,158.471,127.074,156.586,127.283,156.182z M147.942,163.292c0.531-0.541,0.5-1.515,0.461-2.634
				c1.369-0.739,3.429,0.246,4.541-1.383c0.377-0.551,0.484-1.549,0.328-2.237c-0.584-2.603-3.06-2.437-6.25-2.367
				c-0.11,0.063-0.224,0.131-0.328,0.195c-0.483,0.813-0.604,7.805,0.062,8.356C147.153,163.245,147.551,163.266,147.942,163.292z
				 M148.34,156.445c0.063-0.088,0.132-0.176,0.197-0.264c1.078-0.035,2.18-0.072,2.565,0.594c0.379,0.404,0.312,1.354-0.065,1.709
				c-0.351,0.599-1.521,0.572-2.5,0.523C148.235,158.469,148.317,157.292,148.34,156.445z M195.649,163.223
				c1.865,0.021,3.729,0.043,5.595,0.068c0.267-0.207,0.317-0.168,0.327-0.66c-1.057-0.576-3.745-0.219-5.196-0.199
				c-0.233-0.488-0.315-2.438-0.065-3.021c0.604-0.53,3.188,0.124,4.017-0.267c0.188-0.119,0.161-0.129,0.266-0.33
				c-0.047-0.088-0.09-0.176-0.135-0.264c-1.356-0.023-2.722-0.045-4.078-0.066c-0.297-0.598-0.312-2.266-0.063-2.824
				c0.39-0.396,4.315-0.217,5.065-0.197c0.043-0.193,0.086-0.396,0.132-0.594c-0.886-0.518-4.478-0.221-5.855-0.195
				c-0.698,0.771-0.348,6.57-0.33,8.227C195.433,163.002,195.541,163.113,195.649,163.223z M221.905,166.71h-116.6
				c-0.043,0.175-0.086,0.351-0.131,0.524c0.066,0.045,0.131,0.09,0.197,0.135h126.075c0.044-0.135,0.089-0.264,0.134-0.396v-0.062
				C230.59,166.342,223.709,166.71,221.905,166.71z M107.938,170.329c-0.309,0.637-0.613,1.272-0.92,1.909h-0.197
				c-0.355-0.625-0.557-1.821-1.383-1.973c-0.477,0.596-0.291,2.385-0.264,3.42c0.066,0.045,0.131,0.088,0.197,0.131
				c0.043,0.021,0.088,0.043,0.131,0.063c0.48-0.467-0.035-1.342,0.264-2.172v-0.133h0.066c0.285,0.463,0.572,0.924,0.855,1.385
				c0.703,0.276,0.918-0.877,1.053-1.385c0.064-0.021,0.131-0.043,0.197-0.062c0.209,0.387,0.211,1.555,0.066,2.036
				c0.191,0.265,0.158,0.328,0.527,0.267c0.188-0.897,0.34-2.616-0.068-3.487H107.938L107.938,170.329z M109.846,170.395
				c-0.393,0.268-0.459,2.635-0.197,3.229c0.232,0.354,1.977,0.438,2.5,0.193h0.131v-0.33c-0.658-0.043-1.314-0.086-1.975-0.129
				c-0.125-0.248-0.166-0.662-0.064-0.984c0.482-0.021,0.967-0.045,1.447-0.062c0.045-0.135,0.088-0.266,0.131-0.396
				c-0.48-0.043-0.965-0.09-1.445-0.133c-0.262-0.166-0.244-0.598-0.133-0.922c0.613-0.021,1.229-0.045,1.844-0.062
				c0.064-0.021,0.129-0.047,0.195-0.066v-0.33c-0.547-0.043-1.096-0.086-1.645-0.129
				C110.373,170.309,110.107,170.352,109.846,170.395z M120.176,170.266c-0.086,0.043-0.176,0.086-0.264,0.129
				c-0.438,1.101-0.877,2.193-1.316,3.291v0.064c0.188,0.086,0.189,0.125,0.396,0.066c0.262-0.154,0.426-0.561,0.527-0.854
				c0.264-0.136,1.031-0.229,1.379-0.067c0.197,0.33,0.396,0.657,0.594,0.987h0.264c0.043-0.022,0.088-0.045,0.131-0.065
				c0.021-0.975-0.863-2.683-1.383-3.485C120.396,170.309,120.287,170.286,120.176,170.266z M120.57,172.37
				c-0.174,0.022-0.352,0.043-0.525,0.065c-0.457-0.25-0.117-0.771,0.131-1.25c0.377,0.146,0.477,0.662,0.592,1.053
				C120.705,172.282,120.637,172.325,120.57,172.37z M125.637,170.266c-0.086,0.021-0.174,0.043-0.262,0.062
				c-0.375,0.6-0.383,2.701-0.133,3.488c0.088,0.021,0.176,0.043,0.264,0.062h0.066c0.172-0.275,0.219-0.604,0.197-1.115
				c0.584-0.312,1.426-0.32,1.908-0.658c0.088-0.314,0.174-0.689,0.066-1.057C127.467,170.355,126.627,170.225,125.637,170.266z
				 M126.889,172.042c-0.375,0.021-0.746,0.043-1.119,0.063c-0.023-0.373-0.043-0.744-0.066-1.119
				c0.066-0.063,0.131-0.131,0.197-0.194C126.965,170.71,127.744,171.458,126.889,172.042z M129.322,170.266
				c-0.219,0.086-0.439,0.172-0.658,0.262c-0.271,0.438-0.053,3.191,0.266,3.355h0.062c0.166-0.281,0.125-0.811,0.264-1.186
				c0.133-0.205,0.031-0.141,0.33-0.197c0.395,0.463,0.789,0.922,1.184,1.383c0.09-0.023,0.176-0.045,0.266-0.066
				c0.064-0.021,0.131-0.043,0.195-0.062v-0.131c-0.262-0.311-0.525-0.613-0.789-0.922v-0.266c0.379-0.125,0.582-0.307,0.789-0.592
				c0.074-0.32,0.084-0.676-0.064-0.922C130.904,170.352,130.146,170.247,129.322,170.266z M129.256,171.975
				c-0.045-0.307-0.088-0.613-0.131-0.922c0.086-0.088,0.176-0.176,0.262-0.262c0.375,0.043,0.746,0.086,1.121,0.131
				c0.088,0.174,0.176,0.35,0.262,0.527C130.426,171.979,130.09,172.113,129.256,171.975z M133.338,170.266
				c-2.34,1.43-1.156,4.584,1.381,3.551C136.537,173.077,135.855,170.131,133.338,170.266z M133.402,173.422
				c-1.318-0.469-0.684-2.088,0.064-2.631h0.791C135.434,171.725,135.244,174.078,133.402,173.422z M138.469,171.975
				c-0.043,0.021-0.088,0.043-0.131,0.066c-0.188,0.484,0.322,0.49,0.855,0.395c0.043,0.131,0.088,0.266,0.131,0.396
				c-0.152,0.178-0.307,0.354-0.459,0.525c-0.521,0.141-0.902,0.084-1.383-0.062c-0.658-0.896-0.525-1.957,0.395-2.5
				c0.801-0.018,1.025,0.146,1.447,0.459h0.264c0.021-0.131,0.043-0.268,0.064-0.396c-0.533-0.42-0.85-0.629-1.906-0.59
				c-1.047,0.637-2.244,2.562-0.525,3.483c0.893,0.481,1.812-0.114,2.498,0.133c0.043-0.022,0.09-0.045,0.133-0.065
				c-0.023-0.522-0.043-1.053-0.066-1.576C139.574,171.911,139.023,171.938,138.469,171.975z M143.404,171.975
				c0.109-0.438,0.115-0.758,0-1.184c-0.561-0.393-1.24-0.439-2.172-0.525c-0.088,0.021-0.174,0.043-0.264,0.062
				c-0.389,0.602-0.543,3.324,0.197,3.555h0.066c0.215-0.354,0.197-0.777,0.197-1.316c0.088-0.021,0.176-0.043,0.264-0.062
				c0.416,0.463,0.834,0.922,1.25,1.385c0.152-0.021,0.307-0.047,0.461-0.064c0.021-0.066,0.043-0.131,0.064-0.197
				c-0.305-0.307-0.613-0.613-0.92-0.922v-0.131C142.832,172.37,143.119,172.172,143.404,171.975z M141.561,172.042
				c-0.158-0.312-0.189-0.944,0-1.25c0.373,0.043,0.746,0.086,1.119,0.131c0.146,0.231,0.205,0.353,0.197,0.789
				C142.518,171.96,142.248,172.066,141.561,172.042z M145.51,170.266c-0.557,0.896-1.307,2.404-1.447,3.551h0.525
				c0.111-0.264,0.219-0.521,0.33-0.789c0.328-0.198,0.857-0.219,1.446-0.195c0.197,0.354,0.396,0.703,0.595,1.055h0.326
				c0.18-0.811-0.791-3.055-1.313-3.555C145.815,170.309,145.664,170.286,145.51,170.266z M146.168,172.37h-0.723
				c-0.066-0.021-0.133-0.045-0.199-0.065c0.133-0.373,0.264-0.746,0.395-1.117c0.377,0.147,0.475,0.662,0.594,1.055
				C146.213,172.282,146.188,172.325,146.168,172.37z M150.905,170.329c-0.309,0.637-0.612,1.272-0.924,1.909h-0.262
				c-0.267-0.569-0.525-1.146-0.791-1.711c-0.13-0.204-0.191-0.204-0.459-0.262l-0.267,0.129c-0.021,1.119-0.043,2.235-0.062,3.354
				c0.129,0.045,0.262,0.088,0.396,0.133c0.239-0.529-0.029-1.639,0.196-2.236v-0.131h0.063c0.222,0.438,0.438,0.879,0.656,1.312
				c0.209,0.133,0.229,0.18,0.594,0.197c0.242-0.48,0.479-0.967,0.726-1.447h0.197v2.105c0.063,0.062,0.133,0.131,0.194,0.195h0.194
				c0.048-0.064,0.093-0.133,0.136-0.195v-3.227c-0.088-0.064-0.179-0.133-0.267-0.194
				C151.127,170.286,151.017,170.309,150.905,170.329z M154.522,172.105c-0.487,0.147-0.989-1.051-1.117-1.646
				c-0.151-0.064-0.309-0.133-0.461-0.193c-0.616,0.512-0.428,2.301-0.396,3.42c0.066,0.045,0.133,0.088,0.197,0.131
				c0.045,0.021,0.088,0.043,0.131,0.064c0.428-0.389,0.256-1.633,0.266-2.367c0.043-0.021,0.088-0.047,0.131-0.062
				c0.242,0.502,0.482,1.008,0.729,1.514h0.459c0.369-0.22,0.605-0.93,0.727-1.385c0.062-0.043,0.131-0.087,0.195-0.129
				c0.312,0.428,0.096,1.475,0.062,2.17c0.064,0.088,0.133,0.176,0.197,0.264h0.195c0.045-0.064,0.092-0.133,0.133-0.195
				c0.021-1.076,0.045-2.148,0.066-3.227C155.172,169.973,154.642,171.314,154.522,172.105z M157.748,173.357
				c-0.103-0.207-0.142-0.428-0.131-0.791V172.5c0.358-0.207,1.229-0.15,1.646-0.328c-0.021-0.111-0.046-0.221-0.062-0.328h-1.384
				c-0.045-0.066-0.088-0.133-0.133-0.199c-0.021-0.219-0.045-0.438-0.063-0.658c0.522-0.283,1.317-0.041,1.842-0.191
				c0.207-0.135,0.144-0.031,0.197-0.33c-0.386-0.207-1.234-0.203-1.908-0.191c-0.176,0.02-0.353,0.043-0.522,0.062
				c-0.381,0.692-0.222,2.331-0.197,3.356c0.406,0.221,1.914,0.387,2.502,0.131c0.064-0.021,0.13-0.043,0.195-0.065v-0.196
				c-0.065-0.043-0.131-0.086-0.195-0.132C158.935,173.4,158.34,173.379,157.748,173.357z M162.946,170.266
				c-0.385,0.262-0.891,0.441-1.118,0.854c-0.927,1.674,0.762,3.422,2.502,2.696C166.127,173.073,165.492,170.131,162.946,170.266z
				 M164.396,173.092c-0.742,0.521-1.451,0.281-2.043-0.197c-0.293-1.131,0.035-1.6,0.729-2.104
				c1.068-0.043,1.354,0.332,1.646,1.053C164.72,172.48,164.565,172.688,164.396,173.092z M170.713,170.266
				c-0.09,0.043-0.176,0.086-0.264,0.129c-0.023,0.066-0.044,0.133-0.066,0.198c0.32,0.269,0.654,0.243,1.187,0.263l0.063,2.83
				c0.066,0.064,0.132,0.131,0.197,0.197c0.131-0.045,0.265-0.088,0.396-0.133c0.021-0.941,0.043-1.885,0.064-2.828
				c0.273-0.127,0.734-0.061,0.986-0.131c0.062-0.066,0.133-0.133,0.197-0.198C173.172,170.163,171.562,170.234,170.713,170.266z
				 M179.069,173.357c-0.112-0.229-0.146-0.528-0.133-0.922c0.336-0.162,0.979-0.149,1.515-0.136
				c0.043-0.045,0.088-0.086,0.131-0.131v-0.194c-0.336-0.162-0.981-0.148-1.513-0.134c-0.112-0.227-0.146-0.526-0.133-0.922
				c0.422-0.207,1.34-0.104,1.709-0.063c0.295-0.162,0.336-0.168,0.267-0.526c-0.636-0.021-1.272-0.043-1.91-0.062l-0.592,0.129
				c-0.246,0.52-0.326,2.604-0.063,3.225c0.021,0.066,0.043,0.131,0.063,0.197c0.812,0.021,1.623,0.043,2.437,0.062
				c0.043-0.133,0.088-0.264,0.131-0.396C180.494,173.256,179.647,173.348,179.069,173.357z M185.519,170.855
				c0.045-0.063,0.088-0.131,0.131-0.196c0.022-0.046,0.043-0.089,0.065-0.132c-0.373-0.401-1.321-0.192-2.104-0.262
				c-0.151,0.043-0.31,0.086-0.461,0.129c-0.021,1.098-0.043,2.19-0.063,3.291c0.478,0.271,2.065,0.342,2.633,0.062v-0.197
				c-0.063-0.043-0.131-0.086-0.194-0.131c-0.627-0.228-1.449,0.205-1.846-0.262v-0.728c0.331-0.158,1.094-0.134,1.518-0.199
				c0.043-0.062,0.086-0.131,0.129-0.192c-0.301-0.295-0.995-0.104-1.444-0.267c-0.235-0.135-0.351-0.418-0.198-0.726
				C183.938,170.663,184.916,170.756,185.519,170.855z M191.438,170.266c-0.31,0.062-0.614,0.129-0.922,0.195v3.289
				c0.043,0.045,0.086,0.088,0.133,0.133c0.238-0.066,0.136,0.004,0.263-0.133c0.17-0.215,0.151-0.709,0.133-1.117
				c0.045-0.045,0.088-0.088,0.131-0.133h0.265c0.396,0.463,0.789,0.922,1.188,1.383h0.326c0.045-0.066,0.09-0.133,0.133-0.197
				l-0.854-1.119c0.312-0.248,0.682-0.396,0.854-0.789v-0.791C192.842,170.448,192.233,170.241,191.438,170.266z M192.492,171.645
				c-0.214,0.391-0.619,0.438-1.25,0.396c-0.043-0.066-0.089-0.133-0.134-0.197c-0.021-0.287-0.043-0.572-0.063-0.857
				c0.088-0.062,0.175-0.131,0.265-0.191c0.353,0.043,0.701,0.086,1.051,0.131C192.496,171.131,192.631,171.325,192.492,171.645z
				 M195.19,170.266c-0.33,0.217-0.66,0.438-0.987,0.656c-1.024,1.553,0.405,3.744,2.368,2.895
				C198.414,173.021,197.711,170.131,195.19,170.266z M195.584,173.486c-0.219-0.086-0.438-0.174-0.658-0.262
				c-0.704-0.968-0.469-1.865,0.462-2.437h0.791c0.416,0.428,0.776,0.646,0.854,1.442
				C196.758,172.971,196.535,173.417,195.584,173.486z M199.071,170.266c-0.131,0.043-0.264,0.086-0.396,0.129
				c-0.062,0.023-0.133,0.043-0.195,0.066v3.355c0.133,0.021,0.266,0.043,0.396,0.062c0.127-0.258,0.146-0.68,0.133-1.115
				c0.621-0.311,1.469-0.312,1.977-0.658c0.117-0.438,0.117-0.812,0-1.25C200.485,170.477,199.985,170.262,199.071,170.266z
				 M200.521,171.579c-0.149,0.153-0.306,0.308-0.459,0.463c-0.33,0.021-0.658,0.043-0.985,0.063
				c-0.115-0.377-0.082-1.022,0.063-1.313h0.854c0.237,0.211,0.375,0.271,0.524,0.59v0.197H200.521z M204.205,170.855
				c0.267-0.135,0.254-0.045,0.328-0.396c-0.38-0.182-1.272-0.182-1.775-0.193c-0.219,0.043-0.438,0.086-0.657,0.129
				c-0.063,0.021-0.131,0.043-0.197,0.064v3.158c0.304,0.443,1.769,0.293,2.5,0.264c0.043-0.133,0.091-0.264,0.134-0.396
				c-0.354-0.172-1.287-0.211-1.774-0.062c-0.107-0.088-0.22-0.176-0.328-0.262c-0.019-0.328-0.022-0.574,0.133-0.728
				c0.254-0.19,0.924-0.151,1.381-0.134c0.043-0.131,0.088-0.262,0.134-0.396c-0.483-0.022-0.966-0.043-1.447-0.063
				c-0.045-0.065-0.088-0.133-0.133-0.198c-0.022-0.22-0.045-0.438-0.065-0.658C202.754,170.809,203.72,170.711,204.205,170.855z
				 M206.705,170.266c-0.651,0.631-1.488,2.418-1.578,3.484c0.517,0.256,0.761-0.268,0.854-0.787
				c0.324-0.154,0.934-0.152,1.449-0.135l0.592,1.055h0.33c0.234-1.08-0.877-2.455-1.188-3.422
				C207.013,170.395,206.856,170.329,206.705,170.266z M207.297,172.303c-0.219,0.045-0.438,0.09-0.657,0.133
				c-0.515-0.291-0.216-0.9,0.133-1.25c0.267,0.17,0.438,0.729,0.524,1.053V172.303L207.297,172.303z M211.771,170.395
				c-0.02,0.771-0.043,1.535-0.062,2.307c-0.045,0.021-0.088,0.045-0.133,0.062c-0.722-0.673-1.146-2.119-2.104-2.498
				c-0.046,0.021-0.089,0.043-0.136,0.062c-0.401,0.883,0.041,2.213-0.196,3.158c0.142,0.305,0.157,0.434,0.528,0.33v-2.105
				c0.063-0.109,0.129-0.22,0.194-0.33c0.638,0.836,1.271,1.668,1.908,2.502h0.265c0.063-0.045,0.133-0.088,0.196-0.133v-3.289
				C212.028,170.366,212.017,170.346,211.771,170.395z M221.313,170.329h-0.33c-0.271,0.573-0.116,1.815-0.131,2.437
				c-1.049-0.42-1.117-2.111-2.237-2.498c-0.044,0.021-0.087,0.043-0.132,0.062c-0.353,0.754-0.147,2.422-0.133,3.422
				c0.133,0.045,0.265,0.088,0.396,0.133c0.297-0.635,0.11-1.639,0.198-2.434c0.709,0.244,1.563,1.822,1.976,2.434
				c0.086-0.021,0.175-0.045,0.263-0.064c0.358-0.27,0.362-2.832,0.133-3.354v-0.134h-0.002V170.329L221.313,170.329z
				 M225.394,170.266c-2.17,1.159-1.646,4.312,0.856,3.688C228.334,173.427,228.062,170.125,225.394,170.266z M226.905,172.764
				c-0.237,0.529-0.627,0.572-1.25,0.723c-0.319-0.176-0.592-0.225-0.788-0.521c-0.326-0.315-0.367-0.881-0.199-1.385
				c0.17-0.403,0.424-0.528,0.726-0.787h0.856C226.715,171.184,227.377,171.859,226.905,172.764z M113.334,170.329
				c-0.271,0.506-0.43,2.596-0.133,3.291c0.021,0.065,0.045,0.131,0.066,0.196c1.441,0.293,2.176-0.205,2.895-0.789
				C116.711,170.971,115.584,170.232,113.334,170.329z M115.637,172.633c-0.248,0.594-0.982,0.898-1.777,0.725
				c-0.238-0.496-0.242-2.072,0-2.562c0.889,0.016,1.402,0.202,1.777,0.727V172.633z M117.346,170.329
				c-0.184,0.517-0.34,2.687-0.064,3.356c0.133,0.205,0.029,0.142,0.328,0.194h0.064c0.408-0.688,0.234-2.567,0.133-3.485
				C117.654,170.374,117.502,170.352,117.346,170.329z M166.235,170.593c-0.021,1.052-0.043,2.104-0.065,3.157
				c0.047,0.045,0.09,0.088,0.134,0.133h0.329c0.144-0.299,0.147-0.832,0.134-1.316c0.312-0.146,0.881-0.146,1.381-0.131
				c0.043-0.062,0.088-0.133,0.131-0.194c-0.266-0.392-0.834-0.312-1.444-0.329c-0.021-0.33-0.045-0.658-0.062-0.986
				c0.608-0.045,1.228-0.088,1.84-0.131c0.021-0.105,0.045-0.221,0.062-0.33V170.4c-0.769-0.021-1.53-0.043-2.301-0.066
				C166.324,170.418,166.28,170.504,166.235,170.593z M177.16,170.329h-0.265c-0.043,0.022-0.086,0.045-0.129,0.065
				c-0.022,0.461-0.045,0.92-0.065,1.383c-0.595,0.021-1.187,0.043-1.777,0.063c-0.149-0.312-0.149-0.884-0.131-1.383
				c-0.155-0.043-0.31-0.088-0.461-0.133c-0.281,0.838-0.188,2.571-0.067,3.422c0.133,0.045,0.264,0.088,0.396,0.133
				c0.148-0.319,0.104-1.047,0.197-1.444c0.566-0.022,1.141-0.043,1.709-0.065c0.24,0.399,0.176,0.682,0.135,1.315
				c0.182,0.11,0.168,0.146,0.459,0.194c0.352-0.752,0.146-2.422,0.133-3.422C177.248,170.418,177.203,170.374,177.16,170.329z
				 M189.399,170.329h-0.328c-0.28,0.604-0.166,2.101-0.266,2.764c-1.771,1.341-1.603-1.116-1.709-2.631
				c-0.154-0.043-0.312-0.088-0.464-0.133c-0.454,1.491-0.254,4.164,1.845,3.621c1.19-0.312,1.123-1.931,1.053-3.488
				C189.487,170.418,189.444,170.374,189.399,170.329z M217.168,170.329c-0.237,0.063-0.135-0.004-0.263,0.133
				c-0.456,0.761,0.015,2.104-0.528,2.896c-0.217,0.043-0.438,0.086-0.655,0.129c-0.197-0.129-0.396-0.262-0.595-0.395
				c-0.17-0.688-0.146-1.744-0.131-2.631c-0.151-0.043-0.308-0.088-0.461-0.133c-0.17,0.344-0.132,0.98-0.132,1.516
				c0,1.997,0.978,2.418,2.563,1.775c0.438-0.648,0.498-2.244,0.396-3.225C217.299,170.374,217.233,170.352,217.168,170.329z
				 M222.631,170.329c-0.351,0.754-0.149,2.422-0.133,3.422c0.133,0.045,0.262,0.088,0.396,0.133
				c0.354-0.768,0.149-2.471,0.133-3.487C222.894,170.374,222.76,170.352,222.631,170.329z M231.513,170.461v-0.133
				c-0.152,0.023-0.306,0.045-0.459,0.066c-0.021,0.725-0.044,1.445-0.066,2.172c-0.063,0.043-0.131,0.086-0.194,0.131
				c-0.567-0.789-1.144-1.578-1.711-2.369h-0.396c-0.354,0.766-0.221,2.338-0.197,3.422c0.205,0.098,0.219,0.113,0.463,0.066
				c0.043-0.771,0.088-1.535,0.131-2.303v-0.137c1.062,0.457,1.08,2.229,2.303,2.502h0.066
				C231.746,173.355,231.862,171.075,231.513,170.461z M122.611,172.633c0.02,0.043,0.043,0.086,0.064,0.131
				c0.484,0.021,0.965,0.045,1.449,0.064c0.043-0.152,0.088-0.305,0.131-0.459c-0.525-0.021-1.055-0.045-1.58-0.066
				C122.654,172.413,122.631,172.523,122.611,172.633z"/>
		</g>
	</g>
	<polygon fill="#DADADA" points="61.964,189 58.5,195 55.036,189 	"/>
	<g>
		<path fill="#CA3743" d="M61.66,158.833l-2.471,3.25v0.053l3.926-0.52v1.768l-3.926-0.469v0.053l2.496,3.121l-1.638,0.937
			l-1.56-3.642h-0.053l-1.689,3.666l-1.482-0.937l2.47-3.172v-0.053l-3.848,0.491v-1.769l3.821,0.492v-0.053l-2.443-3.173
			l1.586-0.909l1.612,3.612h0.052l1.586-3.64L61.66,158.833z"/>
	</g>
	<g>
		<path fill="#FFFFFF" d="M86.396,157.305c0.642-0.414,1.431-0.621,2.366-0.621c1.229,0,2.25,0.295,3.062,0.881
			c0.813,0.588,1.221,1.459,1.221,2.61c0,0.707-0.177,1.304-0.529,1.787c-0.206,0.293-0.602,0.669-1.188,1.126l-0.578,0.448
			c-0.314,0.245-0.523,0.53-0.627,0.856c-0.064,0.207-0.1,0.524-0.105,0.963h-2.211c0.033-0.92,0.119-1.558,0.26-1.905
			c0.142-0.351,0.505-0.755,1.091-1.212l0.594-0.465c0.194-0.146,0.353-0.31,0.472-0.48c0.217-0.299,0.325-0.628,0.325-0.986
			c0-0.414-0.12-0.789-0.362-1.131c-0.241-0.34-0.682-0.51-1.322-0.51c-0.629,0-1.076,0.21-1.339,0.628
			c-0.263,0.419-0.395,0.854-0.395,1.306h-2.358C84.838,159.05,85.379,157.95,86.396,157.305z M87.75,166.475h2.439v2.356H87.75
			V166.475z"/>
	</g>
	<g>
		<g>
			<path fill="#3B3D54" d="M140.473,123.905v-6.2c0-0.391,0.041-0.825-0.043-1.16c-0.057-0.227-0.145-0.471-0.248-0.665
				c-0.547-1.011-1.512-1.28-3.1-1.263c-0.006-0.011-0.014-0.021-0.02-0.031l-0.012-0.363c0-0.447-0.018-0.766-0.258-0.963
				c-0.439-0.359-1.16-0.154-1.307,0.342c-0.076,0.257,0.051,0.723-0.041,0.974c-0.004,0.011-0.008,0.021-0.012,0.031
				c-1.254,0.003-2.508,0.007-3.762,0.011c-0.008-0.011-0.014-0.021-0.021-0.031c-0.002-0.27-0.006-0.54-0.01-0.809
				c-0.104-0.436-0.34-0.723-0.881-0.715c-0.104,0.031-0.207,0.062-0.311,0.093c-0.523,0.267-0.336,0.753-0.416,1.44
				c-0.08,0.037-0.238,0.021-0.352,0.021c-0.326,0-0.656-0.035-0.953,0.031c-0.646,0.145-1.258,0.428-1.586,0.891
				c-0.199,0.281-0.389,0.607-0.477,0.996c-0.141,0.602-0.053,1.488-0.053,2.207v4.986c0,1.292-0.059,2.292,0.445,3.067
				c0.293,0.451,0.795,0.865,1.357,1.037c0.639,0.193,1.609,0.115,2.416,0.115h6.52c0.309-0.008,0.615-0.016,0.922-0.021
				c1.055-0.25,1.83-0.863,2.105-1.876C140.538,125.468,140.473,124.624,140.473,123.905z M138.875,120.379v4.137
				c0,0.854,0.008,1.5-0.486,1.846c-0.387,0.269-1.67,0.145-2.322,0.145h-6.488c-0.248,0-0.543,0.025-0.715-0.052
				c-0.674-0.298-0.643-1.065-0.643-2.032v-4.417c0.014-0.018,0.027-0.033,0.041-0.051c3.531,0.004,7.062,0.006,10.594,0.01
				C138.897,120.059,138.875,120.25,138.875,120.379z M138.875,118.338c-0.166,0.074-0.676,0.02-0.9,0.02h-9.734
				c-0.006-0.01-0.014-0.02-0.02-0.029v-0.664c0-0.775,0.018-1.312,0.57-1.543c0.104-0.045,0.217-0.021,0.33-0.062h0.902
				c0.031,0.088,0.021,0.24,0.021,0.361c0,0.382,0.045,0.648,0.258,0.809c0.479,0.357,1.082,0.168,1.297-0.311
				c0.088-0.199,0.045-0.576,0.041-0.84c0.199-0.09,0.842-0.02,1.109-0.02h2.674c0.008,0.008,0.014,0.02,0.021,0.029
				c0.1,0.273-0.051,0.662,0.092,0.924c0.314,0.57,1.176,0.512,1.451-0.053c0.109-0.221-0.025-0.604,0.074-0.871
				c0.041-0.053,0.793-0.037,0.912-0.021C139.053,116.227,138.891,117.139,138.875,118.338z"/>
		</g>
	</g>
	<g>
		<g>
			<polygon fill="#FFFFFF" points="179.36,126.706 185.97,120.106 184.69,118.836 178.09,125.437 			"/>
			<polygon fill="#FFFFFF" points="179.37,113.446 182.8,117.017 181.5,118.267 178.08,114.696 			"/>
		</g>
		<g>
			
				<rect x="220.237" y="121.869" transform="matrix(0.7071 0.7071 -0.7071 0.7071 152.6814 -123.0733)" fill="#FFFFFF" width="9.333" height="1.793"/>
			<polygon fill="#FFFFFF" points="227.54,113.446 224.11,117.017 225.41,118.267 228.83,114.696 			"/>
		</g>
		<g>
			<g id="XMLID_1_">
				<g>
					<polygon fill="#FFFFFF" points="267.237,142.914 268.487,144.203 264.917,147.624 263.667,146.333 					"/>
					<polygon fill="#FFFFFF" points="263.106,149.523 261.827,150.793 255.228,144.193 256.507,142.923 					"/>
				</g>
			</g>
		</g>
		<g>
			<g id="XMLID_2_">
				<g>
					<polygon fill="#FFFFFF" points="256.478,180.793 255.228,179.504 258.798,176.083 260.048,177.374 					"/>
					<polygon fill="#FFFFFF" points="260.608,174.184 261.888,172.914 268.487,179.514 267.208,180.784 					"/>
				</g>
			</g>
		</g>
	</g>
	<g>
		<path fill="#CA3743" d="M135.682,190.891v1.297h-6.451v3.683h6.013v1.297h-6.013v4.003h6.5v1.296h-8.039v-11.569h7.99V190.891z"/>
		<path fill="#CA3743" d="M137.854,190.891v11.572h-1.378v-11.572H137.854z"/>
		<path fill="#CA3743" d="M144.952,201.93c-0.627,0.475-1.416,0.713-2.366,0.713c-0.67,0-1.251-0.105-1.742-0.324
			c-0.492-0.217-0.905-0.52-1.24-0.905s-0.586-0.854-0.753-1.396c-0.168-0.539-0.262-1.129-0.284-1.768
			c0-0.639,0.097-1.223,0.292-1.75c0.195-0.527,0.467-0.989,0.819-1.377c0.351-0.391,0.767-0.689,1.248-0.908
			c0.48-0.216,1.007-0.322,1.58-0.322c0.746,0,1.364,0.152,1.855,0.461c0.491,0.311,0.886,0.699,1.184,1.176
			c0.297,0.478,0.502,0.994,0.616,1.558c0.113,0.562,0.158,1.099,0.138,1.604h-6.272c-0.011,0.367,0.033,0.715,0.13,1.045
			c0.097,0.328,0.254,0.621,0.47,0.875s0.492,0.457,0.827,0.605c0.335,0.151,0.729,0.229,1.183,0.229
			c0.583,0,1.062-0.135,1.435-0.403c0.373-0.271,0.618-0.683,0.737-1.231h1.361C145.983,200.746,145.579,201.453,144.952,201.93z
			 M144.62,196.548c-0.125-0.292-0.292-0.543-0.502-0.754c-0.211-0.21-0.459-0.378-0.746-0.502s-0.603-0.187-0.948-0.187
			c-0.356,0-0.678,0.062-0.964,0.187c-0.287,0.125-0.532,0.294-0.737,0.511c-0.206,0.217-0.368,0.467-0.486,0.754
			c-0.119,0.286-0.189,0.592-0.211,0.916h4.814C144.817,197.146,144.744,196.839,144.62,196.548z"/>
		<path fill="#CA3743" d="M148.047,194.084v1.232h0.032c0.626-0.951,1.529-1.426,2.707-1.426c0.52,0,0.988,0.104,1.41,0.32
			c0.421,0.219,0.719,0.583,0.892,1.104c0.281-0.455,0.651-0.807,1.11-1.057c0.459-0.246,0.964-0.371,1.515-0.371
			c0.421,0,0.802,0.047,1.144,0.139c0.34,0.093,0.631,0.232,0.875,0.431c0.242,0.192,0.435,0.444,0.566,0.753
			c0.135,0.309,0.203,0.68,0.203,1.109v6.144h-1.377v-5.494c0-0.259-0.021-0.502-0.064-0.729c-0.043-0.227-0.125-0.424-0.244-0.592
			s-0.28-0.301-0.494-0.396c-0.211-0.098-0.48-0.146-0.814-0.146c-0.681,0-1.216,0.192-1.604,0.582
			c-0.391,0.391-0.584,0.908-0.584,1.558v5.219h-1.377v-5.494c0-0.27-0.022-0.519-0.071-0.745c-0.05-0.228-0.134-0.425-0.251-0.593
			c-0.119-0.167-0.278-0.297-0.479-0.389c-0.201-0.093-0.457-0.14-0.771-0.14c-0.398,0-0.743,0.082-1.029,0.244
			c-0.285,0.159-0.521,0.354-0.693,0.582c-0.182,0.229-0.312,0.463-0.393,0.703c-0.081,0.243-0.122,0.446-0.122,0.607v5.22h-1.378
			v-8.379L148.047,194.084L148.047,194.084z"/>
		<path fill="#CA3743" d="M165.535,201.93c-0.627,0.475-1.416,0.713-2.366,0.713c-0.67,0-1.251-0.105-1.742-0.324
			c-0.492-0.217-0.904-0.52-1.24-0.905c-0.334-0.392-0.586-0.854-0.752-1.396c-0.168-0.539-0.263-1.129-0.285-1.768
			c0-0.639,0.101-1.223,0.293-1.75c0.195-0.527,0.47-0.989,0.818-1.377c0.352-0.391,0.768-0.689,1.248-0.908
			c0.48-0.216,1.008-0.322,1.58-0.322c0.746,0,1.364,0.152,1.855,0.461c0.49,0.311,0.886,0.699,1.184,1.176
			c0.297,0.478,0.502,0.994,0.616,1.558c0.112,0.562,0.159,1.099,0.138,1.604h-6.271c-0.012,0.367,0.033,0.715,0.133,1.045
			c0.097,0.328,0.254,0.621,0.47,0.875c0.218,0.254,0.492,0.457,0.827,0.605c0.335,0.151,0.729,0.229,1.186,0.229
			c0.584,0,1.062-0.135,1.436-0.403s0.617-0.683,0.736-1.231h1.358C166.567,200.746,166.162,201.453,165.535,201.93z
			 M165.203,196.548c-0.125-0.292-0.292-0.543-0.502-0.754c-0.211-0.21-0.459-0.378-0.746-0.502s-0.603-0.187-0.948-0.187
			c-0.355,0-0.678,0.062-0.964,0.187c-0.287,0.125-0.532,0.294-0.737,0.511s-0.367,0.467-0.486,0.754
			c-0.115,0.286-0.188,0.592-0.211,0.916h4.814C165.399,197.146,165.327,196.839,165.203,196.548z"/>
		<path fill="#CA3743" d="M168.631,194.084v1.329h0.032c0.572-1.017,1.48-1.522,2.723-1.522c0.551,0,1.01,0.075,1.377,0.229
			c0.367,0.147,0.666,0.358,0.896,0.632c0.227,0.271,0.386,0.592,0.478,0.964c0.096,0.373,0.141,0.786,0.141,1.24v5.511h-1.377
			v-5.673c0-0.521-0.151-0.933-0.453-1.229c-0.303-0.305-0.719-0.455-1.248-0.455c-0.422,0-0.786,0.063-1.094,0.193
			c-0.312,0.131-0.565,0.313-0.771,0.553c-0.206,0.236-0.357,0.518-0.462,0.836c-0.104,0.316-0.154,0.666-0.154,1.045v4.729h-1.378
			v-8.379L168.631,194.084L168.631,194.084z"/>
		<path fill="#CA3743" d="M178.955,194.084v1.216h-1.669v5.203c0,0.162,0.014,0.292,0.041,0.39c0.027,0.1,0.078,0.172,0.154,0.229
			c0.076,0.054,0.181,0.089,0.312,0.104c0.139,0.018,0.312,0.022,0.523,0.022h0.635v1.215h-1.057c-0.354,0-0.662-0.022-0.916-0.071
			c-0.254-0.051-0.459-0.14-0.613-0.27c-0.157-0.13-0.271-0.312-0.352-0.553c-0.076-0.235-0.111-0.551-0.111-0.938V195.3h-1.428
			v-1.216h1.428v-2.512h1.378v2.512H178.955z"/>
		<path fill="#CA3743" d="M188.338,190.891c1.167,0,2.05,0.301,2.649,0.899c0.601,0.601,0.9,1.44,0.9,2.521
			c0,1.082-0.303,1.924-0.9,2.528c-0.6,0.604-1.482,0.902-2.649,0.892h-3.532v4.732h-1.541v-11.572H188.338L188.338,190.891z
			 M187.819,196.434c0.875,0.012,1.517-0.166,1.922-0.535c0.404-0.363,0.607-0.896,0.607-1.588c0-0.688-0.203-1.218-0.607-1.58
			c-0.405-0.358-1.045-0.543-1.922-0.543h-3.014v4.246H187.819z"/>
		<path fill="#CA3743" d="M192.649,192.577v-1.687h1.379v1.687H192.649z M194.028,194.084v8.379h-1.379v-8.379H194.028z"/>
		<path fill="#CA3743" d="M200.202,195.543c-0.346-0.292-0.811-0.438-1.395-0.438c-0.496,0-0.912,0.092-1.248,0.272
			c-0.334,0.187-0.604,0.431-0.806,0.729c-0.196,0.305-0.343,0.649-0.429,1.045c-0.088,0.396-0.133,0.804-0.133,1.226
			c0,0.39,0.049,0.769,0.141,1.136c0.096,0.366,0.232,0.693,0.434,0.979c0.19,0.286,0.444,0.516,0.762,0.688
			c0.312,0.172,0.686,0.258,1.117,0.258c0.682,0,1.213-0.178,1.598-0.533c0.383-0.356,0.617-0.859,0.705-1.508h1.41
			c-0.152,1.037-0.539,1.836-1.159,2.396c-0.621,0.562-1.468,0.845-2.536,0.845c-0.639,0-1.202-0.104-1.693-0.31
			c-0.492-0.205-0.902-0.497-1.232-0.875c-0.327-0.378-0.575-0.829-0.743-1.354c-0.167-0.522-0.251-1.101-0.251-1.728
			c0-0.626,0.08-1.212,0.24-1.759c0.162-0.545,0.408-1.021,0.736-1.428c0.329-0.402,0.743-0.725,1.24-0.955s1.075-0.351,1.734-0.351
			c0.476,0,0.921,0.058,1.336,0.17c0.416,0.114,0.785,0.291,1.104,0.527c0.318,0.237,0.581,0.538,0.786,0.897
			c0.206,0.361,0.335,0.793,0.39,1.289h-1.427C200.774,196.245,200.548,195.834,200.202,195.543z"/>
		<path fill="#CA3743" d="M206.507,194.084v1.216h-1.669v5.203c0,0.162,0.015,0.292,0.041,0.39c0.026,0.1,0.078,0.172,0.154,0.229
			c0.075,0.054,0.181,0.089,0.315,0.104c0.135,0.018,0.312,0.022,0.523,0.022h0.632v1.215h-1.054c-0.354,0-0.662-0.022-0.916-0.071
			c-0.256-0.051-0.459-0.14-0.616-0.27c-0.153-0.13-0.271-0.312-0.353-0.553c-0.072-0.235-0.109-0.551-0.109-0.938V195.3h-1.426
			v-1.216h1.426v-2.512h1.377v2.512H206.507z"/>
		<path fill="#CA3743" d="M212.698,202.463v-1.329h-0.032c-0.292,0.519-0.665,0.899-1.118,1.144
			c-0.453,0.242-0.988,0.365-1.604,0.365c-0.551,0-1.012-0.074-1.379-0.22c-0.366-0.146-0.664-0.354-0.894-0.624
			s-0.387-0.591-0.479-0.964c-0.092-0.373-0.139-0.786-0.139-1.239v-5.512h1.379v5.673c0,0.519,0.149,0.929,0.453,1.231
			c0.303,0.302,0.719,0.453,1.247,0.453c0.423,0,0.786-0.064,1.095-0.193c0.311-0.13,0.563-0.312,0.771-0.551
			c0.207-0.239,0.355-0.516,0.462-0.834s0.154-0.668,0.154-1.045v-4.733h1.377v8.379L212.698,202.463L212.698,202.463z"/>
		<path fill="#CA3743" d="M216.345,194.084v1.768h0.032c0.334-0.682,0.745-1.184,1.231-1.508s1.102-0.475,1.848-0.453v1.457
			c-0.551,0-1.021,0.076-1.41,0.229s-0.701,0.373-0.939,0.665c-0.235,0.292-0.412,0.646-0.52,1.062s-0.162,0.895-0.162,1.436v3.729
			h-1.377v-8.379h1.297V194.084L216.345,194.084z"/>
		<path fill="#CA3743" d="M225.162,201.93c-0.627,0.475-1.416,0.713-2.366,0.713c-0.67,0-1.251-0.105-1.742-0.324
			c-0.492-0.217-0.904-0.52-1.24-0.905c-0.334-0.392-0.586-0.854-0.752-1.396c-0.168-0.539-0.263-1.129-0.285-1.768
			c0-0.639,0.101-1.223,0.293-1.75c0.195-0.527,0.47-0.989,0.818-1.377c0.354-0.391,0.768-0.689,1.248-0.908
			c0.48-0.216,1.008-0.322,1.58-0.322c0.746,0,1.364,0.152,1.855,0.461c0.49,0.311,0.886,0.699,1.184,1.176
			c0.297,0.478,0.502,0.994,0.616,1.558c0.112,0.562,0.159,1.099,0.138,1.604h-6.271c-0.012,0.367,0.033,0.715,0.133,1.045
			c0.097,0.328,0.254,0.621,0.47,0.875c0.22,0.254,0.492,0.457,0.827,0.605c0.335,0.151,0.729,0.229,1.186,0.229
			c0.584,0,1.062-0.135,1.436-0.403s0.617-0.683,0.736-1.231h1.358C226.192,200.746,225.788,201.453,225.162,201.93z
			 M224.83,196.548c-0.125-0.292-0.292-0.543-0.502-0.754c-0.211-0.21-0.459-0.378-0.746-0.502s-0.603-0.187-0.948-0.187
			c-0.355,0-0.678,0.062-0.964,0.187c-0.287,0.125-0.532,0.294-0.737,0.511s-0.367,0.467-0.486,0.754
			c-0.115,0.286-0.188,0.592-0.211,0.916h4.814C225.026,197.146,224.954,196.839,224.83,196.548z"/>
		<path fill="#CA3743" d="M228.015,200.591c0.129,0.211,0.299,0.378,0.51,0.502c0.211,0.125,0.447,0.214,0.713,0.269
			c0.268,0.057,0.537,0.08,0.818,0.08c0.215,0,0.442-0.016,0.68-0.049c0.238-0.031,0.457-0.091,0.658-0.178
			c0.199-0.086,0.363-0.213,0.494-0.381c0.129-0.168,0.193-0.381,0.193-0.641c0-0.355-0.135-0.625-0.405-0.812
			c-0.271-0.184-0.606-0.332-1.013-0.443c-0.405-0.112-0.846-0.215-1.321-0.31c-0.476-0.092-0.916-0.221-1.321-0.39
			c-0.401-0.166-0.742-0.401-1.013-0.704c-0.271-0.304-0.405-0.726-0.405-1.267c0-0.42,0.099-0.783,0.285-1.086
			c0.188-0.303,0.432-0.548,0.729-0.734c0.297-0.189,0.632-0.33,1.005-0.424c0.373-0.092,0.742-0.137,1.109-0.137
			c0.477,0,0.912,0.041,1.312,0.12c0.397,0.081,0.753,0.224,1.062,0.423c0.31,0.198,0.556,0.469,0.735,0.812
			c0.185,0.34,0.292,0.764,0.324,1.271h-1.377c-0.021-0.271-0.093-0.494-0.211-0.673c-0.119-0.178-0.271-0.319-0.454-0.43
			c-0.186-0.106-0.389-0.188-0.607-0.234c-0.223-0.05-0.445-0.073-0.673-0.073c-0.204,0-0.413,0.02-0.622,0.049
			c-0.212,0.033-0.404,0.092-0.576,0.173c-0.174,0.079-0.312,0.188-0.422,0.321c-0.105,0.138-0.162,0.312-0.162,0.526
			c0,0.238,0.084,0.437,0.252,0.593c0.166,0.156,0.381,0.286,0.642,0.392c0.259,0.103,0.551,0.188,0.875,0.259
			c0.321,0.068,0.646,0.146,0.973,0.219c0.349,0.076,0.685,0.168,1.015,0.275c0.33,0.105,0.621,0.251,0.875,0.429
			c0.254,0.181,0.459,0.403,0.617,0.673c0.154,0.271,0.232,0.605,0.232,1.008c0,0.508-0.104,0.928-0.314,1.265
			c-0.209,0.335-0.484,0.604-0.826,0.812c-0.34,0.204-0.726,0.348-1.149,0.43c-0.429,0.08-0.853,0.121-1.271,0.121
			c-0.465,0-0.908-0.047-1.33-0.146c-0.42-0.099-0.793-0.256-1.117-0.479c-0.324-0.223-0.584-0.515-0.778-0.875
			s-0.303-0.804-0.323-1.319h1.377C227.813,200.124,227.884,200.381,228.015,200.591z"/>
	</g>
	<g>
		<rect x="103.906" y="190.875" fill="#CA3743" width="9.458" height="2.458"/>
		<polygon fill="#CA3743" points="119.74,195.458 103.906,195.458 103.906,197.917 119.74,197.917 119.74,200.166 103.906,200.166 
			103.906,202.625 113.031,202.625 113.031,207.291 115.49,207.291 115.49,202.625 119.74,202.625 122.198,202.625 122.198,200.166 
			122.198,197.917 122.198,195.458 		"/>
	</g>
	<g>
		<path fill="#B1B1BB" d="M87.497,191.498l0.007,0.005l0,0L87.497,191.498"/>
	</g>
	<polyline fill="#B1B1BB" points="90.12,184.921 82.833,196.936 84.91,198.079 92.167,186.105 90.12,184.921 	"/>
	<g>
		<path fill="#FFFFFF" d="M279.321,251.729c-1.004-1.006-2.01-2.011-3.016-3.017c-0.691-0.69-1.384-1.383-2.074-2.073
			c-0.131-0.132-0.944-0.748-0.942-0.943c0.002-0.196,0.784-0.784,0.917-0.916c0.676-0.678,1.354-1.354,2.029-2.031
			c1.029-1.027,2.059-2.059,3.086-3.087c-0.67-0.671-1.342-1.341-2.012-2.013c-0.027-0.025-0.711,0.688-0.765,0.74
			c-1.586,1.586-3.172,3.17-4.757,4.756c-2.862,2.86-5.725,5.724-8.586,8.584c0.671,0.672,1.343,1.342,2.015,2.015
			c0.025,0.024,1.435-1.41,1.534-1.511c0.954-0.953,1.908-1.907,2.861-2.86c0.238-0.238,1.302-1.647,1.648-1.647
			c0.321,0,1.305,1.303,1.522,1.521c0.997,0.996,1.993,1.991,2.989,2.987c0.209,0.211,1.215,1.529,1.521,1.521
			c0.223-0.005,0.855-0.855,1.014-1.013C278.647,252.404,278.985,252.066,279.321,251.729z"/>
		<path fill="#FFFFFF" d="M263.203,239.661c1.126,1.126,2.253,2.253,3.38,3.379c0.482,0.483,0.439,0.688,0.934,0.194
			c0.553-0.553,1.104-1.104,1.655-1.655c-1.126-1.126-2.253-2.252-3.378-3.378c-0.484-0.483-0.441-0.688-0.936-0.194
			C264.308,238.559,263.755,239.109,263.203,239.661z"/>
		<path fill="#FFFFFF" d="M268.551,261.003c-8.724-1.519-14.315-10.369-12.266-18.912c1.021-4.003,3.614-7.532,7.202-9.606
			c1.75-1.014,3.693-1.69,5.699-1.957c0.266-0.035,0.643,0.09,0.643-0.231c0-0.323,0-0.646,0-0.969c0-0.509,0-1.019,0-1.526
			c-9.533,0.74-17.051,9.202-16.627,18.77c0.389,9.019,7.611,16.539,16.627,17.265c0-0.573,0-1.146,0-1.72c0-0.287,0-0.573,0-0.86
			C269.829,261.111,268.735,261.042,268.551,261.003z"/>
		<path fill="#FFFFFF" d="M289.338,245.688c-0.104-9.332-7.397-17.084-16.642-17.888c0,0.573,0,1.146,0,1.72c0,0.287,0,0.573,0,0.86
			c0,0.104,1.383,0.302,1.586,0.302c2.014,0.398,3.959,1.209,5.65,2.37c4.032,2.759,6.58,7.327,6.748,12.218
			c0.129,4.693-1.837,9.258-5.432,12.312c-1.555,1.319-3.383,2.341-5.332,2.946c-0.992,0.308-2.016,0.531-3.049,0.633
			c-0.37,0.049-0.174,1.209-0.174,1.542c0,0.376,0,0.752,0,1.128C282.073,263.15,289.338,254.995,289.338,245.688
			C289.336,245.512,289.338,245.729,289.338,245.688z"/>
	</g>
</g>
<g id="Layer_2">
</g>
</svg>
