<?xml version="1.0" encoding="utf-8"?>
<!-- Generator: Adobe Illustrator 16.0.0, SVG Export Plug-In . SVG Version: 6.00 Build 0)  -->
<!DOCTYPE svg PUBLIC "-//W3C//DTD SVG 1.1//EN" "http://www.w3.org/Graphics/SVG/1.1/DTD/svg11.dtd">
<svg version="1.1" id="Layer_1" xmlns="http://www.w3.org/2000/svg" xmlns:xlink="http://www.w3.org/1999/xlink" x="0px" y="0px"
	 width="300px" height="5800px" viewBox="0 0 300 5800" enable-background="new 0 0 300 5800" xml:space="preserve">
<g>
	<g id="Layer_1_1_">
		<g>
			<g>
				<g>
					<polygon fill="#3D4154" stroke="#3D4154" stroke-width="0.2111" stroke-miterlimit="10" points="211.783,33.475 
						211.783,41.726 212.908,41.726 212.908,25.893 211.783,25.893 					"/>
					<polygon fill="#3D4154" stroke="#3D4154" stroke-width="0.2111" stroke-miterlimit="10" points="287.584,25.753 
						286.461,25.753 279.162,41.726 280.365,41.726 287.002,27.045 291.125,36.236 284.664,36.236 284.178,37.292 291.617,37.292 
						293.613,41.726 294.889,41.726 					"/>
					<g>
						<polygon fill="#3D4154" stroke="#3D4154" stroke-width="0.2111" stroke-miterlimit="10" points="252.029,25.893 
							247.885,25.893 243.656,25.893 243.656,26.949 252.029,26.949 						"/>
						<polygon fill="#3D4154" stroke="#3D4154" stroke-width="0.2111" stroke-miterlimit="10" points="250.973,34.266 
							250.973,33.212 247.258,33.212 243.656,33.212 243.656,34.266 						"/>
						<polygon fill="#3D4154" stroke="#3D4154" stroke-width="0.2111" stroke-miterlimit="10" points="243.656,40.67 
							243.656,41.726 252.098,41.726 252.098,40.67 247.779,40.67 						"/>
					</g>
					<g>
						<polygon fill="#3D4154" stroke="#3D4154" stroke-width="0.2111" stroke-miterlimit="10" points="259.557,25.893 
							258.43,25.893 258.43,41.726 259.557,41.726 259.557,33.833 						"/>
						<polygon fill="#3D4154" stroke="#3D4154" stroke-width="0.2111" stroke-miterlimit="10" points="270.533,28.179 
							265.762,35.276 260.965,28.179 260.965,30.141 265.762,37.17 270.533,30.141 						"/>
					</g>
					<g>
						<polygon fill="#3D4154" stroke="#3D4154" stroke-width="0.2111" stroke-miterlimit="10" points="233.734,38.903 
							233.734,25.893 232.609,25.893 232.609,31.601 232.609,37.47 						"/>
						<polygon fill="#3D4154" stroke="#3D4154" stroke-width="0.2111" stroke-miterlimit="10" points="232.5,41.726 233.832,41.726 
							221.389,25.893 220.082,25.893 						"/>
						<polygon fill="#3D4154" stroke="#3D4154" stroke-width="0.2111" stroke-miterlimit="10" points="220.156,28.695 
							220.156,41.726 221.281,41.726 221.281,35.708 221.281,30.129 						"/>
					</g>
					<polygon fill="#3D4154" stroke="#3D4154" stroke-width="0.2111" stroke-miterlimit="10" points="273.279,25.893 
						272.152,25.893 272.152,41.726 273.279,41.726 273.279,33.833 					"/>
					<polygon fill="#3D4154" stroke="#3D4154" stroke-width="0.2111" stroke-miterlimit="10" points="241.826,25.893 
						240.701,25.893 240.701,41.726 241.826,41.726 241.826,33.833 					"/>
					<g>
						<g>
							<g>
								<path fill="#3D4154" stroke="#3D4154" stroke-width="0.2111" stroke-miterlimit="10" d="M199.258,26.714
									c2.039,0.156,3.441,1.087,4.686,2.303l0.822-0.858c-1.494-1.387-3.047-2.381-5.508-2.521V26.714L199.258,26.714z"/>
								<path fill="#3D4154" stroke="#3D4154" stroke-width="0.2111" stroke-miterlimit="10" d="M204.078,38.493
									c-1.443,1.443-2.852,2.304-4.82,2.443v1.067c2.463-0.158,4.072-1.217,5.604-2.74L204.078,38.493z"/>
							</g>
						</g>
						<g>
							<path fill="#3D4154" d="M197.432,40.869c-3.188-0.549-5.527-3.522-5.527-7.09c0-3.565,2.314-6.476,5.527-7.002v-1.079
								c-3.949,0.546-6.736,3.891-6.736,8.127c0,4.237,2.806,7.616,6.736,8.136V40.869L197.432,40.869z"/>
							<path fill="none" stroke="#3D4154" stroke-width="0.1996" stroke-miterlimit="10" d="M197.432,40.869
								c-3.188-0.549-5.527-3.522-5.527-7.09c0-3.565,2.314-6.476,5.527-7.002v-1.079c-3.949,0.546-6.736,3.891-6.736,8.127
								c0,4.237,2.806,7.616,6.736,8.136V40.869L197.432,40.869z"/>
						</g>
					</g>
				</g>
			</g>
			<g>
				<polygon fill="#3D4154" stroke="#3D4154" stroke-width="0.2111" stroke-miterlimit="10" points="7.945,25.542 4.779,25.542 
					4.779,42.358 16.67,42.358 16.67,39.204 7.945,39.204 				"/>
				
					<rect x="21.283" y="25.542" fill="#3D4154" stroke="#3D4154" stroke-width="0.2111" stroke-miterlimit="10" width="3.365" height="16.816"/>
				<path fill="#3D4154" stroke="#3D4154" stroke-width="0.2111" stroke-miterlimit="10" d="M38.129,35.675h4.225V38.5
					c-1.057,0.754-2.416,1.184-3.83,1.184c-3.23,0-5.459-2.371-5.459-5.769v-0.047c0-3.142,2.346-5.698,5.227-5.698
					c2.076,0,3.309,0.695,4.535,1.74L42.938,30l2.027-2.414l-0.107-0.091c-1.91-1.619-3.781-2.28-6.451-2.28
					c-2.41,0-4.646,0.918-6.258,2.585c-1.57,1.623-2.461,3.794-2.461,6.114v0.048c0,2.404,0.875,4.593,2.414,6.162
					c1.6,1.627,3.807,2.487,6.35,2.487c3.256,0,5.578-1.419,6.971-2.61l0.027-0.041v-7.102h-7.318L38.129,35.675L38.129,35.675z"/>
				<polygon fill="#3D4154" stroke="#3D4154" stroke-width="0.2111" stroke-miterlimit="10" points="61.561,32.437 53.961,32.437 
					53.961,25.542 50.725,25.542 50.725,42.358 53.961,42.358 53.961,35.392 61.561,35.392 61.561,42.358 64.727,42.358 
					64.727,25.542 61.561,25.542 				"/>
				<polygon fill="#3D4154" stroke="#3D4154" stroke-width="0.2111" stroke-miterlimit="10" points="69.299,28.498 74.578,28.498 
					74.578,42.358 77.744,42.358 77.744,28.498 83.02,28.498 83.02,25.542 69.299,25.542 				"/>
				<polygon fill="#3D4154" stroke="#3D4154" stroke-width="0.2111" stroke-miterlimit="10" points="101.947,32.437 94.348,32.437 
					94.348,25.542 91.111,25.542 91.111,42.358 94.348,42.358 94.348,35.392 101.947,35.392 101.947,42.358 105.115,42.358 
					105.115,25.542 101.947,25.542 				"/>
				<path fill="#3D4154" stroke="#3D4154" stroke-width="0.2111" stroke-miterlimit="10" d="M127.699,33.915v-0.047
					c0-2.33-0.855-4.497-2.438-6.1c-1.475-1.497-3.475-2.383-5.656-2.528V0h-1.055v25.225c-2.041,0.082-3.9,0.795-5.379,2.043
					L95.588,9.479l-0.732,0.742l17.555,17.772c-1.475,1.595-2.301,3.687-2.301,5.919v0.048c0,2.33,0.883,4.496,2.459,6.1
					c1.543,1.566,3.662,2.463,5.982,2.543V68.04h1.057V42.587c1.898-0.14,3.75-0.867,5.166-2.094l17.818,18.025l0.738-0.752
					l-17.822-18.01C126.938,38.171,127.699,36.111,127.699,33.915z M115.328,29.493c0.369-0.316,0.787-0.587,1.229-0.803
					c0.705-0.334,1.486-0.52,2.338-0.52c3.127,0,5.5,2.471,5.5,5.746v0.048c0,3.247-2.365,5.697-5.467,5.697
					c-3.127,0-5.512-2.469-5.512-5.745v-0.047C113.416,32.071,114.158,30.52,115.328,29.493z"/>
				<path fill="#3D4154" stroke="#3D4154" stroke-width="0.2111" stroke-miterlimit="10" d="M143.742,35.167
					c0,2.881-1.441,4.469-4.033,4.469c-2.57,0-4.057-1.673-4.057-4.587v-9.508h-3.166v9.626c0,2.385,0.66,4.248,1.953,5.539
					c1.234,1.229,3.023,1.883,5.217,1.883c4.609,0,7.252-2.758,7.252-7.564v-9.483h-3.166V35.167L143.742,35.167z"/>
				<path fill="#3D4154" stroke="#3D4154" stroke-width="0.2111" stroke-miterlimit="10" d="M162.965,34.196
					c-0.854-0.728-2.158-1.282-4.055-1.743c-3.24-0.774-3.84-1.318-3.84-2.463v-0.048c0-1.089,1.059-1.822,2.586-1.822
					c1.457,0,2.92,0.548,4.43,1.674l0.121,0.087l1.723-2.425l-0.104-0.083c-1.771-1.421-3.762-2.111-6.092-2.111
					c-1.631,0-3.121,0.486-4.166,1.369c-1.062,0.894-1.664,2.162-1.664,3.571v0.047c0,1.513,0.482,2.595,1.5,3.404
					c0.852,0.679,2.066,1.179,4.115,1.673c3.082,0.711,3.604,1.339,3.604,2.393v0.047c0,1.178-1.062,1.939-2.76,1.939
					c-1.857,0-3.416-0.652-5.105-2.115l-0.104-0.095l-1.928,2.294l0.105,0.092c1.967,1.755,4.373,2.684,6.982,2.684
					c3.676,0,6.043-1.994,6.043-5.081v-0.047C164.359,36.06,163.904,35,162.965,34.196z"/>
				<polygon fill="#3D4154" stroke="#3D4154" stroke-width="0.2111" stroke-miterlimit="10" points="172.451,39.474 172.451,35.321 
					180.752,35.321 180.752,32.437 172.451,32.437 172.451,28.425 181.807,28.425 181.807,25.542 169.285,25.542 169.285,42.358 
					181.949,42.358 181.949,39.474 				"/>
			</g>
		</g>
		<g>
			<g id="XMLID_3_">
				<g>
					<polygon fill="#FFFFFF" points="144.453,245.175 143.203,243.886 146.773,240.466 148.023,241.757 					"/>
					<polygon fill="#FFFFFF" points="148.584,238.566 149.863,237.297 156.463,243.896 155.184,245.167 					"/>
				</g>
			</g>
		</g>
		<g>
			<g id="XMLID_2_">
				<g>
					<polygon fill="#FFFFFF" points="145.895,436.856 147.184,435.606 150.604,439.176 149.312,440.426 					"/>
					<polygon fill="#FFFFFF" points="152.504,440.987 153.771,442.266 147.174,448.866 145.902,447.587 					"/>
				</g>
			</g>
		</g>
		<g>
			<g id="XMLID_6_">
				<g>
					<polygon fill="#FFFFFF" points="272.383,836.918 273.672,835.668 277.094,839.238 275.803,840.488 					"/>
					<polygon fill="#FFFFFF" points="278.992,841.049 280.262,842.329 273.662,848.928 272.393,847.649 					"/>
				</g>
			</g>
		</g>
		<g>
			<g id="XMLID_1_">
				<g>
					<polygon points="10.559,836.918 11.848,835.668 15.27,839.238 13.979,840.488 					"/>
					<polygon points="17.168,841.049 18.438,842.329 11.838,848.928 10.568,847.649 					"/>
				</g>
			</g>
		</g>
		<g>
			<g id="XMLID_5_">
				<g>
					<polygon fill="#FFFFFF" points="153.771,647.655 152.482,648.905 149.062,645.335 150.354,644.085 					"/>
					<polygon fill="#FFFFFF" points="147.162,643.525 145.893,642.246 152.492,635.646 153.764,636.925 					"/>
				</g>
			</g>
		</g>
		<g opacity="0.5">
			<g>
				<path fill="#3B3D54" d="M14.791,1436.997v0.913c1.525,0.001,2.9,0.615,3.9,1.615c1,1.002,1.613,2.375,1.613,3.903
					c0,1.527-0.611,2.899-1.613,3.901c-1,1-2.373,1.615-3.9,1.615c-1.529,0-2.904-0.615-3.904-1.615
					c-1.002-1.002-1.615-2.374-1.615-3.901c0-1.526,0.615-2.901,1.615-3.903c1-1,2.375-1.614,3.904-1.615V1436.997v-0.912
					c-4.059,0-7.348,3.287-7.348,7.345c0,4.059,3.287,7.346,7.348,7.346c4.057,0,7.344-3.287,7.344-7.346
					c0-4.058-3.287-7.345-7.344-7.345V1436.997z"/>
				<path fill="#3B3D54" d="M13.479,1440.736v3.312c0,0.299,0.146,0.581,0.395,0.751l2.344,1.621
					c0.416,0.287,0.984,0.182,1.271-0.232c0.287-0.416,0.184-0.982-0.232-1.271l-1.949-1.349v-2.832c0-0.502-0.41-0.912-0.914-0.912
					S13.479,1440.234,13.479,1440.736z"/>
			</g>
		</g>
		<g>
			<g>
				<path fill="#FFFFFF" d="M14.791,1836.561v0.913c1.525,0.001,2.9,0.616,3.9,1.616c1,1.002,1.613,2.375,1.613,3.903
					c0,1.526-0.611,2.897-1.613,3.9c-1,1-2.373,1.615-3.9,1.616c-1.529-0.001-2.904-0.616-3.904-1.616
					c-1.002-1.002-1.615-2.374-1.615-3.9s0.615-2.901,1.615-3.903c1-1,2.375-1.615,3.904-1.616V1836.561v-0.911
					c-4.059,0-7.348,3.286-7.348,7.345c0,4.058,3.287,7.345,7.348,7.345c4.057,0,7.344-3.287,7.344-7.345
					c0-4.059-3.287-7.345-7.344-7.345V1836.561z"/>
				<path fill="#FFFFFF" d="M13.479,1840.301v3.312c0,0.299,0.146,0.581,0.395,0.751l2.344,1.621
					c0.416,0.286,0.984,0.182,1.271-0.232c0.287-0.416,0.184-0.984-0.232-1.271l-1.949-1.35v-2.832c0-0.502-0.41-0.912-0.914-0.912
					S13.479,1839.799,13.479,1840.301z"/>
			</g>
		</g>
		<g opacity="0.5">
			<circle fill="#3B3D54" cx="13.479" cy="1037.392" r="1.435"/>
			<circle fill="#3B3D54" cx="12.453" cy="1043.038" r="1.435"/>
			<circle fill="#3B3D54" cx="10.145" cy="1039.701" r="1.435"/>
			<circle fill="#3B3D54" cx="12.969" cy="1040.214" r="0.797"/>
			<circle fill="#3B3D54" cx="15.789" cy="1040.728" r="1.435"/>
			<path fill="#3B3D54" d="M24.207,1033.771c0.006-0.438-0.342-0.8-0.779-0.807c-1.812-0.027-3.412,1.095-4.229,2.757
				c-1.119-1.505-2.789-2.606-4.783-2.97c-4.17-0.758-8.166,2.007-8.922,6.177c-0.758,4.169,2.01,8.162,6.18,8.919
				c4.168,0.757,8.16-2.007,8.918-6.176c0.254-1.392,0.111-2.764-0.342-4.003c0.236-1.781,1.568-3.146,3.152-3.119
				C23.84,1034.558,24.199,1034.209,24.207,1033.771z M16.324,1045.04c-1.215,0.841-2.74,1.217-4.311,0.932
				c-1.572-0.284-2.869-1.174-3.711-2.388c-0.844-1.218-1.219-2.742-0.934-4.312c0.283-1.568,1.174-2.865,2.391-3.712
				c1.215-0.839,2.74-1.215,4.312-0.93c1.566,0.285,2.863,1.174,3.707,2.389c0.84,1.218,1.219,2.742,0.934,4.312
				C18.43,1042.901,17.543,1044.197,16.324,1045.04z"/>
		</g>
		<g opacity="0.5">
			<g>
				<path fill="#3B3D54" d="M21.727,1245.192v-6.2c0-0.391,0.041-0.825-0.043-1.16c-0.057-0.229-0.145-0.471-0.248-0.665
					c-0.547-1.011-1.512-1.28-3.1-1.263c-0.006-0.012-0.014-0.021-0.02-0.031l-0.014-0.363c0-0.447-0.018-0.766-0.258-0.963
					c-0.438-0.359-1.16-0.154-1.307,0.342c-0.076,0.258,0.051,0.724-0.041,0.975c-0.004,0.011-0.01,0.021-0.014,0.031
					c-1.254,0.003-2.508,0.007-3.762,0.011c-0.008-0.011-0.014-0.021-0.02-0.031c-0.002-0.271-0.006-0.54-0.012-0.809
					c-0.104-0.437-0.34-0.724-0.881-0.716c-0.104,0.031-0.207,0.062-0.311,0.094c-0.523,0.267-0.336,0.753-0.416,1.439
					c-0.08,0.037-0.238,0.021-0.352,0.021c-0.326,0-0.656-0.035-0.953,0.031c-0.646,0.146-1.26,0.428-1.586,0.891
					c-0.199,0.281-0.391,0.607-0.479,0.996c-0.143,0.602-0.053,1.488-0.053,2.207v4.985c0,1.292-0.061,2.292,0.443,3.067
					c0.293,0.451,0.795,0.865,1.357,1.037c0.639,0.193,1.609,0.115,2.416,0.115h6.52c0.311-0.009,0.615-0.017,0.922-0.021
					c1.057-0.25,1.83-0.863,2.105-1.876C21.793,1246.755,21.727,1245.912,21.727,1245.192z M20.129,1241.667v4.137
					c0,0.854,0.008,1.5-0.486,1.847c-0.387,0.27-1.67,0.146-2.32,0.146h-6.488c-0.248,0-0.543,0.025-0.715-0.052
					c-0.674-0.298-0.645-1.065-0.645-2.032v-4.417c0.016-0.018,0.027-0.033,0.041-0.051c3.531,0.004,7.062,0.006,10.596,0.01
					C20.15,1241.346,20.129,1241.538,20.129,1241.667z M20.129,1239.625c-0.166,0.074-0.676,0.02-0.9,0.02H9.496
					c-0.006-0.01-0.016-0.02-0.021-0.028v-0.664c0-0.775,0.02-1.312,0.57-1.543c0.104-0.045,0.217-0.021,0.33-0.062h0.902
					c0.031,0.089,0.021,0.24,0.021,0.361c0,0.382,0.045,0.647,0.258,0.809c0.479,0.357,1.082,0.168,1.297-0.311
					c0.088-0.199,0.045-0.576,0.041-0.84c0.199-0.09,0.844-0.021,1.109-0.021h2.674c0.008,0.008,0.014,0.021,0.021,0.029
					c0.1,0.273-0.053,0.662,0.092,0.924c0.312,0.57,1.176,0.512,1.451-0.053c0.107-0.221-0.025-0.604,0.072-0.871
					c0.041-0.053,0.793-0.037,0.912-0.021C20.307,1237.514,20.145,1238.426,20.129,1239.625z"/>
			</g>
		</g>
		<g>
			<path fill="#3D4154" d="M46.416,1634.303c-0.926,0.409-1.924,0.688-2.967,0.815c1.066-0.64,1.887-1.651,2.268-2.858
				c-0.992,0.592-2.102,1.021-3.275,1.255c-0.943-1.006-2.287-1.633-3.773-1.633c-2.852,0-5.162,2.312-5.162,5.166
				c0,0.402,0.043,0.798,0.129,1.179c-4.291-0.219-8.1-2.275-10.646-5.396c-0.443,0.76-0.697,1.649-0.697,2.596
				c0,1.793,0.912,3.372,2.301,4.3c-0.85-0.027-1.646-0.259-2.344-0.646c0,0.021,0,0.045,0,0.063c0,2.503,1.779,4.591,4.143,5.068
				c-0.436,0.117-0.889,0.179-1.357,0.179c-0.334,0-0.658-0.03-0.975-0.09c0.658,2.05,2.566,3.546,4.826,3.586
				c-1.77,1.385-3.996,2.21-6.414,2.21c-0.418,0-0.83-0.021-1.234-0.07c2.289,1.465,5.002,2.322,7.918,2.322
				c9.506,0,14.699-7.873,14.699-14.699c0-0.225-0.004-0.447-0.016-0.668C44.848,1636.252,45.725,1635.34,46.416,1634.303z"/>
			<g>
				<path fill="#3D4154" d="M122.943,1649.65c0,0.646-0.525,1.172-1.176,1.172h-18.18c-0.646,0-1.174-0.526-1.174-1.172v-18.18
					c0-0.646,0.527-1.173,1.174-1.173h18.18c0.648,0,1.176,0.528,1.176,1.173V1649.65z"/>
				<path fill="#FFFFFF" d="M114.145,1649.358v-7.546h-1.994v-2.718h1.994c0,0,0-1.114,0-2.319c0-1.825,1.18-3.499,3.895-3.499
					c1.102,0,1.912,0.104,1.912,0.104l-0.062,2.537c0,0-0.83-0.004-1.734-0.004c-0.979,0-1.135,0.448-1.135,1.197
					c0,0.593,0-1.262,0,1.984h2.947l-0.131,2.717h-2.816v7.547L114.145,1649.358L114.145,1649.358z"/>
			</g>
			<g id="Your_Icon_17_">
				<g>
					<g id="Instagram_Icon_8_">
						<g>
							<path fill="#3D4154" d="M273.123,1640.308c0,2.526-2.049,4.575-4.574,4.575s-4.576-2.048-4.576-4.575
								c0-0.57,0.111-1.114,0.303-1.62h-5.608v6.814c0,2.73,2.213,4.941,4.938,4.941h9.886c2.729,0,4.942-2.21,4.942-4.941v-6.814
								h-5.608C273.014,1639.189,273.123,1639.737,273.123,1640.308z"/>
							<circle fill="#3D4154" cx="268.549" cy="1640.309" r="2.745"/>
							<path fill="#3D4154" d="M273.488,1630.677h-9.621v5.154h-1.08v-5.079c-0.375,0.062-0.74,0.162-1.08,0.307v4.772h-1.082
								v-4.146c-1.188,0.902-1.959,2.323-1.959,3.936v1.448h6.656c0.828-0.825,1.969-1.334,3.227-1.334
								c1.262,0,2.396,0.509,3.227,1.334h6.658v-1.448C278.434,1632.89,276.219,1630.677,273.488,1630.677z M275.697,1635.351
								c0,0.307-0.248,0.557-0.557,0.557h-1.666c-0.306,0-0.556-0.25-0.556-0.557v-1.666c0-0.305,0.25-0.557,0.556-0.557h1.666
								c0.309,0,0.557,0.251,0.557,0.557V1635.351z"/>
						</g>
					</g>
				</g>
			</g>
			<g>
				<g>
					<g>
						<path fill="#3D4154" d="M189.299,1646.158c-0.193,0.269-0.373,0.401-0.547,0.401c-0.113,0-0.182-0.066-0.203-0.2
							c-0.008-0.028-0.008-0.135-0.008-0.334v-3.502h-0.861v3.761c0,0.337,0.031,0.562,0.08,0.708
							c0.084,0.238,0.275,0.353,0.553,0.353c0.314,0,0.644-0.19,0.986-0.583v0.519h0.861v-4.757h-0.861V1646.158z"/>
					</g>
					<g>
						<polygon fill="#3D4154" points="184.549,1641.794 185.562,1641.794 185.562,1647.279 186.52,1647.279 186.52,1641.794 
							187.555,1641.794 187.555,1640.895 184.549,1640.895 						"/>
					</g>
					<g>
						<path fill="#3D4154" d="M192.658,1642.463c-0.316,0-0.613,0.173-0.891,0.518v-2.087h-0.861v6.387h0.861v-0.464
							c0.284,0.358,0.584,0.527,0.891,0.527c0.342,0,0.572-0.181,0.689-0.535c0.057-0.201,0.086-0.518,0.086-0.957v-1.895
							c0-0.45-0.029-0.764-0.086-0.955C193.23,1642.645,193,1642.463,192.658,1642.463z M192.572,1645.917
							c0,0.433-0.127,0.643-0.375,0.643c-0.146,0-0.283-0.066-0.43-0.21v-2.901c0.146-0.142,0.285-0.207,0.43-0.207
							c0.248,0,0.375,0.219,0.375,0.647V1645.917z"/>
					</g>
					<g>
						<path fill="#3D4154" d="M190.42,1637.633c0.281,0,0.416-0.223,0.416-0.667v-2.022c0-0.444-0.135-0.667-0.416-0.667
							s-0.414,0.223-0.414,0.667v2.022C190.006,1637.411,190.139,1637.633,190.42,1637.633z"/>
					</g>
					<g>
						<g>
							<path fill="#3D4154" d="M198.621,1630.677h-15.996c-1.082,0-1.963,0.879-1.963,1.963l-0.01,15.839
								c0,1.084,0.881,1.964,1.961,1.964h15.994c1.086,0,1.967-0.88,1.967-1.964l0.008-15.839
								C200.582,1631.556,199.705,1630.677,198.621,1630.677z M192.424,1633.552h0.867v3.538c0,0.206,0,0.312,0.01,0.338
								c0.021,0.137,0.088,0.205,0.207,0.205c0.17,0,0.355-0.134,0.549-0.409v-3.671h0.873v4.805h-0.873v-0.522
								c-0.344,0.397-0.676,0.59-0.996,0.59c-0.274,0-0.471-0.114-0.559-0.356c-0.047-0.145-0.078-0.375-0.078-0.715V1633.552
								L192.424,1633.552z M189.133,1635.118c0-0.515,0.088-0.89,0.273-1.132c0.24-0.329,0.582-0.493,1.014-0.493
								c0.436,0,0.773,0.164,1.016,0.493c0.183,0.244,0.271,0.618,0.271,1.132v1.685c0,0.51-0.09,0.891-0.271,1.131
								c-0.24,0.326-0.58,0.49-1.016,0.49c-0.432,0-0.771-0.164-1.014-0.49c-0.186-0.241-0.273-0.622-0.273-1.131V1635.118z
								 M186.803,1631.905l0.688,2.532l0.655-2.532h0.979l-1.16,3.84v2.612h-0.967v-2.612c-0.088-0.465-0.281-1.144-0.592-2.041
								c-0.201-0.599-0.414-1.202-0.617-1.8L186.803,1631.905L186.803,1631.905z M197.502,1647.564
								c-0.176,0.759-0.795,1.316-1.543,1.402c-1.768,0.197-3.562,0.201-5.34,0.197c-1.783,0.004-3.574,0-5.342-0.197
								c-0.746-0.086-1.367-0.645-1.543-1.402c-0.248-1.079-0.248-2.261-0.248-3.371c0-1.112,0.002-2.291,0.252-3.371
								c0.174-0.756,0.795-1.319,1.541-1.399c1.768-0.201,3.559-0.201,5.342-0.201s3.57,0,5.34,0.201
								c0.75,0.08,1.367,0.644,1.543,1.399c0.248,1.08,0.248,2.259,0.248,3.371C197.752,1645.304,197.748,1646.485,197.502,1647.564
								z"/>
						</g>
					</g>
					<g>
						<path fill="#3D4154" d="M195.404,1642.463c-0.439,0-0.785,0.161-1.033,0.491c-0.182,0.24-0.266,0.61-0.266,1.119v1.665
							c0,0.506,0.094,0.883,0.276,1.119c0.246,0.324,0.591,0.486,1.043,0.486c0.447,0,0.804-0.169,1.041-0.514
							c0.106-0.154,0.17-0.326,0.201-0.517c0.006-0.087,0.019-0.279,0.019-0.557v-0.124h-0.881c0,0.346-0.009,0.538-0.021,0.583
							c-0.05,0.231-0.171,0.345-0.384,0.345c-0.295,0-0.438-0.218-0.438-0.659v-0.844h1.721v-0.983c0-0.508-0.084-0.879-0.266-1.119
							C196.18,1642.625,195.834,1642.463,195.404,1642.463z M195.824,1644.339h-0.859v-0.438c0-0.441,0.145-0.66,0.432-0.66
							c0.285,0,0.431,0.219,0.431,0.66v0.438H195.824z"/>
					</g>
				</g>
			</g>
		</g>
		<g>
			<path fill="#030303" d="M148.4,2055.922c-3.531-0.338-6.697-1.906-9.074-4.279c-2.689-2.691-4.352-6.399-4.352-10.511
				c0-4.106,1.66-7.812,4.352-10.506c2.371-2.367,5.527-3.934,9.051-4.276l-0.002-2.207c-8.742,0.741-15.605,8.055-15.605,16.989
				c0,8.948,6.881,16.271,15.635,16.997L148.4,2055.922z"/>
			<path fill="#030303" d="M151.375,2024.146l0.002,2.209c3.49,0.359,6.613,1.923,8.963,4.271c2.691,2.691,4.354,6.397,4.354,10.506
				c0,4.11-1.657,7.818-4.354,10.511c-2.344,2.345-5.459,3.902-8.938,4.269l0.002,2.212c8.688-0.793,15.494-8.089,15.494-16.99
				C166.898,2032.226,160.078,2024.926,151.375,2024.146z"/>
		</g>
	</g>
</g>
</svg>
