<?xml version="1.0" encoding="utf-8"?>
<!-- Generator: Adobe Illustrator 16.0.0, SVG Export Plug-In . SVG Version: 6.00 Build 0)  -->
<!DOCTYPE svg PUBLIC "-//W3C//DTD SVG 1.0//EN" "http://www.w3.org/TR/2001/REC-SVG-20010904/DTD/svg10.dtd">
<svg version="1.0" xmlns="http://www.w3.org/2000/svg" xmlns:xlink="http://www.w3.org/1999/xlink" x="0px" y="0px" width="300px"
	 height="5800px" viewBox="1059.292 -2423.75 300 5800" enable-background="new 1059.292 -2423.75 300 5800" xml:space="preserve">
<g id="Layer_1">
	<g>
	</g>
	<g>
		<g>
			<g>
				<polygon fill="#3D4154" stroke="#3D4154" stroke-width="0.2111" stroke-miterlimit="10" points="1271.241,-2331.324 
					1271.241,-2323.073 1272.366,-2323.073 1272.366,-2338.906 1271.241,-2338.906 				"/>
				<polygon fill="#3D4154" stroke="#3D4154" stroke-width="0.2111" stroke-miterlimit="10" points="1347.042,-2339.046 
					1345.919,-2339.046 1338.62,-2323.073 1339.823,-2323.073 1346.46,-2337.754 1350.583,-2328.563 1344.122,-2328.563 
					1343.636,-2327.507 1351.075,-2327.507 1353.071,-2323.073 1354.347,-2323.073 				"/>
				<g>
					<polygon fill="#3D4154" stroke="#3D4154" stroke-width="0.2111" stroke-miterlimit="10" points="1311.487,-2338.906 
						1307.343,-2338.906 1303.114,-2338.906 1303.114,-2337.85 1311.487,-2337.85 					"/>
					<polygon fill="#3D4154" stroke="#3D4154" stroke-width="0.2111" stroke-miterlimit="10" points="1310.431,-2330.533 
						1310.431,-2331.587 1306.716,-2331.587 1303.114,-2331.587 1303.114,-2330.533 					"/>
					<polygon fill="#3D4154" stroke="#3D4154" stroke-width="0.2111" stroke-miterlimit="10" points="1303.114,-2324.129 
						1303.114,-2323.073 1311.556,-2323.073 1311.556,-2324.129 1307.237,-2324.129 					"/>
				</g>
				<g>
					<polygon fill="#3D4154" stroke="#3D4154" stroke-width="0.2111" stroke-miterlimit="10" points="1319.015,-2338.906 
						1317.888,-2338.906 1317.888,-2323.073 1319.015,-2323.073 1319.015,-2330.966 					"/>
					<polygon fill="#3D4154" stroke="#3D4154" stroke-width="0.2111" stroke-miterlimit="10" points="1329.991,-2336.62 
						1325.22,-2329.523 1320.423,-2336.62 1320.423,-2334.658 1325.22,-2327.629 1329.991,-2334.658 					"/>
				</g>
				<g>
					<polygon fill="#3D4154" stroke="#3D4154" stroke-width="0.2111" stroke-miterlimit="10" points="1293.192,-2325.896 
						1293.192,-2338.906 1292.067,-2338.906 1292.067,-2333.198 1292.067,-2327.329 					"/>
					<polygon fill="#3D4154" stroke="#3D4154" stroke-width="0.2111" stroke-miterlimit="10" points="1291.958,-2323.073 
						1293.29,-2323.073 1280.847,-2338.906 1279.54,-2338.906 					"/>
					<polygon fill="#3D4154" stroke="#3D4154" stroke-width="0.2111" stroke-miterlimit="10" points="1279.614,-2336.104 
						1279.614,-2323.073 1280.739,-2323.073 1280.739,-2329.091 1280.739,-2334.67 					"/>
				</g>
				<polygon fill="#3D4154" stroke="#3D4154" stroke-width="0.2111" stroke-miterlimit="10" points="1332.737,-2338.906 
					1331.61,-2338.906 1331.61,-2323.073 1332.737,-2323.073 1332.737,-2330.966 				"/>
				<polygon fill="#3D4154" stroke="#3D4154" stroke-width="0.2111" stroke-miterlimit="10" points="1301.284,-2338.906 
					1300.159,-2338.906 1300.159,-2323.073 1301.284,-2323.073 1301.284,-2330.966 				"/>
				<g>
					<g>
						<g>
							<path fill="#3D4154" stroke="#3D4154" stroke-width="0.2111" stroke-miterlimit="10" d="M1258.716-2338.085
								c2.039,0.156,3.441,1.087,4.686,2.303l0.822-0.859c-1.494-1.387-3.047-2.381-5.508-2.52V-2338.085L1258.716-2338.085z"/>
							<path fill="#3D4154" stroke="#3D4154" stroke-width="0.2111" stroke-miterlimit="10" d="M1263.536-2326.307
								c-1.443,1.443-2.85,2.304-4.82,2.443v1.067c2.463-0.158,4.072-1.217,5.604-2.74L1263.536-2326.307z"/>
						</g>
					</g>
					<g>
						<path fill="#3D4154" d="M1256.89-2323.931c-3.188-0.549-5.527-3.522-5.527-7.09c0-3.565,2.314-6.476,5.527-7.002v-1.079
							c-3.949,0.546-6.736,3.891-6.736,8.127c0,4.237,2.805,7.616,6.736,8.136V-2323.931L1256.89-2323.931z"/>
						<path fill="none" stroke="#3D4154" stroke-width="0.1996" stroke-miterlimit="10" d="M1256.89-2323.931
							c-3.188-0.549-5.527-3.522-5.527-7.09c0-3.565,2.314-6.476,5.527-7.002v-1.079c-3.949,0.546-6.736,3.891-6.736,8.127
							c0,4.237,2.805,7.616,6.736,8.136V-2323.931L1256.89-2323.931z"/>
					</g>
				</g>
			</g>
		</g>
		<g>
			<polygon fill="#3D4154" stroke="#3D4154" stroke-width="0.2111" stroke-miterlimit="10" points="1067.403,-2339.258 
				1064.237,-2339.258 1064.237,-2322.441 1076.128,-2322.441 1076.128,-2325.596 1067.403,-2325.596 			"/>
			
				<rect x="1080.741" y="-2339.258" fill="#3D4154" stroke="#3D4154" stroke-width="0.2111" stroke-miterlimit="10" width="3.367" height="16.817"/>
			<path fill="#3D4154" stroke="#3D4154" stroke-width="0.2111" stroke-miterlimit="10" d="M1097.587-2329.124h4.225v2.824
				c-1.057,0.754-2.416,1.184-3.83,1.184c-3.23,0-5.459-2.371-5.459-5.769v-0.047c0-3.142,2.346-5.698,5.227-5.698
				c2.076,0,3.309,0.695,4.535,1.74l0.111,0.091l2.027-2.414l-0.107-0.091c-1.91-1.619-3.781-2.28-6.451-2.28
				c-2.41,0-4.646,0.918-6.258,2.585c-1.57,1.623-2.461,3.794-2.461,6.114v0.048c0,2.404,0.875,4.593,2.414,6.162
				c1.6,1.627,3.807,2.487,6.35,2.487c3.256,0,5.578-1.419,6.971-2.61l0.027-0.041v-7.101h-7.318L1097.587-2329.124
				L1097.587-2329.124z"/>
			<polygon fill="#3D4154" stroke="#3D4154" stroke-width="0.2111" stroke-miterlimit="10" points="1121.019,-2332.362 
				1113.419,-2332.362 1113.419,-2339.258 1110.183,-2339.258 1110.183,-2322.441 1113.419,-2322.441 1113.419,-2329.407 
				1121.019,-2329.407 1121.019,-2322.441 1124.185,-2322.441 1124.185,-2339.258 1121.019,-2339.258 			"/>
			<polygon fill="#3D4154" stroke="#3D4154" stroke-width="0.2111" stroke-miterlimit="10" points="1128.757,-2336.302 
				1134.036,-2336.302 1134.036,-2322.441 1137.202,-2322.441 1137.202,-2336.302 1142.479,-2336.302 1142.479,-2339.258 
				1128.757,-2339.258 			"/>
			<polygon fill="#3D4154" stroke="#3D4154" stroke-width="0.2111" stroke-miterlimit="10" points="1161.405,-2332.362 
				1153.806,-2332.362 1153.806,-2339.258 1150.569,-2339.258 1150.569,-2322.441 1153.806,-2322.441 1153.806,-2329.407 
				1161.405,-2329.407 1161.405,-2322.441 1164.573,-2322.441 1164.573,-2339.258 1161.405,-2339.258 			"/>
			<path fill="#3D4154" stroke="#3D4154" stroke-width="0.2111" stroke-miterlimit="10" d="M1187.157-2330.885v-0.047
				c0-2.33-0.855-4.497-2.436-6.1c-1.475-1.497-3.475-2.383-5.656-2.528v-25.239h-1.055v25.225c-2.041,0.082-3.9,0.795-5.379,2.043
				l-17.584-17.789l-0.732,0.742l17.553,17.773c-1.473,1.595-2.299,3.686-2.299,5.919v0.048c0,2.33,0.881,4.496,2.459,6.1
				c1.543,1.566,3.662,2.463,5.982,2.543v25.436h1.057v-25.453c1.898-0.14,3.75-0.867,5.166-2.094l17.818,18.025l0.738-0.752
				l-17.822-18.01C1186.396-2326.628,1187.157-2328.688,1187.157-2330.885z M1174.786-2335.307c0.369-0.316,0.787-0.587,1.229-0.803
				c0.705-0.334,1.486-0.52,2.338-0.52c3.127,0,5.5,2.471,5.5,5.746v0.048c0,3.247-2.365,5.697-5.467,5.697
				c-3.127,0-5.512-2.469-5.512-5.745v-0.047C1172.874-2332.728,1173.616-2334.279,1174.786-2335.307z"/>
			<path fill="#3D4154" stroke="#3D4154" stroke-width="0.2111" stroke-miterlimit="10" d="M1203.2-2329.632
				c0,2.881-1.441,4.469-4.033,4.469c-2.57,0-4.057-1.673-4.057-4.587v-9.508h-3.166v9.626c0,2.385,0.662,4.248,1.955,5.539
				c1.234,1.23,3.023,1.883,5.215,1.883c4.611,0,7.252-2.758,7.252-7.564v-9.483h-3.166V-2329.632L1203.2-2329.632z"/>
			<path fill="#3D4154" stroke="#3D4154" stroke-width="0.2111" stroke-miterlimit="10" d="M1222.423-2330.603
				c-0.854-0.728-2.158-1.282-4.055-1.743c-3.24-0.774-3.84-1.318-3.84-2.463v-0.048c0-1.089,1.059-1.822,2.586-1.822
				c1.457,0,2.92,0.548,4.43,1.674l0.121,0.087l1.723-2.425l-0.104-0.083c-1.771-1.421-3.762-2.111-6.092-2.111
				c-1.629,0-3.121,0.486-4.166,1.369c-1.061,0.894-1.664,2.162-1.664,3.571v0.047c0,1.513,0.484,2.595,1.5,3.404
				c0.852,0.679,2.068,1.179,4.117,1.673c3.082,0.711,3.604,1.339,3.604,2.393v0.047c0,1.178-1.062,1.939-2.76,1.939
				c-1.857,0-3.416-0.652-5.105-2.115l-0.104-0.095l-1.926,2.294l0.104,0.092c1.967,1.755,4.373,2.683,6.982,2.683
				c3.676,0,6.043-1.994,6.043-5.081v-0.047C1223.817-2328.739,1223.362-2329.8,1222.423-2330.603z"/>
			<polygon fill="#3D4154" stroke="#3D4154" stroke-width="0.2111" stroke-miterlimit="10" points="1231.909,-2325.325 
				1231.909,-2329.478 1240.21,-2329.478 1240.21,-2332.362 1231.909,-2332.362 1231.909,-2336.374 1241.265,-2336.374 
				1241.265,-2339.258 1228.743,-2339.258 1228.743,-2322.441 1241.407,-2322.441 1241.407,-2325.325 			"/>
		</g>
	</g>
	<g>
		<g id="XMLID_3_">
			<g>
				<polygon fill="#FFFFFF" points="1203.912,-2119.624 1202.662,-2120.913 1206.232,-2124.333 1207.482,-2123.042 				"/>
				<polygon fill="#FFFFFF" points="1208.043,-2126.233 1209.322,-2127.502 1215.922,-2120.903 1214.643,-2119.632 				"/>
			</g>
		</g>
	</g>
	<g>
		<g id="XMLID_2_">
			<g>
				<polygon fill="#FFFFFF" points="1205.353,-1927.943 1206.642,-1929.193 1210.062,-1925.623 1208.771,-1924.373 				"/>
				<polygon fill="#FFFFFF" points="1211.962,-1923.812 1213.231,-1922.533 1206.632,-1915.933 1205.361,-1917.212 				"/>
			</g>
		</g>
	</g>
	<g>
		<g id="XMLID_6_">
			<g>
				<polygon fill="#FFFFFF" points="1331.842,-1527.881 1333.131,-1529.131 1336.552,-1525.561 1335.261,-1524.311 				"/>
				<polygon fill="#FFFFFF" points="1338.451,-1523.75 1339.721,-1522.471 1333.121,-1515.871 1331.851,-1517.15 				"/>
			</g>
		</g>
	</g>
	<g>
		<g id="XMLID_5_">
			<g>
				<polygon fill="#FFFFFF" points="1213.23,-1717.144 1211.941,-1715.894 1208.521,-1719.464 1209.812,-1720.714 				"/>
				<polygon fill="#FFFFFF" points="1206.621,-1721.274 1205.352,-1722.554 1211.951,-1729.153 1213.222,-1727.874 				"/>
			</g>
		</g>
	</g>
	<g opacity="0.5">
		<g>
			<path fill="#3B3D54" d="M1074.249-927.803v0.913c1.525,0.001,2.9,0.616,3.9,1.616c1,1.002,1.615,2.375,1.615,3.903
				c0,1.527-0.613,2.899-1.615,3.901c-1,1-2.373,1.615-3.9,1.616c-1.529-0.001-2.904-0.616-3.904-1.616
				c-1.002-1.002-1.615-2.374-1.615-3.901c0-1.526,0.615-2.901,1.615-3.903c1-1,2.375-1.615,3.904-1.616V-927.803v-0.912
				c-4.059,0-7.348,3.287-7.348,7.345c0,4.058,3.289,7.345,7.348,7.345c4.057,0,7.344-3.287,7.344-7.345
				c0-4.058-3.287-7.345-7.344-7.345V-927.803z"/>
			<path fill="#3B3D54" d="M1072.937-924.063v3.312c0,0.299,0.146,0.581,0.395,0.751l2.344,1.621
				c0.416,0.287,0.984,0.182,1.271-0.232c0.287-0.416,0.184-0.984-0.232-1.271l-1.949-1.349v-2.832c0-0.502-0.41-0.912-0.914-0.912
				S1072.937-924.565,1072.937-924.063z"/>
		</g>
	</g>
	<g>
		<g>
			<path fill="#FFFFFF" d="M1074.249-528.238v0.913c1.525,0.001,2.9,0.616,3.9,1.616c1,1.002,1.615,2.375,1.615,3.903
				c0,1.527-0.613,2.899-1.615,3.901c-1,1-2.373,1.615-3.9,1.616c-1.529-0.001-2.904-0.616-3.904-1.616
				c-1.002-1.002-1.615-2.374-1.615-3.901c0-1.526,0.615-2.901,1.615-3.903c1-1,2.375-1.615,3.904-1.616V-528.238v-0.912
				c-4.059,0-7.348,3.287-7.348,7.345c0,4.058,3.289,7.345,7.348,7.345c4.057,0,7.344-3.287,7.344-7.345
				c0-4.058-3.287-7.345-7.344-7.345V-528.238z"/>
			<path fill="#FFFFFF" d="M1072.937-524.498v3.312c0,0.299,0.146,0.581,0.395,0.751l2.344,1.621
				c0.416,0.287,0.984,0.182,1.271-0.232c0.287-0.416,0.184-0.984-0.232-1.271l-1.949-1.349v-2.832c0-0.502-0.41-0.912-0.914-0.912
				S1072.937-525,1072.937-524.498z"/>
		</g>
	</g>
	<g opacity="0.5">
		<circle fill="#3B3D54" cx="1072.937" cy="-1327.408" r="1.435"/>
		<circle fill="#3B3D54" cx="1071.912" cy="-1321.761" r="1.435"/>
		<circle fill="#3B3D54" cx="1069.603" cy="-1325.098" r="1.435"/>
		<circle fill="#3B3D54" cx="1072.427" cy="-1324.585" r="0.797"/>
		<circle fill="#3B3D54" cx="1075.248" cy="-1324.072" r="1.435"/>
		<path fill="#3B3D54" d="M1083.666-1331.028c0.005-0.438-0.343-0.799-0.78-0.806c-1.813-0.028-3.412,1.095-4.229,2.757
			c-1.119-1.505-2.789-2.607-4.783-2.97c-4.17-0.758-8.165,2.007-8.922,6.177c-0.757,4.169,2.011,8.162,6.18,8.919
			c4.168,0.757,8.161-2.007,8.918-6.176c0.254-1.392,0.111-2.764-0.342-4.003c0.236-1.781,1.568-3.144,3.152-3.119
			C1083.299-1330.241,1083.658-1330.59,1083.666-1331.028z M1075.783-1319.76c-1.216,0.841-2.74,1.217-4.31,0.932
			c-1.572-0.284-2.869-1.174-3.711-2.388c-0.844-1.218-1.219-2.742-0.935-4.312c0.285-1.568,1.175-2.865,2.392-3.711
			c1.215-0.839,2.74-1.215,4.312-0.93c1.566,0.285,2.863,1.174,3.707,2.389c0.84,1.217,1.218,2.742,0.933,4.312
			C1077.888-1321.898,1077.001-1320.602,1075.783-1319.76z"/>
	</g>
	<g opacity="0.5">
		<g>
			<path fill="#3B3D54" d="M1081.186-1119.607v-6.2c0-0.391,0.041-0.825-0.043-1.16c-0.057-0.227-0.145-0.471-0.248-0.665
				c-0.547-1.011-1.512-1.28-3.1-1.263c-0.006-0.011-0.014-0.021-0.02-0.031l-0.013-0.363c0-0.447-0.018-0.766-0.258-0.963
				c-0.438-0.359-1.16-0.154-1.308,0.342c-0.075,0.257,0.052,0.723-0.041,0.974c-0.004,0.011-0.008,0.021-0.012,0.031
				c-1.254,0.003-2.508,0.007-3.762,0.011c-0.008-0.011-0.014-0.021-0.021-0.031c-0.002-0.27-0.006-0.54-0.01-0.809
				c-0.104-0.436-0.34-0.723-0.881-0.715c-0.104,0.031-0.207,0.062-0.311,0.093c-0.523,0.267-0.336,0.753-0.416,1.44
				c-0.08,0.037-0.238,0.021-0.352,0.021c-0.326,0-0.656-0.035-0.953,0.031c-0.646,0.145-1.259,0.428-1.586,0.891
				c-0.199,0.281-0.39,0.607-0.478,0.996c-0.142,0.602-0.054,1.488-0.054,2.207v4.986c0,1.292-0.059,2.292,0.445,3.067
				c0.293,0.451,0.795,0.865,1.357,1.037c0.639,0.193,1.609,0.115,2.416,0.115h6.52c0.31-0.008,0.615-0.016,0.922-0.021
				c1.056-0.25,1.83-0.863,2.105-1.876C1081.251-1118.044,1081.186-1118.888,1081.186-1119.607z M1079.588-1123.133v4.137
				c0,0.854,0.008,1.5-0.486,1.846c-0.387,0.269-1.67,0.145-2.322,0.145h-6.487c-0.248,0-0.543,0.025-0.716-0.052
				c-0.674-0.298-0.643-1.065-0.643-2.032v-4.417c0.014-0.018,0.027-0.033,0.041-0.051c3.531,0.004,7.062,0.006,10.594,0.01
				C1079.609-1123.453,1079.588-1123.262,1079.588-1123.133z M1079.588-1125.174c-0.166,0.074-0.676,0.02-0.9,0.02h-9.733
				c-0.007-0.01-0.015-0.02-0.021-0.029v-0.664c0-0.775,0.019-1.312,0.57-1.543c0.104-0.045,0.217-0.021,0.33-0.062h0.902
				c0.031,0.088,0.021,0.24,0.021,0.361c0,0.382,0.045,0.648,0.258,0.809c0.479,0.357,1.082,0.168,1.298-0.311
				c0.088-0.199,0.045-0.576,0.041-0.84c0.198-0.09,0.842-0.02,1.108-0.02h2.674c0.009,0.008,0.015,0.02,0.021,0.029
				c0.101,0.273-0.051,0.662,0.093,0.924c0.313,0.57,1.176,0.512,1.45-0.053c0.109-0.221-0.024-0.604,0.074-0.871
				c0.041-0.053,0.793-0.037,0.912-0.021C1079.766-1127.285,1079.604-1126.373,1079.588-1125.174z"/>
		</g>
	</g>
	<g>
		<path fill="#3D4154" d="M1105.874-730.496c-0.926,0.409-1.924,0.688-2.967,0.815c1.068-0.639,1.887-1.651,2.269-2.858
			c-0.993,0.592-2.102,1.02-3.276,1.255c-0.943-1.006-2.287-1.633-3.773-1.633c-2.852,0-5.163,2.312-5.163,5.166
			c0,0.402,0.044,0.798,0.129,1.179c-4.291-0.219-8.1-2.276-10.647-5.397c-0.443,0.76-0.697,1.65-0.697,2.596
			c0,1.793,0.912,3.372,2.301,4.3c-0.849-0.028-1.646-0.259-2.343-0.647c0,0.021,0,0.045,0,0.064c0,2.503,1.779,4.591,4.143,5.068
			c-0.436,0.117-0.89,0.179-1.359,0.179c-0.333,0-0.657-0.03-0.973-0.09c0.657,2.05,2.566,3.546,4.825,3.586
			c-1.769,1.385-3.995,2.21-6.414,2.21c-0.418,0-0.83-0.023-1.235-0.07c2.289,1.464,5.003,2.322,7.919,2.322
			c9.505,0,14.7-7.873,14.7-14.7c0-0.224-0.005-0.447-0.016-0.668C1104.307-728.547,1105.183-729.459,1105.874-730.496z"/>
		<g>
			<path fill="#3D4154" d="M1182.402-715.149c0,0.646-0.526,1.172-1.175,1.172h-18.181c-0.646,0-1.173-0.526-1.173-1.172v-18.179
				c0-0.646,0.527-1.173,1.173-1.173h18.181c0.648,0,1.175,0.528,1.175,1.173V-715.149z"/>
			<path fill="#FFFFFF" d="M1173.604-715.441v-7.546h-1.996v-2.717h1.996c0,0,0-1.114,0-2.32c0-1.825,1.178-3.499,3.894-3.499
				c1.101,0,1.912,0.105,1.912,0.105l-0.063,2.537c0,0-0.83-0.004-1.735-0.004c-0.978,0-1.134,0.448-1.134,1.197
				c0,0.593,0-1.261,0,1.985h2.947l-0.13,2.717h-2.817v7.546H1173.604z"/>
		</g>
		<g id="Your_Icon_17_">
			<g>
				<g id="Instagram_Icon_8_">
					<g>
						<path fill="#3D4154" d="M1332.582-724.491c0,2.526-2.049,4.575-4.575,4.575c-2.525,0-4.576-2.048-4.576-4.575
							c0-0.571,0.112-1.115,0.302-1.62h-5.608v6.814c0,2.73,2.213,4.941,4.94,4.941h9.883c2.729,0,4.945-2.21,4.945-4.941v-6.814
							h-5.611C1332.473-725.609,1332.582-725.062,1332.582-724.491z"/>
						<circle fill="#3D4154" cx="1328.007" cy="-724.49" r="2.745"/>
						<path fill="#3D4154" d="M1332.947-734.122h-9.622v5.154h-1.08v-5.079c-0.375,0.062-0.739,0.162-1.08,0.306v4.773h-1.082
							v-4.146c-1.188,0.903-1.959,2.324-1.959,3.935v1.448h6.657c0.827-0.825,1.968-1.334,3.226-1.334
							c1.262,0,2.396,0.509,3.226,1.334h6.66v-1.448C1337.893-731.909,1335.677-734.122,1332.947-734.122z M1335.156-729.448
							c0,0.306-0.248,0.556-0.556,0.556h-1.666c-0.306,0-0.556-0.25-0.556-0.556v-1.666c0-0.305,0.25-0.557,0.556-0.557h1.666
							c0.308,0,0.556,0.251,0.556,0.557V-729.448z"/>
					</g>
				</g>
			</g>
		</g>
		<g>
			<g>
				<g>
					<path fill-rule="evenodd" clip-rule="evenodd" fill="#3D4154" d="M1248.758-718.641c-0.194,0.269-0.374,0.402-0.547,0.402
						c-0.114,0-0.183-0.067-0.203-0.201c-0.009-0.028-0.009-0.134-0.009-0.334v-3.502h-0.861v3.761c0,0.337,0.031,0.562,0.08,0.708
						c0.084,0.239,0.276,0.353,0.553,0.353c0.314,0,0.642-0.191,0.987-0.583v0.518h0.86v-4.757h-0.86V-718.641z"/>
				</g>
				<g>
					<polygon fill-rule="evenodd" clip-rule="evenodd" fill="#3D4154" points="1244.007,-723.005 1245.022,-723.005 
						1245.022,-717.52 1245.979,-717.52 1245.979,-723.005 1247.014,-723.005 1247.014,-723.905 1244.007,-723.905 					"/>
				</g>
				<g>
					<path fill-rule="evenodd" clip-rule="evenodd" fill="#3D4154" d="M1252.116-722.336c-0.316,0-0.613,0.173-0.89,0.517v-2.086
						h-0.862v6.386h0.862v-0.463c0.286,0.358,0.584,0.527,0.89,0.527c0.343,0,0.574-0.181,0.69-0.535
						c0.057-0.201,0.086-0.518,0.086-0.957v-1.895c0-0.45-0.029-0.763-0.086-0.955
						C1252.69-722.154,1252.459-722.336,1252.116-722.336z M1252.031-718.882c0,0.433-0.127,0.643-0.375,0.643
						c-0.144,0-0.284-0.067-0.43-0.21v-2.902c0.146-0.141,0.286-0.207,0.43-0.207c0.248,0,0.375,0.219,0.375,0.648V-718.882z"/>
				</g>
				<g>
					<path fill-rule="evenodd" clip-rule="evenodd" fill="#3D4154" d="M1249.879-727.166c0.28,0,0.415-0.223,0.415-0.667v-2.023
						c0-0.444-0.135-0.667-0.415-0.667c-0.281,0-0.415,0.223-0.415,0.667v2.023C1249.464-727.389,1249.598-727.166,1249.879-727.166
						z"/>
				</g>
				<g>
					<g>
						<path fill-rule="evenodd" clip-rule="evenodd" fill="#3D4154" d="M1258.079-734.122h-15.995c-1.083,0-1.964,0.879-1.964,1.963
							l-0.009,15.839c0,1.084,0.88,1.963,1.961,1.963h15.994c1.086,0,1.966-0.879,1.966-1.963l0.008-15.839
							C1260.04-733.243,1259.163-734.122,1258.079-734.122z M1251.883-731.247h0.867v3.538c0,0.206,0,0.311,0.009,0.338
							c0.021,0.136,0.089,0.205,0.207,0.205c0.171,0,0.356-0.134,0.549-0.409v-3.671h0.873v4.805h-0.873v-0.523
							c-0.344,0.397-0.676,0.59-0.996,0.59c-0.276,0-0.471-0.114-0.558-0.357c-0.048-0.144-0.078-0.374-0.078-0.714V-731.247z
							 M1248.592-729.681c0-0.515,0.088-0.889,0.273-1.132c0.241-0.329,0.581-0.493,1.014-0.493c0.435,0,0.773,0.164,1.015,0.493
							c0.182,0.244,0.272,0.618,0.272,1.132v1.685c0,0.509-0.091,0.89-0.272,1.13c-0.241,0.327-0.58,0.491-1.015,0.491
							c-0.433,0-0.772-0.164-1.014-0.491c-0.186-0.241-0.273-0.622-0.273-1.13V-729.681z M1246.261-732.894l0.688,2.533l0.657-2.533
							h0.978l-1.161,3.84v2.612h-0.967v-2.612c-0.088-0.465-0.28-1.142-0.592-2.041c-0.2-0.599-0.414-1.202-0.616-1.8H1246.261z
							 M1256.96-717.234c-0.175,0.758-0.795,1.316-1.543,1.402c-1.768,0.197-3.562,0.201-5.339,0.197
							c-1.783,0.004-3.574,0-5.343-0.197c-0.746-0.086-1.367-0.645-1.542-1.402c-0.248-1.08-0.248-2.261-0.248-3.372
							c0-1.112,0.002-2.291,0.252-3.371c0.173-0.756,0.794-1.319,1.54-1.399c1.768-0.201,3.56-0.201,5.343-0.201
							c1.782,0,3.57,0,5.34,0.201c0.749,0.08,1.367,0.643,1.542,1.399c0.248,1.08,0.248,2.259,0.248,3.371
							C1257.21-719.495,1257.207-718.314,1256.96-717.234z"/>
					</g>
				</g>
				<g>
					<path fill-rule="evenodd" clip-rule="evenodd" fill="#3D4154" d="M1254.862-722.336c-0.438,0-0.785,0.161-1.032,0.491
						c-0.183,0.24-0.266,0.61-0.266,1.119v1.665c0,0.506,0.093,0.883,0.277,1.119c0.247,0.325,0.591,0.487,1.044,0.487
						c0.447,0,0.803-0.169,1.041-0.514c0.107-0.154,0.17-0.326,0.201-0.517c0.006-0.087,0.018-0.279,0.018-0.556v-0.124h-0.881
						c0,0.345-0.009,0.538-0.02,0.583c-0.049,0.231-0.171,0.345-0.383,0.345c-0.295,0-0.438-0.218-0.438-0.66v-0.843h1.722v-0.984
						c0-0.508-0.084-0.879-0.267-1.119C1255.639-722.175,1255.293-722.336,1254.862-722.336z M1255.283-720.46h-0.859v-0.438
						c0-0.441,0.144-0.66,0.432-0.66c0.285,0,0.428,0.219,0.428,0.66V-720.46z"/>
				</g>
			</g>
		</g>
	</g>
	<g>
		<path fill="#030303" d="M1207.859-308.877c-3.532-0.338-6.698-1.906-9.074-4.279c-2.689-2.692-4.352-6.4-4.352-10.511
			c0-4.107,1.66-7.813,4.352-10.506c2.371-2.367,5.527-3.934,9.05-4.277l-0.002-2.207c-8.741,0.742-15.606,8.055-15.606,16.99
			c0,8.948,6.881,16.27,15.635,16.997L1207.859-308.877z"/>
		<path fill="#030303" d="M1210.834-340.652l0.002,2.209c3.489,0.359,6.613,1.922,8.963,4.27c2.69,2.691,4.352,6.398,4.352,10.506
			c0,4.11-1.658,7.818-4.352,10.511c-2.345,2.344-5.46,3.902-8.938,4.268l0.002,2.212c8.688-0.793,15.494-8.089,15.494-16.99
			C1226.357-332.573,1219.536-339.873,1210.834-340.652z"/>
	</g>
</g>
<g id="Layer_2">
</g>
<g id="Layer_3">
</g>
</svg>
