<?xml version="1.0" encoding="utf-8"?>
<!-- Generator: Adobe Illustrator 16.0.4, SVG Export Plug-In . SVG Version: 6.00 Build 0)  -->
<!DOCTYPE svg PUBLIC "-//W3C//DTD SVG 1.1//EN" "http://www.w3.org/Graphics/SVG/1.1/DTD/svg11.dtd">
<svg version="1.1" id="Layer_1" xmlns="http://www.w3.org/2000/svg" xmlns:xlink="http://www.w3.org/1999/xlink" x="0px" y="0px"
	 width="290.584px" height="265px" viewBox="0 0 290.584 265" enable-background="new 0 0 290.584 265" xml:space="preserve">
<g>
	<g>
		<g>
			<polygon fill="#3D4154" stroke="#3D4154" stroke-width="0.2111" stroke-miterlimit="10" points="207.004,33.475 207.004,41.726 
				208.129,41.726 208.129,25.893 207.004,25.893 			"/>
			<polygon fill="#3D4154" stroke="#3D4154" stroke-width="0.2111" stroke-miterlimit="10" points="282.806,25.753 281.683,25.753 
				274.384,41.726 275.586,41.726 282.224,27.045 286.347,36.236 279.886,36.236 279.399,37.292 286.838,37.292 288.834,41.726 
				290.11,41.726 			"/>
			<g>
				<polygon fill="#3D4154" stroke="#3D4154" stroke-width="0.2111" stroke-miterlimit="10" points="247.25,25.893 243.106,25.893 
					238.877,25.893 238.877,26.949 247.25,26.949 				"/>
				<polygon fill="#3D4154" stroke="#3D4154" stroke-width="0.2111" stroke-miterlimit="10" points="246.194,34.266 246.194,33.212 
					242.479,33.212 238.877,33.212 238.877,34.266 				"/>
				<polygon fill="#3D4154" stroke="#3D4154" stroke-width="0.2111" stroke-miterlimit="10" points="238.877,40.67 238.877,41.726 
					247.319,41.726 247.319,40.67 243,40.67 				"/>
			</g>
			<g>
				<polygon fill="#3D4154" stroke="#3D4154" stroke-width="0.2111" stroke-miterlimit="10" points="254.778,25.893 253.651,25.893 
					253.651,41.726 254.778,41.726 254.778,33.833 				"/>
				<polygon fill="#3D4154" stroke="#3D4154" stroke-width="0.2111" stroke-miterlimit="10" points="265.755,28.179 260.983,35.276 
					256.187,28.179 256.187,30.141 260.983,37.17 265.755,30.141 				"/>
			</g>
			<g>
				<polygon fill="#3D4154" stroke="#3D4154" stroke-width="0.2111" stroke-miterlimit="10" points="228.956,38.903 228.956,25.893 
					227.83,25.893 227.83,31.601 227.83,37.47 				"/>
				<polygon fill="#3D4154" stroke="#3D4154" stroke-width="0.2111" stroke-miterlimit="10" points="227.722,41.726 229.054,41.726 
					216.61,25.893 215.304,25.893 				"/>
				<polygon fill="#3D4154" stroke="#3D4154" stroke-width="0.2111" stroke-miterlimit="10" points="215.377,28.695 215.377,41.726 
					216.502,41.726 216.502,35.708 216.502,30.129 				"/>
			</g>
			<polygon fill="#3D4154" stroke="#3D4154" stroke-width="0.2111" stroke-miterlimit="10" points="268.5,25.893 267.374,25.893 
				267.374,41.726 268.5,41.726 268.5,33.833 			"/>
			<polygon fill="#3D4154" stroke="#3D4154" stroke-width="0.2111" stroke-miterlimit="10" points="237.048,25.893 235.922,25.893 
				235.922,41.726 237.048,41.726 237.048,33.833 			"/>
			<g>
				<g>
					<g>
						<path fill="#3D4154" stroke="#3D4154" stroke-width="0.2111" stroke-miterlimit="10" d="M194.479,26.714
							c2.039,0.156,3.439,1.087,4.686,2.303l0.822-0.859c-1.495-1.387-3.047-2.381-5.508-2.52V26.714L194.479,26.714z"/>
						<path fill="#3D4154" stroke="#3D4154" stroke-width="0.2111" stroke-miterlimit="10" d="M199.299,38.492
							c-1.442,1.443-2.85,2.304-4.819,2.443v1.067c2.463-0.158,4.071-1.217,5.604-2.74L199.299,38.492z"/>
					</g>
				</g>
				<g>
					<path fill="#3D4154" d="M192.653,40.868c-3.188-0.549-5.528-3.522-5.528-7.09c0-3.565,2.315-6.476,5.528-7.002v-1.079
						c-3.95,0.546-6.736,3.891-6.736,8.127c0,4.237,2.805,7.616,6.736,8.136V40.868L192.653,40.868z"/>
					<path fill="none" stroke="#3D4154" stroke-width="0.1996" stroke-miterlimit="10" d="M192.653,40.868
						c-3.188-0.549-5.528-3.522-5.528-7.09c0-3.565,2.315-6.476,5.528-7.002v-1.079c-3.95,0.546-6.736,3.891-6.736,8.127
						c0,4.237,2.805,7.616,6.736,8.136V40.868L192.653,40.868z"/>
				</g>
			</g>
		</g>
	</g>
	<g>
		<polygon fill="#3D4154" stroke="#3D4154" stroke-width="0.2111" stroke-miterlimit="10" points="3.167,25.541 0,25.541 0,42.358 
			11.892,42.358 11.892,39.203 3.167,39.203 		"/>
		
			<rect x="16.505" y="25.541" fill="#3D4154" stroke="#3D4154" stroke-width="0.2111" stroke-miterlimit="10" width="3.367" height="16.817"/>
		<path fill="#3D4154" stroke="#3D4154" stroke-width="0.2111" stroke-miterlimit="10" d="M33.351,35.675h4.223v2.824
			c-1.056,0.754-2.415,1.184-3.829,1.184c-3.23,0-5.459-2.371-5.459-5.769v-0.047c0-3.142,2.345-5.698,5.227-5.698
			c2.075,0,3.309,0.695,4.535,1.74L38.159,30l2.027-2.414l-0.107-0.091c-1.911-1.619-3.781-2.28-6.451-2.28
			c-2.41,0-4.646,0.918-6.259,2.585c-1.57,1.623-2.46,3.794-2.46,6.114v0.048c0,2.404,0.874,4.593,2.414,6.162
			c1.6,1.627,3.806,2.487,6.349,2.487c3.257,0,5.579-1.419,6.971-2.61l0.027-0.041v-7.101h-7.318L33.351,35.675L33.351,35.675z"/>
		<polygon fill="#3D4154" stroke="#3D4154" stroke-width="0.2111" stroke-miterlimit="10" points="56.782,32.437 49.183,32.437 
			49.183,25.541 45.946,25.541 45.946,42.358 49.183,42.358 49.183,35.392 56.782,35.392 56.782,42.358 59.948,42.358 
			59.948,25.541 56.782,25.541 		"/>
		<polygon fill="#3D4154" stroke="#3D4154" stroke-width="0.2111" stroke-miterlimit="10" points="64.521,28.497 69.799,28.497 
			69.799,42.358 72.965,42.358 72.965,28.497 78.242,28.497 78.242,25.541 64.521,25.541 		"/>
		<polygon fill="#3D4154" stroke="#3D4154" stroke-width="0.2111" stroke-miterlimit="10" points="97.169,32.437 89.57,32.437 
			89.57,25.541 86.333,25.541 86.333,42.358 89.57,42.358 89.57,35.392 97.169,35.392 97.169,42.358 100.336,42.358 100.336,25.541 
			97.169,25.541 		"/>
		<path fill="#3D4154" stroke="#3D4154" stroke-width="0.2111" stroke-miterlimit="10" d="M122.921,33.914v-0.047
			c0-2.33-0.856-4.497-2.435-6.1c-1.476-1.497-3.476-2.383-5.657-2.528V0h-1.055v25.225c-2.041,0.082-3.9,0.795-5.378,2.043
			L90.811,9.479l-0.732,0.742l17.552,17.773c-1.472,1.595-2.299,3.686-2.299,5.919v0.048c0,2.33,0.881,4.496,2.459,6.1
			c1.543,1.566,3.662,2.463,5.984,2.543V68.04h1.055V42.587c1.9-0.14,3.75-0.867,5.166-2.094l17.819,18.025l0.739-0.752
			l-17.822-18.01C122.158,38.171,122.921,36.111,122.921,33.914z M110.549,29.492c0.37-0.316,0.788-0.587,1.229-0.803
			c0.706-0.334,1.487-0.52,2.338-0.52c3.127,0,5.499,2.471,5.499,5.746v0.048c0,3.247-2.365,5.697-5.465,5.697
			c-3.127,0-5.512-2.469-5.512-5.745v-0.047C108.638,32.071,109.379,30.52,110.549,29.492z"/>
		<path fill="#3D4154" stroke="#3D4154" stroke-width="0.2111" stroke-miterlimit="10" d="M138.964,35.167
			c0,2.881-1.441,4.469-4.034,4.469c-2.569,0-4.057-1.673-4.057-4.587v-9.508h-3.166v9.626c0,2.385,0.662,4.248,1.956,5.539
			c1.234,1.23,3.024,1.883,5.214,1.883c4.612,0,7.253-2.758,7.253-7.564v-9.483h-3.167L138.964,35.167L138.964,35.167z"/>
		<path fill="#3D4154" stroke="#3D4154" stroke-width="0.2111" stroke-miterlimit="10" d="M158.187,34.196
			c-0.854-0.728-2.158-1.282-4.056-1.743c-3.239-0.774-3.839-1.318-3.839-2.463v-0.048c0-1.089,1.059-1.822,2.585-1.822
			c1.457,0,2.921,0.548,4.431,1.674l0.121,0.087l1.723-2.425l-0.104-0.083c-1.771-1.421-3.762-2.111-6.092-2.111
			c-1.629,0-3.121,0.486-4.166,1.369c-1.061,0.894-1.664,2.162-1.664,3.571v0.047c0,1.513,0.484,2.595,1.5,3.404
			c0.852,0.679,2.068,1.179,4.117,1.673c3.082,0.711,3.604,1.339,3.604,2.393v0.047c0,1.178-1.062,1.939-2.76,1.939
			c-1.857,0-3.416-0.652-5.105-2.115l-0.104-0.095l-1.926,2.294l0.104,0.092c1.967,1.755,4.373,2.683,6.981,2.683
			c3.676,0,6.043-1.994,6.043-5.081v-0.047C159.58,36.06,159.125,34.999,158.187,34.196z"/>
		<polygon fill="#3D4154" stroke="#3D4154" stroke-width="0.2111" stroke-miterlimit="10" points="167.672,39.474 167.672,35.321 
			175.974,35.321 175.974,32.437 167.672,32.437 167.672,28.425 177.028,28.425 177.028,25.541 164.506,25.541 164.506,42.358 
			177.17,42.358 177.17,39.474 		"/>
	</g>
</g>
<path opacity="0.8" fill="#FFFFFF" enable-background="new    " d="M24.522,76.746c-0.714,0.317-1.488,0.534-2.297,0.632
	c0.828-0.495,1.461-1.282,1.76-2.217c-0.772,0.458-1.632,0.792-2.545,0.975c-0.729-0.779-1.771-1.267-2.924-1.267
	c-2.211,0-4.002,1.792-4.002,4.004c0,0.312,0.034,0.622,0.101,0.916C11.287,79.62,8.334,78.024,6.36,75.6
	c-0.347,0.594-0.544,1.283-0.544,2.017c0,1.388,0.708,2.614,1.787,3.334c-0.66-0.022-1.278-0.203-1.819-0.504
	c0,0.017,0,0.036,0,0.052c0,1.941,1.382,3.559,3.216,3.93c-0.337,0.09-0.693,0.138-1.058,0.138c-0.258,0-0.505-0.023-0.756-0.067
	c0.514,1.586,1.992,2.743,3.744,2.775c-1.37,1.075-3.097,1.719-4.975,1.719c-0.32,0-0.64-0.02-0.954-0.055
	c1.771,1.133,3.879,1.799,6.138,1.799c7.371,0,11.401-6.104,11.401-11.397c0-0.173-0.007-0.347-0.014-0.518
	C23.311,78.255,23.987,77.548,24.522,76.746z"/>
<path opacity="0.8" fill="#FFFFFF" enable-background="new    " d="M47.546,73.246H30.614c-0.599,0-1.092,0.492-1.092,1.093v16.93
	c0,0.602,0.493,1.094,1.092,1.094h16.932c0.604,0,1.094-0.492,1.094-1.094v-16.93C48.64,73.737,48.15,73.246,47.546,73.246z
	 M45.748,83.972h-2.626v7.025h-2.676v-7.025H38.59v-2.533h1.855c0,0,0-1.036,0-2.16c0-1.7,1.101-3.261,3.629-3.261
	c1.022,0,1.78,0.1,1.78,0.1l-0.058,2.363c0,0-0.772-0.004-1.619-0.004c-0.912,0-1.057,0.417-1.057,1.115c0,0.105,0,0.127,0,0.118
	c0,0.19,0,0.659,0,1.731h2.748L45.748,83.972z"/>
<g id="Your_Icon_26_" opacity="0.8">
	<g>
		<g id="Instagram_Icon_8_">
			<g>
				<path fill="#FFFFFF" d="M91.312,82.555c0,2.496-2.023,4.519-4.52,4.519c-2.493,0-4.521-2.023-4.521-4.519
					c0-0.566,0.111-1.102,0.298-1.602h-5.537v6.731c0,2.698,2.185,4.881,4.878,4.881h9.765c2.696,0,4.884-2.183,4.884-4.881v-6.731
					h-5.546C91.205,81.451,91.312,81.989,91.312,82.555z"/>
				<circle fill="#FFFFFF" cx="86.792" cy="82.556" r="2.712"/>
				<path fill="#FFFFFF" d="M91.675,73.04H82.17v5.093h-1.071v-5.016c-0.369,0.059-0.728,0.159-1.066,0.301v4.715h-1.067v-4.096
					c-1.173,0.892-1.933,2.297-1.933,3.888v1.429h6.572c0.818-0.814,1.947-1.317,3.188-1.317c1.246,0,2.369,0.503,3.188,1.317h6.579
					v-1.429C96.559,75.228,94.372,73.04,91.675,73.04z M93.857,77.657c0,0.304-0.246,0.551-0.551,0.551h-1.645
					c-0.301,0-0.547-0.247-0.547-0.551v-1.643c0-0.303,0.246-0.552,0.547-0.552h1.645c0.305,0,0.551,0.249,0.551,0.552V77.657z"/>
			</g>
		</g>
	</g>
</g>
<path opacity="0.8" fill="#FFFFFF" enable-background="new    " d="M70.669,73.607H54.996c-0.745,0-1.355,0.592-1.355,1.324v15.742
	c0,0.732,0.61,1.327,1.355,1.327H70.67c0.751,0,1.363-0.595,1.363-1.327V74.931C72.033,74.2,71.42,73.607,70.669,73.607z
	 M63.884,84.784L60.48,86.74l0.008-3.928l0.011-3.925l3.396,1.972l3.396,1.971L63.884,84.784z"/>
<g>
	<polygon fill="#FFFFFF" points="72.619,135 84.261,123.354 82.013,121.112 70.371,132.752 	"/>
	
		<rect x="69.911" y="114.823" transform="matrix(0.6943 0.7197 -0.7197 0.6943 106.7242 -18.4305)" fill="#FFFFFF" width="10.292" height="3.176"/>
	<g>
		<path fill="#FFFFFF" d="M89.751,113.256c1.937,2.772,3.074,6.135,3.074,9.775c0,4.721-1.914,8.986-5.008,12.088
			c-3.098,3.092-7.364,5.004-12.088,5.004c-3.637,0-7.004-1.135-9.776-3.07l-2.1,2.102c3.323,2.447,7.434,3.902,11.876,3.902
			c5.524,0,10.539-2.246,14.157-5.865c3.622-3.621,5.865-8.639,5.865-14.157c0-4.446-1.447-8.553-3.9-11.879L89.751,113.256z"/>
		<path fill="#FFFFFF" d="M63.579,135.053c-3.062-3.094-4.943-7.328-4.943-12.021c0-4.727,1.91-8.992,5.001-12.091
			c3.102-3.095,7.365-5.004,12.093-5.004c4.693,0,8.93,1.884,12.021,4.942l2.073-2.071c-3.611-3.582-8.601-5.801-14.094-5.801
			c-5.528,0-10.542,2.242-14.161,5.865c-3.622,3.617-5.865,8.631-5.865,14.16c0,5.49,2.217,10.477,5.806,14.094L63.579,135.053z"/>
	</g>
</g>
<g>
	<polygon fill="#FFFFFF" points="28.577,135 16.936,123.354 19.184,121.112 30.825,132.752 	"/>
	
		<rect x="20.985" y="114.829" transform="matrix(-0.6943 0.7197 -0.7197 -0.6943 128.0599 178.4358)" fill="#FFFFFF" width="10.292" height="3.176"/>
	<g>
		<path fill="#FFFFFF" d="M11.445,113.256c-1.937,2.772-3.074,6.135-3.074,9.775c0,4.721,1.914,8.986,5.008,12.088
			c3.098,3.092,7.364,5.004,12.088,5.004c3.637,0,7.004-1.135,9.776-3.07l2.1,2.102c-3.323,2.447-7.434,3.902-11.876,3.902
			c-5.524,0-10.539-2.246-14.157-5.865c-3.622-3.621-5.865-8.639-5.865-14.157c0-4.446,1.447-8.553,3.9-11.879L11.445,113.256z"/>
		<path fill="#FFFFFF" d="M37.617,135.053c3.062-3.094,4.943-7.328,4.943-12.021c0-4.727-1.91-8.992-5.001-12.091
			c-3.102-3.095-7.365-5.004-12.093-5.004c-4.693,0-8.93,1.884-12.021,4.942l-2.073-2.071c3.611-3.582,8.601-5.801,14.094-5.801
			c5.528,0,10.542,2.242,14.161,5.865c3.622,3.617,5.865,8.631,5.865,14.16c0,5.49-2.217,10.477-5.806,14.094L37.617,135.053z"/>
	</g>
</g>
<g>
	<g>
		<path fill="#3B3D54" d="M114.201,114.081v0.913c1.525,0.001,2.9,0.616,3.9,1.616c1,1.002,1.617,2.375,1.617,3.903
			c0,1.527-0.615,2.899-1.617,3.901c-1,1-2.373,1.615-3.9,1.616c-1.529-0.001-2.903-0.616-3.904-1.616
			c-1.001-1.002-1.615-2.374-1.616-3.901c0.001-1.526,0.616-2.901,1.616-3.903c1.001-1,2.375-1.615,3.904-1.616V114.081v-0.912
			c-4.059,0-7.348,3.287-7.348,7.345c0,4.058,3.289,7.345,7.348,7.345c4.057,0,7.344-3.287,7.344-7.345
			c0-4.058-3.287-7.345-7.344-7.345V114.081z"/>
		<path fill="#3B3D54" d="M112.888,117.821v3.312c0,0.299,0.148,0.581,0.395,0.751l2.344,1.621c0.416,0.287,0.985,0.182,1.271-0.232
			c0.287-0.416,0.184-0.984-0.231-1.271l-1.95-1.349v-2.832c0-0.502-0.41-0.912-0.914-0.912
			C113.299,116.909,112.888,117.319,112.888,117.821z"/>
	</g>
</g>
<g>
	<circle fill="#3B3D54" cx="153.563" cy="117.854" r="1.435"/>
	<circle fill="#3B3D54" cx="152.539" cy="123.501" r="1.435"/>
	<circle fill="#3B3D54" cx="150.229" cy="120.164" r="1.435"/>
	<circle fill="#3B3D54" cx="153.054" cy="120.677" r="0.797"/>
	<circle fill="#3B3D54" cx="155.875" cy="121.19" r="1.435"/>
	<path fill="#3B3D54" d="M164.293,114.234c0.005-0.438-0.343-0.799-0.78-0.806c-1.812-0.028-3.412,1.095-4.229,2.757
		c-1.119-1.505-2.789-2.607-4.783-2.97c-4.17-0.758-8.165,2.007-8.922,6.177c-0.757,4.169,2.011,8.162,6.18,8.919
		c4.168,0.757,8.161-2.007,8.918-6.176c0.254-1.392,0.111-2.764-0.342-4.003c0.236-1.781,1.568-3.144,3.152-3.119
		C163.926,115.021,164.285,114.672,164.293,114.234z M156.41,125.502c-1.216,0.841-2.74,1.217-4.31,0.932
		c-1.572-0.284-2.869-1.174-3.711-2.388c-0.845-1.218-1.22-2.742-0.936-4.312c0.285-1.568,1.175-2.865,2.393-3.711
		c1.215-0.839,2.739-1.215,4.312-0.93c1.565,0.285,2.862,1.174,3.707,2.389c0.84,1.217,1.218,2.742,0.933,4.312
		C158.515,123.364,157.628,124.66,156.41,125.502z"/>
</g>
<g>
	<circle fill="#FFFFFF" cx="21.564" cy="242.854" r="1.435"/>
	<circle fill="#FFFFFF" cx="20.539" cy="248.501" r="1.435"/>
	<circle fill="#FFFFFF" cx="18.229" cy="245.164" r="1.436"/>
	<circle fill="#FFFFFF" cx="21.054" cy="245.677" r="0.797"/>
	<circle fill="#FFFFFF" cx="23.875" cy="246.19" r="1.435"/>
	<path fill="#FFFFFF" d="M32.293,239.234c0.005-0.438-0.343-0.799-0.781-0.809c-1.814-0.025-3.412,1.098-4.228,2.76
		c-1.119-1.506-2.789-2.607-4.783-2.973c-4.17-0.758-8.165,2.01-8.922,6.18c-0.757,4.168,2.011,8.162,6.18,8.918
		c4.168,0.758,8.161-2.006,8.918-6.178c0.253-1.392,0.111-2.764-0.342-4.003c0.237-1.778,1.569-3.146,3.152-3.116
		C31.926,240.021,32.285,239.672,32.293,239.234z M24.41,250.502c-1.216,0.841-2.74,1.217-4.31,0.932
		c-1.572-0.283-2.869-1.174-3.711-2.388c-0.842-1.218-1.217-2.741-0.933-4.312c0.285-1.568,1.175-2.865,2.39-3.711
		c1.215-0.84,2.742-1.215,4.314-0.933c1.567,0.285,2.864,1.177,3.707,2.392c0.84,1.217,1.218,2.742,0.933,4.312
		C26.515,248.363,25.628,249.66,24.41,250.502z"/>
</g>
<polygon fill="#ECECEC" points="35,167.137 27.648,167.137 26.344,168.441 30.932,168.441 25.42,172.387 27.529,178.854 22,174.82 
	16.469,178.831 18.58,172.393 13.064,168.441 19.885,168.441 22,161.934 23.949,167.934 24.984,166.896 22,157.711 21.379,159.621 
	18.936,167.137 9,167.137 17.041,172.896 13.975,182.253 21.998,176.434 30.025,182.289 26.957,172.893 "/>
<g>
	<path fill="#3D4154" d="M134.896,81.186c-0.814,0.359-1.692,0.605-2.609,0.717c0.939-0.562,1.659-1.453,1.995-2.514
		c-0.874,0.521-1.849,0.896-2.882,1.104c-0.83-0.886-2.012-1.438-3.319-1.438c-2.509,0-4.541,2.033-4.541,4.544
		c0,0.354,0.039,0.702,0.113,1.036c-3.774-0.192-7.124-2.001-9.365-4.747c-0.391,0.669-0.613,1.451-0.613,2.283
		c0,1.578,0.802,2.967,2.023,3.782c-0.746-0.024-1.447-0.228-2.061-0.568c0,0.018,0,0.039,0,0.057c0,2.201,1.565,4.038,3.644,4.457
		c-0.383,0.104-0.782,0.157-1.195,0.157c-0.293,0-0.578-0.026-0.855-0.079c0.578,1.803,2.258,3.119,4.244,3.154
		c-1.556,1.218-3.515,1.943-5.643,1.943c-0.367,0-0.729-0.02-1.086-0.062c2.014,1.288,4.4,2.042,6.965,2.042
		c8.36,0,12.931-6.925,12.931-12.929c0-0.197-0.004-0.394-0.014-0.589C133.517,82.899,134.287,82.098,134.896,81.186z"/>
	<g>
		<path fill="#3D4154" d="M164.865,96.471c0,0.598-0.487,1.085-1.089,1.085h-16.828c-0.598,0-1.088-0.487-1.088-1.085V79.642
			c0-0.597,0.49-1.086,1.088-1.086h16.828c0.602,0,1.089,0.489,1.089,1.086V96.471z"/>
		<path fill="#FFFFFF" d="M156.722,96.201v-6.985h-1.849V86.7h1.849c0,0,0-1.031,0-2.147c0-1.689,1.09-3.24,3.604-3.24
			c1.019,0,1.771,0.098,1.771,0.098l-0.06,2.349c0,0-0.769-0.004-1.606-0.004c-0.904,0-1.051,0.415-1.051,1.108
			c0,0.549,0-1.168,0,1.837h2.729l-0.116,2.516h-2.609v6.985L156.722,96.201L156.722,96.201z"/>
	</g>
	<g id="Instagram_Icon_17_">
		<g>
			<path fill="#3D4154" d="M218.646,87.826c0,2.301-1.865,4.167-4.166,4.167c-2.299,0-4.168-1.865-4.168-4.167
				c0-0.521,0.104-1.015,0.275-1.475h-5.107v6.205c0,2.486,2.019,4.499,4.5,4.499h9c2.485,0,4.504-2.013,4.504-4.499v-6.205h-5.109
				C218.547,86.809,218.646,87.306,218.646,87.826z"/>
			<path fill="#3D4154" d="M214.479,85.327c1.381,0,2.502,1.119,2.502,2.499c0,1.384-1.121,2.502-2.502,2.502
				c-1.379,0-2.498-1.118-2.498-2.502C211.981,86.446,213.101,85.327,214.479,85.327z"/>
			<path fill="#3D4154" d="M218.979,79.056h-8.766v4.694h-0.98v-4.626c-0.342,0.057-0.674,0.147-0.983,0.279v4.347h-0.985v-3.775
				c-1.082,0.822-1.783,2.116-1.783,3.583v1.318h6.062c0.753-0.751,1.792-1.215,2.938-1.215c1.149,0,2.186,0.464,2.938,1.215h6.063
				v-1.318C223.481,81.072,221.465,79.056,218.979,79.056z M220.99,83.312c0,0.278-0.228,0.506-0.507,0.506h-1.52
				c-0.275,0-0.506-0.228-0.506-0.506v-1.518c0-0.277,0.229-0.506,0.506-0.506h1.52c0.279,0,0.507,0.229,0.507,0.506V83.312z"/>
		</g>
	</g>
	<g>
		<g>
			<path fill="#3D4154" d="M183.405,93.438c-0.188,0.259-0.359,0.387-0.524,0.387c-0.11,0-0.176-0.064-0.194-0.193
				c-0.01-0.027-0.01-0.129-0.01-0.321v-3.367h-0.828v3.616c0,0.323,0.03,0.54,0.077,0.68c0.081,0.229,0.267,0.339,0.532,0.339
				c0.303,0,0.616-0.184,0.947-0.56v0.498h0.828v-4.573h-0.828V93.438L183.405,93.438z"/>
		</g>
		<g>
			<polygon fill="#3D4154" points="178.84,89.243 179.815,89.243 179.815,94.516 180.735,94.516 180.735,89.243 181.729,89.243 
				181.729,88.377 178.84,88.377 			"/>
		</g>
		<g>
			<path fill="#3D4154" d="M186.634,89.886c-0.304,0-0.588,0.167-0.854,0.497v-2.006h-0.829v6.139h0.829V94.07
				c0.273,0.345,0.562,0.507,0.854,0.507c0.33,0,0.553-0.174,0.664-0.515c0.057-0.192,0.083-0.497,0.083-0.92v-1.821
				c0-0.433-0.026-0.733-0.083-0.918C187.187,90.061,186.964,89.886,186.634,89.886z M186.554,93.206
				c0,0.416-0.123,0.618-0.361,0.618c-0.139,0-0.271-0.064-0.41-0.202v-2.79c0.14-0.135,0.271-0.199,0.41-0.199
				c0.238,0,0.361,0.211,0.361,0.623V93.206z"/>
		</g>
		<g>
			<path fill="#3D4154" d="M184.483,85.243c0.27,0,0.396-0.215,0.396-0.641v-1.944c0-0.428-0.13-0.643-0.396-0.643
				c-0.271,0-0.398,0.215-0.398,0.643v1.944C184.085,85.028,184.214,85.243,184.483,85.243z"/>
		</g>
		<g>
			<g>
				<path fill="#3D4154" d="M192.366,78.556h-15.375c-1.041,0-1.889,0.846-1.889,1.888l-0.011,15.226
					c0,1.042,0.849,1.887,1.888,1.887h15.375c1.043,0,1.89-0.845,1.89-1.887l0.008-15.226
					C194.252,79.401,193.408,78.556,192.366,78.556z M186.41,81.32h0.834v3.401c0,0.197,0,0.299,0.009,0.324
					c0.02,0.132,0.085,0.197,0.198,0.197c0.164,0,0.343-0.13,0.526-0.394V81.32h0.84v4.619h-0.84v-0.504
					c-0.33,0.383-0.648,0.567-0.957,0.567c-0.268,0-0.453-0.109-0.535-0.344c-0.047-0.138-0.075-0.359-0.075-0.687V81.32z
					 M183.247,82.826c0-0.495,0.084-0.854,0.263-1.089c0.231-0.316,0.56-0.474,0.976-0.474c0.418,0,0.742,0.157,0.978,0.474
					c0.177,0.234,0.265,0.594,0.265,1.089v1.619c0,0.489-0.088,0.854-0.265,1.086c-0.229,0.314-0.56,0.472-0.978,0.472
					c-0.416,0-0.741-0.157-0.976-0.472c-0.179-0.231-0.263-0.597-0.263-1.086V82.826z M181.007,79.737l0.659,2.436l0.633-2.436
					h0.938l-1.115,3.691v2.511h-0.93v-2.511c-0.084-0.446-0.271-1.098-0.568-1.962c-0.191-0.575-0.398-1.155-0.592-1.729H181.007z
					 M191.29,94.789c-0.168,0.729-0.764,1.266-1.482,1.349c-1.699,0.189-3.424,0.193-5.133,0.189c-1.713,0.004-3.435,0-5.135-0.189
					c-0.719-0.083-1.314-0.619-1.482-1.349c-0.238-1.038-0.238-2.173-0.238-3.241c0-1.068,0.002-2.202,0.242-3.24
					c0.166-0.727,0.766-1.268,1.48-1.345c1.699-0.193,3.421-0.193,5.135-0.193c1.715,0,3.434,0,5.133,0.193
					c0.721,0.077,1.314,0.618,1.482,1.345c0.238,1.038,0.238,2.172,0.238,3.24C191.53,92.616,191.528,93.751,191.29,94.789z"/>
			</g>
		</g>
		<g>
			<path fill="#3D4154" d="M189.274,89.886c-0.422,0-0.756,0.155-0.992,0.472c-0.176,0.23-0.256,0.587-0.256,1.075v1.601
				c0,0.486,0.09,0.849,0.267,1.075c0.237,0.313,0.567,0.469,1.004,0.469c0.431,0,0.771-0.162,1-0.494
				c0.104-0.147,0.164-0.313,0.194-0.497c0.006-0.084,0.017-0.268,0.017-0.534v-0.119h-0.847c0,0.332-0.01,0.517-0.02,0.56
				c-0.049,0.223-0.164,0.332-0.367,0.332c-0.285,0-0.422-0.21-0.422-0.635V92.38h1.652v-0.946c0-0.488-0.081-0.845-0.256-1.075
				C190.021,90.041,189.688,89.886,189.274,89.886z M189.679,91.689h-0.826v-0.422c0-0.424,0.141-0.635,0.416-0.635
				c0.273,0,0.41,0.211,0.41,0.635V91.689L189.679,91.689z"/>
		</g>
	</g>
</g>
<g>
	<path fill="#030303" d="M261.067,110.123c-3.532-0.338-6.698-1.906-9.074-4.279c-2.689-2.692-4.352-6.4-4.352-10.511
		c0-4.107,1.66-7.813,4.352-10.506c2.371-2.367,5.527-3.934,9.05-4.277l-0.002-2.207c-8.741,0.742-15.606,8.055-15.606,16.99
		c0,8.948,6.881,16.27,15.635,16.997L261.067,110.123z"/>
	<path fill="#030303" d="M264.042,78.348l0.002,2.209c3.489,0.359,6.613,1.922,8.963,4.27c2.689,2.691,4.352,6.398,4.352,10.506
		c0,4.11-1.658,7.818-4.352,10.511c-2.345,2.344-5.46,3.902-8.938,4.268l0.002,2.212c8.688-0.793,15.494-8.089,15.494-16.99
		C279.565,86.427,272.744,79.127,264.042,78.348z"/>
</g>
<g>
	<path fill="#CA3743" d="M205.196,237.035c-0.024-0.018-0.053-0.033-0.084-0.033h-6.069c-0.026,0-0.062,0.016-0.08,0.033
		c-0.021,0.02-0.032,0.051-0.032,0.081v1.278c-0.586-0.611-1.32-1.056-2.117-1.354c-0.896-0.328-2.021-0.479-2.963-0.479
		c-2.414-0.002-4.404,0.981-5.781,2.545c-1.377,1.567-2.146,3.711-2.146,6.045c0,2.332,0.785,4.485,2.18,6.062
		c1.396,1.574,3.396,2.562,5.812,2.562c0.955,0,2.104-0.159,2.98-0.522c0.807-0.331,1.521-0.837,2.035-1.548v1.516
		c0,0.029,0.012,0.059,0.032,0.078s0.054,0.033,0.08,0.033h6.069c0.031,0,0.06-0.016,0.084-0.033
		c0.019-0.021,0.031-0.049,0.031-0.078v-16.103C205.229,237.086,205.215,237.055,205.196,237.035 M199.244,245.188
		c0,1.031-0.33,1.937-0.943,2.582c-0.614,0.646-1.676,1.039-2.854,1.039c-1.18,0-2.051-0.395-2.639-1.039
		c-0.586-0.646-0.888-1.551-0.888-2.582c0-1.006,0.302-1.92,0.89-2.582c0.588-0.664,1.459-1.078,2.637-1.08
		c1.178,0.002,2.234,0.418,2.854,1.08C198.914,243.271,199.244,244.184,199.244,245.188"/>
	<path fill="#CA3743" d="M174.174,232.145h-6.728c-0.028,0-0.059,0.015-0.079,0.031c-0.021,0.024-0.033,0.051-0.033,0.078v20.912
		c0,0.027,0.013,0.057,0.033,0.078s0.051,0.031,0.079,0.031h6.728c0.029,0,0.06-0.01,0.08-0.031s0.033-0.051,0.033-0.078v-20.912
		c0-0.027-0.015-0.054-0.033-0.078C174.231,232.156,174.203,232.145,174.174,232.145"/>
	<path fill="#CA3743" d="M185.772,241.771v-4.709c0-0.03-0.01-0.062-0.03-0.078c-0.021-0.023-0.052-0.033-0.08-0.033h-3.39v-4.697
		c0-0.025-0.016-0.054-0.035-0.076c-0.022-0.021-0.049-0.033-0.077-0.033h-6.41c-0.028,0-0.062,0.015-0.08,0.033
		c-0.021,0.022-0.03,0.051-0.03,0.076v4.809v4.709v11.396c0,0.027,0.01,0.061,0.03,0.079s0.052,0.03,0.08,0.03h6.41
		c0.028,0,0.055-0.012,0.077-0.03c0.021-0.021,0.035-0.052,0.035-0.079v-11.279h3.39c0.028,0,0.06-0.013,0.08-0.035
		C185.765,241.833,185.772,241.801,185.772,241.771"/>
	<path fill="#CA3743" d="M151.108,232.199c-0.021-0.035-0.059-0.055-0.096-0.055h-7.186c-0.043,0-0.086,0.024-0.102,0.065
		l-4.564,11.742l-4.541-11.742c-0.018-0.041-0.059-0.065-0.104-0.065h-7.262c-0.041,0-0.074,0.02-0.094,0.055
		c-0.021,0.029-0.025,0.07-0.01,0.105l8.99,20.95c0.02,0.039,0.057,0.062,0.1,0.062h5.641c0.045,0,0.084-0.021,0.102-0.062
		l9.125-20.95C151.133,232.271,151.129,232.229,151.108,232.199"/>
	<path fill="#CA3743" d="M166.437,245.174c0-2.701-1.146-4.895-2.912-6.393c-1.767-1.492-4.144-2.305-6.621-2.305h-0.004
		c-2.475,0-4.85,0.812-6.614,2.305c-1.771,1.498-2.914,3.691-2.912,6.398v0.002c-0.002,2.707,1.149,4.893,2.922,6.379
		c1.771,1.486,4.146,2.295,6.606,2.295c2.479,0,4.854-0.812,6.621-2.308c1.769-1.489,2.912-3.678,2.912-6.36v-0.006v-0.002v-0.008
		L166.437,245.174L166.437,245.174z M161.916,245.266l-7.315,4.351c-0.023,0.018-0.062,0.018-0.093,0.002
		c-0.026-0.021-0.045-0.048-0.045-0.076v-8.746c0-0.032,0.019-0.062,0.05-0.078c0.028-0.018,0.062-0.018,0.088,0.005l7.315,4.396
		c0.024,0.014,0.043,0.043,0.043,0.069C161.959,245.221,161.94,245.248,161.916,245.266"/>
	<polygon fill="#CA3743" points="208.155,237.021 208.155,237.211 207.627,237.211 207.627,238.592 207.412,238.592 
		207.412,237.211 206.885,237.211 206.885,237.021 	"/>
	<path fill="#CA3743" d="M208.347,237.021h0.307l0.453,1.33l0.447-1.33h0.303v1.567h-0.199v-0.926v-0.16
		c0.002-0.071,0.002-0.151,0.002-0.235l-0.447,1.321h-0.213l-0.451-1.321v0.049c0,0.039,0,0.098,0,0.176
		c0.008,0.076,0.008,0.137,0.008,0.174v0.926h-0.205v-1.57H208.347L208.347,237.021z"/>
</g>
<g>
	<g>
		<path fill="#CA3743" d="M164.789,152.497c0.11,0.045,0.221,0.088,0.33,0.131c1.58-1.467,3.157-2.938,4.737-4.405
			c1.248-0.406,3.881,0.711,5.197,0.787c0.064-0.064,0.131-0.13,0.195-0.195c-0.209-1.424-1.965-3.988-1.709-5.33
			c0.305-1.609,1.967-2.82,2.104-4.541c-1.369-0.601-3.476,0.324-4.935-0.131c-0.61-0.189-3.396-3.367-3.687-4.015
			c-0.262-0.2-0.276-0.344-0.727-0.396c-0.438,1.798-0.877,3.599-1.312,5.394c-0.321,0.58-5.539,2.522-6.517,2.699
			c-0.043,0.108-0.089,0.221-0.134,0.33c1.953,1.053,3.904,2.104,5.855,3.157C164.715,146.561,164.78,151.293,164.789,152.497z
			 M139.523,163.486c5.869-0.875,5.666-9.178-0.988-9.018c-1.695,0.76-2.883,0.951-3.619,2.635
			C133.492,160.348,136.117,163.993,139.523,163.486z M136.691,158.023c0.354-1.174,1.145-1.379,2.24-1.842
			c3.459,0.004,3.627,4.885,0.656,5.525C137.451,162.17,136.133,159.879,136.691,158.023z M173.345,154.471
			c-0.771,0.295-1.488,0.271-2.105,0.658c-1.645,1.037-2.704,4.092-1.381,6.318c1.492,2.512,5.627,2.652,7.304,0.195
			c-0.021-0.156-0.043-0.31-0.065-0.461c-0.089-0.064-0.175-0.134-0.265-0.197c-0.062,0.021-0.129,0.045-0.197,0.063
			c-0.305,0.354-0.612,0.701-0.92,1.054c-2.508,1.731-5.041-0.344-5.461-2.694c-0.512-2.866,2.272-4.983,4.869-3.884
			c0.438,0.373,0.877,0.746,1.315,1.117h0.265c0.219-0.132,0.194-0.103,0.262-0.396C177.26,155.107,174.646,154.42,173.345,154.471z
			 M225.854,161.249h-0.33c-0.207,0.315-0.24,0.459-0.197,0.922c0.467,0.365,0.965,0.845,1.58,1.054
			c2.012,0.688,5.148-0.148,4.74-2.433c-0.521-2.894-4.232-1.56-5.135-3.492c-1.033-2.092,3.336-2.717,4.211-0.854
			c0.09,0.021,0.178,0.043,0.264,0.065c0.281-0.206,0.387-0.284,0.395-0.79c-0.695-0.754-1.615-1.277-3.094-1.25
			c-0.502,0.131-1.008,0.264-1.512,0.396c-1.012,0.57-1.891,2.559-0.658,3.617c1.184,1.021,3.426,0.744,4.408,1.977
			C231.315,163.523,226.715,162.852,225.854,161.249z M156.104,163.223c0.59-0.271,0.998-1.258,1.117-1.975
			c0.229-0.139,3.043-0.407,3.355-0.131c0.229,0.203,0.795,1.742,1.051,2.105c0.602,0.157,1.012,0.062,1.516-0.136
			c0.465-0.971-2.572-6.756-3.026-8.226c-0.326-0.188-0.812-0.317-1.313-0.329c-0.265,0.047-0.527,0.09-0.789,0.135
			c-0.718,0.957-3.269,6.918-3.355,8.226c0.109,0.106,0.221,0.219,0.328,0.33C155.358,163.323,155.76,163.413,156.104,163.223z
			 M158.804,156.709c0.649,0.328,0.989,1.984,1.247,2.698c-0.021,0.065-0.043,0.13-0.065,0.196h-2.104
			c-0.021-0.066-0.043-0.131-0.062-0.196C158.146,158.506,158.474,157.607,158.804,156.709z M118.992,163.42
			c2.818-0.451,3.289-1.977,3.289-5.263c0-1.079,0.068-2.349-0.131-3.226c-0.377-0.281-1.084-0.488-1.58-0.134
			c-0.783,0.613-0.08,4.084-0.328,5.396c-0.117,0.625-0.424,0.91-0.723,1.315c-0.561,0.15-1.258,0.267-1.846,0.066
			c-2.242-1.033-0.082-4.9-1.248-6.714c-0.193-0.256-0.586-0.282-1.053-0.266c-0.293,0.168-0.461,0.207-0.66,0.461
			c-0.02,0.986-0.043,1.978-0.064,2.961C114.648,161.366,115.25,164.02,118.992,163.42z M180.912,163.292
			c0.043-0.067,0.086-0.134,0.131-0.201c0.022-2.762,0.043-5.524,0.065-8.289c-0.196-0.065-0.396-0.131-0.594-0.198
			c-0.109,0.067-0.221,0.133-0.328,0.198c-0.149,0.283,0.021,8.273,0.195,8.423C180.562,163.245,180.735,163.266,180.912,163.292z
			 M185.385,163.292c0.046-0.067,0.089-0.134,0.134-0.201c0.021-2.299,0.045-4.604,0.065-6.907c0.021-0.021,0.041-0.045,0.063-0.064
			h0.199c1.688,2.367,3.377,4.738,5.062,7.105c0.221,0.021,0.438,0.043,0.658,0.067c0.043-0.024,0.088-0.047,0.131-0.067
			c0.219-0.873,0.393-7.548,0.066-8.355c-0.021-0.062-0.045-0.133-0.066-0.195h-0.594c-0.697,1.363,0.021,5.145-0.195,6.777
			c-0.045,0.039-0.09,0.086-0.133,0.131c-1.299-1.223-3.951-6.852-5.592-6.979c-0.623,0.43-0.688,7.062-0.396,8.558
			C184.99,163.2,185.188,163.245,185.385,163.292z M205.256,163.292c0.464-1.017,0.147-5.8,0.136-7.176
			c0.043-0.021,0.086-0.043,0.131-0.066c0.938,1.3,1.799,3.263,2.367,4.808c0.276,0.176,0.866,0.438,1.25,0.129
			c0.748-1.575,1.491-3.155,2.239-4.734c0.086-0.064,0.175-0.133,0.263-0.199c0.021,2.35,0.043,4.695,0.065,7.041
			c0.063,0.047,0.131,0.092,0.196,0.135c0.152,0.021,0.308,0.043,0.462,0.066c0.043-0.066,0.086-0.134,0.131-0.201
			c0.289-0.721,0.153-7.613-0.065-8.354c-0.367-0.1-0.787-0.198-1.117,0c-0.539,0.349-2.289,4.31-2.5,5.134
			c-0.088,0.063-0.176,0.131-0.265,0.196c-0.834-1.754-1.668-3.51-2.502-5.264c-0.327-0.066-0.655-0.133-0.985-0.199
			c-0.812,0.578-0.683,7.045-0.461,8.621C204.817,163.245,205.037,163.266,205.256,163.292z M215.981,163.292
			c0.494-0.621,0.916-1.724,1.119-2.569c0.625-0.427,2.777-0.423,3.883-0.197c0.353,0.854,0.701,1.711,1.052,2.565
			c0.229,0.134,0.325,0.195,0.726,0.201h0.065c0.317-0.562-0.074-1.291-0.328-1.912c-0.447-1.085-2.231-6.305-2.961-6.709
			c-0.24-0.022-0.481-0.045-0.724-0.067c-0.953,0.819-3.018,6.824-3.557,8.424c0.023,0.063,0.043,0.134,0.066,0.197
			C215.545,163.245,215.765,163.266,215.981,163.292z M219.076,155.854c0.321,0.183,1.521,3.203,1.579,3.75h-2.829
			C217.521,159.342,218.776,156.395,219.076,155.854z M111.951,162.895c0.066-0.194,0.133-0.396,0.197-0.592
			c-0.045-0.154-0.088-0.309-0.131-0.462c-1.1-0.62-3.283,0.169-4.607-0.329c-0.338-0.195-0.271-1.41-0.131-1.777
			c1.162-0.063,2.326-0.131,3.488-0.194c1.713-2.935-4.436,0.235-3.553-2.961c0.307-0.438,3.756-0.144,4.604-0.396
			c0.172-0.276,0.219-0.601,0.199-1.119c-1.117-0.795-4.318-0.42-6.119-0.394c-0.357,0.263-0.672,0.42-0.791,0.92
			c-0.246,1.021-0.064,7.082,0.463,7.438C106.105,163.527,111.605,163.418,111.951,162.895z M126.889,163.223
			c0.344-0.574,0.486-1.938,0.264-2.697c0.152-0.237,0.432-0.377,0.787-0.194c1.443,0.887,1.334,2.979,3.752,2.963
			c0.197-0.134,0.395-0.267,0.592-0.396c-0.109-0.92-1.473-2.26-2.105-2.767v-0.194c0.592-0.316,1.289-0.502,1.711-0.988
			c0.934-1.064,0.305-3.17-0.592-3.75c-1.143-0.734-3.527-0.574-5.396-0.523c-0.311,0.225-0.58,0.324-0.723,0.723
			c-0.381,1.07-0.053,7.387,0.197,7.697C125.623,163.4,126.459,163.292,126.889,163.223z M127.283,156.182
			c2.09-0.086,3.422,0.24,2.764,2.105c-0.566,0.404-1.85,0.822-2.699,0.461C126.967,158.471,127.074,156.586,127.283,156.182z
			 M147.942,163.292c0.531-0.541,0.5-1.515,0.461-2.634c1.369-0.739,3.429,0.246,4.541-1.383c0.377-0.551,0.484-1.549,0.328-2.237
			c-0.584-2.603-3.059-2.437-6.25-2.367c-0.11,0.063-0.223,0.131-0.328,0.195c-0.483,0.813-0.604,7.805,0.062,8.356
			C147.153,163.245,147.551,163.266,147.942,163.292z M148.34,156.445c0.063-0.088,0.132-0.176,0.197-0.264
			c1.078-0.035,2.18-0.072,2.565,0.594c0.379,0.404,0.312,1.354-0.065,1.709c-0.351,0.599-1.521,0.572-2.5,0.524
			C148.235,158.469,148.317,157.292,148.34,156.445z M195.649,163.223c1.865,0.021,3.729,0.043,5.595,0.068
			c0.267-0.207,0.317-0.168,0.327-0.66c-1.057-0.576-3.745-0.219-5.196-0.199c-0.233-0.488-0.315-2.438-0.065-3.021
			c0.604-0.53,3.188,0.124,4.016-0.266c0.188-0.119,0.162-0.129,0.266-0.33c-0.047-0.088-0.09-0.176-0.135-0.264
			c-1.357-0.023-2.721-0.045-4.078-0.066c-0.297-0.598-0.312-2.266-0.064-2.825c0.39-0.396,4.316-0.216,5.066-0.197
			c0.043-0.194,0.086-0.396,0.131-0.594c-0.885-0.517-4.477-0.22-5.855-0.195c-0.698,0.771-0.348,6.57-0.33,8.226
			C195.433,163.002,195.541,163.113,195.649,163.223z M221.905,166.71h-116.6c-0.043,0.175-0.086,0.351-0.131,0.524
			c0.066,0.045,0.131,0.09,0.197,0.135h126.075c0.044-0.135,0.089-0.264,0.134-0.396v-0.063
			C230.59,166.342,223.709,166.71,221.905,166.71z M107.938,170.329c-0.309,0.637-0.613,1.272-0.92,1.909h-0.197
			c-0.355-0.625-0.557-1.821-1.383-1.973c-0.477,0.596-0.291,2.385-0.264,3.42c0.066,0.045,0.131,0.088,0.197,0.131
			c0.043,0.021,0.088,0.043,0.131,0.064c0.48-0.467-0.035-1.342,0.264-2.172v-0.133h0.066c0.285,0.463,0.572,0.924,0.855,1.385
			c0.703,0.277,0.918-0.877,1.053-1.385c0.064-0.021,0.131-0.043,0.197-0.062c0.209,0.387,0.211,1.555,0.066,2.037
			c0.191,0.264,0.158,0.328,0.527,0.266c0.188-0.897,0.34-2.616-0.068-3.487H107.938L107.938,170.329z M109.846,170.395
			c-0.393,0.267-0.459,2.635-0.197,3.228c0.232,0.354,1.977,0.438,2.5,0.194h0.131v-0.33c-0.658-0.043-1.314-0.086-1.975-0.129
			c-0.125-0.248-0.166-0.662-0.064-0.985c0.482-0.021,0.967-0.045,1.447-0.063c0.045-0.134,0.088-0.265,0.131-0.396
			c-0.48-0.043-0.965-0.09-1.445-0.133c-0.262-0.166-0.244-0.598-0.133-0.922c0.613-0.021,1.229-0.045,1.844-0.062
			c0.064-0.021,0.129-0.047,0.195-0.066V170.4c-0.547-0.043-1.096-0.086-1.645-0.129
			C110.373,170.309,110.107,170.352,109.846,170.395z M120.176,170.266c-0.086,0.043-0.176,0.086-0.264,0.129
			c-0.438,1.1-0.877,2.193-1.316,3.291v0.064c0.188,0.086,0.189,0.125,0.396,0.066c0.262-0.154,0.426-0.56,0.527-0.854
			c0.264-0.136,1.031-0.229,1.379-0.067c0.197,0.33,0.396,0.657,0.594,0.987h0.264c0.043-0.022,0.088-0.045,0.131-0.065
			c0.021-0.975-0.863-2.683-1.383-3.486C120.396,170.309,120.287,170.286,120.176,170.266z M120.57,172.37
			c-0.174,0.022-0.352,0.043-0.525,0.065c-0.457-0.25-0.117-0.77,0.131-1.25c0.377,0.146,0.477,0.662,0.592,1.053
			C120.705,172.282,120.637,172.325,120.57,172.37z M125.637,170.266c-0.086,0.021-0.174,0.043-0.262,0.062
			c-0.375,0.6-0.383,2.701-0.133,3.488c0.088,0.021,0.176,0.043,0.264,0.063h0.066c0.172-0.276,0.219-0.604,0.197-1.116
			c0.584-0.312,1.426-0.32,1.908-0.658c0.088-0.314,0.174-0.689,0.066-1.056C127.467,170.355,126.627,170.225,125.637,170.266z
			 M126.889,172.042c-0.375,0.021-0.746,0.043-1.119,0.063c-0.023-0.373-0.043-0.744-0.066-1.119
			c0.066-0.063,0.131-0.131,0.197-0.194C126.965,170.71,127.744,171.458,126.889,172.042z M129.322,170.266
			c-0.219,0.086-0.439,0.172-0.658,0.262c-0.271,0.437-0.053,3.191,0.266,3.355h0.062c0.166-0.281,0.125-0.811,0.264-1.186
			c0.133-0.205,0.031-0.141,0.33-0.197c0.395,0.463,0.789,0.922,1.184,1.383c0.09-0.023,0.176-0.045,0.266-0.066
			c0.064-0.021,0.131-0.043,0.195-0.063v-0.131c-0.262-0.31-0.525-0.613-0.789-0.922v-0.265c0.379-0.125,0.582-0.307,0.789-0.592
			c0.074-0.32,0.084-0.676-0.064-0.922C130.904,170.352,130.146,170.247,129.322,170.266z M129.256,171.975
			c-0.045-0.307-0.088-0.613-0.131-0.922c0.086-0.088,0.176-0.176,0.262-0.262c0.375,0.043,0.746,0.086,1.121,0.131
			c0.088,0.174,0.176,0.35,0.262,0.527C130.426,171.979,130.09,172.113,129.256,171.975z M133.338,170.266
			c-2.34,1.43-1.156,4.584,1.381,3.551C136.537,173.077,135.855,170.131,133.338,170.266z M133.402,173.422
			c-1.318-0.469-0.684-2.088,0.064-2.631h0.791C135.434,171.725,135.244,174.078,133.402,173.422z M138.469,171.975
			c-0.043,0.021-0.088,0.043-0.131,0.066c-0.188,0.484,0.322,0.49,0.855,0.395c0.043,0.131,0.088,0.265,0.131,0.396
			c-0.152,0.178-0.307,0.354-0.459,0.526c-0.521,0.14-0.902,0.084-1.383-0.063c-0.658-0.896-0.525-1.957,0.395-2.5
			c0.801-0.017,1.025,0.146,1.447,0.459h0.264c0.021-0.131,0.043-0.267,0.064-0.396c-0.533-0.42-0.85-0.629-1.906-0.59
			c-1.047,0.637-2.244,2.562-0.525,3.483c0.893,0.481,1.812-0.114,2.498,0.133c0.043-0.022,0.09-0.045,0.133-0.065
			c-0.023-0.523-0.043-1.053-0.066-1.577C139.574,171.911,139.023,171.938,138.469,171.975z M143.404,171.975
			c0.109-0.438,0.115-0.758,0-1.184c-0.561-0.393-1.24-0.439-2.172-0.525c-0.088,0.021-0.174,0.043-0.264,0.062
			c-0.389,0.602-0.543,3.324,0.197,3.555h0.066c0.215-0.354,0.197-0.777,0.197-1.316c0.088-0.021,0.176-0.043,0.264-0.063
			c0.416,0.463,0.834,0.922,1.25,1.384c0.152-0.021,0.307-0.046,0.461-0.064c0.021-0.066,0.043-0.131,0.064-0.197
			c-0.305-0.307-0.613-0.613-0.92-0.922v-0.131C142.832,172.37,143.119,172.172,143.404,171.975z M141.561,172.042
			c-0.158-0.312-0.189-0.944,0-1.25c0.373,0.043,0.746,0.086,1.119,0.131c0.146,0.231,0.205,0.353,0.197,0.789
			C142.518,171.96,142.248,172.066,141.561,172.042z M145.51,170.266c-0.557,0.896-1.307,2.404-1.447,3.551h0.525
			c0.111-0.264,0.219-0.522,0.33-0.789c0.328-0.199,0.857-0.219,1.446-0.196c0.197,0.354,0.396,0.703,0.595,1.055h0.326
			c0.18-0.811-0.791-3.055-1.313-3.555C145.815,170.309,145.664,170.286,145.51,170.266z M146.168,172.37h-0.723
			c-0.066-0.021-0.133-0.045-0.199-0.065c0.133-0.373,0.264-0.746,0.395-1.117c0.377,0.147,0.475,0.662,0.594,1.054
			C146.213,172.282,146.188,172.325,146.168,172.37z M150.905,170.329c-0.309,0.637-0.612,1.272-0.924,1.909h-0.262
			c-0.266-0.569-0.525-1.145-0.791-1.711c-0.129-0.204-0.191-0.204-0.459-0.262l-0.266,0.129c-0.021,1.119-0.043,2.236-0.062,3.354
			c0.129,0.045,0.262,0.088,0.396,0.133c0.239-0.529-0.029-1.639,0.196-2.236v-0.131h0.064c0.221,0.438,0.438,0.879,0.656,1.312
			c0.209,0.133,0.229,0.18,0.594,0.197c0.242-0.48,0.48-0.967,0.725-1.447h0.197v2.105c0.064,0.063,0.133,0.131,0.195,0.196h0.195
			c0.047-0.065,0.092-0.133,0.135-0.196v-3.226c-0.088-0.065-0.178-0.133-0.266-0.194
			C151.127,170.286,151.017,170.309,150.905,170.329z M154.522,172.105c-0.487,0.148-0.989-1.051-1.117-1.646
			c-0.151-0.064-0.309-0.133-0.461-0.193c-0.616,0.512-0.428,2.301-0.396,3.42c0.066,0.045,0.133,0.088,0.197,0.131
			c0.045,0.021,0.088,0.043,0.131,0.064c0.428-0.389,0.256-1.633,0.266-2.367c0.043-0.021,0.088-0.047,0.131-0.063
			c0.242,0.502,0.482,1.008,0.728,1.514h0.459c0.369-0.22,0.606-0.93,0.726-1.385c0.063-0.043,0.131-0.087,0.196-0.129
			c0.312,0.428,0.095,1.475,0.063,2.17c0.064,0.088,0.132,0.176,0.197,0.264h0.195c0.045-0.065,0.092-0.133,0.133-0.196
			c0.021-1.076,0.045-2.148,0.066-3.226C155.172,169.973,154.642,171.314,154.522,172.105z M157.748,173.357
			c-0.103-0.207-0.142-0.428-0.131-0.791V172.5c0.358-0.207,1.229-0.15,1.646-0.328c-0.021-0.111-0.046-0.221-0.062-0.328h-1.383
			c-0.045-0.066-0.088-0.133-0.133-0.199c-0.021-0.219-0.045-0.438-0.064-0.658c0.523-0.284,1.318-0.041,1.842-0.192
			c0.207-0.135,0.143-0.032,0.197-0.33c-0.385-0.207-1.234-0.203-1.908-0.192c-0.176,0.02-0.352,0.043-0.523,0.062
			c-0.381,0.692-0.221,2.331-0.197,3.356c0.406,0.221,1.914,0.387,2.502,0.131c0.064-0.021,0.13-0.043,0.195-0.065v-0.196
			c-0.065-0.043-0.131-0.086-0.195-0.132C158.935,173.4,158.34,173.379,157.748,173.357z M162.946,170.266
			c-0.385,0.262-0.891,0.441-1.118,0.854c-0.927,1.674,0.762,3.422,2.502,2.696C166.127,173.073,165.492,170.131,162.946,170.266z
			 M164.396,173.092c-0.742,0.521-1.451,0.281-2.043-0.197c-0.293-1.131,0.035-1.6,0.728-2.104c1.069-0.043,1.353,0.332,1.646,1.053
			C164.72,172.48,164.565,172.688,164.396,173.092z M170.713,170.266c-0.09,0.043-0.176,0.086-0.264,0.129
			c-0.023,0.066-0.044,0.133-0.066,0.198c0.32,0.269,0.654,0.243,1.187,0.263l0.063,2.83c0.066,0.064,0.132,0.131,0.197,0.197
			c0.131-0.045,0.265-0.088,0.396-0.133c0.021-0.941,0.043-1.885,0.064-2.828c0.273-0.127,0.734-0.061,0.986-0.131
			c0.063-0.066,0.133-0.133,0.197-0.198C173.172,170.163,171.562,170.234,170.713,170.266z M179.069,173.357
			c-0.112-0.229-0.146-0.528-0.133-0.922c0.336-0.162,0.98-0.149,1.515-0.135c0.043-0.045,0.088-0.086,0.131-0.131v-0.195
			c-0.336-0.162-0.981-0.148-1.513-0.133c-0.112-0.227-0.146-0.527-0.133-0.922c0.422-0.207,1.34-0.104,1.709-0.064
			c0.295-0.162,0.336-0.168,0.267-0.526c-0.636-0.021-1.272-0.043-1.91-0.062l-0.592,0.129c-0.246,0.52-0.326,2.604-0.063,3.225
			c0.021,0.066,0.043,0.131,0.063,0.197c0.812,0.021,1.623,0.043,2.437,0.063c0.043-0.133,0.088-0.264,0.131-0.396
			C180.494,173.256,179.647,173.348,179.069,173.357z M185.519,170.855c0.045-0.063,0.088-0.131,0.131-0.196
			c0.022-0.046,0.043-0.089,0.065-0.132c-0.373-0.401-1.321-0.192-2.104-0.262c-0.152,0.043-0.31,0.086-0.461,0.129
			c-0.021,1.098-0.043,2.191-0.064,3.291c0.477,0.271,2.066,0.342,2.633,0.062v-0.197c-0.064-0.043-0.131-0.086-0.195-0.131
			c-0.627-0.227-1.449,0.205-1.846-0.262v-0.727c0.332-0.158,1.094-0.134,1.518-0.199c0.043-0.062,0.086-0.131,0.129-0.193
			c-0.301-0.295-0.995-0.105-1.444-0.266c-0.235-0.135-0.351-0.418-0.198-0.726C183.938,170.663,184.916,170.756,185.519,170.855z
			 M191.438,170.266c-0.309,0.062-0.614,0.129-0.922,0.195v3.289c0.043,0.045,0.086,0.088,0.133,0.133
			c0.238-0.066,0.136,0.004,0.263-0.133c0.17-0.215,0.151-0.709,0.133-1.117c0.045-0.045,0.088-0.088,0.131-0.133h0.265
			c0.396,0.463,0.789,0.922,1.188,1.383h0.326c0.045-0.066,0.09-0.133,0.133-0.197l-0.854-1.119
			c0.312-0.248,0.681-0.396,0.854-0.789v-0.791C192.842,170.448,192.233,170.241,191.438,170.266z M192.492,171.645
			c-0.214,0.39-0.619,0.437-1.25,0.396c-0.043-0.066-0.089-0.133-0.134-0.197c-0.021-0.287-0.043-0.572-0.063-0.857
			c0.088-0.062,0.175-0.131,0.265-0.192c0.352,0.043,0.701,0.086,1.051,0.131C192.496,171.131,192.631,171.325,192.492,171.645z
			 M195.19,170.266c-0.33,0.217-0.66,0.438-0.987,0.656c-1.024,1.553,0.405,3.744,2.368,2.895
			C198.414,173.021,197.711,170.131,195.19,170.266z M195.584,173.486c-0.219-0.086-0.438-0.174-0.658-0.262
			c-0.704-0.967-0.469-1.865,0.462-2.436h0.791c0.416,0.428,0.776,0.646,0.854,1.443
			C196.758,172.971,196.535,173.417,195.584,173.486z M199.071,170.266c-0.131,0.043-0.264,0.086-0.396,0.129
			c-0.062,0.023-0.133,0.043-0.195,0.066v3.355c0.133,0.021,0.265,0.043,0.396,0.063c0.127-0.258,0.147-0.68,0.133-1.116
			c0.621-0.31,1.468-0.312,1.976-0.658c0.117-0.438,0.117-0.812,0-1.25C200.485,170.477,199.985,170.262,199.071,170.266z
			 M200.521,171.579c-0.15,0.153-0.306,0.308-0.459,0.463c-0.33,0.021-0.658,0.043-0.986,0.063
			c-0.115-0.377-0.082-1.022,0.064-1.313h0.854c0.237,0.211,0.375,0.271,0.524,0.59v0.197H200.521z M204.205,170.855
			c0.267-0.135,0.254-0.045,0.328-0.396c-0.38-0.182-1.272-0.182-1.775-0.193c-0.219,0.043-0.438,0.086-0.657,0.129
			c-0.064,0.021-0.131,0.043-0.197,0.064v3.158c0.303,0.443,1.768,0.293,2.5,0.264c0.043-0.133,0.09-0.264,0.133-0.396
			c-0.354-0.172-1.287-0.211-1.775-0.062c-0.107-0.088-0.219-0.176-0.328-0.262c-0.018-0.328-0.022-0.574,0.133-0.727
			c0.254-0.191,0.924-0.152,1.381-0.134c0.043-0.131,0.088-0.262,0.134-0.396c-0.483-0.022-0.966-0.043-1.447-0.063
			c-0.045-0.065-0.088-0.133-0.133-0.198c-0.022-0.22-0.045-0.438-0.065-0.658C202.754,170.809,203.72,170.711,204.205,170.855z
			 M206.705,170.266c-0.651,0.631-1.488,2.418-1.578,3.484c0.517,0.256,0.761-0.268,0.854-0.787
			c0.324-0.154,0.934-0.152,1.449-0.135l0.592,1.055h0.33c0.235-1.08-0.877-2.455-1.188-3.422
			C207.013,170.395,206.856,170.329,206.705,170.266z M207.297,172.303c-0.219,0.045-0.438,0.09-0.657,0.133
			c-0.515-0.291-0.216-0.901,0.133-1.25c0.266,0.17,0.438,0.729,0.524,1.053V172.303L207.297,172.303z M211.771,170.395
			c-0.02,0.771-0.043,1.535-0.062,2.306c-0.045,0.021-0.088,0.045-0.133,0.063c-0.722-0.673-1.146-2.119-2.104-2.498
			c-0.046,0.021-0.089,0.043-0.136,0.062c-0.401,0.883,0.041,2.213-0.196,3.158c0.141,0.305,0.157,0.434,0.528,0.33v-2.105
			c0.063-0.109,0.129-0.22,0.194-0.33c0.638,0.836,1.271,1.668,1.908,2.502h0.265c0.063-0.045,0.133-0.088,0.196-0.133v-3.289
			C212.028,170.366,212.017,170.346,211.771,170.395z M221.313,170.329h-0.33c-0.271,0.573-0.116,1.815-0.131,2.437
			c-1.049-0.42-1.117-2.111-2.237-2.498c-0.044,0.021-0.087,0.043-0.132,0.062c-0.352,0.754-0.147,2.422-0.133,3.422
			c0.133,0.045,0.265,0.088,0.396,0.133c0.297-0.635,0.11-1.639,0.198-2.434c0.709,0.244,1.564,1.822,1.976,2.434
			c0.086-0.021,0.175-0.045,0.263-0.064c0.358-0.27,0.362-2.832,0.133-3.354v-0.134h-0.002V170.329L221.313,170.329z
			 M225.394,170.266c-2.17,1.159-1.646,4.312,0.856,3.687C228.334,173.427,228.062,170.125,225.394,170.266z M226.905,172.764
			c-0.237,0.529-0.627,0.572-1.25,0.723c-0.319-0.176-0.592-0.225-0.788-0.521c-0.326-0.315-0.367-0.881-0.199-1.385
			c0.17-0.403,0.424-0.528,0.726-0.787h0.856C226.715,171.184,227.377,171.859,226.905,172.764z M113.334,170.329
			c-0.271,0.506-0.43,2.596-0.133,3.291c0.021,0.065,0.045,0.131,0.066,0.196c1.441,0.293,2.176-0.205,2.895-0.789
			C116.711,170.971,115.584,170.232,113.334,170.329z M115.637,172.633c-0.248,0.594-0.982,0.898-1.777,0.725
			c-0.238-0.496-0.242-2.073,0-2.563c0.889,0.015,1.402,0.202,1.777,0.726V172.633z M117.346,170.329
			c-0.184,0.517-0.34,2.687-0.064,3.356c0.133,0.205,0.029,0.142,0.328,0.195h0.064c0.408-0.688,0.234-2.568,0.133-3.486
			C117.654,170.374,117.502,170.352,117.346,170.329z M166.235,170.593c-0.021,1.052-0.043,2.104-0.065,3.157
			c0.047,0.045,0.09,0.088,0.134,0.133h0.329c0.144-0.299,0.147-0.832,0.134-1.316c0.311-0.146,0.881-0.146,1.381-0.131
			c0.043-0.063,0.088-0.133,0.131-0.195c-0.266-0.391-0.834-0.311-1.445-0.329c-0.021-0.33-0.045-0.658-0.062-0.986
			c0.609-0.045,1.228-0.088,1.84-0.131c0.021-0.106,0.045-0.221,0.062-0.33V170.4c-0.768-0.021-1.531-0.043-2.301-0.066
			C166.324,170.418,166.28,170.504,166.235,170.593z M177.16,170.329h-0.265c-0.043,0.022-0.086,0.045-0.129,0.065
			c-0.022,0.461-0.045,0.92-0.065,1.383c-0.595,0.021-1.187,0.043-1.777,0.064c-0.149-0.312-0.149-0.884-0.131-1.383
			c-0.155-0.043-0.31-0.088-0.461-0.133c-0.281,0.838-0.188,2.572-0.067,3.422c0.133,0.045,0.264,0.088,0.396,0.133
			c0.148-0.32,0.104-1.047,0.197-1.445c0.567-0.022,1.141-0.043,1.709-0.065c0.24,0.399,0.176,0.682,0.135,1.315
			c0.182,0.111,0.168,0.146,0.459,0.195c0.352-0.752,0.146-2.422,0.133-3.422C177.248,170.418,177.203,170.374,177.16,170.329z
			 M189.399,170.329h-0.328c-0.28,0.604-0.166,2.101-0.266,2.764c-1.771,1.341-1.602-1.116-1.709-2.631
			c-0.154-0.043-0.311-0.088-0.463-0.133c-0.455,1.491-0.254,4.164,1.844,3.621c1.191-0.312,1.123-1.931,1.053-3.488
			C189.487,170.418,189.444,170.374,189.399,170.329z M217.168,170.329c-0.237,0.063-0.135-0.004-0.263,0.133
			c-0.456,0.761,0.015,2.104-0.528,2.896c-0.217,0.043-0.438,0.086-0.655,0.129c-0.197-0.129-0.396-0.262-0.595-0.395
			c-0.17-0.688-0.146-1.744-0.131-2.631c-0.151-0.043-0.308-0.088-0.461-0.133c-0.17,0.344-0.132,0.98-0.132,1.516
			c0,1.997,0.978,2.418,2.564,1.775c0.438-0.648,0.498-2.244,0.396-3.225C217.299,170.374,217.233,170.352,217.168,170.329z
			 M222.631,170.329c-0.351,0.754-0.149,2.422-0.133,3.422c0.133,0.045,0.262,0.088,0.396,0.133
			c0.354-0.768,0.149-2.471,0.133-3.487C222.894,170.374,222.76,170.352,222.631,170.329z M231.513,170.461v-0.133
			c-0.152,0.023-0.306,0.045-0.459,0.066c-0.021,0.725-0.044,1.446-0.066,2.172c-0.064,0.043-0.131,0.086-0.195,0.131
			c-0.568-0.789-1.143-1.578-1.711-2.369h-0.396c-0.354,0.766-0.22,2.338-0.197,3.422c0.205,0.098,0.219,0.113,0.463,0.066
			c0.043-0.771,0.088-1.535,0.131-2.303v-0.136c1.062,0.457,1.08,2.229,2.303,2.502h0.066
			C231.746,173.355,231.862,171.075,231.513,170.461z M122.611,172.633c0.02,0.043,0.043,0.086,0.064,0.131
			c0.484,0.021,0.965,0.045,1.449,0.064c0.043-0.152,0.088-0.305,0.131-0.459c-0.525-0.021-1.055-0.045-1.58-0.066
			C122.654,172.413,122.631,172.523,122.611,172.633z"/>
	</g>
</g>
<polygon fill="#DADADA" points="61.964,189 58.5,195 55.036,189 "/>
<g>
	<path fill="#CA3743" d="M61.66,158.833l-2.471,3.25v0.053l3.926-0.52v1.768l-3.926-0.469v0.053l2.496,3.121l-1.638,0.937
		l-1.56-3.642h-0.053l-1.689,3.666l-1.482-0.937l2.47-3.172v-0.053l-3.848,0.492v-1.768l3.821,0.492v-0.053l-2.443-3.173
		l1.586-0.909l1.612,3.612h0.052l1.586-3.64L61.66,158.833z"/>
</g>
<g>
	<path fill="#FFFFFF" d="M86.396,157.305c0.642-0.414,1.431-0.621,2.366-0.621c1.229,0,2.25,0.295,3.062,0.881
		c0.813,0.588,1.221,1.459,1.221,2.61c0,0.707-0.177,1.304-0.529,1.787c-0.206,0.293-0.602,0.669-1.188,1.126l-0.578,0.448
		c-0.314,0.245-0.523,0.53-0.627,0.856c-0.064,0.207-0.1,0.525-0.105,0.963h-2.211c0.033-0.92,0.119-1.557,0.26-1.905
		c0.142-0.351,0.505-0.755,1.091-1.212l0.594-0.465c0.194-0.146,0.353-0.309,0.472-0.48c0.217-0.299,0.325-0.628,0.325-0.986
		c0-0.414-0.12-0.789-0.362-1.131c-0.241-0.34-0.682-0.51-1.322-0.51c-0.629,0-1.076,0.21-1.339,0.628
		c-0.263,0.419-0.395,0.854-0.395,1.306h-2.358C84.838,159.05,85.379,157.95,86.396,157.305z M87.75,166.475h2.439v2.356H87.75
		V166.475z"/>
</g>
<g>
	<g>
		<path fill="#3B3D54" d="M140.473,123.905v-6.2c0-0.391,0.041-0.825-0.043-1.16c-0.057-0.227-0.145-0.471-0.248-0.665
			c-0.547-1.011-1.512-1.28-3.1-1.263c-0.006-0.011-0.014-0.021-0.02-0.031l-0.012-0.363c0-0.447-0.018-0.766-0.258-0.963
			c-0.439-0.359-1.16-0.154-1.307,0.342c-0.076,0.257,0.051,0.723-0.041,0.974c-0.004,0.011-0.008,0.021-0.012,0.031
			c-1.254,0.003-2.508,0.007-3.762,0.011c-0.008-0.011-0.014-0.021-0.021-0.031c-0.002-0.27-0.006-0.54-0.01-0.809
			c-0.104-0.436-0.34-0.723-0.881-0.715c-0.104,0.031-0.207,0.062-0.311,0.093c-0.523,0.267-0.336,0.753-0.416,1.44
			c-0.08,0.037-0.238,0.021-0.352,0.021c-0.326,0-0.656-0.035-0.953,0.031c-0.646,0.145-1.258,0.428-1.586,0.891
			c-0.199,0.281-0.389,0.607-0.477,0.996c-0.141,0.602-0.053,1.488-0.053,2.207v4.986c0,1.292-0.059,2.292,0.445,3.067
			c0.293,0.451,0.795,0.865,1.357,1.037c0.639,0.193,1.609,0.115,2.416,0.115h6.52c0.309-0.008,0.615-0.016,0.922-0.021
			c1.055-0.25,1.83-0.863,2.105-1.876C140.538,125.468,140.473,124.624,140.473,123.905z M138.875,120.379v4.137
			c0,0.854,0.008,1.5-0.486,1.846c-0.387,0.269-1.67,0.145-2.322,0.145h-6.488c-0.248,0-0.543,0.025-0.715-0.052
			c-0.674-0.298-0.643-1.065-0.643-2.032v-4.417c0.014-0.018,0.027-0.033,0.041-0.051c3.531,0.004,7.062,0.006,10.594,0.01
			C138.897,120.059,138.875,120.25,138.875,120.379z M138.875,118.338c-0.166,0.074-0.676,0.02-0.9,0.02h-9.734
			c-0.006-0.01-0.014-0.02-0.02-0.029v-0.664c0-0.775,0.018-1.312,0.57-1.543c0.104-0.045,0.217-0.021,0.33-0.062h0.902
			c0.031,0.088,0.021,0.24,0.021,0.361c0,0.382,0.045,0.648,0.258,0.809c0.479,0.357,1.082,0.168,1.297-0.311
			c0.088-0.199,0.045-0.576,0.041-0.84c0.199-0.09,0.842-0.02,1.109-0.02h2.674c0.008,0.008,0.014,0.02,0.021,0.029
			c0.1,0.273-0.051,0.662,0.092,0.924c0.314,0.57,1.176,0.512,1.451-0.053c0.109-0.221-0.025-0.604,0.074-0.871
			c0.041-0.053,0.793-0.037,0.912-0.021C139.053,116.227,138.891,117.139,138.875,118.338z"/>
	</g>
</g>
<g>
	<g>
		<polygon fill="#FFFFFF" points="179.36,126.706 185.97,120.106 184.69,118.836 178.09,125.437 		"/>
		<polygon fill="#FFFFFF" points="179.37,113.446 182.8,117.017 181.5,118.267 178.08,114.696 		"/>
	</g>
	<g>
		
			<rect x="220.226" y="121.868" transform="matrix(-0.7071 -0.7071 0.7071 -0.7071 297.118 368.5951)" fill="#FFFFFF" width="9.334" height="1.794"/>
		<polygon fill="#FFFFFF" points="227.54,113.446 224.11,117.017 225.41,118.267 228.83,114.696 		"/>
	</g>
	<g>
		<g id="XMLID_1_">
			<g>
				<polygon fill="#FFFFFF" points="267.237,142.914 268.487,144.203 264.917,147.624 263.667,146.333 				"/>
				<polygon fill="#FFFFFF" points="263.106,149.523 261.827,150.793 255.228,144.193 256.507,142.923 				"/>
			</g>
		</g>
	</g>
	<g>
		<g id="XMLID_2_">
			<g>
				<polygon fill="#FFFFFF" points="256.478,180.793 255.228,179.504 258.798,176.083 260.048,177.374 				"/>
				<polygon fill="#FFFFFF" points="260.608,174.184 261.888,172.914 268.487,179.514 267.208,180.784 				"/>
			</g>
		</g>
	</g>
</g>
<g>
	<path fill="#CA3743" d="M135.682,190.891v1.297h-6.451v3.682h6.013v1.297h-6.013v4.003h6.5v1.296h-8.039v-11.57h7.99V190.891z"/>
	<path fill="#CA3743" d="M137.854,190.891v11.572h-1.378v-11.572H137.854z"/>
	<path fill="#CA3743" d="M144.952,201.93c-0.627,0.475-1.416,0.713-2.366,0.713c-0.67,0-1.251-0.106-1.742-0.324
		c-0.492-0.217-0.905-0.52-1.24-0.906s-0.586-0.854-0.753-1.396c-0.168-0.539-0.262-1.129-0.284-1.767
		c0-0.638,0.097-1.222,0.292-1.75c0.195-0.528,0.467-0.989,0.819-1.377c0.351-0.39,0.767-0.69,1.248-0.908
		c0.48-0.216,1.007-0.323,1.58-0.323c0.746,0,1.364,0.153,1.855,0.461c0.491,0.311,0.886,0.7,1.184,1.176
		c0.297,0.478,0.502,0.994,0.616,1.558c0.113,0.562,0.158,1.099,0.138,1.604h-6.272c-0.011,0.367,0.033,0.715,0.13,1.045
		c0.097,0.328,0.254,0.621,0.47,0.875s0.492,0.457,0.827,0.606c0.335,0.151,0.729,0.228,1.183,0.228
		c0.583,0,1.062-0.135,1.435-0.403c0.373-0.271,0.618-0.683,0.737-1.231h1.361C145.983,200.746,145.579,201.453,144.952,201.93z
		 M144.62,196.548c-0.125-0.292-0.292-0.543-0.502-0.754c-0.211-0.21-0.459-0.378-0.746-0.502s-0.603-0.187-0.948-0.187
		c-0.356,0-0.678,0.062-0.964,0.187c-0.287,0.125-0.532,0.294-0.737,0.511c-0.206,0.217-0.368,0.467-0.486,0.754
		c-0.119,0.286-0.189,0.592-0.211,0.916h4.814C144.817,197.146,144.744,196.839,144.62,196.548z"/>
	<path fill="#CA3743" d="M148.047,194.084v1.232h0.032c0.626-0.951,1.529-1.426,2.707-1.426c0.52,0,0.988,0.105,1.41,0.321
		c0.421,0.218,0.719,0.583,0.892,1.104c0.281-0.455,0.651-0.807,1.11-1.057c0.459-0.246,0.964-0.371,1.515-0.371
		c0.421,0,0.802,0.047,1.144,0.139c0.34,0.092,0.631,0.232,0.875,0.43c0.242,0.193,0.434,0.445,0.566,0.753
		c0.135,0.308,0.203,0.679,0.203,1.11v6.143h-1.377v-5.494c0-0.259-0.021-0.502-0.064-0.729s-0.125-0.424-0.244-0.592
		s-0.281-0.301-0.494-0.397c-0.211-0.097-0.481-0.146-0.815-0.146c-0.681,0-1.216,0.192-1.604,0.582
		c-0.391,0.39-0.584,0.908-0.584,1.557v5.219h-1.377v-5.494c0-0.27-0.022-0.519-0.071-0.746c-0.05-0.227-0.134-0.424-0.251-0.592
		c-0.119-0.167-0.278-0.297-0.479-0.389c-0.201-0.092-0.457-0.139-0.771-0.139c-0.399,0-0.743,0.082-1.029,0.244
		c-0.286,0.159-0.521,0.354-0.694,0.582c-0.181,0.228-0.311,0.463-0.392,0.703c-0.081,0.243-0.122,0.446-0.122,0.608v5.219h-1.378
		v-8.379L148.047,194.084L148.047,194.084z"/>
	<path fill="#CA3743" d="M165.535,201.93c-0.627,0.475-1.416,0.713-2.366,0.713c-0.67,0-1.251-0.106-1.742-0.324
		c-0.492-0.217-0.904-0.52-1.24-0.906c-0.334-0.391-0.586-0.854-0.752-1.396c-0.168-0.539-0.263-1.129-0.285-1.767
		c0-0.638,0.1-1.222,0.293-1.75c0.195-0.528,0.469-0.989,0.818-1.377c0.352-0.39,0.768-0.69,1.248-0.908
		c0.48-0.216,1.008-0.323,1.58-0.323c0.746,0,1.364,0.153,1.855,0.461c0.49,0.311,0.886,0.7,1.184,1.176
		c0.297,0.478,0.502,0.994,0.616,1.558c0.112,0.562,0.159,1.099,0.138,1.604h-6.271c-0.012,0.367,0.033,0.715,0.132,1.045
		c0.097,0.328,0.254,0.621,0.47,0.875c0.217,0.254,0.492,0.457,0.827,0.606c0.335,0.151,0.729,0.228,1.185,0.228
		c0.584,0,1.062-0.135,1.436-0.403s0.617-0.683,0.736-1.231h1.359C166.567,200.746,166.162,201.453,165.535,201.93z
		 M165.203,196.548c-0.125-0.292-0.292-0.543-0.502-0.754c-0.211-0.21-0.459-0.378-0.746-0.502s-0.603-0.187-0.948-0.187
		c-0.355,0-0.678,0.062-0.964,0.187c-0.287,0.125-0.532,0.294-0.737,0.511s-0.367,0.467-0.486,0.754
		c-0.116,0.286-0.188,0.592-0.211,0.916h4.814C165.399,197.146,165.327,196.839,165.203,196.548z"/>
	<path fill="#CA3743" d="M168.631,194.084v1.329h0.032c0.572-1.017,1.48-1.522,2.723-1.522c0.551,0,1.01,0.075,1.377,0.229
		c0.367,0.148,0.666,0.359,0.895,0.632c0.227,0.271,0.386,0.592,0.478,0.964c0.095,0.373,0.14,0.786,0.14,1.24v5.511h-1.377v-5.673
		c0-0.521-0.151-0.932-0.453-1.229c-0.303-0.305-0.719-0.455-1.248-0.455c-0.422,0-0.786,0.063-1.094,0.193
		c-0.311,0.131-0.565,0.313-0.771,0.553c-0.206,0.236-0.357,0.517-0.462,0.836c-0.104,0.316-0.154,0.666-0.154,1.045v4.729h-1.378
		v-8.379L168.631,194.084L168.631,194.084z"/>
	<path fill="#CA3743" d="M178.955,194.084v1.216h-1.669v5.203c0,0.162,0.014,0.292,0.041,0.39c0.027,0.099,0.078,0.172,0.154,0.229
		c0.076,0.054,0.181,0.089,0.313,0.104c0.138,0.018,0.312,0.023,0.524,0.023h0.634v1.215h-1.056c-0.354,0-0.662-0.023-0.916-0.072
		c-0.254-0.05-0.459-0.139-0.614-0.269c-0.157-0.13-0.271-0.313-0.351-0.552c-0.076-0.236-0.111-0.551-0.111-0.939V195.3h-1.428
		v-1.216h1.428v-2.512h1.377v2.512H178.955z"/>
	<path fill="#CA3743" d="M188.338,190.891c1.167,0,2.05,0.301,2.649,0.899c0.601,0.601,0.9,1.44,0.9,2.521
		c0,1.082-0.302,1.924-0.9,2.528c-0.6,0.604-1.482,0.902-2.649,0.892h-3.532v4.732h-1.541v-11.572H188.338L188.338,190.891z
		 M187.819,196.434c0.875,0.012,1.517-0.166,1.922-0.535c0.404-0.364,0.607-0.896,0.607-1.588c0-0.688-0.203-1.218-0.607-1.58
		c-0.405-0.359-1.045-0.543-1.922-0.543h-3.014v4.246H187.819z"/>
	<path fill="#CA3743" d="M192.649,192.577v-1.687h1.379v1.687H192.649z M194.028,194.084v8.379h-1.379v-8.379H194.028z"/>
	<path fill="#CA3743" d="M200.202,195.543c-0.346-0.292-0.811-0.438-1.395-0.438c-0.496,0-0.912,0.092-1.248,0.273
		c-0.334,0.186-0.604,0.43-0.805,0.729c-0.197,0.305-0.343,0.65-0.429,1.045c-0.087,0.396-0.132,0.804-0.132,1.226
		c0,0.39,0.048,0.769,0.14,1.136c0.095,0.366,0.233,0.693,0.433,0.979c0.191,0.286,0.445,0.516,0.762,0.688
		c0.312,0.172,0.686,0.258,1.117,0.258c0.682,0,1.213-0.178,1.598-0.533c0.383-0.356,0.617-0.859,0.705-1.508h1.41
		c-0.152,1.037-0.539,1.836-1.159,2.396c-0.621,0.562-1.468,0.844-2.536,0.844c-0.639,0-1.202-0.104-1.693-0.309
		c-0.492-0.205-0.902-0.497-1.232-0.875c-0.328-0.378-0.576-0.829-0.744-1.354c-0.167-0.523-0.251-1.101-0.251-1.728
		c0-0.626,0.08-1.212,0.241-1.758c0.162-0.546,0.408-1.021,0.736-1.429c0.329-0.402,0.743-0.724,1.24-0.955
		c0.497-0.23,1.075-0.35,1.734-0.35c0.476,0,0.921,0.057,1.336,0.17c0.416,0.114,0.785,0.291,1.104,0.527
		c0.318,0.238,0.581,0.538,0.786,0.898c0.206,0.361,0.335,0.793,0.39,1.289h-1.427C200.774,196.245,200.548,195.834,200.202,195.543
		z"/>
	<path fill="#CA3743" d="M206.507,194.084v1.216h-1.669v5.203c0,0.162,0.015,0.292,0.041,0.39c0.026,0.099,0.078,0.172,0.154,0.229
		c0.075,0.054,0.181,0.089,0.315,0.104c0.135,0.018,0.312,0.023,0.524,0.023h0.632v1.215h-1.054c-0.354,0-0.662-0.023-0.916-0.072
		c-0.255-0.05-0.459-0.139-0.616-0.269c-0.154-0.13-0.271-0.313-0.352-0.552c-0.073-0.236-0.11-0.551-0.11-0.939V195.3h-1.426
		v-1.216h1.426v-2.512h1.377v2.512H206.507z"/>
	<path fill="#CA3743" d="M212.698,202.463v-1.329h-0.032c-0.292,0.519-0.665,0.899-1.118,1.144
		c-0.453,0.242-0.988,0.365-1.604,0.365c-0.551,0-1.012-0.074-1.379-0.22c-0.366-0.146-0.664-0.354-0.893-0.624
		s-0.387-0.591-0.479-0.964s-0.139-0.786-0.139-1.239v-5.512h1.379v5.673c0,0.519,0.149,0.929,0.453,1.231
		c0.303,0.302,0.719,0.453,1.247,0.453c0.423,0,0.786-0.064,1.095-0.193c0.31-0.13,0.563-0.312,0.771-0.551
		c0.207-0.239,0.356-0.516,0.462-0.834s0.154-0.668,0.154-1.045v-4.733h1.377v8.379L212.698,202.463L212.698,202.463z"/>
	<path fill="#CA3743" d="M216.345,194.084v1.768h0.032c0.334-0.682,0.745-1.184,1.231-1.508s1.102-0.475,1.848-0.453v1.457
		c-0.551,0-1.021,0.076-1.41,0.229s-0.701,0.373-0.939,0.665c-0.236,0.292-0.412,0.646-0.52,1.062s-0.162,0.895-0.162,1.436v3.729
		h-1.377v-8.379h1.297V194.084L216.345,194.084z"/>
	<path fill="#CA3743" d="M225.162,201.93c-0.627,0.475-1.416,0.713-2.366,0.713c-0.67,0-1.251-0.106-1.742-0.324
		c-0.492-0.217-0.904-0.52-1.24-0.906c-0.334-0.391-0.586-0.854-0.752-1.396c-0.168-0.539-0.263-1.129-0.285-1.767
		c0-0.638,0.1-1.222,0.293-1.75c0.195-0.528,0.469-0.989,0.818-1.377c0.354-0.39,0.768-0.69,1.248-0.908
		c0.48-0.216,1.008-0.323,1.58-0.323c0.746,0,1.364,0.153,1.855,0.461c0.49,0.311,0.886,0.7,1.184,1.176
		c0.297,0.478,0.502,0.994,0.616,1.558c0.112,0.562,0.159,1.099,0.138,1.604h-6.271c-0.012,0.367,0.033,0.715,0.132,1.045
		c0.097,0.328,0.254,0.621,0.47,0.875c0.219,0.254,0.492,0.457,0.827,0.606c0.335,0.151,0.729,0.228,1.185,0.228
		c0.584,0,1.062-0.135,1.436-0.403s0.617-0.683,0.736-1.231h1.359C226.192,200.746,225.788,201.453,225.162,201.93z M224.83,196.548
		c-0.125-0.292-0.292-0.543-0.502-0.754c-0.211-0.21-0.459-0.378-0.746-0.502s-0.603-0.187-0.948-0.187
		c-0.355,0-0.678,0.062-0.964,0.187c-0.287,0.125-0.532,0.294-0.737,0.511s-0.367,0.467-0.486,0.754
		c-0.116,0.286-0.188,0.592-0.211,0.916h4.814C225.026,197.146,224.954,196.839,224.83,196.548z"/>
	<path fill="#CA3743" d="M228.015,200.591c0.129,0.211,0.299,0.378,0.51,0.502c0.211,0.125,0.447,0.214,0.713,0.269
		c0.267,0.056,0.537,0.08,0.818,0.08c0.215,0,0.442-0.016,0.68-0.049c0.238-0.031,0.457-0.091,0.658-0.178
		c0.199-0.086,0.363-0.213,0.494-0.381c0.129-0.168,0.193-0.381,0.193-0.641c0-0.355-0.135-0.625-0.405-0.812
		c-0.271-0.184-0.606-0.332-1.013-0.443c-0.405-0.113-0.846-0.215-1.321-0.31c-0.476-0.092-0.916-0.221-1.321-0.39
		c-0.402-0.166-0.742-0.401-1.013-0.704c-0.271-0.304-0.405-0.726-0.405-1.267c0-0.42,0.098-0.783,0.285-1.086
		c0.188-0.302,0.432-0.547,0.729-0.734c0.297-0.189,0.632-0.33,1.005-0.424c0.373-0.092,0.742-0.137,1.109-0.137
		c0.477,0,0.912,0.041,1.312,0.121c0.397,0.081,0.753,0.223,1.062,0.422s0.555,0.469,0.735,0.812
		c0.185,0.34,0.292,0.764,0.324,1.271h-1.377c-0.021-0.271-0.093-0.494-0.211-0.673c-0.119-0.178-0.271-0.319-0.454-0.43
		c-0.186-0.106-0.389-0.188-0.607-0.234c-0.223-0.05-0.445-0.073-0.673-0.073c-0.204,0-0.413,0.019-0.622,0.049
		c-0.212,0.033-0.404,0.091-0.576,0.172c-0.174,0.08-0.312,0.188-0.422,0.322c-0.106,0.137-0.162,0.312-0.162,0.526
		c0,0.238,0.084,0.437,0.252,0.593c0.166,0.156,0.381,0.286,0.641,0.391c0.259,0.103,0.551,0.188,0.875,0.259
		c0.322,0.069,0.646,0.146,0.973,0.219c0.348,0.076,0.684,0.167,1.014,0.275c0.33,0.106,0.621,0.251,0.875,0.429
		c0.254,0.18,0.459,0.403,0.617,0.673c0.155,0.271,0.233,0.605,0.233,1.007c0,0.508-0.104,0.928-0.315,1.265
		c-0.209,0.335-0.484,0.604-0.826,0.811c-0.34,0.205-0.725,0.349-1.149,0.431c-0.429,0.08-0.853,0.121-1.271,0.121
		c-0.465,0-0.908-0.047-1.33-0.146c-0.42-0.098-0.793-0.256-1.117-0.479s-0.584-0.515-0.778-0.875
		c-0.194-0.361-0.303-0.804-0.323-1.32h1.377C227.813,200.124,227.884,200.381,228.015,200.591z"/>
</g>
<g>
	<rect x="103.906" y="190.875" fill="#CA3743" width="9.458" height="2.458"/>
	<polygon fill="#CA3743" points="119.74,195.458 103.906,195.458 103.906,197.917 119.74,197.917 119.74,200.166 103.906,200.166 
		103.906,202.625 113.031,202.625 113.031,207.291 115.49,207.291 115.49,202.625 119.74,202.625 122.198,202.625 122.198,200.166 
		122.198,197.917 122.198,195.458 	"/>
</g>
<g>
	<path fill="#B1B1BB" d="M87.497,191.498l0.007,0.005l0,0L87.497,191.498"/>
</g>
<polyline fill="#B1B1BB" points="90.12,184.921 82.833,196.936 84.91,198.079 92.167,186.105 90.12,184.921 "/>
<g>
	<path fill="#FFFFFF" d="M279.322,251.729c-1.005-1.006-2.011-2.011-3.017-3.017c-0.691-0.691-1.383-1.383-2.074-2.074
		c-0.131-0.131-0.944-0.747-0.942-0.942c0.002-0.197,0.784-0.785,0.917-0.917c0.676-0.677,1.354-1.354,2.029-2.031
		c1.029-1.028,2.059-2.058,3.087-3.087c-0.671-0.671-1.343-1.341-2.013-2.012c-0.027-0.026-0.711,0.687-0.764,0.739
		c-1.586,1.586-3.172,3.171-4.757,4.756c-2.862,2.861-5.724,5.724-8.586,8.585c0.671,0.671,1.343,1.342,2.015,2.014
		c0.025,0.025,1.434-1.41,1.534-1.51c0.954-0.954,1.908-1.908,2.862-2.861c0.237-0.238,1.301-1.648,1.648-1.648
		c0.321,0,1.304,1.304,1.522,1.521c0.997,0.996,1.993,1.992,2.989,2.988c0.21,0.21,1.215,1.529,1.522,1.521
		c0.223-0.005,0.856-0.856,1.013-1.013C278.647,252.404,278.985,252.067,279.322,251.729z"/>
	<path fill="#FFFFFF" d="M263.203,239.661c1.126,1.126,2.253,2.253,3.38,3.379c0.482,0.483,0.44,0.688,0.934,0.194
		c0.552-0.552,1.104-1.104,1.655-1.655c-1.126-1.126-2.253-2.252-3.378-3.378c-0.484-0.483-0.441-0.687-0.935-0.194
		C264.308,238.559,263.755,239.109,263.203,239.661z"/>
	<path fill="#FFFFFF" d="M268.551,261.003c-8.724-1.518-14.315-10.369-12.266-18.912c1.02-4.003,3.614-7.532,7.202-9.607
		c1.75-1.013,3.693-1.69,5.7-1.957c0.265-0.035,0.642,0.09,0.642-0.231c0-0.323,0-0.646,0-0.969c0-0.509,0-1.018,0-1.526
		c-9.533,0.74-17.051,9.202-16.627,18.77c0.389,9.018,7.611,16.539,16.627,17.264c0-0.573,0-1.146,0-1.72c0-0.287,0-0.573,0-0.86
		C269.829,261.111,268.735,261.042,268.551,261.003z"/>
	<path fill="#FFFFFF" d="M289.338,245.687c-0.104-9.331-7.398-17.083-16.642-17.887c0,0.573,0,1.146,0,1.72c0,0.287,0,0.573,0,0.86
		c0,0.105,1.383,0.301,1.586,0.301c2.014,0.399,3.959,1.209,5.651,2.371c4.032,2.759,6.579,7.327,6.748,12.217
		c0.128,4.694-1.837,9.259-5.432,12.312c-1.555,1.319-3.383,2.341-5.332,2.946c-0.992,0.308-2.015,0.531-3.049,0.633
		c-0.37,0.049-0.173,1.209-0.173,1.542c0,0.376,0,0.752,0,1.128C282.073,263.151,289.338,254.995,289.338,245.687
		C289.336,245.511,289.338,245.728,289.338,245.687z"/>
</g>
</svg>
