<svg version="1" xmlns="http://www.w3.org/2000/svg" width="290.584" height="265"><polygon fill="#3D4154" stroke="#3D4154" stroke-width=".211" stroke-miterlimit="10" points="207.004,33.475 207.004,41.726 208.129,41.726 208.129,25.893 207.004,25.893"/><polygon fill="#3D4154" stroke="#3D4154" stroke-width=".211" stroke-miterlimit="10" points="282.806,25.753 281.683,25.753 274.384,41.726 275.586,41.726 282.224,27.045 286.347,36.236 279.885,36.236 279.399,37.292 286.838,37.292 288.834,41.726 290.11,41.726"/><g fill="#3D4154" stroke="#3D4154" stroke-width=".211" stroke-miterlimit="10"><polygon points="247.25,25.893 243.106,25.893 238.877,25.893 238.877,26.949 247.25,26.949"/><polygon points="246.194,34.266 246.194,33.212 242.479,33.212 238.877,33.212 238.877,34.266"/><polygon points="238.877,40.67 238.877,41.726 247.319,41.726 247.319,40.67 243,40.67"/></g><g fill="#3D4154" stroke="#3D4154" stroke-width=".211" stroke-miterlimit="10"><polygon points="254.778,25.893 253.651,25.893 253.651,41.726 254.778,41.726 254.778,33.833"/><polygon points="265.755,28.179 260.983,35.276 256.187,28.179 256.187,30.141 260.983,37.17 265.755,30.141"/></g><g fill="#3D4154" stroke="#3D4154" stroke-width=".211" stroke-miterlimit="10"><polygon points="228.956,38.903 228.956,25.893 227.83,25.893 227.83,31.601 227.83,37.47"/><polygon points="227.722,41.726 229.054,41.726 216.61,25.893 215.304,25.893"/><polygon points="215.377,28.695 215.377,41.726 216.502,41.726 216.502,35.708 216.502,30.129"/></g><polygon fill="#3D4154" stroke="#3D4154" stroke-width=".211" stroke-miterlimit="10" points="268.5,25.893 267.374,25.893 267.374,41.726 268.5,41.726 268.5,33.833"/><polygon fill="#3D4154" stroke="#3D4154" stroke-width=".211" stroke-miterlimit="10" points="237.048,25.893 235.922,25.893 235.922,41.726 237.048,41.726 237.048,33.833"/><g fill="#3D4154" stroke="#3D4154" stroke-width=".211" stroke-miterlimit="10"><path d="M194.479 26.714c2.039.156 3.44 1.087 4.686 2.303l.822-.859c-1.495-1.387-3.047-2.381-5.508-2.52v1.076zM199.299 38.492c-1.442 1.443-2.85 2.304-4.819 2.443v1.067c2.463-.158 4.071-1.217 5.603-2.74l-.784-.77z"/></g><path fill="#3D4154" d="M192.653 40.868c-3.188-.549-5.528-3.522-5.528-7.09 0-3.565 2.315-6.476 5.528-7.002v-1.079c-3.95.546-6.736 3.891-6.736 8.127 0 4.237 2.805 7.616 6.736 8.136v-1.092z"/><path stroke="#3D4154" stroke-width=".2" stroke-miterlimit="10" d="M192.653 40.868c-3.188-.549-5.528-3.522-5.528-7.09 0-3.565 2.315-6.476 5.528-7.002v-1.079c-3.95.546-6.736 3.891-6.736 8.127 0 4.237 2.805 7.616 6.736 8.136v-1.092z" fill="none"/><g fill="#3D4154" stroke="#3D4154" stroke-width=".211" stroke-miterlimit="10"><polygon points="3.167,25.541 0,25.541 0,42.358 11.892,42.358 11.892,39.203 3.167,39.203"/><rect x="16.505" y="25.541" width="3.367" height="16.817"/><path d="M33.351 35.675h4.223v2.824c-1.056.754-2.415 1.184-3.829 1.184-3.23 0-5.459-2.371-5.459-5.769v-.047c0-3.142 2.345-5.698 5.227-5.698 2.075 0 3.309.695 4.535 1.74l.111.091 2.027-2.414-.107-.091c-1.911-1.619-3.781-2.28-6.451-2.28-2.41 0-4.646.918-6.259 2.585-1.57 1.623-2.46 3.794-2.46 6.114v.048c0 2.404.874 4.593 2.414 6.162 1.6 1.627 3.806 2.487 6.349 2.487 3.257 0 5.579-1.419 6.971-2.61l.027-.041v-7.101h-7.318l-.001 2.816z"/><polygon points="56.782,32.437 49.183,32.437 49.183,25.541 45.946,25.541 45.946,42.358 49.183,42.358 49.183,35.392 56.782,35.392 56.782,42.358 59.948,42.358 59.948,25.541 56.782,25.541"/><polygon points="64.521,28.497 69.799,28.497 69.799,42.358 72.965,42.358 72.965,28.497 78.242,28.497 78.242,25.541 64.521,25.541"/><polygon points="97.169,32.437 89.57,32.437 89.57,25.541 86.333,25.541 86.333,42.358 89.57,42.358 89.57,35.392 97.169,35.392 97.169,42.358 100.336,42.358 100.336,25.541 97.169,25.541"/><path d="M122.921 33.914v-.047c0-2.33-.856-4.497-2.435-6.1-1.476-1.497-3.476-2.383-5.657-2.528v-25.239h-1.055v25.225c-2.041.082-3.9.795-5.378 2.043l-17.585-17.789-.732.742 17.552 17.773c-1.472 1.595-2.299 3.686-2.299 5.919v.048c0 2.33.881 4.496 2.459 6.1 1.543 1.566 3.662 2.463 5.984 2.543v25.436h1.055v-25.453c1.9-.14 3.75-.867 5.166-2.094l17.819 18.025.739-.752-17.822-18.01c1.426-1.585 2.189-3.645 2.189-5.842zm-12.372-4.422c.37-.316.788-.587 1.229-.803.706-.334 1.487-.52 2.338-.52 3.127 0 5.499 2.471 5.499 5.746v.048c0 3.247-2.365 5.697-5.465 5.697-3.127 0-5.512-2.469-5.512-5.745v-.047c0-1.797.741-3.348 1.911-4.376zM138.964 35.167c0 2.881-1.441 4.469-4.034 4.469-2.569 0-4.057-1.673-4.057-4.587v-9.508h-3.166v9.626c0 2.385.662 4.248 1.956 5.539 1.234 1.23 3.024 1.883 5.214 1.883 4.612 0 7.253-2.758 7.253-7.564v-9.483h-3.167l.001 9.625zM158.187 34.196c-.854-.728-2.158-1.282-4.056-1.743-3.239-.774-3.839-1.318-3.839-2.463v-.048c0-1.089 1.059-1.822 2.585-1.822 1.457 0 2.921.548 4.431 1.674l.121.087 1.723-2.425-.104-.083c-1.771-1.421-3.762-2.111-6.092-2.111-1.629 0-3.121.486-4.166 1.369-1.061.894-1.664 2.162-1.664 3.571v.047c0 1.513.484 2.595 1.5 3.404.852.679 2.068 1.179 4.117 1.673 3.082.711 3.604 1.339 3.604 2.393v.047c0 1.178-1.062 1.939-2.76 1.939-1.857 0-3.416-.652-5.105-2.115l-.104-.095-1.926 2.294.104.092c1.967 1.755 4.373 2.683 6.981 2.683 3.676 0 6.043-1.994 6.043-5.081v-.047c0-1.376-.455-2.437-1.393-3.24z"/><polygon points="167.672,39.474 167.672,35.321 175.974,35.321 175.974,32.437 167.672,32.437 167.672,28.425 177.028,28.425 177.028,25.541 164.506,25.541 164.506,42.358 177.17,42.358 177.17,39.474"/></g><path opacity=".8" fill="#fff" enable-background="new" d="M24.522 76.746c-.714.317-1.488.534-2.297.632.828-.495 1.461-1.282 1.76-2.217-.772.458-1.632.792-2.545.975-.729-.779-1.771-1.267-2.924-1.267-2.211 0-4.002 1.792-4.002 4.004 0 .312.034.622.101.916-3.328-.169-6.281-1.765-8.255-4.189-.347.594-.544 1.283-.544 2.017 0 1.388.708 2.614 1.787 3.334-.66-.022-1.278-.203-1.819-.504v.052c0 1.941 1.382 3.559 3.216 3.93-.337.09-.693.138-1.058.138-.258 0-.505-.023-.756-.067.514 1.586 1.992 2.743 3.744 2.775-1.37 1.075-3.097 1.719-4.975 1.719-.32 0-.64-.02-.954-.055 1.771 1.133 3.879 1.799 6.138 1.799 7.371 0 11.401-6.104 11.401-11.397l-.014-.518c.785-.568 1.461-1.275 1.996-2.077z"/><path opacity=".8" fill="#fff" enable-background="new" d="M47.546 73.246h-16.932c-.599 0-1.092.492-1.092 1.093v16.93c0 .602.493 1.094 1.092 1.094h16.932c.604 0 1.094-.492 1.094-1.094v-16.93c0-.602-.49-1.093-1.094-1.093zm-1.798 10.726h-2.626v7.025h-2.676v-7.025h-1.856v-2.533h1.855v-2.16c0-1.7 1.101-3.261 3.629-3.261 1.022 0 1.78.1 1.78.1l-.058 2.363-1.619-.004c-.912 0-1.057.417-1.057 1.115v1.8490000000000002h2.748l-.12 2.531z"/><g fill="#fff" opacity=".8"><path d="M91.312 82.555c0 2.496-2.023 4.519-4.52 4.519-2.493 0-4.521-2.023-4.521-4.519 0-.566.111-1.102.298-1.602h-5.537v6.731c0 2.698 2.185 4.881 4.878 4.881h9.765c2.696 0 4.884-2.183 4.884-4.881v-6.731h-5.546c.192.498.299 1.036.299 1.602z"/><circle cx="86.792" cy="82.556" r="2.712"/><path d="M91.675 73.04h-9.505v5.093h-1.071v-5.016c-.369.059-.728.159-1.066.301v4.715h-1.067v-4.096c-1.173.892-1.933 2.297-1.933 3.888v1.429h6.572c.818-.814 1.947-1.317 3.188-1.317 1.246 0 2.369.503 3.188 1.317h6.579v-1.429c-.001-2.697-2.188-4.885-4.885-4.885zm2.182 4.617c0 .304-.246.551-.551.551h-1.645c-.301 0-.547-.247-.547-.551v-1.643c0-.303.246-.552.547-.552h1.645c.305 0 .551.249.551.552v1.643z"/></g><path opacity=".8" fill="#fff" enable-background="new" d="M70.669 73.607h-15.673c-.745 0-1.355.592-1.355 1.324v15.742c0 .732.61 1.327 1.355 1.327h15.674c.751 0 1.363-.595 1.363-1.327v-15.742c0-.731-.613-1.324-1.364-1.324zm-6.785 11.177l-3.404 1.956.008-3.928.011-3.925 3.396 1.972 3.396 1.971-3.407 1.954z"/><g fill="#fff"><polygon points="72.619,135 84.261,123.354 82.013,121.112 70.371,132.752"/><rect x="69.91" y="114.825" transform="matrix(-.694 -.72 .72 -.694 43.386 251.255)" width="10.292" height="3.176"/><path d="M89.751 113.256c1.937 2.772 3.074 6.135 3.074 9.775 0 4.721-1.914 8.986-5.008 12.088-3.098 3.092-7.364 5.004-12.088 5.004-3.637 0-7.004-1.135-9.776-3.07l-2.1 2.102c3.323 2.447 7.434 3.902 11.876 3.902 5.524 0 10.539-2.246 14.157-5.865 3.622-3.621 5.865-8.639 5.865-14.158 0-4.446-1.447-8.553-3.9-11.879l-2.1 2.101zM63.579 135.053c-3.062-3.094-4.943-7.328-4.943-12.021 0-4.727 1.91-8.992 5.001-12.091 3.102-3.095 7.365-5.004 12.093-5.004 4.693 0 8.93 1.884 12.021 4.942l2.073-2.071c-3.611-3.582-8.601-5.801-14.094-5.801-5.528 0-10.542 2.242-14.161 5.865-3.622 3.617-5.865 8.631-5.865 14.16 0 5.49 2.217 10.477 5.806 14.094l2.069-2.073z"/></g><g fill="#fff"><polygon points="28.577,135 16.936,123.354 19.184,121.112 30.825,132.752"/><rect x="20.983" y="114.83" transform="matrix(.694 -.72 .72 .694 -75.796 54.393)" width="10.292" height="3.176"/><path d="M11.445 113.256c-1.937 2.772-3.074 6.135-3.074 9.775 0 4.721 1.914 8.986 5.008 12.088 3.098 3.092 7.364 5.004 12.088 5.004 3.637 0 7.004-1.135 9.776-3.07l2.1 2.102c-3.323 2.447-7.434 3.902-11.876 3.902-5.524 0-10.539-2.246-14.157-5.865-3.622-3.621-5.865-8.639-5.865-14.158 0-4.446 1.447-8.553 3.9-11.879l2.1 2.101zM37.617 135.053c3.062-3.094 4.943-7.328 4.943-12.021 0-4.727-1.91-8.992-5.001-12.091-3.102-3.095-7.365-5.004-12.093-5.004-4.693 0-8.93 1.884-12.021 4.942l-2.073-2.071c3.611-3.582 8.601-5.801 14.094-5.801 5.528 0 10.542 2.242 14.161 5.865 3.622 3.617 5.865 8.631 5.865 14.16 0 5.49-2.217 10.477-5.806 14.094l-2.069-2.073z"/></g><g fill="#3B3D54"><path d="M114.201 114.081v.913c1.525.001 2.9.616 3.9 1.616 1 1.002 1.617 2.375 1.617 3.903 0 1.527-.615 2.899-1.617 3.901-1 1-2.373 1.615-3.9 1.616-1.529-.001-2.903-.616-3.904-1.616-1.001-1.002-1.615-2.374-1.616-3.901.001-1.526.616-2.901 1.616-3.903 1.001-1 2.375-1.615 3.904-1.616v-1.8250000000000002c-4.059 0-7.348 3.287-7.348 7.345s3.289 7.345 7.348 7.345c4.057 0 7.344-3.287 7.344-7.345s-3.287-7.345-7.344-7.345v.912zM112.888 117.821v3.312c0 .299.148.581.395.751l2.344 1.621c.416.287.985.182 1.271-.232.287-.416.184-.984-.231-1.271l-1.95-1.349v-2.832c0-.502-.41-.912-.914-.912s-.915.41-.915.912z"/></g><g fill="#3B3D54"><circle cx="153.563" cy="117.854" r="1.435"/><circle cx="152.539" cy="123.501" r="1.435"/><circle cx="150.229" cy="120.164" r="1.435"/><circle cx="153.054" cy="120.677" r=".797"/><circle cx="155.875" cy="121.19" r="1.435"/><path d="M164.293 114.234c.005-.438-.343-.799-.78-.806-1.813-.028-3.412 1.095-4.229 2.757-1.119-1.505-2.789-2.607-4.783-2.97-4.17-.758-8.165 2.007-8.922 6.177-.757 4.169 2.011 8.162 6.18 8.919 4.168.757 8.161-2.007 8.918-6.176.254-1.392.111-2.764-.342-4.003.236-1.781 1.568-3.144 3.152-3.119.439.008.798-.341.806-.779zm-7.883 11.268c-1.216.841-2.74 1.217-4.31.932-1.572-.284-2.869-1.174-3.711-2.388-.844-1.218-1.219-2.742-.935-4.312.285-1.568 1.175-2.865 2.392-3.711 1.215-.839 2.74-1.215 4.312-.93 1.566.285 2.863 1.174 3.707 2.389.84 1.217 1.218 2.742.933 4.312-.283 1.57-1.17 2.866-2.388 3.708z"/></g><g fill="#fff"><circle cx="21.564" cy="242.854" r="1.435"/><circle cx="20.539" cy="248.501" r="1.435"/><circle cx="18.229" cy="245.164" r="1.436"/><circle cx="21.054" cy="245.677" r=".797"/><circle cx="23.875" cy="246.19" r="1.435"/><path d="M32.293 239.234c.005-.438-.343-.799-.781-.808-1.814-.026-3.412 1.097-4.228 2.759-1.119-1.506-2.789-2.607-4.783-2.972-4.17-.758-8.165 2.009-8.922 6.179-.757 4.168 2.011 8.162 6.18 8.918 4.168.758 8.161-2.006 8.918-6.177.253-1.392.111-2.764-.342-4.003.237-1.779 1.569-3.145 3.152-3.117.439.008.798-.341.806-.779zm-7.883 11.268c-1.216.841-2.74 1.217-4.31.932-1.572-.283-2.869-1.174-3.711-2.388-.842-1.218-1.217-2.741-.933-4.312.285-1.568 1.175-2.865 2.39-3.711 1.215-.84 2.742-1.215 4.314-.932 1.567.285 2.864 1.176 3.707 2.391.84 1.217 1.218 2.742.933 4.312-.285 1.57-1.172 2.866-2.39 3.708z"/></g><polygon fill="#ECECEC" points="35,167.137 27.648,167.137 26.344,168.441 30.932,168.441 25.42,172.387 27.529,178.854 22,174.82 16.469,178.831 18.58,172.393 13.064,168.441 19.885,168.441 22,161.934 23.949,167.934 24.984,166.896 22,157.711 21.379,159.621 18.936,167.137 9,167.137 17.041,172.896 13.975,182.253 21.998,176.434 30.025,182.289 26.957,172.893"/><path fill="#3D4154" d="M134.896 81.186c-.814.359-1.692.605-2.609.717.939-.562 1.659-1.453 1.995-2.514-.874.521-1.849.896-2.882 1.104-.83-.886-2.012-1.438-3.319-1.438-2.509 0-4.541 2.033-4.541 4.544 0 .354.039.702.113 1.036-3.774-.192-7.124-2.001-9.365-4.747-.391.669-.613 1.451-.613 2.283 0 1.578.802 2.967 2.023 3.782-.746-.024-1.447-.228-2.061-.568v.057c0 2.201 1.565 4.038 3.644 4.457-.383.104-.782.157-1.195.157-.293 0-.578-.026-.855-.079.578 1.803 2.258 3.119 4.244 3.154-1.556 1.218-3.515 1.943-5.643 1.943-.367 0-.729-.02-1.086-.062 2.014 1.288 4.4 2.042 6.965 2.042 8.36 0 12.931-6.925 12.931-12.929l-.014-.589c.889-.637 1.659-1.438 2.268-2.35z"/><path fill="#3D4154" d="M164.865 96.471c0 .598-.487 1.085-1.089 1.085h-16.828c-.598 0-1.088-.487-1.088-1.085v-16.829c0-.597.49-1.086 1.088-1.086h16.828c.602 0 1.089.489 1.089 1.086v16.829z"/><path fill="#fff" d="M156.722 96.201v-6.985h-1.849v-2.516h1.849v-2.147c0-1.689 1.09-3.24 3.604-3.24 1.019 0 1.771.098 1.771.098l-.06 2.349-1.606-.004c-.904 0-1.051.415-1.051 1.108v1.837h2.729l-.117 2.516h-2.609v6.985l-2.661-.001z"/><g fill="#3D4154"><path d="M218.646 87.826c0 2.301-1.865 4.167-4.166 4.167-2.299 0-4.168-1.865-4.168-4.167 0-.521.104-1.015.275-1.475h-5.107v6.205c0 2.486 2.018 4.499 4.5 4.499h9c2.485 0 4.504-2.013 4.504-4.499v-6.205h-5.11c.173.458.272.955.272 1.475zM214.479 85.327c1.381 0 2.502 1.119 2.502 2.499 0 1.384-1.121 2.502-2.502 2.502-1.379 0-2.498-1.118-2.498-2.502 0-1.38 1.12-2.499 2.498-2.499zM218.979 79.056h-8.765v4.694h-.981v-4.626c-.342.057-.674.147-.983.279v4.347h-.985v-3.775c-1.082.822-1.783 2.116-1.783 3.583v1.318h6.062c.753-.751 1.792-1.215 2.938-1.215 1.149 0 2.185.464 2.938 1.215h6.064v-1.318c-.003-2.486-2.019-4.502-4.505-4.502zm2.011 4.256c0 .278-.228.506-.507.506h-1.519c-.276 0-.506-.228-.506-.506v-1.518c0-.277.229-.506.506-.506h1.519c.279 0 .507.229.507.506v1.518z"/></g><path fill="#3D4154" d="M183.406 93.438c-.188.259-.36.387-.525.387-.11 0-.176-.064-.194-.193l-.01-.321v-3.367h-.828v3.616c0 .323.03.54.077.68.081.229.267.339.532.339.302 0 .616-.184.947-.56v.498h.828v-4.573h-.828l.001 3.494z"/><polygon fill="#3D4154" points="178.84,89.243 179.815,89.243 179.815,94.516 180.735,94.516 180.735,89.243 181.729,89.243 181.729,88.377 178.84,88.377"/><path fill="#3D4154" d="M186.634 89.886c-.304 0-.588.167-.854.497v-2.006h-.829v6.139h.829v-.446c.273.345.562.507.854.507.33 0 .553-.174.664-.515.057-.192.083-.497.083-.92v-1.821c0-.433-.026-.733-.083-.918-.111-.342-.334-.517-.664-.517zm-.08 3.32c0 .416-.123.618-.361.618-.139 0-.271-.064-.411-.202v-2.79c.14-.135.272-.199.411-.199.238 0 .361.211.361.623v1.95z"/><path fill="#3D4154" d="M184.483 85.243c.27 0 .397-.215.397-.641v-1.944c0-.428-.13-.643-.397-.643-.271 0-.398.215-.398.643v1.944c0 .426.129.641.398.641z"/><path fill="#3D4154" d="M192.366 78.556h-15.375c-1.041 0-1.889.846-1.889 1.888l-.01 15.226c0 1.042.848 1.887 1.887 1.887h15.375c1.043 0 1.89-.845 1.89-1.887l.008-15.226c0-1.043-.844-1.888-1.886-1.888zm-5.956 2.764h.834v3.401l.009.324c.02.132.085.197.198.197.164 0 .343-.13.526-.394v-3.528h.84v4.619h-.84v-.504c-.33.383-.648.567-.957.567-.267 0-.453-.109-.535-.344-.047-.138-.075-.359-.075-.687v-3.651zm-3.163 1.506c0-.495.084-.854.263-1.089.231-.316.56-.474.976-.474.418 0 .742.157.977.474.176.234.264.594.264 1.089v1.619c0 .489-.088.854-.264 1.086-.23.314-.559.472-.977.472-.416 0-.742-.157-.976-.472-.179-.231-.263-.597-.263-1.086v-1.619zm-2.24-3.089l.659 2.436.633-2.436h.938l-1.115 3.691v2.511h-.93v-2.511c-.084-.446-.271-1.098-.568-1.962l-.592-1.729h.975zm10.283 15.052c-.168.729-.764 1.266-1.482 1.349-1.699.189-3.424.193-5.133.189-1.713.004-3.435 0-5.135-.189-.719-.083-1.314-.619-1.482-1.349-.238-1.038-.238-2.173-.238-3.241s.002-2.202.242-3.24c.166-.727.765-1.268 1.48-1.345 1.699-.193 3.421-.193 5.135-.193 1.715 0 3.434 0 5.133.193.721.077 1.314.618 1.482 1.345.238 1.038.238 2.172.238 3.24s-.002 2.203-.24 3.241z"/><path fill="#3D4154" d="M189.274 89.886c-.422 0-.756.155-.992.472-.176.23-.256.587-.256 1.075v1.601c0 .486.09.849.267 1.075.238.313.567.469 1.004.469.431 0 .771-.162 1-.494.104-.147.164-.313.194-.497l.017-.534v-.119h-.847c0 .332-.01.517-.02.56-.048.223-.164.332-.367.332-.284 0-.422-.21-.422-.635v-.811h1.653v-.946c0-.488-.081-.845-.256-1.075-.228-.318-.561-.473-.975-.473zm.405 1.803h-.826v-.422c0-.424.14-.635.416-.635.273 0 .41.211.41.635v.422z"/><g fill="#030303"><path d="M261.067 110.123c-3.532-.338-6.698-1.906-9.074-4.279-2.689-2.692-4.352-6.4-4.352-10.511 0-4.107 1.661-7.813 4.352-10.506 2.371-2.367 5.527-3.934 9.05-4.277l-.002-2.207c-8.741.742-15.606 8.055-15.606 16.99 0 8.948 6.881 16.27 15.635 16.997l-.003-2.207zM264.042 78.348l.002 2.209c3.489.359 6.613 1.922 8.963 4.27 2.69 2.691 4.352 6.398 4.352 10.506 0 4.11-1.659 7.818-4.352 10.511-2.345 2.344-5.46 3.902-8.938 4.268l.002 2.212c8.688-.793 15.494-8.089 15.494-16.99 0-8.907-6.821-16.207-15.523-16.986z"/></g><g fill="#CA3743"><path d="M205.196 237.035l-.084-.033h-6.069l-.08.033-.032.081v1.278c-.587-.611-1.32-1.055-2.117-1.354-.896-.328-2.021-.479-2.963-.479-2.414-.002-4.404.981-5.781 2.545-1.377 1.567-2.147 3.711-2.147 6.045 0 2.332.785 4.485 2.179 6.062 1.396 1.574 3.397 2.563 5.813 2.563.955 0 2.103-.16 2.981-.523.806-.331 1.521-.837 2.035-1.548v1.515l.032.079.08.033h6.069l.084-.033.031-.079v-16.102l-.031-.083m-5.952 8.153c0 1.031-.33 1.936-.943 2.582-.614.646-1.676 1.039-2.854 1.039-1.18 0-2.051-.395-2.639-1.039-.586-.646-.888-1.551-.888-2.582 0-1.006.302-1.92.89-2.582.588-.664 1.459-1.078 2.637-1.08 1.177.002 2.234.418 2.853 1.08.614.665.944 1.578.944 2.582"/><path d="M174.174 232.145h-6.728l-.079.031-.033.078v20.912l.033.078.079.031h6.728l.08-.031.033-.078v-20.912l-.033-.078-.08-.031"/><path d="M185.772 241.771v-4.709l-.03-.078-.08-.033h-3.39v-4.697l-.035-.076-.077-.033h-6.41l-.08.033-.03.076v20.914l.03.079.08.031h6.41l.077-.031.035-.079v-11.28h3.39l.08-.035.03-.082"/><path d="M151.108 232.199l-.096-.055h-7.185l-.102.066-4.564 11.742-4.541-11.742-.104-.066h-7.262l-.094.055-.01.105 8.99 20.951.1.062h5.641l.102-.062 9.126-20.951-.001-.105"/><path d="M166.437 245.174c0-2.701-1.146-4.895-2.912-6.393-1.767-1.492-4.144-2.305-6.621-2.305h-.004c-2.475 0-4.85.812-6.615 2.305-1.771 1.498-2.914 3.691-2.912 6.398v.002c-.002 2.707 1.15 4.893 2.922 6.379 1.771 1.487 4.146 2.295 6.607 2.295 2.479 0 4.854-.812 6.621-2.307 1.768-1.49 2.912-3.678 2.912-6.361v-.015l.002.002zm-4.521.092l-7.315 4.35-.093.002-.045-.076v-8.746l.05-.078.088.004 7.315 4.396.043.07-.043.078"/><polygon points="208.156,237.021 208.156,237.211 207.627,237.211 207.627,238.592 207.412,238.592 207.412,237.211 206.885,237.211 206.885,237.021"/><path d="M208.347 237.021h.307l.453 1.33.447-1.33h.303v1.568h-.2v-1.086l.002-.236-.447 1.322h-.213l-.451-1.322v.22499999999999998l.007.174v.926h-.205v-1.57h-.003z"/></g><path fill="#CA3743" d="M164.789 152.497l.33.131 4.737-4.405c1.248-.406 3.881.711 5.197.787l.196-.195c-.209-1.424-1.965-3.989-1.709-5.33.304-1.61 1.967-2.821 2.104-4.541-1.369-.601-3.476.324-4.935-.131-.61-.19-3.396-3.367-3.687-4.015-.262-.2-.276-.344-.726-.396l-1.313 5.394c-.321.58-5.539 2.522-6.516 2.699l-.134.33 5.856 3.157c.526.579.592 5.311.6 6.515zm-25.266 10.989c5.869-.875 5.666-9.178-.988-9.017-1.695.759-2.883.951-3.619 2.634-1.424 3.245 1.201 6.89 4.607 6.383zm-2.832-5.463c.354-1.174 1.145-1.379 2.24-1.842 3.459.004 3.627 4.885.656 5.526-2.136.463-3.454-1.828-2.896-3.684zm36.653-3.552c-.77.295-1.487.271-2.104.658-1.646 1.037-2.705 4.092-1.382 6.318 1.492 2.512 5.627 2.652 7.304.195l-.065-.461-.265-.197-.197.064-.92 1.053c-2.508 1.732-5.041-.343-5.461-2.694-.512-2.866 2.272-4.983 4.869-3.884l1.315 1.117h.265c.219-.131.194-.102.262-.395.295-1.138-2.319-1.825-3.621-1.774zm52.51 6.778h-.33c-.207.315-.24.459-.197.922.467.365.965.845 1.58 1.054 2.012.688 5.148-.149 4.74-2.433-.521-2.894-4.232-1.56-5.135-3.492-1.033-2.092 3.336-2.717 4.211-.854l.264.065c.281-.206.387-.284.395-.79-.695-.754-1.615-1.277-3.094-1.25l-1.512.396c-1.012.57-1.891 2.559-.658 3.617 1.184 1.021 3.426.744 4.408 1.977.789 3.062-3.811 2.391-4.672.788zm-69.75 1.974c.59-.271.998-1.258 1.117-1.975.229-.139 3.043-.407 3.356-.131.229.203.795 1.742 1.051 2.105.601.158 1.011.062 1.515-.135.465-.971-2.572-6.756-3.026-8.225-.326-.189-.812-.318-1.313-.33l-.789.135c-.718.957-3.269 6.918-3.356 8.225l.329.33c.37.101.772.191 1.116.001zm2.7-6.514c.649.328.989 1.984 1.247 2.698l-.065.196h-2.104l-.062-.196c.326-.901.654-1.8.984-2.698zm-39.812 6.711c2.818-.451 3.289-1.977 3.289-5.263 0-1.079.068-2.349-.131-3.226-.377-.281-1.084-.488-1.58-.133-.783.613-.08 4.084-.328 5.395-.117.625-.424.91-.723 1.316-.561.15-1.258.266-1.846.066-2.242-1.033-.082-4.9-1.248-6.713-.193-.256-.586-.283-1.053-.266-.293.168-.461.207-.66.461l-.064 2.961c0 3.348.602 6.002 4.344 5.402zm61.92-.128l.131-.201.065-8.289-.594-.198-.328.198c-.149.283.021 8.273.196 8.423l.53.067zm4.473 0l.134-.201.065-6.907.063-.065h.199c1.688 2.368 3.377 4.739 5.063 7.106l.659.067.13-.067c.219-.873.393-7.548.067-8.356l-.067-.195h-.593c-.698 1.363.021 5.144-.196 6.777l-.132.131c-1.299-1.222-3.952-6.851-5.592-6.978-.623.429-.688 7.062-.396 8.557l.596.131zm19.871 0c.463-1.017.147-5.8.136-7.176l.131-.066c.937 1.3 1.799 3.263 2.367 4.808.276.175.866.437 1.25.129l2.239-4.735.263-.199.065 7.041.196.134.462.067.131-.201c.289-.721.153-7.614-.065-8.354-.367-.1-.787-.198-1.117 0-.539.349-2.289 4.31-2.5 5.134l-.265.196-2.502-5.264-.985-.199c-.812.578-.683 7.045-.461 8.621l.655.064zm10.725 0c.494-.621.916-1.724 1.119-2.569.625-.427 2.778-.423 3.883-.197l1.052 2.565c.229.134.325.195.725.201h.066c.317-.562-.074-1.291-.328-1.912-.447-1.085-2.231-6.305-2.961-6.709l-.724-.067c-.953.819-3.017 6.824-3.556 8.424l.066.197.658.067zm3.095-7.438c.321.182 1.521 3.203 1.58 3.75h-2.83c-.305-.262.95-3.209 1.25-3.75zm-107.125 7.041l.197-.592-.131-.462c-1.1-.62-3.283.169-4.607-.329-.338-.195-.271-1.41-.131-1.777l3.488-.195c1.713-2.934-4.436.236-3.553-2.961.307-.438 3.756-.143 4.604-.396.172-.276.219-.6.199-1.119-1.117-.795-4.318-.42-6.119-.393-.357.262-.672.42-.791.92-.246 1.021-.064 7.082.463 7.438.535.498 6.035.389 6.381-.134zm14.938.328c.344-.574.486-1.939.264-2.697.152-.238.432-.377.787-.195 1.443.887 1.334 2.979 3.752 2.963l.592-.396c-.109-.92-1.473-2.26-2.105-2.766v-.195c.592-.316 1.289-.502 1.711-.988.934-1.064.305-3.17-.592-3.75-1.143-.734-3.527-.574-5.396-.523-.311.225-.58.324-.723.723-.381 1.07-.053 7.386.197 7.697.247.304 1.083.196 1.513.127zm.394-7.041c2.09-.086 3.422.24 2.764 2.105-.566.404-1.85.822-2.699.461-.381-.277-.274-2.162-.065-2.566zm20.659 7.11c.531-.541.5-1.515.461-2.634 1.369-.739 3.429.246 4.541-1.383.377-.551.484-1.549.328-2.237-.584-2.603-3.058-2.437-6.25-2.367l-.328.195c-.483.813-.604 7.805.063 8.356l1.185.07zm.398-6.847l.197-.264c1.078-.035 2.18-.072 2.565.594.379.404.312 1.354-.065 1.709-.351.599-1.521.572-2.5.525-.302-.54-.22-1.717-.197-2.564zm47.309 6.778c1.865.021 3.729.043 5.595.068.266-.207.317-.168.327-.66-1.057-.576-3.745-.219-5.196-.199-.233-.488-.315-2.438-.065-3.022.604-.53 3.188.124 4.015-.265.188-.119.163-.129.266-.33l-.135-.264c-1.358-.023-2.72-.045-4.078-.066-.297-.598-.312-2.266-.065-2.826.39-.396 4.317-.215 5.067-.197l.131-.594c-.885-.516-4.477-.219-5.856-.195-.698.771-.348 6.57-.33 8.225l.324.325zm26.257 3.487h-116.601l-.131.524.197.135h126.075l.134-.396v-.064c-.99-.567-7.871-.199-9.674-.199zm-113.968 3.619l-.92 1.909h-.197c-.355-.625-.557-1.821-1.383-1.973-.477.596-.291 2.385-.264 3.42l.197.131.131.065c.48-.467-.035-1.342.264-2.172v-.133h.066l.855 1.385c.703.278.918-.877 1.053-1.385l.197-.063c.209.387.211 1.555.066 2.038.191.263.158.328.527.265.188-.897.34-2.616-.068-3.487h-.524zm1.908.066c-.393.266-.459 2.635-.197 3.227.232.354 1.977.438 2.5.195h.131v-.33l-1.975-.129c-.125-.248-.166-.662-.064-.986l1.447-.064.131-.396-1.445-.133c-.262-.166-.244-.598-.133-.922.613-.021 1.229-.045 1.844-.062l.195-.066v-.328l-1.645-.129-.789.123zm10.33-.129l-.264.129-1.316 3.291v.064c.188.086.189.125.396.066.262-.154.426-.559.527-.854.264-.136 1.031-.229 1.379-.067l.594.987h.264l.131-.065c.021-.975-.863-2.683-1.383-3.487l-.328-.064zm.394 2.104l-.525.065c-.457-.25-.117-.769.131-1.25.377.147.477.662.592 1.053l-.198.132zm5.067-2.104l-.262.062c-.375.6-.383 2.701-.133 3.488l.264.064h.066c.172-.277.219-.604.197-1.117.584-.312 1.426-.32 1.908-.658.088-.314.174-.689.066-1.055-.276-.695-1.116-.825-2.106-.784zm1.252 1.776l-1.119.063-.066-1.119.197-.194c1.064-.082 1.843.666.988 1.25zm2.433-1.776l-.658.262c-.271.436-.053 3.191.266 3.355h.062c.166-.281.125-.811.264-1.186.133-.205.031-.141.33-.197l1.184 1.383.266-.066.195-.064v-.131l-.789-.922v-.264c.379-.125.582-.307.789-.592.074-.32.084-.676-.064-.922-.263-.57-1.021-.675-1.845-.656zm-.066 1.709l-.131-.922.262-.262 1.121.131.262.527c-.344.53-.68.664-1.514.526zm4.082-1.709c-2.34 1.43-1.156 4.584 1.381 3.551 1.818-.74 1.136-3.686-1.381-3.551zm.064 3.156c-1.318-.469-.684-2.088.064-2.631h.791c1.177.934.987 3.287-.855 2.631zm5.067-1.447l-.131.066c-.188.484.322.49.855.395l.131.395-.459.527c-.521.139-.902.084-1.383-.064-.658-.896-.525-1.957.395-2.5.801-.016 1.025.146 1.447.459h.264l.064-.396c-.533-.42-.85-.629-1.906-.59-1.047.637-2.244 2.562-.525 3.484.893.482 1.812-.115 2.498.133l.133-.066-.066-1.577c-.212-.33-.763-.303-1.317-.266zm4.935 0c.109-.438.115-.758 0-1.184-.561-.393-1.24-.439-2.172-.525l-.264.062c-.389.602-.543 3.324.197 3.555h.066c.215-.354.197-.777.197-1.316l.264-.064 1.25 1.383.461-.064.064-.197-.92-.922v-.131l.857-.597zm-1.843.067c-.158-.312-.189-.944 0-1.25l1.119.131c.146.231.205.353.197.789-.359.248-.629.354-1.316.33zm3.949-1.776c-.557.895-1.307 2.404-1.447 3.551h.525l.33-.789c.328-.2.857-.219 1.447-.197l.594 1.055h.326c.18-.811-.791-3.055-1.313-3.555l-.462-.065zm.658 2.104h-.723l-.199-.065.395-1.117c.377.147.475.662.594 1.053l-.067.129zm4.738-2.041l-.925 1.909h-.262l-.791-1.711c-.128-.204-.191-.204-.459-.262l-.265.129-.063 3.354.396.133c.239-.53-.029-1.639.196-2.237v-.131h.065l.656 1.313c.209.133.228.18.594.198l.724-1.448h.197v2.106l.196.196h.196l.134-.196v-3.226l-.265-.194-.324.067zm3.616 1.776c-.487.149-.989-1.051-1.117-1.646l-.461-.194c-.616.512-.428 2.301-.396 3.42l.197.131.131.065c.427-.389.256-1.633.265-2.368l.131-.063.728 1.514h.459c.369-.22.606-.93.726-1.385l.196-.129c.312.428.095 1.475.063 2.17l.197.264h.196l.132-.196.067-3.226c-.864-.489-1.394.852-1.514 1.643zm3.226 1.252c-.103-.207-.142-.428-.131-.791v-.066c.358-.207 1.229-.15 1.646-.328l-.063-.328h-1.382l-.133-.199-.065-.658c.524-.285 1.319-.041 1.842-.193.207-.135.142-.032.197-.33-.384-.207-1.234-.203-1.908-.193l-.524.062c-.381.692-.22 2.331-.197 3.356.406.221 1.914.387 2.502.131l.195-.065v-.196l-.195-.132c-.597-.027-1.192-.048-1.784-.07zm5.198-3.091c-.385.262-.891.441-1.118.854-.927 1.674.762 3.422 2.502 2.696 1.797-.743 1.162-3.685-1.384-3.55zm1.45 2.826c-.742.521-1.451.281-2.043-.197-.293-1.131.035-1.6.727-2.104 1.07-.043 1.352.332 1.646 1.053-.007.636-.161.844-.33 1.248zm6.317-2.826l-.264.129-.066.198c.32.269.654.243 1.187.263l.063 2.83.197.197.396-.133.064-2.828c.273-.127.734-.061.986-.131l.197-.198c-.301-.43-1.911-.359-2.76-.327zm8.356 3.091c-.112-.228-.146-.528-.133-.922.336-.162.981-.149 1.515-.134l.131-.131v-.196c-.336-.162-.981-.148-1.513-.132-.112-.227-.146-.528-.133-.922.422-.207 1.34-.104 1.709-.065.295-.162.336-.168.267-.526l-1.91-.062-.592.129c-.246.52-.326 2.605-.063 3.225l.063.197 2.437.064.131-.396c-.484-.23-1.331-.138-1.909-.129zm6.45-2.502l.131-.196.065-.132c-.373-.401-1.321-.192-2.104-.262l-.461.129-.065 3.291c.476.271 2.067.342 2.633.063v-.197l-.196-.131c-.627-.226-1.449.205-1.845-.262v-.726c.332-.158 1.093-.134 1.517-.199l.129-.194c-.301-.295-.995-.106-1.444-.265-.235-.135-.351-.418-.198-.726.257-.385 1.235-.292 1.838-.193zm5.919-.589l-.922.195v3.289l.133.133c.238-.066.136.004.263-.133.17-.215.151-.709.133-1.117l.131-.133h.265l1.187 1.383h.326l.133-.197-.854-1.119c.313-.248.681-.396.854-.789v-.791c-.245-.539-.854-.746-1.649-.721zm1.054 1.379c-.214.389-.619.436-1.25.396l-.134-.197-.063-.857.265-.193 1.051.131c.135.206.27.4.131.72zm2.698-1.379l-.987.656c-1.024 1.553.405 3.744 2.368 2.895 1.843-.796 1.14-3.686-1.381-3.551zm.394 3.22l-.658-.262c-.704-.966-.469-1.865.462-2.435h.791c.415.428.776.647.854 1.444-.275.738-.498 1.184-1.449 1.253zm3.487-3.22l-.396.129-.196.066v3.355l.396.064c.127-.258.147-.68.133-1.117.621-.309 1.468-.312 1.976-.658.117-.438.117-.812 0-1.25-.499-.378-.999-.593-1.913-.589zm1.45 1.313l-.459.463-.987.063c-.115-.377-.082-1.022.065-1.313h.854c.237.211.375.271.524.59v.197h.003zm3.684-.724c.267-.135.254-.045.328-.396-.38-.181-1.273-.181-1.775-.194l-.657.129-.197.065v3.158c.302.444 1.767.293 2.5.264l.132-.396c-.354-.172-1.287-.211-1.775-.063l-.329-.262c-.017-.328-.022-.574.133-.726.254-.192.924-.153 1.381-.134l.134-.395-1.447-.064-.133-.198-.065-.658c.319-.176 1.284-.274 1.77-.13zm2.5-.589c-.651.631-1.488 2.418-1.578 3.484.517.256.761-.268.854-.787.324-.154.934-.152 1.449-.135l.592 1.055h.33c.236-1.08-.877-2.455-1.188-3.422l-.459-.195zm.592 2.037l-.657.133c-.515-.291-.216-.902.133-1.25.265.17.438.729.524 1.053v.064zm4.474-1.908l-.062 2.305-.133.064c-.721-.673-1.145-2.119-2.104-2.498l-.136.062c-.401.883.041 2.213-.196 3.158.141.305.157.434.528.33v-2.105l.194-.33 1.908 2.502h.265l.196-.133v-3.289c-.203-.095-.214-.115-.46-.066zm9.542-.066h-.33c-.271.573-.116 1.815-.131 2.437-1.049-.42-1.117-2.111-2.237-2.498l-.132.062c-.351.754-.147 2.422-.133 3.422l.396.133c.297-.635.11-1.639.198-2.434.709.244 1.565 1.822 1.976 2.434l.263-.064c.358-.27.362-2.832.133-3.355v-.134h-.002v-.003zm4.081-.063c-2.17 1.159-1.646 4.312.856 3.686 2.084-.525 1.812-3.827-.856-3.686zm1.512 2.498c-.238.529-.628.572-1.25.723-.32-.176-.593-.225-.789-.521-.326-.316-.367-.881-.199-1.385.17-.404.424-.529.726-.787h.856c.465.39 1.127 1.065.656 1.97zm-113.572-2.435c-.271.506-.43 2.596-.133 3.291l.066.196c1.441.293 2.176-.205 2.895-.789.549-2.056-.578-2.795-2.828-2.698zm2.303 2.304c-.248.594-.982.898-1.777.725-.238-.496-.242-2.074 0-2.564.889.014 1.402.202 1.777.725v1.114zm1.709-2.304c-.184.517-.34 2.687-.064 3.356.133.205.029.142.328.196h.064c.408-.688.234-2.569.133-3.487l-.461-.065zm48.889.264l-.065 3.157.134.133h.329c.144-.299.147-.832.134-1.316.31-.146.881-.146 1.381-.131l.131-.196c-.266-.39-.834-.31-1.446-.329l-.063-.986 1.84-.131.063-.33v-.064l-2.301-.066-.137.259zm10.925-.264h-.265l-.129.065-.065 1.383-1.777.065c-.149-.312-.149-.884-.131-1.383l-.461-.133c-.281.838-.188 2.573-.067 3.422l.396.133c.148-.321.104-1.047.197-1.446l1.709-.065c.24.399.176.682.135 1.315.182.112.168.146.459.196.352-.752.146-2.422.133-3.422l-.134-.13zm12.239 0h-.328c-.28.604-.166 2.101-.266 2.764-1.771 1.341-1.601-1.116-1.709-2.631l-.462-.133c-.456 1.491-.254 4.164 1.843 3.621 1.192-.312 1.123-1.931 1.053-3.488l-.131-.133zm27.769 0c-.237.063-.135-.004-.262.133-.457.761.014 2.104-.529 2.896l-.655.129-.595-.395c-.17-.688-.146-1.744-.131-2.631l-.461-.133c-.17.344-.132.98-.132 1.516 0 1.997.978 2.418 2.565 1.775.438-.648.498-2.244.396-3.225l-.196-.065zm5.463 0c-.351.754-.149 2.422-.133 3.422l.396.133c.354-.768.149-2.471.133-3.487l-.396-.068zm8.882.132v-.133l-.459.066-.066 2.172-.196.131-1.711-2.369h-.396c-.354.766-.22 2.338-.197 3.422.205.098.218.113.462.066l.131-2.303v-.135c1.063.457 1.08 2.229 2.303 2.502h.066c.296-.525.412-2.805.063-3.419zm-108.902 2.172l.064.131 1.449.064.131-.459-1.58-.066-.064.33z"/><polygon fill="#DADADA" points="61.964,189 58.5,195 55.036,189"/><path fill="#CA3743" d="M61.66 158.833l-2.471 3.25v.053l3.926-.52v1.768l-3.926-.469v.053l2.496 3.121-1.638.937-1.56-3.642h-.053l-1.689 3.666-1.482-.937 2.47-3.172v-.053l-3.848.493v-1.768l3.821.493v-.053l-2.443-3.173 1.586-.909 1.612 3.612h.052l1.586-3.64 1.561.89z"/><path fill="#fff" d="M86.396 157.305c.642-.414 1.431-.621 2.366-.621 1.229 0 2.25.295 3.062.881.813.588 1.221 1.459 1.221 2.61 0 .707-.177 1.304-.529 1.787-.206.293-.602.669-1.188 1.126l-.578.448c-.314.245-.523.53-.627.856-.064.207-.1.526-.105.963h-2.211c.033-.92.119-1.556.26-1.905.142-.351.505-.755 1.091-1.211l.594-.466c.194-.146.353-.308.472-.48.217-.299.325-.628.325-.986 0-.414-.12-.789-.362-1.131-.241-.34-.682-.51-1.322-.51-.629 0-1.076.21-1.339.628-.263.419-.395.854-.395 1.306h-2.358c.065-1.55.606-2.65 1.623-3.295zm1.354 9.17h2.439v2.356h-2.439v-2.356z"/><path fill="#3B3D54" d="M140.473 123.905v-6.2c0-.391.041-.825-.043-1.16-.057-.227-.145-.471-.248-.665-.547-1.011-1.512-1.28-3.1-1.263l-.02-.031-.012-.363c0-.447-.018-.766-.258-.963-.439-.359-1.16-.154-1.307.342-.076.257.051.723-.041.974l-.012.031-3.762.011-.021-.031-.01-.809c-.104-.436-.34-.723-.881-.715l-.311.093c-.523.267-.336.753-.416 1.44-.08.037-.238.021-.352.021-.326 0-.656-.035-.953.031-.646.145-1.258.428-1.586.891-.199.281-.389.607-.477.996-.141.602-.053 1.488-.053 2.207v4.986c0 1.292-.059 2.292.445 3.067.293.451.795.865 1.357 1.037.639.193 1.609.115 2.416.115h6.52l.922-.021c1.055-.25 1.83-.863 2.105-1.876.163-.582.098-1.426.098-2.145zm-1.598-3.526v4.137c0 .854.008 1.5-.486 1.846-.387.269-1.67.145-2.322.145h-6.488c-.248 0-.543.025-.715-.052-.674-.298-.643-1.065-.643-2.032v-4.417l.041-.051 10.594.01c.041.094.019.285.019.414zm0-2.041c-.166.074-.676.02-.9.02h-9.734l-.02-.029v-.664c0-.775.018-1.312.57-1.543l.33-.062h.902c.031.088.021.24.021.361 0 .382.045.648.258.809.479.357 1.082.168 1.297-.311.088-.199.045-.576.041-.84.199-.09.842-.02 1.109-.02h2.674l.021.029c.1.273-.051.662.092.924.314.57 1.176.512 1.451-.053l.074-.871c.041-.053.793-.037.912-.021 1.08.16.918 1.072.902 2.271z"/><g fill="#fff"><polygon points="179.36,126.706 185.97,120.106 184.69,118.836 178.09,125.437"/><polygon points="179.37,113.446 182.8,117.017 181.5,118.267 178.08,114.696"/></g><g fill="#fff"><rect x="220.218" y="121.873" transform="matrix(.707 .707 -.707 .707 152.688 -123.061)" width="9.334" height="1.795"/><polygon points="227.54,113.446 224.11,117.017 225.41,118.267 228.83,114.696"/></g><g fill="#fff"><polygon points="267.237,142.914 268.487,144.203 264.917,147.624 263.667,146.333"/><polygon points="263.106,149.523 261.827,150.793 255.228,144.193 256.507,142.923"/></g><g fill="#fff"><polygon points="256.478,180.793 255.228,179.504 258.798,176.083 260.048,177.374"/><polygon points="260.608,174.184 261.888,172.914 268.487,179.514 267.208,180.784"/></g><g fill="#CA3743"><path d="M135.682 190.891v1.297h-6.451v3.681h6.013v1.297h-6.013v4.003h6.5v1.296h-8.039v-11.571h7.99v-.003zM137.854 190.891v11.572h-1.378v-11.572h1.378zM144.952 201.93c-.627.475-1.416.713-2.366.713-.67 0-1.251-.107-1.742-.324-.492-.217-.905-.52-1.24-.907s-.586-.854-.753-1.396c-.168-.539-.262-1.129-.284-1.767 0-.638.097-1.222.292-1.75.195-.529.467-.989.819-1.377.351-.39.767-.69 1.248-.908.48-.216 1.007-.323 1.58-.323.746 0 1.364.153 1.855.461.491.31.886.7 1.184 1.176.297.477.502.994.616 1.557.113.562.158 1.098.138 1.604h-6.272c-.011.367.033.715.13 1.045.097.328.254.621.47.875s.492.457.827.607c.335.151.729.227 1.183.227.583 0 1.062-.135 1.435-.403.373-.271.618-.683.737-1.231h1.361c-.187.937-.591 1.644-1.218 2.121zm-.332-5.382c-.125-.292-.292-.543-.502-.754-.211-.21-.459-.378-.746-.502s-.603-.187-.948-.187c-.356 0-.678.062-.964.187-.287.125-.532.294-.737.511-.206.217-.368.467-.486.754-.119.286-.189.592-.211.916h4.814c-.023-.327-.096-.634-.22-.925zM148.047 194.084v1.232h.032c.626-.951 1.529-1.426 2.707-1.426.52 0 .988.106 1.41.322.421.217.719.583.892 1.104.281-.455.651-.806 1.11-1.056.459-.247.964-.372 1.515-.372.421 0 .802.047 1.144.139.34.092.631.233.875.43.242.193.433.445.566.753.135.308.203.679.203 1.11v6.143h-1.377v-5.494c0-.259-.021-.502-.064-.729s-.125-.424-.244-.592-.282-.301-.494-.397c-.211-.097-.482-.146-.816-.146-.681 0-1.216.193-1.604.582-.391.39-.584.908-.584 1.557v5.219h-1.377v-5.494c0-.27-.023-.519-.072-.746-.049-.227-.133-.424-.251-.592-.119-.167-.278-.297-.478-.389-.201-.092-.457-.139-.771-.139-.4 0-.743.082-1.029.244-.287.16-.52.355-.695.582-.18.228-.31.463-.391.704-.081.243-.122.446-.122.608v5.219h-1.378v-8.379l1.293.003zM165.535 201.93c-.627.475-1.416.713-2.366.713-.67 0-1.251-.107-1.742-.324-.492-.217-.904-.52-1.24-.907-.334-.39-.586-.854-.752-1.396-.168-.539-.263-1.129-.285-1.767 0-.638.099-1.222.293-1.75.195-.529.468-.989.818-1.377.352-.39.768-.69 1.248-.908.48-.216 1.008-.323 1.58-.323.746 0 1.364.153 1.855.461.49.31.886.7 1.184 1.176.297.477.502.994.616 1.557.112.562.159 1.098.138 1.604h-6.271c-.012.367.033.715.131 1.045.097.328.254.621.47.875s.492.457.827.607c.335.151.729.227 1.184.227.584 0 1.062-.135 1.436-.403s.617-.683.736-1.231h1.36c-.188.937-.593 1.644-1.22 2.121zm-.332-5.382c-.125-.292-.292-.543-.502-.754-.211-.21-.459-.378-.746-.502s-.603-.187-.948-.187c-.355 0-.678.062-.964.187-.287.125-.532.294-.737.511s-.367.467-.486.754c-.117.286-.188.592-.211.916h4.814c-.024-.327-.096-.634-.22-.925zM168.631 194.084v1.329h.032c.572-1.017 1.48-1.522 2.723-1.522.551 0 1.01.075 1.377.228.367.149.666.36.894.632.227.271.386.592.478.964.094.373.139.786.139 1.24v5.511h-1.377v-5.673c0-.521-.151-.931-.453-1.229-.303-.304-.719-.455-1.248-.455-.422 0-.786.064-1.094.194-.31.13-.565.313-.771.552-.206.237-.357.517-.462.836-.104.317-.154.666-.154 1.045v4.73h-1.378v-8.379l1.294-.003zM178.955 194.084v1.216h-1.669v5.203c0 .162.014.292.041.39s.078.172.154.228c.076.054.181.089.314.104.137.017.312.023.525.023h.633v1.215h-1.055c-.355 0-.662-.023-.916-.072-.254-.05-.459-.139-.615-.269-.157-.13-.271-.313-.35-.552-.076-.236-.112-.551-.112-.939v-5.331h-1.427v-1.216h1.427v-2.512h1.377v2.512h1.673zM188.338 190.891c1.167 0 2.05.301 2.649.899.601.601.9 1.44.9 2.521 0 1.082-.301 1.924-.9 2.528s-1.482.902-2.649.892h-3.532v4.732h-1.541v-11.572h5.073zm-.519 5.543c.875.012 1.517-.166 1.922-.535.404-.365.607-.896.607-1.588 0-.689-.203-1.218-.607-1.58-.405-.36-1.045-.543-1.922-.543h-3.014v4.246h3.014zM192.649 192.577v-1.687h1.379v1.687h-1.379zm1.379 1.507v8.379h-1.379v-8.379h1.379zM200.202 195.543c-.346-.292-.811-.438-1.395-.438-.496 0-.912.092-1.248.274-.334.185-.604.429-.804.729-.198.304-.343.65-.429 1.045-.087.396-.131.803-.131 1.225 0 .389.047.768.139 1.135.094.367.234.694.432.98.192.287.446.516.762.689.312.172.686.258 1.117.258.682 0 1.213-.178 1.598-.534.383-.356.617-.859.705-1.507h1.41c-.152 1.037-.539 1.836-1.159 2.396-.621.562-1.468.844-2.536.844-.639 0-1.202-.104-1.693-.309-.492-.205-.902-.497-1.232-.875-.329-.378-.577-.829-.745-1.354-.167-.523-.251-1.1-.251-1.727 0-.626.08-1.212.242-1.758.162-.545.408-1.021.736-1.428.329-.403.743-.724 1.24-.955s1.075-.35 1.734-.35c.476 0 .921.057 1.336.17.416.114.785.291 1.104.527.318.238.581.538.786.898.206.362.335.793.39 1.289h-1.427c-.109-.522-.335-.933-.681-1.224zM206.507 194.084v1.216h-1.669v5.203c0 .162.015.292.041.39s.078.172.154.228c.075.054.181.089.315.104.135.017.312.023.525.023h.632v1.215h-1.054c-.355 0-.662-.023-.916-.072-.254-.05-.459-.139-.616-.269-.155-.13-.272-.313-.351-.552-.074-.236-.111-.551-.111-.939v-5.331h-1.426v-1.216h1.426v-2.512h1.377v2.512h1.673zM212.698 202.463v-1.329h-.032c-.292.519-.665.899-1.118 1.144-.453.242-.988.365-1.604.365-.551 0-1.012-.074-1.379-.22-.366-.146-.664-.354-.892-.624s-.387-.591-.479-.964c-.092-.373-.139-.786-.139-1.239v-5.512h1.379v5.673c0 .519.15.929.453 1.231.303.302.719.453 1.248.453.422 0 .786-.064 1.094-.193.31-.13.564-.312.771-.551.207-.239.357-.516.462-.834s.154-.668.154-1.045v-4.733h1.377v8.379l-1.295-.001zM216.344 194.084v1.768h.033c.334-.682.745-1.184 1.231-1.508s1.102-.475 1.848-.453v1.457c-.551 0-1.021.076-1.41.229s-.701.373-.939.665c-.237.292-.412.646-.52 1.062s-.162.895-.162 1.436v3.729h-1.377v-8.379h1.297l-.001-.006zM225.162 201.93c-.627.475-1.416.713-2.366.713-.67 0-1.251-.107-1.742-.324-.492-.217-.904-.52-1.24-.907-.334-.39-.586-.854-.752-1.396-.168-.539-.263-1.129-.285-1.767 0-.638.099-1.222.293-1.75.195-.529.468-.989.818-1.377.353-.39.768-.69 1.248-.908.48-.216 1.008-.323 1.58-.323.746 0 1.364.153 1.855.461.49.31.886.7 1.184 1.176.297.477.502.994.616 1.557.112.562.159 1.098.138 1.604h-6.271c-.012.367.033.715.131 1.045.097.328.254.621.47.875.218.254.492.457.827.607.335.151.729.227 1.184.227.584 0 1.062-.135 1.436-.403s.617-.683.736-1.231h1.36c-.19.937-.594 1.644-1.22 2.121zm-.332-5.382c-.125-.292-.292-.543-.502-.754-.211-.21-.459-.378-.746-.502s-.603-.187-.948-.187c-.355 0-.678.062-.964.187-.287.125-.532.294-.737.511s-.367.467-.486.754c-.117.286-.188.592-.211.916h4.814c-.024-.327-.096-.634-.22-.925zM228.015 200.591c.129.211.299.378.51.502.211.125.447.214.713.269s.537.08.818.08c.215 0 .442-.016.68-.049.238-.031.457-.091.658-.178.199-.086.363-.213.494-.381.129-.168.193-.381.193-.641 0-.355-.135-.625-.405-.812-.271-.184-.606-.332-1.013-.444-.405-.113-.846-.215-1.321-.309-.476-.092-.916-.221-1.321-.389-.403-.167-.742-.402-1.013-.705s-.405-.725-.405-1.266c0-.42.097-.783.285-1.086.188-.302.432-.547.729-.735.297-.189.632-.33 1.005-.423.373-.092.743-.137 1.109-.137.477 0 .912.041 1.312.121.398.081.753.223 1.062.422.308.199.554.469.735.812.185.34.292.764.324 1.271h-1.377c-.021-.27-.093-.494-.211-.672-.119-.178-.271-.32-.454-.43-.186-.107-.389-.188-.607-.234-.223-.05-.445-.074-.673-.074-.204 0-.413.019-.622.049-.212.033-.404.091-.576.172-.174.081-.313.188-.422.322-.107.137-.162.312-.162.527 0 .238.084.436.252.592.166.157.381.287.64.391.259.103.551.188.875.259l.973.219c.347.076.683.167 1.013.275.33.106.621.251.875.429.254.18.459.403.617.673.156.271.234.605.234 1.007 0 .508-.105.928-.316 1.264-.209.335-.484.604-.826.811-.34.205-.724.348-1.149.43-.429.08-.853.121-1.271.121-.465 0-.908-.047-1.33-.146-.42-.097-.793-.256-1.117-.478-.324-.223-.584-.515-.778-.875-.194-.362-.303-.804-.323-1.321h1.377c.007.3.078.557.209.767z"/></g><g fill="#CA3743"><rect x="103.906" y="190.875" width="9.458" height="2.458"/><polygon points="119.74,195.458 103.906,195.458 103.906,197.917 119.74,197.917 119.74,200.166 103.906,200.166 103.906,202.625 113.031,202.625 113.031,207.291 115.49,207.291 115.49,202.625 119.74,202.625 122.198,202.625 122.198,200.166 122.198,197.917 122.198,195.458"/></g><path fill="#B1B1BB" d="M87.497 191.498l.007.005-.007-.005"/><polyline fill="#B1B1BB" points="90.12,184.921 82.833,196.936 84.91,198.079 92.167,186.105 90.12,184.921"/></svg>