<svg version="1" xmlns="http://www.w3.org/2000/svg" width="300" height="5800" viewBox="1059.292 -2423.75 300 5800" enable-background="new 1059.292 -2423.75 300 5800"><g><polygon fill="#3D4154" stroke="#3D4154" stroke-width=".211" stroke-miterlimit="10" points="1271.241,-2331.324 1271.241,-2323.073 1272.366,-2323.073 1272.366,-2338.906 1271.241,-2338.906"/><polygon fill="#3D4154" stroke="#3D4154" stroke-width=".211" stroke-miterlimit="10" points="1347.042,-2339.046 1345.919,-2339.046 1338.62,-2323.073 1339.823,-2323.073 1346.46,-2337.754 1350.583,-2328.563 1344.122,-2328.563 1343.636,-2327.507 1351.075,-2327.507 1353.071,-2323.073 1354.347,-2323.073"/><g fill="#3D4154" stroke="#3D4154" stroke-width=".211" stroke-miterlimit="10"><polygon points="1311.487,-2338.906 1307.343,-2338.906 1303.114,-2338.906 1303.114,-2337.85 1311.487,-2337.85"/><polygon points="1310.431,-2330.533 1310.431,-2331.587 1306.716,-2331.587 1303.114,-2331.587 1303.114,-2330.533"/><polygon points="1303.114,-2324.129 1303.114,-2323.073 1311.556,-2323.073 1311.556,-2324.129 1307.237,-2324.129"/></g><g fill="#3D4154" stroke="#3D4154" stroke-width=".211" stroke-miterlimit="10"><polygon points="1319.015,-2338.906 1317.888,-2338.906 1317.888,-2323.073 1319.015,-2323.073 1319.015,-2330.966"/><polygon points="1329.991,-2336.62 1325.22,-2329.523 1320.423,-2336.62 1320.423,-2334.658 1325.22,-2327.629 1329.991,-2334.658"/></g><g fill="#3D4154" stroke="#3D4154" stroke-width=".211" stroke-miterlimit="10"><polygon points="1293.192,-2325.896 1293.192,-2338.906 1292.067,-2338.906 1292.067,-2333.198 1292.067,-2327.329"/><polygon points="1291.958,-2323.073 1293.29,-2323.073 1280.847,-2338.906 1279.54,-2338.906"/><polygon points="1279.614,-2336.104 1279.614,-2323.073 1280.739,-2323.073 1280.739,-2329.091 1280.739,-2334.67"/></g><polygon fill="#3D4154" stroke="#3D4154" stroke-width=".211" stroke-miterlimit="10" points="1332.737,-2338.906 1331.61,-2338.906 1331.61,-2323.073 1332.737,-2323.073 1332.737,-2330.966"/><polygon fill="#3D4154" stroke="#3D4154" stroke-width=".211" stroke-miterlimit="10" points="1301.284,-2338.906 1300.159,-2338.906 1300.159,-2323.073 1301.284,-2323.073 1301.284,-2330.966"/><g fill="#3D4154" stroke="#3D4154" stroke-width=".211" stroke-miterlimit="10"><path d="M1258.716-2338.085c2.039.156 3.441 1.087 4.686 2.303l.822-.859c-1.494-1.387-3.047-2.381-5.508-2.52v1.076zM1263.536-2326.307c-1.443 1.443-2.85 2.304-4.82 2.443v1.067c2.463-.158 4.072-1.217 5.604-2.74l-.784-.77z"/></g><path fill="#3D4154" d="M1256.89-2323.931c-3.188-.549-5.527-3.522-5.527-7.09 0-3.565 2.314-6.476 5.527-7.002v-1.079c-3.949.546-6.736 3.891-6.736 8.127 0 4.237 2.805 7.616 6.736 8.136v-1.092z"/><path stroke="#3D4154" stroke-width=".2" stroke-miterlimit="10" d="M1256.89-2323.931c-3.188-.549-5.527-3.522-5.527-7.09 0-3.565 2.314-6.476 5.527-7.002v-1.079c-3.949.546-6.736 3.891-6.736 8.127 0 4.237 2.805 7.616 6.736 8.136v-1.092z" fill="none"/><g fill="#3D4154" stroke="#3D4154" stroke-width=".211" stroke-miterlimit="10"><polygon points="1067.403,-2339.258 1064.237,-2339.258 1064.237,-2322.441 1076.128,-2322.441 1076.128,-2325.596 1067.403,-2325.596"/><rect x="1080.741" y="-2339.258" width="3.367" height="16.817"/><path d="M1097.587-2329.124h4.225v2.824c-1.057.754-2.416 1.184-3.83 1.184-3.23 0-5.459-2.371-5.459-5.769v-.047c0-3.142 2.346-5.698 5.227-5.698 2.076 0 3.309.695 4.535 1.74l.111.091 2.027-2.414-.107-.091c-1.91-1.619-3.781-2.28-6.451-2.28-2.41 0-4.646.918-6.258 2.585-1.57 1.623-2.461 3.794-2.461 6.114v.048c0 2.404.875 4.593 2.414 6.162 1.6 1.627 3.807 2.487 6.35 2.487 3.256 0 5.578-1.419 6.971-2.61l.027-.041v-7.101h-7.318l-.003 2.816z"/><polygon points="1121.019,-2332.362 1113.419,-2332.362 1113.419,-2339.258 1110.183,-2339.258 1110.183,-2322.441 1113.419,-2322.441 1113.419,-2329.407 1121.019,-2329.407 1121.019,-2322.441 1124.185,-2322.441 1124.185,-2339.258 1121.019,-2339.258"/><polygon points="1128.757,-2336.302 1134.036,-2336.302 1134.036,-2322.441 1137.202,-2322.441 1137.202,-2336.302 1142.479,-2336.302 1142.479,-2339.258 1128.757,-2339.258"/><polygon points="1161.405,-2332.362 1153.806,-2332.362 1153.806,-2339.258 1150.569,-2339.258 1150.569,-2322.441 1153.806,-2322.441 1153.806,-2329.407 1161.405,-2329.407 1161.405,-2322.441 1164.573,-2322.441 1164.573,-2339.258 1161.405,-2339.258"/><path d="M1187.157-2330.885v-.047c0-2.33-.855-4.497-2.436-6.1-1.475-1.497-3.475-2.383-5.656-2.528v-25.239h-1.055v25.225c-2.041.082-3.9.795-5.379 2.043l-17.584-17.789-.732.742 17.553 17.773c-1.473 1.595-2.299 3.686-2.299 5.919v.048c0 2.33.881 4.496 2.459 6.1 1.543 1.566 3.662 2.463 5.982 2.543v25.436h1.057v-25.453c1.898-.14 3.75-.867 5.166-2.094l17.818 18.025.738-.752-17.822-18.01c1.429-1.585 2.19-3.645 2.19-5.842zm-12.371-4.422c.369-.316.787-.587 1.229-.803.705-.334 1.486-.52 2.338-.52 3.127 0 5.5 2.471 5.5 5.746v.048c0 3.247-2.365 5.697-5.467 5.697-3.127 0-5.512-2.469-5.512-5.745v-.047c0-1.797.742-3.348 1.912-4.376zM1203.2-2329.632c0 2.881-1.441 4.469-4.033 4.469-2.57 0-4.057-1.673-4.057-4.587v-9.508h-3.166v9.626c0 2.385.662 4.248 1.955 5.539 1.234 1.23 3.023 1.883 5.215 1.883 4.611 0 7.252-2.758 7.252-7.564v-9.483h-3.166v9.625zM1222.423-2330.603c-.854-.728-2.158-1.282-4.055-1.743-3.24-.774-3.84-1.318-3.84-2.463v-.048c0-1.089 1.059-1.822 2.586-1.822 1.457 0 2.92.548 4.43 1.674l.121.087 1.723-2.425-.104-.083c-1.771-1.421-3.762-2.111-6.092-2.111-1.629 0-3.121.486-4.166 1.369-1.061.894-1.664 2.162-1.664 3.571v.047c0 1.513.484 2.595 1.5 3.404.852.679 2.068 1.179 4.117 1.673 3.082.711 3.604 1.339 3.604 2.393v.047c0 1.178-1.062 1.939-2.76 1.939-1.857 0-3.416-.652-5.105-2.115l-.104-.095-1.926 2.294.104.092c1.967 1.755 4.373 2.683 6.982 2.683 3.676 0 6.043-1.994 6.043-5.081v-.047c0-1.376-.455-2.437-1.394-3.24z"/><polygon points="1231.909,-2325.325 1231.909,-2329.478 1240.21,-2329.478 1240.21,-2332.362 1231.909,-2332.362 1231.909,-2336.374 1241.265,-2336.374 1241.265,-2339.258 1228.743,-2339.258 1228.743,-2322.441 1241.407,-2322.441 1241.407,-2325.325"/></g><g fill="#fff"><polygon points="1203.912,-2119.624 1202.662,-2120.913 1206.232,-2124.333 1207.482,-2123.042"/><polygon points="1208.043,-2126.233 1209.322,-2127.502 1215.922,-2120.903 1214.643,-2119.632"/></g><g fill="#fff"><polygon points="1205.353,-1927.943 1206.642,-1929.193 1210.062,-1925.623 1208.771,-1924.373"/><polygon points="1211.962,-1923.812 1213.231,-1922.533 1206.632,-1915.933 1205.361,-1917.212"/></g><g fill="#fff"><polygon points="1331.842,-1527.881 1333.131,-1529.131 1336.552,-1525.561 1335.261,-1524.311"/><polygon points="1338.451,-1523.75 1339.721,-1522.471 1333.121,-1515.871 1331.851,-1517.15"/></g><g fill="#fff"><polygon points="1213.23,-1717.144 1211.941,-1715.894 1208.521,-1719.464 1209.812,-1720.714"/><polygon points="1206.621,-1721.274 1205.352,-1722.554 1211.951,-1729.153 1213.222,-1727.874"/></g><g fill="#3B3D54" opacity=".5"><path d="M1074.249-927.803v.913c1.525.001 2.9.616 3.9 1.616 1 1.002 1.615 2.375 1.615 3.903 0 1.527-.613 2.899-1.615 3.901-1 1-2.373 1.615-3.9 1.616-1.529-.001-2.904-.616-3.904-1.616-1.002-1.002-1.615-2.374-1.615-3.901 0-1.526.615-2.901 1.615-3.903 1-1 2.375-1.615 3.904-1.616v-1.8250000000000002c-4.059 0-7.348 3.287-7.348 7.345s3.289 7.345 7.348 7.345c4.057 0 7.344-3.287 7.344-7.345s-3.287-7.345-7.344-7.345v.912zM1072.937-924.063v3.312c0 .299.146.581.395.751l2.344 1.621c.416.287.984.182 1.271-.232.287-.416.184-.984-.232-1.271l-1.949-1.349v-2.832c0-.502-.41-.912-.914-.912s-.915.41-.915.912z"/></g><g fill="#fff"><path d="M1074.249-528.238v.913c1.525.001 2.9.616 3.9 1.616 1 1.002 1.615 2.375 1.615 3.903 0 1.527-.613 2.899-1.615 3.901-1 1-2.373 1.615-3.9 1.616-1.529-.001-2.904-.616-3.904-1.616-1.002-1.002-1.615-2.374-1.615-3.901 0-1.526.615-2.901 1.615-3.903 1-1 2.375-1.615 3.904-1.616v-1.8250000000000002c-4.059 0-7.348 3.287-7.348 7.345s3.289 7.345 7.348 7.345c4.057 0 7.344-3.287 7.344-7.345s-3.287-7.345-7.344-7.345v.912zM1072.937-524.498v3.312c0 .299.146.581.395.751l2.344 1.621c.416.287.984.182 1.271-.232.287-.416.184-.984-.232-1.271l-1.949-1.349v-2.832c0-.502-.41-.912-.914-.912s-.915.41-.915.912z"/></g><g opacity=".5" fill="#3B3D54"><circle cx="1072.937" cy="-1327.408" r="1.435"/><circle cx="1071.912" cy="-1321.761" r="1.435"/><circle cx="1069.603" cy="-1325.098" r="1.435"/><circle cx="1072.427" cy="-1324.585" r=".797"/><circle cx="1075.248" cy="-1324.072" r="1.435"/><path d="M1083.666-1331.028c.005-.438-.343-.799-.78-.806-1.813-.028-3.412 1.095-4.229 2.757-1.119-1.505-2.789-2.607-4.783-2.97-4.17-.758-8.165 2.007-8.922 6.177-.757 4.169 2.011 8.162 6.18 8.919 4.168.757 8.161-2.007 8.918-6.176.254-1.392.111-2.764-.342-4.003.236-1.781 1.568-3.144 3.152-3.119.439.008.798-.341.806-.779zm-7.883 11.268c-1.216.841-2.74 1.217-4.31.932-1.572-.284-2.869-1.174-3.711-2.388-.844-1.218-1.219-2.742-.935-4.312.285-1.568 1.175-2.865 2.392-3.711 1.215-.839 2.74-1.215 4.312-.93 1.566.285 2.863 1.174 3.707 2.389.84 1.217 1.218 2.742.933 4.312-.283 1.57-1.17 2.866-2.388 3.708z"/></g><path fill="#3B3D54" d="M1081.186-1119.607v-6.2c0-.391.041-.825-.043-1.16-.057-.227-.145-.471-.248-.665-.547-1.011-1.512-1.28-3.1-1.263l-.02-.031-.013-.363c0-.447-.018-.766-.258-.963-.438-.359-1.16-.154-1.308.342-.075.257.052.723-.041.974l-.012.031-3.762.011-.021-.031-.01-.809c-.104-.436-.34-.723-.881-.715l-.311.093c-.523.267-.336.753-.416 1.44-.08.037-.238.021-.352.021-.326 0-.656-.035-.953.031-.646.145-1.259.428-1.586.891-.199.281-.39.607-.478.996-.142.602-.054 1.488-.054 2.207v4.986c0 1.292-.059 2.292.445 3.067.293.451.795.865 1.357 1.037.639.193 1.609.115 2.416.115h6.52l.922-.021c1.056-.25 1.83-.863 2.105-1.876.167-.582.102-1.426.102-2.145zm-1.598-3.526v4.137c0 .854.008 1.5-.486 1.846-.387.269-1.67.145-2.322.145h-6.487c-.248 0-.543.025-.716-.052-.674-.298-.643-1.065-.643-2.032v-4.417l.041-.051 10.594.01c.04.094.019.285.019.414zm0-2.041c-.166.074-.676.02-.9.02h-9.733l-.021-.029v-.664c0-.775.019-1.312.57-1.543l.33-.062h.902c.031.088.021.24.021.361 0 .382.045.648.258.809.479.357 1.082.168 1.298-.311.088-.199.045-.576.041-.84.198-.09.842-.02 1.108-.02h2.674l.021.029c.101.273-.051.662.093.924.313.57 1.176.512 1.45-.053.109-.221-.024-.604.074-.871.041-.053.793-.037.912-.021 1.08.16.918 1.072.902 2.271z" opacity=".5"/><path fill="#3D4154" d="M1105.874-730.496c-.926.409-1.924.688-2.967.815 1.068-.639 1.887-1.651 2.269-2.858-.993.592-2.102 1.02-3.276 1.255-.943-1.006-2.287-1.633-3.773-1.633-2.852 0-5.163 2.312-5.163 5.166 0 .402.044.798.129 1.179-4.291-.219-8.1-2.276-10.647-5.397-.443.76-.697 1.65-.697 2.596 0 1.793.912 3.372 2.301 4.3-.849-.028-1.646-.259-2.343-.647v.064c0 2.503 1.779 4.591 4.143 5.068-.436.117-.89.179-1.359.179-.333 0-.657-.03-.973-.09.657 2.05 2.566 3.546 4.825 3.586-1.769 1.385-3.995 2.21-6.414 2.21-.418 0-.83-.023-1.235-.07 2.289 1.464 5.003 2.322 7.919 2.322 9.505 0 14.7-7.873 14.7-14.7l-.016-.668c1.01-.728 1.886-1.64 2.577-2.677z"/><path fill="#3D4154" d="M1182.402-715.149c0 .646-.526 1.172-1.175 1.172h-18.181c-.646 0-1.173-.526-1.173-1.172v-18.179c0-.646.527-1.173 1.173-1.173h18.181c.648 0 1.175.528 1.175 1.173v18.179z"/><path fill="#fff" d="M1173.604-715.441v-7.546h-1.996v-2.717h1.996v-2.32c0-1.825 1.178-3.499 3.894-3.499 1.101 0 1.912.105 1.912.105l-.063 2.537-1.735-.004c-.978 0-1.134.448-1.134 1.197v1.985h2.947l-.13 2.717h-2.817v7.546h-2.874z"/><g fill="#3D4154"><path d="M1332.582-724.491c0 2.526-2.049 4.575-4.575 4.575-2.525 0-4.576-2.048-4.576-4.575 0-.571.112-1.115.302-1.62h-5.608v6.814c0 2.73 2.213 4.941 4.94 4.941h9.883c2.729 0 4.945-2.21 4.945-4.941v-6.814h-5.611c.191.502.3 1.049.3 1.62z"/><circle cx="1328.007" cy="-724.49" r="2.745"/><path d="M1332.947-734.122h-9.622v5.154h-1.08v-5.079c-.375.062-.739.162-1.08.306v4.773h-1.082v-4.146c-1.188.903-1.959 2.324-1.959 3.935v1.448h6.657c.827-.825 1.968-1.334 3.226-1.334 1.262 0 2.396.509 3.226 1.334h6.66v-1.448c0-2.73-2.216-4.943-4.946-4.943zm2.209 4.674c0 .306-.248.556-.556.556h-1.666c-.306 0-.556-.25-.556-.556v-1.666c0-.305.25-.557.556-.557h1.666c.308 0 .556.251.556.557v1.666z"/></g><path fill-rule="evenodd" clip-rule="evenodd" fill="#3D4154" d="M1248.758-718.641c-.194.269-.374.402-.547.402-.114 0-.183-.067-.203-.201l-.009-.334v-3.502h-.861v3.761c0 .337.031.562.08.708.084.239.276.353.553.353.314 0 .642-.191.987-.583v.518h.86v-4.757h-.86v3.635z"/><polygon fill-rule="evenodd" clip-rule="evenodd" fill="#3D4154" points="1244.007,-723.005 1245.022,-723.005 1245.022,-717.52 1245.979,-717.52 1245.979,-723.005 1247.014,-723.005 1247.014,-723.905 1244.007,-723.905"/><path fill-rule="evenodd" clip-rule="evenodd" fill="#3D4154" d="M1252.116-722.336c-.316 0-.613.173-.89.517v-2.086h-.862v6.386h.862v-.463c.286.358.584.527.89.527.343 0 .574-.181.69-.535.057-.201.086-.518.086-.957v-1.895c0-.45-.029-.763-.086-.955-.116-.357-.347-.539-.69-.539zm-.085 3.454c0 .433-.127.643-.375.643-.144 0-.284-.067-.43-.21v-2.902c.146-.141.286-.207.43-.207.248 0 .375.219.375.648v2.028z"/><path fill-rule="evenodd" clip-rule="evenodd" fill="#3D4154" d="M1249.879-727.166c.28 0 .415-.223.415-.667v-2.023c0-.444-.135-.667-.415-.667-.281 0-.415.223-.415.667v2.023c0 .444.134.667.415.667z"/><path fill-rule="evenodd" clip-rule="evenodd" fill="#3D4154" d="M1258.079-734.122h-15.995c-1.083 0-1.964.879-1.964 1.963l-.009 15.839c0 1.084.88 1.963 1.961 1.963h15.994c1.086 0 1.966-.879 1.966-1.963l.008-15.839c0-1.084-.877-1.963-1.961-1.963zm-6.196 2.875h.867v3.538l.009.338c.021.136.089.205.207.205.171 0 .356-.134.549-.409v-3.671h.873v4.805h-.873v-.523c-.344.397-.676.59-.996.59-.276 0-.471-.114-.558-.357-.048-.144-.078-.374-.078-.714v-3.802zm-3.291 1.566c0-.515.088-.889.273-1.132.241-.329.581-.493 1.014-.493.435 0 .773.164 1.015.493.182.244.272.618.272 1.132v1.685c0 .509-.091.89-.272 1.13-.241.327-.58.491-1.015.491-.433 0-.772-.164-1.014-.491-.186-.241-.273-.622-.273-1.13v-1.685zm-2.331-3.213l.688 2.533.657-2.533h.978l-1.161 3.84v2.612h-.967v-2.612c-.088-.465-.28-1.142-.592-2.041l-.616-1.8h1.013zm10.699 15.66c-.175.758-.795 1.316-1.543 1.402-1.768.197-3.562.201-5.339.197-1.783.004-3.574 0-5.343-.197-.746-.086-1.367-.645-1.542-1.402-.248-1.08-.248-2.261-.248-3.372 0-1.112.002-2.291.252-3.371.173-.756.794-1.319 1.54-1.399 1.768-.201 3.56-.201 5.343-.201 1.782 0 3.57 0 5.34.201.749.08 1.367.643 1.542 1.399.248 1.08.248 2.259.248 3.371 0 1.111-.003 2.292-.25 3.372z"/><path fill-rule="evenodd" clip-rule="evenodd" fill="#3D4154" d="M1254.862-722.336c-.438 0-.785.161-1.032.491-.183.24-.266.61-.266 1.119v1.665c0 .506.093.883.277 1.119.247.325.591.487 1.044.487.447 0 .803-.169 1.041-.514.107-.154.17-.326.201-.517.006-.087.018-.279.018-.556v-.124h-.881c0 .345-.009.538-.02.583-.049.231-.171.345-.383.345-.295 0-.438-.218-.438-.66v-.843h1.722v-.984c0-.508-.084-.879-.267-1.119-.239-.331-.585-.492-1.016-.492zm.421 1.876h-.859v-.438c0-.441.144-.66.432-.66.285 0 .428.219.428.66v.438z"/><g fill="#030303"><path d="M1207.859-308.877c-3.532-.338-6.698-1.906-9.074-4.279-2.689-2.692-4.352-6.4-4.352-10.511 0-4.107 1.66-7.813 4.352-10.506 2.371-2.367 5.527-3.934 9.05-4.277l-.002-2.207c-8.741.742-15.606 8.055-15.606 16.99 0 8.948 6.881 16.27 15.635 16.997l-.003-2.207zM1210.834-340.652l.002 2.209c3.489.359 6.613 1.922 8.963 4.27 2.69 2.691 4.352 6.398 4.352 10.506 0 4.11-1.658 7.818-4.352 10.511-2.345 2.344-5.46 3.902-8.938 4.268l.002 2.212c8.688-.793 15.494-8.089 15.494-16.99 0-8.907-6.821-16.207-15.523-16.986z"/></g></g></svg>