<svg xmlns="http://www.w3.org/2000/svg" width="300" height="5800"><g><polygon fill="#3D4154" stroke="#3D4154" stroke-width=".211" stroke-miterlimit="10" points="211.783,33.475 211.783,41.726 212.908,41.726 212.908,25.893 211.783,25.893"/><polygon fill="#3D4154" stroke="#3D4154" stroke-width=".211" stroke-miterlimit="10" points="287.584,25.753 286.461,25.753 279.162,41.726 280.365,41.726 287.002,27.045 291.125,36.236 284.664,36.236 284.178,37.292 291.617,37.292 293.613,41.726 294.889,41.726"/><g fill="#3D4154" stroke="#3D4154" stroke-width=".211" stroke-miterlimit="10"><polygon points="252.029,25.893 247.885,25.893 243.656,25.893 243.656,26.949 252.029,26.949"/><polygon points="250.973,34.266 250.973,33.212 247.258,33.212 243.656,33.212 243.656,34.266"/><polygon points="243.656,40.67 243.656,41.726 252.098,41.726 252.098,40.67 247.779,40.67"/></g><g fill="#3D4154" stroke="#3D4154" stroke-width=".211" stroke-miterlimit="10"><polygon points="259.557,25.893 258.43,25.893 258.43,41.726 259.557,41.726 259.557,33.833"/><polygon points="270.533,28.179 265.762,35.276 260.965,28.179 260.965,30.141 265.762,37.17 270.533,30.141"/></g><g fill="#3D4154" stroke="#3D4154" stroke-width=".211" stroke-miterlimit="10"><polygon points="233.734,38.903 233.734,25.893 232.609,25.893 232.609,31.601 232.609,37.47"/><polygon points="232.5,41.726 233.832,41.726 221.389,25.893 220.082,25.893"/><polygon points="220.156,28.695 220.156,41.726 221.281,41.726 221.281,35.708 221.281,30.129"/></g><polygon fill="#3D4154" stroke="#3D4154" stroke-width=".211" stroke-miterlimit="10" points="273.279,25.893 272.152,25.893 272.152,41.726 273.279,41.726 273.279,33.833"/><polygon fill="#3D4154" stroke="#3D4154" stroke-width=".211" stroke-miterlimit="10" points="241.826,25.893 240.701,25.893 240.701,41.726 241.826,41.726 241.826,33.833"/><g fill="#3D4154" stroke="#3D4154" stroke-width=".211" stroke-miterlimit="10"><path d="M199.258 26.714c2.039.156 3.441 1.087 4.686 2.303l.822-.858c-1.494-1.387-3.047-2.381-5.508-2.521v1.076zM204.078 38.493c-1.443 1.443-2.852 2.304-4.82 2.443v1.067c2.463-.158 4.072-1.217 5.604-2.74l-.784-.77z"/></g><path fill="#3D4154" d="M197.432 40.869c-3.188-.549-5.527-3.522-5.527-7.09 0-3.565 2.314-6.476 5.527-7.002v-1.079c-3.949.546-6.736 3.891-6.736 8.127 0 4.237 2.806 7.616 6.736 8.136v-1.092z"/><path stroke="#3D4154" stroke-width=".2" stroke-miterlimit="10" d="M197.432 40.869c-3.188-.549-5.527-3.522-5.527-7.09 0-3.565 2.314-6.476 5.527-7.002v-1.079c-3.949.546-6.736 3.891-6.736 8.127 0 4.237 2.806 7.616 6.736 8.136v-1.092z" fill="none"/><g fill="#3D4154" stroke="#3D4154" stroke-width=".211" stroke-miterlimit="10"><polygon points="7.945,25.542 4.779,25.542 4.779,42.358 16.67,42.358 16.67,39.204 7.945,39.204"/><rect x="21.283" y="25.542" width="3.365" height="16.816"/><path d="M38.129 35.675h4.225v2.825c-1.057.754-2.416 1.184-3.83 1.184-3.23 0-5.459-2.371-5.459-5.769v-.047c0-3.142 2.346-5.698 5.227-5.698 2.076 0 3.309.695 4.535 1.74l.111.09 2.027-2.414-.107-.091c-1.91-1.619-3.781-2.28-6.451-2.28-2.41 0-4.646.918-6.258 2.585-1.57 1.623-2.461 3.794-2.461 6.114v.048c0 2.404.875 4.593 2.414 6.162 1.6 1.627 3.807 2.487 6.35 2.487 3.256 0 5.578-1.419 6.971-2.61l.027-.041v-7.102h-7.318l-.003 2.817z"/><polygon points="61.561,32.437 53.961,32.437 53.961,25.542 50.725,25.542 50.725,42.358 53.961,42.358 53.961,35.392 61.561,35.392 61.561,42.358 64.727,42.358 64.727,25.542 61.561,25.542"/><polygon points="69.299,28.498 74.578,28.498 74.578,42.358 77.744,42.358 77.744,28.498 83.02,28.498 83.02,25.542 69.299,25.542"/><polygon points="101.947,32.437 94.348,32.437 94.348,25.542 91.111,25.542 91.111,42.358 94.348,42.358 94.348,35.392 101.947,35.392 101.947,42.358 105.115,42.358 105.115,25.542 101.947,25.542"/><path d="M127.699 33.915v-.047c0-2.33-.855-4.497-2.438-6.1-1.475-1.497-3.475-2.383-5.656-2.528v-25.24h-1.055v25.225c-2.041.082-3.9.795-5.379 2.043l-17.583-17.789-.732.742 17.555 17.772c-1.475 1.595-2.301 3.687-2.301 5.919v.048c0 2.33.883 4.496 2.459 6.1 1.543 1.566 3.662 2.463 5.982 2.543v25.437h1.057v-25.453c1.898-.14 3.75-.867 5.166-2.094l17.818 18.025.738-.752-17.822-18.01c1.43-1.585 2.191-3.645 2.191-5.841zm-12.371-4.422c.369-.316.787-.587 1.229-.803.705-.334 1.486-.52 2.338-.52 3.127 0 5.5 2.471 5.5 5.746v.048c0 3.247-2.365 5.697-5.467 5.697-3.127 0-5.512-2.469-5.512-5.745v-.047c0-1.798.742-3.349 1.912-4.376zM143.742 35.167c0 2.881-1.441 4.469-4.033 4.469-2.57 0-4.057-1.673-4.057-4.587v-9.508h-3.166v9.626c0 2.385.66 4.248 1.953 5.539 1.234 1.229 3.023 1.883 5.217 1.883 4.609 0 7.252-2.758 7.252-7.564v-9.483h-3.166v9.625zM162.965 34.196c-.854-.728-2.158-1.282-4.055-1.743-3.24-.774-3.84-1.318-3.84-2.463v-.048c0-1.089 1.059-1.822 2.586-1.822 1.457 0 2.92.548 4.43 1.674l.121.087 1.723-2.425-.104-.083c-1.771-1.421-3.762-2.111-6.092-2.111-1.631 0-3.121.486-4.166 1.369-1.062.894-1.664 2.162-1.664 3.571v.047c0 1.513.482 2.595 1.5 3.404.852.679 2.066 1.179 4.115 1.673 3.082.711 3.604 1.339 3.604 2.393v.047c0 1.178-1.062 1.939-2.76 1.939-1.857 0-3.416-.652-5.105-2.115l-.104-.095-1.928 2.294.105.092c1.967 1.755 4.373 2.684 6.982 2.684 3.676 0 6.043-1.994 6.043-5.081v-.047c.003-1.377-.452-2.437-1.391-3.241z"/><polygon points="172.451,39.474 172.451,35.321 180.752,35.321 180.752,32.437 172.451,32.437 172.451,28.425 181.807,28.425 181.807,25.542 169.285,25.542 169.285,42.358 181.949,42.358 181.949,39.474"/></g><g fill="#fff"><polygon points="144.453,245.175 143.203,243.886 146.773,240.466 148.023,241.757"/><polygon points="148.584,238.566 149.863,237.297 156.463,243.896 155.184,245.167"/></g><g fill="#fff"><polygon points="145.895,436.856 147.184,435.606 150.604,439.176 149.312,440.426"/><polygon points="152.504,440.987 153.771,442.266 147.174,448.866 145.902,447.587"/></g><g fill="#fff"><polygon points="272.383,836.918 273.672,835.668 277.094,839.238 275.803,840.488"/><polygon points="278.992,841.049 280.262,842.329 273.662,848.928 272.393,847.649"/></g><g><polygon points="10.559,836.918 11.848,835.668 15.27,839.238 13.979,840.488"/><polygon points="17.168,841.049 18.438,842.329 11.838,848.928 10.568,847.649"/></g><g fill="#fff"><polygon points="153.771,647.655 152.482,648.905 149.062,645.335 150.354,644.085"/><polygon points="147.162,643.525 145.893,642.246 152.492,635.646 153.764,636.925"/></g><g fill="#3B3D54" opacity=".5"><path d="M14.791 1436.997v.913c1.525.001 2.9.615 3.9 1.615 1 1.002 1.613 2.375 1.613 3.903 0 1.527-.611 2.899-1.613 3.901-1 1-2.373 1.615-3.9 1.615-1.529 0-2.904-.615-3.904-1.615-1.002-1.002-1.615-2.374-1.615-3.901 0-1.526.615-2.901 1.615-3.903 1-1 2.375-1.614 3.904-1.615v-1.8250000000000002c-4.059 0-7.348 3.287-7.348 7.345 0 4.059 3.287 7.346 7.348 7.346 4.057 0 7.344-3.287 7.344-7.346 0-4.058-3.287-7.345-7.344-7.345v.912zM13.479 1440.736v3.312c0 .299.146.581.395.751l2.344 1.621c.416.287.984.182 1.271-.232.287-.416.184-.982-.232-1.271l-1.949-1.349v-2.832c0-.502-.41-.912-.914-.912s-.915.41-.915.912z"/></g><g fill="#fff"><path d="M14.791 1836.561v.913c1.525.001 2.9.616 3.9 1.616 1 1.002 1.613 2.375 1.613 3.903 0 1.526-.611 2.897-1.613 3.9-1 1-2.373 1.615-3.9 1.616-1.529-.001-2.904-.616-3.904-1.616-1.002-1.002-1.615-2.374-1.615-3.9s.615-2.901 1.615-3.903c1-1 2.375-1.615 3.904-1.616v-1.824c-4.059 0-7.348 3.286-7.348 7.345 0 4.058 3.287 7.345 7.348 7.345 4.057 0 7.344-3.287 7.344-7.345 0-4.059-3.287-7.345-7.344-7.345v.911zM13.479 1840.301v3.312c0 .299.146.581.395.751l2.344 1.621c.416.286.984.182 1.271-.232.287-.416.184-.984-.232-1.271l-1.949-1.35v-2.832c0-.502-.41-.912-.914-.912s-.915.411-.915.913z"/></g><g opacity=".5" fill="#3B3D54"><circle cx="13.479" cy="1037.392" r="1.435"/><circle cx="12.453" cy="1043.038" r="1.435"/><circle cx="10.145" cy="1039.701" r="1.435"/><circle cx="12.969" cy="1040.214" r=".797"/><circle cx="15.789" cy="1040.728" r="1.435"/><path d="M24.207 1033.771c.006-.438-.342-.8-.779-.807-1.812-.027-3.412 1.095-4.229 2.757-1.119-1.505-2.789-2.606-4.783-2.97-4.17-.758-8.166 2.007-8.922 6.177-.758 4.169 2.01 8.162 6.18 8.919 4.168.757 8.16-2.007 8.918-6.176.254-1.392.111-2.764-.342-4.003.236-1.781 1.568-3.146 3.152-3.119.438.009.797-.34.805-.778zm-7.883 11.269c-1.215.841-2.74 1.217-4.311.932-1.572-.284-2.869-1.174-3.711-2.388-.844-1.218-1.219-2.742-.934-4.312.283-1.568 1.174-2.865 2.391-3.712 1.215-.839 2.74-1.215 4.312-.93 1.566.285 2.863 1.174 3.707 2.389.84 1.218 1.219 2.742.934 4.312-.282 1.57-1.169 2.866-2.388 3.709z"/></g><path fill="#3B3D54" d="M21.727 1245.192v-6.2c0-.391.041-.825-.043-1.16-.057-.229-.145-.471-.248-.665-.547-1.011-1.512-1.28-3.1-1.263l-.02-.031-.014-.363c0-.447-.018-.766-.258-.963-.438-.359-1.16-.154-1.307.342-.076.258.051.724-.041.975l-.014.031-3.762.011-.02-.031-.012-.809c-.104-.437-.34-.724-.881-.716l-.311.094c-.523.267-.336.753-.416 1.439-.08.037-.238.021-.352.021-.326 0-.656-.035-.953.031-.646.146-1.26.428-1.586.891-.199.281-.391.607-.479.996-.143.602-.053 1.488-.053 2.207v4.985c0 1.292-.061 2.292.443 3.067.293.451.795.865 1.357 1.037.639.193 1.609.115 2.416.115h6.52l.922-.021c1.057-.25 1.83-.863 2.105-1.876.173-.581.107-1.424.107-2.144zm-1.598-3.525v4.137c0 .854.008 1.5-.486 1.847-.387.27-1.67.146-2.32.146h-6.488c-.248 0-.543.025-.715-.052-.674-.298-.645-1.065-.645-2.032v-4.417l.041-.051 10.596.01c.038.091.017.283.017.412zm0-2.042c-.166.074-.676.02-.9.02h-9.733l-.021-.028v-.664c0-.775.02-1.312.57-1.543l.33-.062h.902c.031.089.021.24.021.361 0 .382.045.647.258.809.479.357 1.082.168 1.297-.311.088-.199.045-.576.041-.84.199-.09.844-.021 1.109-.021h2.674l.021.029c.1.273-.053.662.092.924.312.57 1.176.512 1.451-.053l.072-.871c.041-.053.793-.037.912-.021 1.082.16.92 1.072.904 2.271z" opacity=".5"/><path fill="#3D4154" d="M46.416 1634.303c-.926.409-1.924.688-2.967.815 1.066-.64 1.887-1.651 2.268-2.858-.992.592-2.102 1.021-3.275 1.255-.943-1.006-2.287-1.633-3.773-1.633-2.852 0-5.162 2.312-5.162 5.166 0 .402.043.798.129 1.179-4.291-.219-8.1-2.275-10.646-5.396-.443.76-.697 1.649-.697 2.596 0 1.793.912 3.372 2.301 4.3-.85-.027-1.646-.259-2.344-.646v.063c0 2.503 1.779 4.591 4.143 5.068-.436.117-.889.179-1.357.179-.334 0-.658-.03-.975-.09.658 2.05 2.566 3.546 4.826 3.586-1.77 1.385-3.996 2.21-6.414 2.21-.418 0-.83-.021-1.234-.07 2.289 1.465 5.002 2.322 7.918 2.322 9.506 0 14.699-7.873 14.699-14.699 0-.225-.004-.447-.016-.668 1.008-.73 1.885-1.642 2.576-2.679z"/><path fill="#3D4154" d="M122.943 1649.65c0 .646-.525 1.172-1.176 1.172h-18.18c-.646 0-1.174-.526-1.174-1.172v-18.18c0-.646.527-1.173 1.174-1.173h18.18c.648 0 1.176.528 1.176 1.173v18.18z"/><path fill="#fff" d="M114.145 1649.358v-7.546h-1.994v-2.718h1.994v-2.319c0-1.825 1.18-3.499 3.895-3.499 1.102 0 1.912.104 1.912.104l-.062 2.537-1.734-.004c-.979 0-1.135.448-1.135 1.197v1.984h2.947l-.131 2.717h-2.816v7.547h-2.876z"/><g fill="#3D4154"><path d="M273.123 1640.308c0 2.526-2.049 4.575-4.574 4.575s-4.576-2.048-4.576-4.575c0-.57.111-1.114.303-1.62h-5.608v6.814c0 2.73 2.213 4.941 4.938 4.941h9.886c2.729 0 4.942-2.21 4.942-4.941v-6.814h-5.608c.188.501.297 1.049.297 1.62z"/><circle cx="268.549" cy="1640.309" r="2.745"/><path d="M273.488 1630.677h-9.621v5.154h-1.08v-5.079c-.375.062-.74.162-1.08.307v4.772h-1.082v-4.146c-1.188.902-1.959 2.323-1.959 3.936v1.448h6.656c.828-.825 1.969-1.334 3.227-1.334 1.262 0 2.396.509 3.227 1.334h6.658v-1.448c0-2.731-2.215-4.944-4.946-4.944zm2.209 4.674c0 .307-.248.557-.557.557h-1.666c-.306 0-.556-.25-.556-.557v-1.666c0-.305.25-.557.556-.557h1.666c.309 0 .557.251.557.557v1.666z"/></g><path fill="#3D4154" d="M189.299 1646.158c-.193.269-.373.401-.547.401-.113 0-.182-.066-.203-.2l-.008-.334v-3.502h-.861v3.761c0 .337.031.562.08.708.084.238.275.353.553.353.314 0 .644-.19.986-.583v.519h.861v-4.757h-.861v3.634z"/><polygon fill="#3D4154" points="184.549,1641.794 185.562,1641.794 185.562,1647.279 186.52,1647.279 186.52,1641.794 187.555,1641.794 187.555,1640.895 184.549,1640.895"/><path fill="#3D4154" d="M192.658 1642.463c-.316 0-.613.173-.891.518v-2.087h-.861v6.387h.861v-.464c.284.358.584.527.891.527.342 0 .572-.181.689-.535.057-.201.086-.518.086-.957v-1.895c0-.45-.029-.764-.086-.955-.117-.357-.347-.539-.689-.539zm-.086 3.454c0 .433-.127.643-.375.643-.146 0-.283-.066-.43-.21v-2.901c.146-.142.285-.207.43-.207.248 0 .375.219.375.647v2.028z"/><path fill="#3D4154" d="M190.42 1637.633c.281 0 .416-.223.416-.667v-2.022c0-.444-.135-.667-.416-.667s-.414.223-.414.667v2.022c0 .445.133.667.414.667z"/><path fill="#3D4154" d="M198.621 1630.677h-15.996c-1.082 0-1.963.879-1.963 1.963l-.01 15.839c0 1.084.881 1.964 1.961 1.964h15.994c1.086 0 1.967-.88 1.967-1.964l.008-15.839c0-1.084-.877-1.963-1.961-1.963zm-6.197 2.875h.867v3.538l.01.338c.021.137.088.205.207.205.17 0 .355-.134.549-.409v-3.671h.873v4.805h-.873v-.522c-.344.397-.676.59-.996.59-.274 0-.471-.114-.559-.356-.047-.145-.078-.375-.078-.715v-3.803zm-3.291 1.566c0-.515.088-.89.273-1.132.24-.329.582-.493 1.014-.493.436 0 .773.164 1.016.493.183.244.271.618.271 1.132v1.685c0 .51-.09.891-.271 1.131-.24.326-.58.49-1.016.49-.432 0-.771-.164-1.014-.49-.186-.241-.273-.622-.273-1.131v-1.685zm-2.33-3.213l.688 2.532.655-2.532h.979l-1.16 3.84v2.612h-.967v-2.612c-.088-.465-.281-1.144-.592-2.041l-.617-1.8 1.014.001zm10.699 15.659c-.176.759-.795 1.316-1.543 1.402-1.768.197-3.562.201-5.34.197-1.783.004-3.574 0-5.342-.197-.746-.086-1.367-.645-1.543-1.402-.248-1.079-.248-2.261-.248-3.371 0-1.112.002-2.291.252-3.371.174-.756.795-1.319 1.541-1.399 1.768-.201 3.559-.201 5.342-.201s3.57 0 5.34.201c.75.08 1.367.644 1.543 1.399.248 1.08.248 2.259.248 3.371 0 1.111-.004 2.292-.25 3.371z"/><path fill="#3D4154" d="M195.404 1642.463c-.439 0-.785.161-1.033.491-.182.24-.266.61-.266 1.119v1.665c0 .506.094.883.276 1.119.246.324.591.486 1.043.486.447 0 .804-.169 1.041-.514.106-.154.17-.326.201-.517.006-.087.019-.279.019-.557v-.124h-.881c0 .346-.009.538-.021.583-.05.231-.171.345-.384.345-.295 0-.438-.218-.438-.659v-.844h1.721v-.983c0-.508-.084-.879-.266-1.119-.236-.329-.582-.491-1.012-.491zm.42 1.876h-.859v-.438c0-.441.145-.66.432-.66.285 0 .431.219.431.66v.438h-.004z"/><g fill="#030303"><path d="M148.4 2055.922c-3.531-.338-6.697-1.906-9.074-4.279-2.689-2.691-4.352-6.399-4.352-10.511 0-4.106 1.66-7.812 4.352-10.506 2.371-2.367 5.527-3.934 9.051-4.276l-.002-2.207c-8.742.741-15.605 8.055-15.605 16.989 0 8.948 6.881 16.271 15.635 16.997l-.005-2.207zM151.375 2024.146l.002 2.209c3.49.359 6.613 1.923 8.963 4.271 2.691 2.691 4.354 6.397 4.354 10.506 0 4.11-1.657 7.818-4.354 10.511-2.344 2.345-5.459 3.902-8.938 4.269l.002 2.212c8.688-.793 15.494-8.089 15.494-16.99 0-8.908-6.82-16.208-15.523-16.988z"/></g></g></svg>